<svg width="368" height="320" viewBox="0 0 368 320" fill="none" xmlns="http://www.w3.org/2000/svg">
<g clip-path="url(#clip0_679_69895)">
<path d="M61.6221 111.398C60.7652 111.484 59.903 111.505 59.043 111.458C58.8964 111.442 58.7494 111.484 58.6336 111.576C58.5178 111.667 58.4425 111.801 58.4239 111.947L56.7787 124.311C56.6522 125.208 56.2854 126.055 55.7174 126.76C55.2491 127.322 54.9009 127.973 54.6946 128.675C54.4883 129.377 54.4282 130.114 54.518 130.84V151.842C54.518 151.842 54.4119 154.642 56.5594 154.642C59.1296 154.965 61.7301 154.965 64.3003 154.642C64.3003 154.642 66.0197 154.316 66.0197 151.732V131.053C66.1509 130.331 66.1239 129.59 65.9406 128.88C65.7574 128.17 65.4222 127.508 64.9584 126.941C64.4094 126.233 64.0545 125.393 63.9289 124.506L62.22 111.884C62.2006 111.742 62.128 111.612 62.017 111.522C61.9059 111.432 61.7647 111.388 61.6221 111.398Z" fill="white"/>
<path d="M60.4227 155.238C59.1237 155.238 57.826 155.157 56.537 154.996C56.249 155.003 55.9627 154.95 55.696 154.841C55.4294 154.731 55.1883 154.568 54.9877 154.361C54.1137 153.451 54.1623 151.894 54.1649 151.828L54.1646 130.861C54.0734 130.091 54.14 129.309 54.3604 128.565C54.5808 127.821 54.9502 127.129 55.4462 126.533C55.9721 125.878 56.3116 125.093 56.4288 124.261L58.0736 111.9C58.1056 111.663 58.2288 111.447 58.417 111.298C58.6052 111.15 58.8437 111.081 59.0818 111.106C59.9172 111.15 60.7548 111.13 61.5871 111.045L61.597 111.044C61.8293 111.028 62.0592 111.1 62.2402 111.247C62.4211 111.394 62.5394 111.604 62.5709 111.835L64.2799 124.458C64.3973 125.284 64.7276 126.065 65.2381 126.723C65.7298 127.325 66.0859 128.027 66.2819 128.779C66.478 129.532 66.5094 130.318 66.3739 131.084V151.732C66.3739 154.576 64.3866 154.986 64.3665 154.99C63.0584 155.155 61.7412 155.238 60.4227 155.238ZM58.9953 111.811C58.9427 111.808 58.891 111.825 58.8503 111.859C58.8097 111.892 58.7829 111.94 58.7752 111.992L57.1298 124.358C56.9945 125.319 56.6017 126.227 55.9931 126.983C55.5557 127.508 55.2303 128.117 55.037 128.773C54.8438 129.429 54.7868 130.117 54.8695 130.796L54.8722 130.84V151.841C54.8715 151.868 54.8339 153.181 55.499 153.871C55.6366 154.011 55.8022 154.121 55.985 154.192C56.1678 154.264 56.3637 154.297 56.5598 154.287L56.6039 154.29C59.1449 154.61 61.7157 154.61 64.2566 154.29C64.2902 154.282 65.6664 153.967 65.6664 151.732L65.6721 130.989C65.7946 130.318 65.7697 129.629 65.5993 128.968C65.4288 128.308 65.1169 127.693 64.6851 127.165C64.0957 126.407 63.7144 125.507 63.5791 124.555L61.8699 111.931C61.8624 111.879 61.8359 111.832 61.7955 111.799C61.7552 111.766 61.704 111.749 61.6518 111.751C60.7788 111.839 59.9005 111.859 59.0244 111.812C59.0148 111.811 59.005 111.811 58.9953 111.811Z" fill="#3F3D56"/>
<path d="M59.0256 131.216H61.633C62.6699 131.216 63.6642 131.628 64.3974 132.363C65.1305 133.098 65.5424 134.094 65.5424 135.133V144.962C65.5424 146 65.1305 146.997 64.3974 147.731C63.6642 148.466 62.6699 148.878 61.633 148.878H59.0256C57.9888 148.878 56.9944 148.466 56.2612 147.731C55.5281 146.997 55.1162 146 55.1162 144.962V135.133C55.1162 134.618 55.2173 134.109 55.4138 133.634C55.6103 133.158 55.8982 132.727 56.2612 132.363C56.6243 131.999 57.0552 131.711 57.5295 131.514C58.0038 131.317 58.5122 131.216 59.0256 131.216Z" fill="#FF730E"/>
<path d="M11.0894 311.744H19.5902L23.6344 278.893L11.0879 278.894L11.0894 311.744Z" fill="#9F616A"/>
<path d="M8.9209 308.964L25.6621 308.963H25.6628C28.4923 308.963 31.2058 310.089 33.2066 312.094C35.2073 314.098 36.3314 316.817 36.3316 319.652V319.999L8.9214 320L8.9209 308.964Z" fill="#2F2E41"/>
<path d="M5.7452 194.409C5.7452 194.409 2.061 198.582 8.16147 214.846L7.08693 304.028L26.8567 303.642L31.2023 260.139L39.1143 196.657L5.7452 194.409Z" fill="#2F2E41"/>
<path d="M45.8943 206.739L45.6779 206.706C20.3869 202.841 1.30191 199.137 1.11208 199.1L0.875 199.054L7.50483 182.898C7.45246 181.21 6.01733 133.803 8.76463 120.183C11.4242 106.998 23.9604 104.837 25.389 104.634L26.8234 99.8721L44.9456 109.32L48.1063 120.218L48.7483 150.088L45.8943 206.739Z" fill="#032E58"/>
<path d="M56.8092 145.26C55.9931 145.26 55.1858 145.429 54.4381 145.757C53.6904 146.084 53.0185 146.563 52.4646 147.164H22.0042L10.8467 149.543L12.6786 163.699L52.3689 155.147C53.0261 155.891 53.8586 156.457 54.7906 156.796C55.7226 157.134 56.7243 157.233 57.7042 157.084C58.6842 156.934 59.6112 156.541 60.4006 155.941C61.1901 155.34 61.8167 154.551 62.2235 153.645C62.6302 152.74 62.804 151.746 62.7291 150.756C62.6541 149.766 62.3327 148.81 61.7943 147.976C61.2559 147.142 60.5176 146.457 59.6468 145.983C58.776 145.508 57.8005 145.26 56.8092 145.26Z" fill="#9F616A"/>
<path d="M57.0736 94.5209C60.9625 87.3934 58.348 78.4569 51.2339 74.5606C44.1197 70.6643 35.2 73.2838 31.3111 80.4113C27.4221 87.5389 30.0367 96.4754 37.1508 100.372C44.2649 104.268 53.1847 101.648 57.0736 94.5209Z" fill="#9F616A"/>
<path d="M30.3846 75.7077L29.6729 74.2725L33.254 72.49C33.254 72.49 37.2045 66.05 44.353 67.8598C51.5015 69.6695 54.7178 70.7527 54.7178 70.7527L58.2898 72.5534L56.497 74.3405L59.7132 75.4236L57.5645 76.4931L60.0645 77.9328L58.7187 85.3129C58.7187 85.3129 56.4835 79.7154 52.1862 81.8545C47.889 83.9935 40.0287 80.7487 40.0287 80.7487L33.1998 93.9896C33.1998 93.9896 31.791 89.348 29.2792 90.5857C29.2792 90.5857 22.8622 80.3469 30.3846 75.7077Z" fill="#2F2E41"/>
<path d="M12.8739 166.353L9.39045 155.971L8.54785 121.366L10.0321 116.457C10.5663 114.689 11.4511 113.048 12.6335 111.632C13.8159 110.216 15.2715 109.053 16.9131 108.214C18.5547 107.375 20.3485 106.876 22.187 106.748C24.0255 106.62 25.8709 106.866 27.6126 107.469C29.3542 108.073 30.9563 109.023 32.3228 110.262C33.6893 111.501 34.7921 113.003 35.5651 114.679C36.3381 116.355 36.7654 118.171 36.8214 120.016C36.8774 121.862 36.5609 123.7 35.8909 125.42L27.9356 145.844L28.34 146.63L45.5751 146.49L51.6972 157.531L12.8739 166.353Z" fill="#032E58"/>
<path d="M185.313 162.087C185.956 161.653 186.497 161.083 186.896 160.417C187.296 159.751 187.545 159.006 187.625 158.233C187.706 157.46 187.617 156.679 187.364 155.945C187.111 155.21 186.7 154.54 186.161 153.982L194.656 137.123L184.925 138.253L178.35 154.09C177.474 155.06 176.984 156.319 176.972 157.627C176.96 158.935 177.428 160.202 178.286 161.187C179.144 162.173 180.334 162.809 181.629 162.975C182.924 163.141 184.235 162.825 185.313 162.087Z" fill="#FFB7B7"/>
<path d="M253.445 281.512L245.789 281.512L242.146 251.924L253.446 251.925L253.445 281.512Z" fill="#FFB7B7"/>
<path d="M255.398 288.947L230.711 288.947V288.634C230.711 286.08 231.724 283.632 233.526 281.827C235.328 280.021 237.771 279.007 240.32 279.007H240.32L255.399 279.007L255.398 288.947Z" fill="#2F2E41"/>
<path d="M211.603 281.512L203.947 281.512L200.305 251.924L211.605 251.925L211.603 281.512Z" fill="#FFB7B7"/>
<path d="M211.683 288.947L186.996 288.947V288.634C186.996 286.08 188.009 283.632 189.811 281.827C191.613 280.021 194.057 279.007 196.605 279.007H196.606L211.684 279.007L211.683 288.947Z" fill="#2F2E41"/>
<path d="M210.977 156.55L203.483 173.847L197.301 273.268L212.913 272.642L217.177 225.248L230.331 183.035L237.893 230.095L241.016 271.39L253.935 271.951L259.083 156.55H210.977Z" fill="#2F2E41"/>
<path d="M248.437 71.1973L226.716 71.7416L213.965 78.3003L213.265 126.689L205.312 160.097C205.312 160.097 255.004 163.524 261.873 158.518L253.755 120.352L264.644 79.1046L248.437 71.1973Z" fill="#0A645E"/>
<path d="M217.318 79.1025L215.297 77.7344C215.297 77.7344 206.92 80.2498 204.444 91.4407C204.444 91.4407 202.549 97.0552 201.718 100.915C200.764 105.343 179.709 146.012 179.709 146.012L192.315 149.635L215.427 112.189L217.318 79.1025Z" fill="#0A645E"/>
<path d="M264.304 168.292C263.805 167.697 263.442 167 263.242 166.25C263.041 165.499 263.007 164.714 263.142 163.949C263.277 163.183 263.578 162.457 264.023 161.821C264.469 161.185 265.048 160.655 265.72 160.267L262.194 141.714L271.236 145.49L273.198 162.529C273.773 163.704 273.898 165.049 273.549 166.309C273.2 167.57 272.402 168.658 271.306 169.369C270.21 170.079 268.891 170.362 267.601 170.163C266.31 169.965 265.137 169.299 264.304 168.292Z" fill="#FFB7B7"/>
<path d="M261.376 79.6822L263.696 78.9258C263.696 78.9258 271.056 83.658 270.356 95.099C270.356 95.099 270.631 101.019 270.368 104.959C270.066 109.479 274.115 154.388 274.115 154.388H261L255.38 113.719L261.376 79.6822Z" fill="#0A645E"/>
<path d="M253.769 50.8962C253.769 53.8798 252.886 56.7963 251.231 59.2771C249.577 61.7578 247.225 63.6913 244.474 64.8331C241.723 65.9748 238.695 66.2736 235.775 65.6915C232.854 65.1094 230.171 63.6727 228.065 61.563C225.96 59.4533 224.526 56.7654 223.945 53.8392C223.364 50.913 223.662 47.8798 224.801 45.1234C225.941 42.3669 227.871 40.011 230.347 38.3534C232.823 36.6958 235.734 35.8111 238.712 35.8111C242.695 35.8011 246.52 37.3769 249.343 40.1918C252.167 43.0068 253.759 46.8302 253.769 50.8211C253.769 50.8461 253.769 50.8712 253.769 50.8962Z" fill="#FFB7B7"/>
<path d="M223.706 30.6343C225.47 26.8344 228.883 27.5857 231.868 28.8737C235.648 28.0336 239.244 25.5185 243.317 27.0059C247.329 32.8523 260.799 31.1322 257.934 40.6502C257.93 42.931 262.217 41.6034 261.469 45.3387C263.74 52.5273 253.271 66.1413 247.261 63.2744C248.747 60.5452 252.143 54.3462 246.993 53.7314C235.915 64.0586 245.85 34.066 231.93 42.7883C227.322 47.0141 221.012 34.8611 223.706 30.6343Z" fill="#2F2E41"/>
<path d="M266.939 169.796C267.656 169.941 268.396 169.926 269.107 169.753C269.818 169.58 270.482 169.253 271.053 168.795C271.624 168.336 272.088 167.759 272.412 167.101C272.736 166.444 272.912 165.724 272.928 164.991L310.734 129.34L302.228 122.542L267.676 159.813C266.446 159.868 265.278 160.373 264.394 161.233C263.511 162.092 262.973 163.246 262.882 164.477C262.791 165.708 263.154 166.929 263.902 167.909C264.65 168.89 265.73 169.561 266.939 169.796Z" fill="#9F616A"/>
<path d="M305.377 135.103L298.022 126.467C297.813 126.221 297.659 125.933 297.571 125.622C297.483 125.312 297.462 124.986 297.511 124.666C297.56 124.347 297.677 124.042 297.855 123.772C298.032 123.502 298.265 123.274 298.538 123.103L308.114 117.097C309.375 116.031 311.006 115.51 312.65 115.647C314.294 115.785 315.816 116.57 316.884 117.83C317.951 119.09 318.475 120.723 318.342 122.371C318.21 124.018 317.43 125.546 316.175 126.618L308.775 135.121C308.563 135.365 308.301 135.56 308.007 135.692C307.713 135.825 307.394 135.893 307.072 135.891C306.749 135.89 306.431 135.818 306.139 135.682C305.846 135.546 305.587 135.348 305.377 135.103Z" fill="#D15800"/>
<path d="M285.598 311.023L276.355 311.022L271.957 275.302L285.6 275.302L285.598 311.023Z" fill="#9F616A"/>
<path d="M287.956 320L258.15 319.999V319.621C258.151 316.539 259.373 313.583 261.549 311.403C263.724 309.223 266.675 307.999 269.751 307.999H269.752L287.956 307.999L287.956 320Z" fill="#2F2E41"/>
<path d="M359.488 311.023L350.244 311.022L345.847 275.302L359.49 275.302L359.488 311.023Z" fill="#9F616A"/>
<path d="M361.845 320L332.04 319.999V319.621C332.04 316.539 333.263 313.583 335.438 311.403C337.614 309.223 340.564 307.999 343.641 307.999H343.642L361.846 307.999L361.845 320Z" fill="#2F2E41"/>
<path d="M334.624 154.038L343.942 119.548L331.854 112.741H314.982L308.419 119.775C308.419 119.775 297.456 127.418 300.109 135.886L304.39 155.173L297.843 185.805L264.854 231.64L257.045 276.662L287.785 284.736L321.026 219.16L337.142 291.77L367.125 290.259L356.794 202.22C356.794 202.22 353.848 175.4 338.41 158.654L334.624 154.038Z" fill="#032E58"/>
<path d="M353.866 184.554C354.386 184.038 354.786 183.414 355.039 182.727C355.292 182.039 355.392 181.304 355.331 180.574C355.269 179.844 355.049 179.136 354.685 178.5C354.322 177.864 353.823 177.316 353.225 176.894L345.996 128.029L335.619 131.312L346.006 178.374C345.365 179.427 345.133 180.68 345.352 181.894C345.571 183.108 346.227 184.2 347.196 184.961C348.165 185.723 349.379 186.103 350.609 186.027C351.838 185.952 352.997 185.428 353.866 184.554Z" fill="#9F616A"/>
<path d="M347.783 135.698L336.526 136.999C336.206 137.036 335.881 137.003 335.575 136.903C335.268 136.803 334.987 136.638 334.749 136.419C334.512 136.201 334.325 135.933 334.2 135.635C334.075 135.338 334.016 135.016 334.027 134.693L334.391 123.381C334.212 121.738 334.69 120.091 335.72 118.801C336.751 117.511 338.25 116.683 339.889 116.498C341.529 116.314 343.174 116.788 344.465 117.817C345.755 118.846 346.586 120.346 346.775 121.987L349.693 132.884C349.776 133.196 349.792 133.522 349.738 133.84C349.684 134.159 349.562 134.462 349.381 134.729C349.2 134.996 348.963 135.221 348.687 135.388C348.411 135.556 348.103 135.661 347.783 135.698Z" fill="#D15800"/>
<path d="M304.55 102.933V88.401C304.55 83.2365 306.598 78.2835 310.243 74.6317C313.887 70.9798 318.831 68.9282 323.986 68.9282C329.141 68.9282 334.084 70.9798 337.729 74.6317C341.374 78.2835 343.422 83.2365 343.422 88.401V102.933C343.421 103.626 343.146 104.291 342.657 104.782C342.167 105.272 341.503 105.548 340.811 105.549H307.161C306.468 105.548 305.805 105.272 305.315 104.782C304.826 104.291 304.551 103.626 304.55 102.933Z" fill="#2F2E41"/>
<path d="M326.827 103.461C333.733 99.6787 336.271 91.0042 332.496 84.0856C328.721 77.167 320.063 74.6244 313.157 78.4064C306.251 82.1884 303.714 90.863 307.488 97.7816C311.263 104.7 319.922 107.243 326.827 103.461Z" fill="#9F616A"/>
<path d="M299.951 89.5635C299.956 85.4795 301.577 81.5642 304.459 78.6764C307.342 75.7887 311.25 74.1643 315.326 74.1597H318.227C322.303 74.1643 326.211 75.7887 329.094 78.6765C331.976 81.5642 333.597 85.4796 333.602 89.5635V89.8541H327.471L325.38 83.988L324.962 89.8541H321.794L320.739 86.8944L320.528 89.8541H299.951V89.5635Z" fill="#2F2E41"/>
<path d="M318.59 107.183C318.302 106.793 318.13 106.329 318.094 105.844C318.058 105.36 318.159 104.876 318.386 104.447C321.46 98.5887 325.764 87.7641 320.051 81.0885L319.64 80.6089H336.226V105.557L321.159 108.221C321.006 108.248 320.852 108.261 320.697 108.262C320.286 108.262 319.88 108.164 319.514 107.976C319.148 107.789 318.831 107.517 318.59 107.183Z" fill="#2F2E41"/>
<path d="M166.142 120.468C165.932 120.684 165.739 120.917 165.566 121.164L138.541 120.502L135.388 114.73L126.072 118.358L130.662 129.12C131.033 129.989 131.675 130.714 132.493 131.187C133.31 131.659 134.258 131.854 135.195 131.74L165.728 128.045C166.448 128.958 167.429 129.631 168.54 129.972C169.65 130.313 170.839 130.308 171.946 129.956C173.054 129.605 174.028 128.923 174.74 128.003C175.452 127.083 175.867 125.968 175.931 124.805C175.995 123.643 175.703 122.489 175.096 121.496C174.489 120.504 173.595 119.72 172.532 119.249C171.47 118.778 170.289 118.642 169.148 118.86C168.006 119.078 166.958 119.638 166.142 120.468Z" fill="#FFB7B7"/>
<path d="M78.0474 284.898H86.9332L91.1603 250.56L78.0459 250.561L78.0474 284.898Z" fill="#FFB7B7"/>
<path d="M75.7803 281.992L93.2796 281.991H93.2803C96.2379 281.991 99.0744 283.169 101.166 285.264C103.257 287.359 104.432 290.201 104.432 293.164V293.527L75.7808 293.528L75.7803 281.992Z" fill="#2F2E41"/>
<path d="M158.733 284.7L166.905 281.203L157.328 247.961L145.269 253.123L158.733 284.7Z" fill="#FFB7B7"/>
<path d="M155.509 282.919L171.601 276.032L171.602 276.031C174.322 274.867 177.392 274.834 180.136 275.937C182.881 277.041 185.076 279.192 186.238 281.917L186.38 282.251L160.032 293.528L155.509 282.919Z" fill="#2F2E41"/>
<path d="M121.238 127.906L121.88 138.338L103.098 140.352L83.4453 142.459L89.2297 126.619L121.238 127.906Z" fill="#FFB7B7"/>
<path d="M121.897 131.649C121.684 131.566 100.47 123.298 87.4393 130.058L87.1189 130.225L84.5194 117.405L83.0381 89.8439L92.6767 85.2809L95.3305 79.3251L113.407 78.2534L117.121 83.3572L129.768 87.5098L122.21 131.773L121.897 131.649Z" fill="#CB4242"/>
<path d="M122.562 106.772L124.798 89.1706L129.889 87.6182L129.975 87.6499C130.093 87.6931 132.859 88.7541 133.617 92.5918C134.344 96.2754 139.819 119.198 139.874 119.429L139.929 119.659L127.065 124.815L122.562 106.772Z" fill="#CB4242"/>
<path d="M152.115 278.665L169.239 275.146L141.87 199.483L132.503 173.675C132.503 173.675 126.561 152.982 123.877 144.975L122.257 134.23L83.9113 138.482C83.9113 138.482 73.2013 154.241 76.455 179.926L74.9834 276.466L92.1074 277.346L106.451 179.98L131.624 233.355C131.624 233.355 139.559 256.132 145.236 261.069L152.115 278.665Z" fill="#2F2E41"/>
<path d="M99.2896 142.066C98.988 142.059 98.6864 142.076 98.3875 142.116L80.4982 121.811L82.5792 115.571L73.5893 111.193L68.8338 121.882C68.4496 122.746 68.3554 123.711 68.5653 124.633C68.7751 125.554 69.2778 126.383 69.9977 126.994L93.4617 146.913C93.2828 148.063 93.4576 149.241 93.963 150.289C94.4683 151.338 95.2803 152.207 96.2907 152.781C97.3012 153.356 98.4624 153.609 99.6198 153.506C100.777 153.404 101.876 152.95 102.77 152.207C103.664 151.463 104.311 150.465 104.625 149.344C104.938 148.223 104.904 147.033 104.526 145.932C104.148 144.831 103.445 143.872 102.509 143.181C101.574 142.49 100.451 142.102 99.2896 142.066Z" fill="#FFB7B7"/>
<path d="M71.9697 114.201L78.9633 94.2432C79.7493 91.8905 80.7342 90.4612 81.8908 89.9948C82.1186 89.8921 82.3652 89.8379 82.615 89.8355C82.8648 89.8332 83.1124 89.8828 83.3421 89.9812L86.4781 93.9506L89.3886 106.201L81.9262 123.787L71.9697 114.201Z" fill="#CB4242"/>
<path d="M118.261 74.1235H87.5588C86.9273 74.1228 86.3218 73.8711 85.8752 73.4237C85.4287 72.9763 85.1775 72.3697 85.1768 71.7369V58.4784C85.1768 53.7664 87.0451 49.2474 90.3706 45.9156C93.6962 42.5837 98.2067 40.7119 102.91 40.7119C107.613 40.7119 112.123 42.5837 115.449 45.9156C118.775 49.2474 120.643 53.7664 120.643 58.4784V71.7369C120.642 72.3697 120.391 72.9763 119.944 73.4237C119.498 73.8711 118.892 74.1228 118.261 74.1235Z" fill="#2F2E41"/>
<path d="M106.554 73.8147C113.734 73.8147 119.555 67.9829 119.555 60.7889C119.555 53.595 113.734 47.7632 106.554 47.7632C99.3736 47.7632 93.5527 53.595 93.5527 60.7889C93.5527 67.9829 99.3736 73.8147 106.554 73.8147Z" fill="#FFB7B7"/>
<path d="M124.838 59.8041H106.064L105.872 57.1037L104.909 59.8041H102.018L101.637 54.452L99.7291 59.8041H94.1357V59.5389C94.1399 55.8129 95.6191 52.2406 98.2489 49.6059C100.879 46.9711 104.444 45.4891 108.163 45.4849H110.81C114.529 45.4891 118.095 46.9711 120.725 49.6058C123.354 52.2406 124.834 55.8128 124.838 59.5389L124.838 59.8041Z" fill="#2F2E41"/>
<path d="M105.911 76.5983C105.769 76.5981 105.628 76.5856 105.489 76.561L91.7422 74.1309V51.3687H106.875L106.5 51.8063C101.288 57.8969 105.215 67.773 108.019 73.1179C108.226 73.5093 108.318 73.9513 108.285 74.393C108.252 74.8346 108.096 75.2579 107.833 75.6142C107.613 75.9189 107.324 76.1669 106.99 76.338C106.656 76.509 106.286 76.5982 105.911 76.5983Z" fill="#2F2E41"/>
<path d="M270.582 131.312C269.725 131.398 268.863 131.418 268.003 131.372C267.856 131.356 267.709 131.398 267.594 131.489C267.478 131.581 267.402 131.714 267.384 131.861L265.739 144.224C265.612 145.122 265.245 145.968 264.677 146.674C264.209 147.235 263.861 147.887 263.655 148.589C263.448 149.291 263.388 150.027 263.478 150.754V171.755C263.478 171.755 263.372 174.555 265.519 174.555C268.09 174.879 270.69 174.879 273.26 174.555C273.26 174.555 274.98 174.229 274.98 171.645V150.966C275.111 150.245 275.084 149.503 274.901 148.793C274.717 148.083 274.382 147.422 273.918 146.854C273.369 146.146 273.014 145.307 272.889 144.419L271.18 131.797C271.161 131.655 271.088 131.526 270.977 131.436C270.866 131.346 270.725 131.301 270.582 131.312Z" fill="white"/>
<path d="M269.382 175.152C268.083 175.152 266.785 175.071 265.496 174.91C265.208 174.916 264.922 174.864 264.655 174.754C264.388 174.645 264.147 174.481 263.947 174.274C263.073 173.365 263.121 171.807 263.124 171.742L263.124 150.775C263.032 150.004 263.099 149.223 263.319 148.478C263.54 147.734 263.909 147.043 264.405 146.446C264.931 145.792 265.271 145.007 265.388 144.175L267.033 131.814C267.065 131.576 267.188 131.36 267.376 131.212C267.564 131.064 267.803 130.995 268.041 131.019C268.876 131.064 269.714 131.043 270.546 130.959L270.556 130.958C270.788 130.941 271.018 131.013 271.199 131.16C271.38 131.307 271.498 131.518 271.53 131.749L273.239 144.372C273.356 145.197 273.687 145.978 274.197 146.637C274.689 147.239 275.045 147.94 275.241 148.693C275.437 149.445 275.468 150.232 275.333 150.998V171.645C275.333 174.49 273.346 174.9 273.326 174.904C272.017 175.069 270.7 175.152 269.382 175.152ZM267.954 131.724C267.902 131.722 267.85 131.739 267.809 131.772C267.769 131.806 267.742 131.853 267.734 131.906L266.089 144.271C265.953 145.233 265.561 146.14 264.952 146.896C264.515 147.421 264.189 148.031 263.996 148.686C263.803 149.342 263.746 150.031 263.829 150.71L263.831 150.753V171.755C263.831 171.781 263.793 173.094 264.458 173.784C264.596 173.925 264.761 174.034 264.944 174.106C265.127 174.178 265.323 174.21 265.519 174.201L265.563 174.204C268.104 174.523 270.675 174.523 273.216 174.204C273.249 174.195 274.625 173.881 274.625 171.645L274.631 150.903C274.754 150.232 274.729 149.542 274.558 148.882C274.388 148.222 274.076 147.606 273.644 147.079C273.055 146.32 272.673 145.421 272.538 144.469L270.829 131.845C270.821 131.793 270.795 131.746 270.755 131.712C270.714 131.679 270.663 131.662 270.611 131.665C269.738 131.752 268.859 131.773 267.983 131.726C267.974 131.725 267.964 131.724 267.954 131.724Z" fill="#3F3D56"/>
<path d="M267.985 151.129H270.592C271.629 151.129 272.623 151.542 273.356 152.277C274.09 153.011 274.501 154.007 274.501 155.046V164.875C274.501 165.914 274.089 166.91 273.356 167.645C272.623 168.379 271.629 168.792 270.592 168.792H267.985C266.948 168.792 265.953 168.379 265.22 167.645C264.487 166.91 264.075 165.914 264.075 164.875V155.046C264.075 154.007 264.487 153.011 265.22 152.277C265.953 151.542 266.948 151.129 267.985 151.129Z" fill="#FF730E"/>
<path d="M182.099 114.283C181.242 114.37 180.38 114.39 179.52 114.343C179.373 114.327 179.226 114.37 179.11 114.461C178.994 114.553 178.919 114.686 178.9 114.833L177.255 127.196C177.129 128.094 176.762 128.94 176.194 129.645C175.726 130.207 175.378 130.859 175.171 131.56C174.965 132.262 174.905 132.999 174.995 133.725V154.727C174.995 154.727 174.888 157.527 177.036 157.527C179.606 157.851 182.207 157.851 184.777 157.527C184.777 157.527 186.496 157.201 186.496 154.617V133.938C186.627 133.216 186.6 132.475 186.417 131.765C186.234 131.055 185.899 130.393 185.435 129.826C184.886 129.118 184.531 128.279 184.405 127.391L182.697 114.769C182.677 114.627 182.605 114.498 182.494 114.408C182.382 114.317 182.241 114.273 182.099 114.283Z" fill="white"/>
<path d="M180.899 158.123C179.6 158.124 178.303 158.043 177.014 157.881C176.726 157.888 176.439 157.835 176.173 157.726C175.906 157.617 175.665 157.453 175.464 157.246C174.59 156.337 174.639 154.779 174.641 154.713L174.641 133.747C174.55 132.976 174.617 132.194 174.837 131.45C175.057 130.706 175.427 130.015 175.923 129.418C176.449 128.763 176.788 127.979 176.905 127.147L178.55 114.786C178.582 114.548 178.705 114.332 178.894 114.184C179.082 114.035 179.32 113.966 179.558 113.991C180.394 114.035 181.231 114.015 182.064 113.931L182.074 113.93C182.306 113.913 182.536 113.985 182.717 114.132C182.898 114.279 183.016 114.489 183.048 114.721L184.756 127.343C184.874 128.169 185.204 128.95 185.715 129.609C186.206 130.21 186.562 130.912 186.759 131.664C186.955 132.417 186.986 133.203 186.851 133.969V154.617C186.851 157.461 184.863 157.871 184.843 157.875C183.535 158.04 182.218 158.123 180.899 158.123ZM179.472 114.696C179.419 114.693 179.368 114.71 179.327 114.744C179.286 114.778 179.259 114.825 179.252 114.877L177.606 127.243C177.471 128.205 177.078 129.112 176.47 129.868C176.032 130.393 175.707 131.002 175.514 131.658C175.32 132.314 175.263 133.003 175.346 133.681L175.349 133.725V154.727C175.348 154.753 175.311 156.066 175.976 156.756C176.113 156.896 176.279 157.006 176.462 157.078C176.644 157.149 176.84 157.182 177.036 157.173L177.08 157.175C179.621 157.495 182.192 157.495 184.733 157.175C184.767 157.167 186.143 156.853 186.143 154.617L186.149 133.874C186.271 133.203 186.246 132.514 186.076 131.853C185.905 131.193 185.593 130.578 185.162 130.051C184.572 129.292 184.191 128.392 184.056 127.441L182.346 114.816C182.339 114.765 182.312 114.717 182.272 114.684C182.232 114.651 182.181 114.634 182.128 114.637C181.255 114.724 180.377 114.744 179.501 114.697C179.491 114.696 179.482 114.696 179.472 114.696Z" fill="#3F3D56"/>
<path d="M179.502 134.101H182.11C183.146 134.101 184.141 134.513 184.874 135.248C185.607 135.982 186.019 136.979 186.019 138.017V147.846C186.019 148.885 185.607 149.881 184.874 150.616C184.141 151.351 183.146 151.763 182.11 151.763H179.502C178.465 151.763 177.471 151.351 176.738 150.616C176.005 149.881 175.593 148.885 175.593 147.846V138.017C175.593 136.979 176.005 135.982 176.738 135.248C177.471 134.513 178.465 134.101 179.502 134.101Z" fill="#FF730E"/>
<path d="M167.102 96.2524C166.245 96.3389 165.382 96.3591 164.522 96.3127C164.376 96.2966 164.229 96.3389 164.113 96.4304C163.997 96.5219 163.922 96.6553 163.903 96.8018L162.258 109.165C162.132 110.063 161.765 110.909 161.197 111.615C160.729 112.176 160.38 112.828 160.174 113.53C159.968 114.232 159.908 114.968 159.997 115.694V136.696C159.997 136.696 159.891 139.496 162.039 139.496C164.609 139.82 167.21 139.82 169.78 139.496C169.78 139.496 171.499 139.17 171.499 136.586V115.907C171.63 115.186 171.603 114.444 171.42 113.734C171.237 113.024 170.902 112.363 170.438 111.795C169.889 111.087 169.534 110.248 169.408 109.36L167.7 96.7381C167.68 96.5962 167.608 96.467 167.496 96.3768C167.385 96.2866 167.244 96.2421 167.102 96.2524Z" fill="white"/>
<path d="M165.902 140.093C164.603 140.093 163.305 140.012 162.016 139.851C161.728 139.857 161.442 139.804 161.176 139.695C160.909 139.586 160.668 139.422 160.467 139.215C159.593 138.306 159.642 136.748 159.644 136.682L159.644 115.716C159.553 114.945 159.62 114.164 159.84 113.419C160.06 112.675 160.43 111.984 160.926 111.387C161.452 110.733 161.791 109.948 161.908 109.116L163.553 96.7549C163.585 96.5172 163.708 96.3013 163.897 96.1529C164.085 96.0046 164.323 95.9355 164.561 95.9603C165.397 96.0045 166.234 95.9842 167.067 95.8997L167.076 95.8989C167.309 95.882 167.539 95.9544 167.72 96.1013C167.901 96.2482 168.019 96.4587 168.05 96.6898L169.759 109.313C169.877 110.138 170.207 110.919 170.718 111.578C171.209 112.18 171.565 112.881 171.761 113.634C171.957 114.386 171.989 115.173 171.853 115.939V136.586C171.853 139.431 169.866 139.841 169.846 139.845C168.538 140.01 167.221 140.093 165.902 140.093ZM164.475 96.6651C164.422 96.6626 164.371 96.6797 164.33 96.7133C164.289 96.7468 164.262 96.7943 164.255 96.8465L162.609 109.212C162.474 110.174 162.081 111.081 161.473 111.837C161.035 112.362 160.71 112.971 160.517 113.627C160.323 114.283 160.266 114.972 160.349 115.651L160.352 115.694V136.696C160.351 136.722 160.313 138.035 160.979 138.725C161.116 138.866 161.282 138.975 161.465 139.047C161.647 139.119 161.843 139.151 162.039 139.142L162.083 139.145C164.624 139.464 167.195 139.464 169.736 139.145C169.77 139.136 171.146 138.822 171.146 136.586L171.152 115.844C171.274 115.173 171.249 114.483 171.079 113.823C170.908 113.162 170.596 112.547 170.165 112.02C169.575 111.261 169.194 110.362 169.059 109.41L167.349 96.7856C167.342 96.7338 167.315 96.6866 167.275 96.6534C167.235 96.6202 167.183 96.6032 167.131 96.6057C166.258 96.6932 165.38 96.7136 164.504 96.6667C164.494 96.6656 164.485 96.6651 164.475 96.6651Z" fill="#3F3D56"/>
<path d="M164.505 116.07H167.113C168.149 116.07 169.144 116.483 169.877 117.218C170.61 117.952 171.022 118.948 171.022 119.987V129.816C171.022 130.855 170.61 131.851 169.877 132.586C169.144 133.32 168.149 133.733 167.113 133.733H164.505C163.468 133.733 162.474 133.32 161.741 132.586C161.008 131.851 160.596 130.855 160.596 129.816V119.987C160.596 118.948 161.008 117.952 161.741 117.218C162.474 116.483 163.468 116.07 164.505 116.07Z" fill="#FF730E"/>
<path d="M28.9634 35.5598C35.8656 35.5598 41.4609 29.9539 41.4609 23.0387C41.4609 16.1235 35.8656 10.5176 28.9634 10.5176C22.0612 10.5176 16.4658 16.1235 16.4658 23.0387C16.4658 29.9539 22.0612 35.5598 28.9634 35.5598Z" fill="#C5DBF2"/>
<path d="M316.907 25.0422C323.809 25.0422 329.404 19.4363 329.404 12.5211C329.404 5.60589 323.809 0 316.907 0C310.005 0 304.409 5.60589 304.409 12.5211C304.409 19.4363 310.005 25.0422 316.907 25.0422Z" fill="#C5DBF2"/>
<path d="M173.935 56.5953C178.904 56.5953 182.933 52.5591 182.933 47.5801C182.933 42.6012 178.904 38.5649 173.935 38.5649C168.965 38.5649 164.937 42.6012 164.937 47.5801C164.937 52.5591 168.965 56.5953 173.935 56.5953Z" fill="#C5DBF2"/>
</g>
<defs>
<clipPath id="clip0_679_69895">
<rect width="366.25" height="320" fill="white" transform="translate(0.875)"/>
</clipPath>
</defs>
</svg>
