<svg width="404" height="320" viewBox="0 0 404 320" fill="none" xmlns="http://www.w3.org/2000/svg">
<g clip-path="url(#clip0_1889_56237)">
<path d="M253.953 291.651L247.856 291.651L244.955 268.045L253.955 268.046L253.953 291.651Z" fill="#9E616A"/>
<path d="M255.509 297.583L235.848 297.583V297.333C235.848 295.296 236.654 293.342 238.089 291.902C239.524 290.462 241.471 289.652 243.5 289.652H243.501L255.509 289.653L255.509 297.583Z" fill="#2F2E41"/>
<path d="M232.07 291.651L225.972 291.651L223.071 268.045L232.071 268.046L232.07 291.651Z" fill="#9E616A"/>
<path d="M233.624 297.583L213.963 297.583V297.333C213.963 295.296 214.769 293.342 216.204 291.902C217.64 290.462 219.586 289.652 221.615 289.652H221.616L233.624 289.653L233.624 297.583Z" fill="#2F2E41"/>
<path d="M161.054 126.244C161.541 126.917 162.17 127.474 162.895 127.877C163.62 128.279 164.424 128.517 165.251 128.574C166.077 128.631 166.906 128.505 167.679 128.206C168.452 127.906 169.151 127.44 169.725 126.841L181.79 131.569L186.442 124.911L169.31 118.474C168.242 117.572 166.882 117.095 165.487 117.133C164.093 117.171 162.761 117.721 161.743 118.678C160.725 119.636 160.093 120.936 159.966 122.33C159.839 123.724 160.226 125.117 161.054 126.244Z" fill="#9E616A"/>
<path d="M231.993 166.584L216.107 171.785L221.414 284.698L233.674 285.003L239.948 205.374L241.373 284.688L256.532 285.527L262.121 166.584H231.993Z" fill="#032E58"/>
<path d="M221.274 100.022L262.045 91.1309L266.578 126.366L262.803 143.201L264.315 168.787C264.315 168.787 232.077 184.891 216.106 171.783C216.106 171.783 228.943 137.944 221.502 122.103L221.274 100.022Z" fill="#C5DBF2"/>
<path d="M228.335 105.006L221.274 100.022C221.274 100.022 220.857 99.442 214.972 106.346C209.088 113.25 197.152 124.232 197.152 124.232L177.257 116.744L173.633 130.185L196.754 140.999L229.488 119.058L228.335 105.006Z" fill="#C5DBF2"/>
<path d="M264.323 181.996C265.073 181.641 265.735 181.125 266.264 180.485C266.794 179.845 267.176 179.096 267.386 178.292C267.596 177.487 267.627 176.646 267.478 175.828C267.329 175.01 267.003 174.235 266.523 173.557L273.399 162.54L267.748 156.713L258.255 172.407C257.174 173.292 256.453 174.545 256.23 175.927C256.008 177.309 256.298 178.725 257.046 179.907C257.794 181.089 258.948 181.955 260.289 182.34C261.63 182.725 263.066 182.602 264.323 181.996Z" fill="#9E616A"/>
<path d="M255.686 98.0735L262.045 91.1323C262.045 91.1323 269.13 88.6557 274.919 101.453C280.708 114.25 287.174 140.208 287.174 140.208L272.057 169.434L260.316 164.169L272.057 140.001L259.633 122.104L255.686 98.0735Z" fill="#C5DBF2"/>
<path d="M244.902 88.2417C251.316 84.723 253.673 76.6523 250.167 70.2153C246.661 63.7784 238.62 61.4127 232.206 64.9315C225.793 68.4502 223.436 76.5209 226.942 82.9579C230.448 89.3948 238.489 91.7605 244.902 88.2417Z" fill="#9E616A"/>
<path d="M249.715 64.7085C249.089 62.0709 246.898 59.9891 244.377 59.0128C241.857 58.0366 239.05 58.046 236.387 58.5002C231.966 59.2541 227.838 61.1676 223.77 63.0618L226.906 64.5673L222.579 64.8164L225.922 66.5517C225.03 67.2336 224.35 68.1583 223.965 69.2159C223.581 70.2736 223.506 71.4199 223.751 72.5188C223.923 73.2379 224.383 74.0304 225.119 74.0552C226.009 74.0853 226.474 73.0439 227.097 72.4052C227.926 71.5553 229.236 71.3668 230.41 71.5269C231.584 71.687 232.698 72.1405 233.856 72.3911C235.321 72.6975 236.835 72.6806 238.292 72.3416C239.75 72.0027 241.117 71.3497 242.298 70.4281L246.467 80.5036C246.428 80.1236 246.477 79.7397 246.61 79.3817C246.743 79.0238 246.956 78.7015 247.234 78.4401C247.511 78.1787 247.845 77.9852 248.21 77.8748C248.574 77.7643 248.959 77.7399 249.334 77.8034C249.71 77.8669 250.065 78.0167 250.373 78.2409C250.681 78.4652 250.934 78.7579 251.111 79.0962C251.287 79.4345 251.384 79.8092 251.393 80.1912C251.401 80.5731 251.322 80.9518 251.16 81.2979C252.965 78.5658 254.417 75.4618 254.467 72.1842C254.517 68.9066 252.897 65.4538 249.932 64.0784" fill="#2F2E41"/>
<path d="M96.3399 268.241L90.7026 277.137L93.9862 265.557C87.0532 258.296 77.4554 252.984 77.4554 252.984C77.4554 252.984 65.6371 272.479 68.818 284.471C71.9989 296.463 80.2124 298.752 88.9743 296.411C97.7361 294.069 103.728 287.984 100.548 275.993C99.8395 273.324 98.3015 270.703 96.3399 268.241Z" fill="#EDF6FF"/>
<path d="M88.8814 278.025L89.0382 278.616C90.8257 285.496 91.0932 291.166 89.8291 295.546C89.8118 295.61 89.7907 295.672 89.7734 295.736L89.4786 295.649L89.1963 295.561C90.6282 290.814 89.9891 284.814 88.4316 278.813C88.3833 278.619 88.3342 278.422 88.2793 278.227C87.5975 275.692 86.7623 273.167 85.8532 270.74C85.7845 270.552 85.712 270.361 85.6396 270.17C84.4232 266.973 83.0939 263.963 81.8624 261.368C81.7762 261.185 81.6871 261.002 81.5987 260.821C79.4963 256.438 77.7141 253.333 77.3136 252.647C77.2662 252.563 77.2384 252.517 77.2324 252.506L77.4884 252.353L77.4906 252.349L77.7495 252.195C77.7555 252.206 77.8493 252.36 78.0132 252.648C78.6326 253.724 80.2775 256.653 82.1741 260.589C82.2587 260.767 82.3479 260.95 82.4341 261.134C83.4356 263.239 84.4976 265.606 85.5075 268.119C85.7623 268.749 86.0059 269.374 86.2385 269.992C86.3138 270.181 86.3862 270.372 86.4549 270.561C87.4381 273.184 88.2469 275.672 88.8814 278.025Z" fill="white"/>
<path d="M82.1736 260.587C81.9852 260.665 81.794 260.745 81.5982 260.819C81.0669 261.021 80.5256 261.196 79.9764 261.343C77.6366 261.972 75.1862 262.065 72.8057 261.617C72.7243 261.805 72.643 261.993 72.5596 262.184C75.07 262.679 77.66 262.592 80.1316 261.929C80.7179 261.772 81.2954 261.584 81.8619 261.366C82.0548 261.292 82.246 261.213 82.4336 261.132C83.9845 260.469 85.426 259.573 86.709 258.476C86.5409 258.348 86.3765 258.223 86.2159 258.1C84.9978 259.124 83.6357 259.962 82.1736 260.587Z" fill="white"/>
<path d="M86.2387 269.988C86.0407 270.054 85.8411 270.113 85.6399 270.167C85.5794 270.186 85.5153 270.204 85.4541 270.22C82.9179 270.898 80.2562 270.95 77.6956 270.372C75.1351 269.794 72.7517 268.603 70.7488 266.901C70.678 267.105 70.6071 267.309 70.54 267.515C72.6108 269.225 75.0579 270.416 77.6784 270.988C80.299 271.56 83.0177 271.498 85.6093 270.805C85.691 270.783 85.7726 270.762 85.8535 270.737C86.0568 270.679 86.2564 270.62 86.4552 270.557C89.5257 269.565 92.2466 267.707 94.2925 265.204C94.1534 265.056 94.0143 264.909 93.8723 264.762C91.8887 267.212 89.2358 269.029 86.2387 269.988Z" fill="white"/>
<path d="M88.8812 278.024C88.6817 278.096 88.4808 278.162 88.279 278.225C88.0627 278.292 87.8456 278.357 87.6269 278.415C84.218 279.322 80.6081 279.096 77.3379 277.771C74.0676 276.446 71.3129 274.094 69.4861 271.066C69.4177 271.338 69.3486 271.608 69.2861 271.878C71.2321 274.866 74.0665 277.162 77.3869 278.44C80.7072 279.719 84.3445 279.915 87.7821 279C88.0008 278.942 88.2187 278.881 88.4313 278.811C88.6368 278.75 88.8378 278.684 89.038 278.615C93.0744 277.189 96.4203 274.278 98.3983 270.47C98.2797 270.27 98.153 270.075 98.0256 269.877C96.1489 273.683 92.8688 276.605 88.8812 278.024Z" fill="white"/>
<path d="M316.234 269.168L310.679 277.934L313.914 266.522C307.082 259.367 297.624 254.133 297.624 254.133C297.624 254.133 285.977 273.344 289.112 285.162C292.246 296.979 300.341 299.235 308.975 296.928C317.61 294.621 323.515 288.624 320.38 276.807C319.683 274.176 318.167 271.594 316.234 269.168Z" fill="#EDF6FF"/>
<path d="M308.884 278.808L309.039 279.391C310.8 286.171 311.064 291.758 309.818 296.074C309.801 296.137 309.78 296.198 309.763 296.262L309.473 296.176L309.194 296.089C310.605 291.411 309.976 285.498 308.441 279.584C308.393 279.393 308.345 279.199 308.291 279.007C307.619 276.509 306.796 274.021 305.9 271.629C305.832 271.443 305.761 271.255 305.689 271.067C304.491 267.917 303.181 264.95 301.967 262.393C301.882 262.212 301.794 262.032 301.707 261.854C299.635 257.535 297.879 254.475 297.484 253.799C297.438 253.715 297.41 253.67 297.404 253.66L297.657 253.509L297.659 253.505L297.914 253.354C297.92 253.364 298.012 253.516 298.174 253.8C298.784 254.86 300.405 257.746 302.274 261.626C302.358 261.801 302.445 261.981 302.53 262.162C303.517 264.236 304.564 266.569 305.559 269.046C305.81 269.667 306.05 270.282 306.28 270.891C306.354 271.078 306.425 271.266 306.493 271.452C307.462 274.037 308.259 276.489 308.884 278.808Z" fill="white"/>
<path d="M302.274 261.625C302.089 261.702 301.9 261.78 301.707 261.853C301.184 262.053 300.65 262.225 300.109 262.37C297.803 262.99 295.388 263.082 293.042 262.64C292.962 262.825 292.882 263.01 292.8 263.199C295.274 263.687 297.826 263.6 300.262 262.947C300.84 262.792 301.409 262.607 301.967 262.392C302.157 262.32 302.346 262.242 302.53 262.162C304.059 261.508 305.479 260.626 306.744 259.544C306.578 259.419 306.416 259.295 306.258 259.174C305.057 260.183 303.715 261.009 302.274 261.625Z" fill="white"/>
<path d="M306.279 270.889C306.084 270.953 305.887 271.012 305.689 271.065C305.63 271.084 305.566 271.101 305.506 271.117C303.007 271.785 300.384 271.836 297.86 271.267C295.337 270.697 292.988 269.524 291.014 267.847C290.945 268.047 290.875 268.248 290.809 268.451C292.849 270.137 295.261 271.31 297.843 271.874C300.426 272.438 303.105 272.376 305.659 271.694C305.739 271.672 305.82 271.651 305.9 271.627C306.1 271.57 306.297 271.511 306.493 271.45C309.518 270.472 312.2 268.641 314.216 266.174C314.079 266.029 313.942 265.883 313.802 265.738C311.847 268.153 309.233 269.943 306.279 270.889Z" fill="white"/>
<path d="M308.884 278.808C308.687 278.879 308.489 278.944 308.29 279.006C308.077 279.072 307.863 279.136 307.648 279.193C304.288 280.087 300.731 279.864 297.508 278.559C294.285 277.253 291.571 274.935 289.77 271.951C289.703 272.22 289.635 272.485 289.573 272.751C291.491 275.696 294.284 277.958 297.556 279.218C300.828 280.478 304.413 280.671 307.801 279.77C308.016 279.713 308.231 279.652 308.44 279.584C308.643 279.523 308.841 279.458 309.038 279.39C313.016 277.986 316.313 275.116 318.262 271.364C318.146 271.166 318.021 270.974 317.895 270.779C316.046 274.53 312.813 277.409 308.884 278.808Z" fill="white"/>
<path d="M201.256 51.3793C201.256 30.4106 186.691 13.4121 168.724 13.4121C150.757 13.4121 136.191 30.4106 136.191 51.3793C136.191 70.3971 148.173 86.1485 163.806 88.9151V92.4931C163.806 93.169 164.074 93.8172 164.55 94.2952C165.026 94.7731 165.672 95.0417 166.345 95.0417H171.102C171.776 95.0417 172.422 94.7731 172.898 94.2952C173.374 93.8172 173.642 93.169 173.642 92.4931V88.9151C189.275 86.1485 201.256 70.3971 201.256 51.3793Z" fill="#044E49"/>
<path d="M163.024 91.9763C164.042 91.0169 165.255 90.2899 166.579 89.8453C167.903 89.4007 169.308 89.249 170.696 89.4006C172.095 89.5634 173.437 90.05 174.617 90.8221C175.797 91.5943 176.781 92.6309 177.494 93.8502C178.207 95.0333 178.654 96.3579 178.806 97.732C178.958 99.1062 178.81 100.497 178.372 101.808C177.517 104.423 175.7 106.598 173.836 108.559C171.881 110.617 169.755 112.514 167.917 114.683C164.886 118.279 162.77 122.56 161.75 127.158C160.729 131.755 160.835 136.533 162.059 141.081C163.671 146.845 167.001 151.976 171.601 155.787C172.185 156.267 172.787 156.723 173.406 157.156C174.122 157.66 174.8 156.481 174.09 155.982C169.096 152.435 165.404 147.336 163.588 141.473C162.21 136.904 162.034 132.054 163.076 127.397C164.118 122.739 166.343 118.431 169.535 114.892C171.474 112.743 173.645 110.82 175.583 108.671C177.44 106.612 179.132 104.29 179.858 101.57C180.225 100.187 180.316 98.745 180.125 97.3267C179.935 95.9084 179.467 94.5419 178.748 93.3059C178.033 92.0423 177.065 90.9406 175.906 90.0699C174.746 89.1992 173.42 88.5782 172.011 88.246C169.175 87.6273 166.21 88.1424 163.747 89.6819C163.143 90.0683 162.58 90.5147 162.065 91.0143C161.436 91.6228 162.395 92.5841 163.024 91.9763Z" fill="#3F3D56"/>
<path d="M75.8927 35.4821C65.9386 12.5151 41.9158 0.861705 22.2362 9.45371C2.55664 18.0457 -5.32725 43.6294 4.62692 66.5965C13.6549 87.4266 34.2554 98.9498 52.6923 94.504L54.3908 98.423C54.7117 99.1633 55.3124 99.7454 56.0609 100.041C56.8093 100.337 57.6442 100.322 58.3818 100L63.5922 97.7254C64.3298 97.4033 64.9097 96.8003 65.2044 96.0491C65.4991 95.2979 65.4844 94.4599 65.1635 93.7196L63.465 89.8007C79.2752 79.2944 84.9208 56.3123 75.8927 35.4821Z" fill="#0A645E"/>
<path d="M53.189 98.1144C53.8358 96.6189 54.7884 95.2765 55.985 94.1742C57.1817 93.0718 58.5957 92.234 60.1356 91.7151C61.6476 91.2041 63.2527 91.0309 64.8384 91.2078C66.4241 91.3846 67.9521 91.9071 69.3156 92.7388C70.7201 93.574 71.9312 94.7 72.868 96.042C73.8048 97.384 74.4458 98.9109 74.7483 100.521C75.443 104.253 74.3158 108.054 73.0348 111.528C71.692 115.17 70.0187 118.707 69.085 122.489C67.7856 127.805 67.7593 133.354 69.0083 138.681C70.2573 144.009 72.7461 148.964 76.2707 153.14C80.7098 158.303 86.5563 162.051 93.0904 163.921C93.8919 164.148 94.7018 164.342 95.5179 164.507C96.3696 164.681 96.734 163.369 95.8783 163.196C89.0798 161.791 82.8842 158.301 78.1483 153.208C73.128 147.76 70.0952 140.766 69.5448 133.366C69.2501 129.616 69.5925 125.844 70.5573 122.21C71.5873 118.375 73.3307 114.785 74.6451 111.049C75.8994 107.483 76.7882 103.655 76.0002 99.8816C75.2757 96.5596 73.2672 93.6619 70.4158 91.825C69.0492 90.9206 67.5171 90.2978 65.9087 89.9928C64.3002 89.6879 62.6474 89.7068 61.0462 90.0485C57.7764 90.7919 54.9116 92.7577 53.0348 95.546C52.5782 96.2412 52.192 96.9804 51.8819 97.7527C51.5486 98.5609 52.8596 98.9132 53.189 98.1144Z" fill="#3F3D56"/>
<path d="M353.953 312.892L361.259 312.891L364.735 284.605L353.951 284.606L353.953 312.892Z" fill="#FFB6B6"/>
<path d="M352.089 310.499L366.478 310.498H366.479C368.911 310.498 371.243 311.468 372.963 313.194C374.682 314.92 375.648 317.261 375.649 319.701V320.001L352.089 320.001L352.089 310.499Z" fill="#2F2E41"/>
<path d="M310.706 306.657L317.673 308.868L329.487 282.952L319.205 279.688L310.706 306.657Z" fill="#FFB6B6"/>
<path d="M309.649 303.809L323.369 308.164L323.369 308.164C325.688 308.9 327.62 310.531 328.741 312.697C329.862 314.863 330.08 317.388 329.346 319.715L329.256 320L306.794 312.869L309.649 303.809Z" fill="#2F2E41"/>
<path d="M327.158 183.707L323.104 195.184L322.989 257.146L311.49 299.569L325.605 303.523L341.196 263.522L346.197 228.387L352.787 263.726L351.88 305.729H366.69L367.807 241.002C368.121 222.824 364.952 204.754 358.472 187.776L327.158 183.707Z" fill="#032E58"/>
<path d="M322.329 137.215H346.267L356.269 147.253L359.257 188.748L323.104 194.588L311.49 154.996L317.815 138.169L322.329 137.215Z" fill="#E1ADAD"/>
<path d="M313.72 155.39L276.866 141.473L275.906 135.72L299.149 115.98L306.885 121.804L292.863 137.214L317.814 138.168L313.72 155.39Z" fill="#E1ADAD"/>
<path d="M303.619 124.055C306.91 124.055 309.579 121.377 309.579 118.073C309.579 114.77 306.91 112.092 303.619 112.092C300.327 112.092 297.659 114.77 297.659 118.073C297.659 121.377 300.327 124.055 303.619 124.055Z" fill="#FFB6B6"/>
<path d="M317.441 125.61L320.134 113.422C320.606 111.275 321.495 109.243 322.751 107.441C324.006 105.64 325.602 104.104 327.449 102.922C329.296 101.741 331.356 100.936 333.513 100.553C335.67 100.171 337.881 100.22 340.019 100.696C342.157 101.172 344.181 102.066 345.975 103.327C347.769 104.589 349.297 106.192 350.473 108.047C351.648 109.902 352.449 111.971 352.827 114.136C353.206 116.301 353.156 118.52 352.679 120.666L349.986 132.854C349.857 133.435 349.503 133.942 349.003 134.262C348.502 134.582 347.895 134.689 347.316 134.561L319.142 128.29C318.563 128.161 318.059 127.806 317.74 127.303C317.421 126.801 317.313 126.192 317.441 125.61Z" fill="#2F2E41"/>
<path d="M335.995 130.204C342.477 128.319 346.209 121.516 344.331 115.01C342.453 108.504 335.675 104.758 329.193 106.643C322.71 108.528 318.978 115.331 320.856 121.837C322.734 128.343 329.512 132.089 335.995 130.204Z" fill="#FFB6B6"/>
<path d="M316.069 113.539C316.83 110.115 318.913 107.133 321.862 105.248C324.81 103.363 328.383 102.729 331.796 103.485L334.225 104.025C337.637 104.789 340.608 106.88 342.486 109.839C344.364 112.798 344.996 116.384 344.243 119.81L344.189 120.054L339.056 118.911L338.393 113.602L336.955 118.444L334.303 117.853L333.968 115.174L333.243 117.617L316.016 113.783L316.069 113.539Z" fill="#2F2E41"/>
<path d="M328.409 131.79C328.24 131.409 328.182 130.987 328.241 130.575C328.301 130.162 328.475 129.774 328.744 129.457C332.404 125.116 338.013 116.84 334.467 110.176L334.212 109.697L348.099 112.788L343.475 133.713L330.367 133.139C330.234 133.133 330.102 133.116 329.973 133.087C329.628 133.01 329.307 132.853 329.035 132.627C328.763 132.402 328.548 132.115 328.409 131.79Z" fill="#2F2E41"/>
<path d="M345.314 137.467L384.299 143.03L386.479 148.438L368.054 172.767L359.244 168.766L369.602 150.671L345.039 155.171L345.314 137.467Z" fill="#E1ADAD"/>
<path d="M403.68 58.588C403.68 33.5421 386.283 13.2383 364.822 13.2383C343.361 13.2383 325.964 33.5421 325.964 58.588C325.964 81.3036 340.275 100.118 358.948 103.422V107.696C358.948 108.503 359.268 109.278 359.837 109.849C360.405 110.42 361.177 110.74 361.981 110.74H367.663C368.468 110.74 369.239 110.42 369.808 109.849C370.377 109.278 370.696 108.503 370.696 107.696V103.422C389.37 100.118 403.68 81.3037 403.68 58.588Z" fill="#0A645E"/>
<path d="M357.922 106.987C359.155 105.823 360.626 104.942 362.233 104.405C363.839 103.868 365.542 103.688 367.225 103.876C368.878 104.072 370.465 104.642 371.866 105.545C373.267 106.447 374.445 107.657 375.31 109.084C376.191 110.492 376.758 112.075 376.971 113.724C377.185 115.373 377.04 117.049 376.546 118.636C375.587 121.752 373.483 124.36 371.289 126.699C368.949 129.193 366.386 131.474 364.149 134.066C360.502 138.32 357.939 143.399 356.68 148.867C355.421 154.335 355.505 160.028 356.923 165.456C358.82 172.434 362.829 178.647 368.395 183.24C369.071 183.792 369.767 184.319 370.482 184.82C371.199 185.323 371.877 184.144 371.166 183.645C365.205 179.416 360.79 173.342 358.598 166.354C356.933 160.899 356.697 155.105 357.912 149.532C359.128 143.959 361.755 138.794 365.539 134.537C367.838 131.96 370.428 129.665 372.754 127.113C374.982 124.67 377.027 121.926 377.942 118.697C378.402 117.067 378.536 115.36 378.335 113.677C378.135 111.994 377.604 110.368 376.773 108.892C375.945 107.383 374.816 106.062 373.455 105.011C372.095 103.961 370.534 103.204 368.868 102.787C365.484 102.007 361.929 102.598 358.977 104.434C358.253 104.893 357.578 105.426 356.963 106.025C356.334 106.634 357.294 107.595 357.922 106.987Z" fill="#3F3D56"/>
<path d="M362.621 179.684C365.912 179.684 368.581 177.006 368.581 173.702C368.581 170.399 365.912 167.721 362.621 167.721C359.329 167.721 356.661 170.399 356.661 173.702C356.661 177.006 359.329 179.684 362.621 179.684Z" fill="#FFB6B6"/>
<path d="M300.516 119.752C300.204 120.248 299.446 120.176 299.021 119.866C298.43 119.436 298.622 118.606 299.028 118.116C300.321 116.559 302.459 118.203 302.747 119.75C302.854 120.504 302.738 121.273 302.414 121.962C302.09 122.651 301.571 123.229 300.923 123.624C299.448 124.501 297.532 124.061 296.265 123.012C293.62 120.822 294.34 116.437 297.278 114.853C299.153 113.842 301.523 114.286 303.37 115.133C305.449 116.086 307.237 117.547 309.159 118.766C313.378 121.416 318.15 123.051 323.103 123.544C323.97 123.633 323.964 122.272 323.103 122.184C320.358 121.899 317.664 121.248 315.091 120.247C312.545 119.212 310.129 117.881 307.892 116.282C305.628 114.724 303.263 113.211 300.461 112.954C299.331 112.821 298.185 112.992 297.142 113.447C296.098 113.903 295.193 114.628 294.519 115.549C293.919 116.373 293.518 117.325 293.346 118.33C293.175 119.336 293.238 120.367 293.53 121.345C293.882 122.366 294.497 123.276 295.314 123.982C296.13 124.687 297.118 125.163 298.177 125.36C299.196 125.554 300.251 125.423 301.192 124.986C302.134 124.549 302.917 123.828 303.431 122.924C304.462 121.134 304.429 118.73 302.871 117.246C302.425 116.79 301.866 116.462 301.251 116.294C300.637 116.126 299.99 116.125 299.375 116.291C298.808 116.483 298.31 116.837 297.941 117.309C297.571 117.78 297.347 118.35 297.295 118.948C297.145 121.271 300.431 122.433 301.687 120.439C302.154 119.697 300.982 119.013 300.516 119.752Z" fill="#3F3D56"/>
<path d="M29.3254 192.871L27.5352 195.126L21.2031 191.366L22.9933 189.111L29.3254 192.871Z" fill="#FF730E"/>
<path d="M35.9323 202.559L37.5137 204.927L30.8617 208.248L29.2803 205.88L35.9323 202.559Z" fill="#FF730E"/>
<path d="M42.8184 192.26L45.9786 192.372L45.6641 199.008L42.5039 198.896L42.8184 192.26Z" fill="#FF730E"/>
<path d="M103.879 13.2831L102.089 15.5375L95.7568 11.778L97.547 9.52319L103.879 13.2831Z" fill="#FF730E"/>
<path d="M110.486 22.9705L112.067 25.3391L105.415 28.66L103.834 26.2914L110.486 22.9705Z" fill="#FF730E"/>
<path d="M117.372 12.6716L120.532 12.7836L120.218 19.4201L117.058 19.3081L117.372 12.6716Z" fill="#FF730E"/>
<path d="M279.645 36.8635L277.855 39.1178L271.522 35.3583L273.313 33.1035L279.645 36.8635Z" fill="#FF730E"/>
<path d="M286.252 46.5508L287.833 48.9194L281.181 52.2404L279.6 49.8717L286.252 46.5508Z" fill="#FF730E"/>
<path d="M293.138 36.2539L296.298 36.3659L295.983 43.0024L292.823 42.8904L293.138 36.2539Z" fill="#FF730E"/>
<path d="M225.876 3.75995L224.086 6.01429L217.754 2.25479L219.544 0L225.876 3.75995Z" fill="#FF730E"/>
<path d="M232.483 13.4473L234.064 15.8159L227.412 19.1368L225.831 16.7682L232.483 13.4473Z" fill="#FF730E"/>
<path d="M239.369 3.15039L242.529 3.2624L242.215 9.89889L239.055 9.78687L239.369 3.15039Z" fill="#FF730E"/>
<path d="M280.542 173.237L278.752 175.854L285.084 180.217L286.875 177.601L280.542 173.237Z" fill="#FF730E"/>
<path d="M286.83 192.698L288.411 195.447L295.063 191.592L293.482 188.843L286.83 192.698Z" fill="#FF730E"/>
<path d="M300.054 184.595L303.214 184.725L303.529 177.022L300.368 176.892L300.054 184.595Z" fill="#FF730E"/>
<path d="M146.218 291.993L151.692 291.143L147.939 247.244L135.739 249.512L146.218 291.993Z" fill="#FFB6B6"/>
<path d="M144.545 290.415L155.326 288.742C157.148 288.459 159.008 288.915 160.496 290.008C161.983 291.101 162.977 292.743 163.259 294.572L163.294 294.796L145.642 297.535L144.545 290.415Z" fill="#2F2E41"/>
<path d="M88.6816 291.45L94.2158 291.686L100.947 252.688L88.7476 252.688L88.6816 291.45Z" fill="#FFB6B6"/>
<path d="M87.3474 289.576L98.2468 290.042H98.2473C100.089 290.121 101.825 290.931 103.072 292.294C104.319 293.657 104.975 295.462 104.897 297.311L104.887 297.537L87.042 296.774L87.3474 289.576Z" fill="#2F2E41"/>
<path d="M99.5781 164.389C99.3169 164.315 99.0496 164.265 98.7794 164.24L102.23 135.896L113.936 111.013C114.673 109.448 114.791 107.66 114.266 106.012C113.741 104.363 112.613 102.975 111.108 102.128C109.604 101.281 107.836 101.039 106.16 101.449C104.485 101.859 103.026 102.892 102.08 104.339C99.0115 109.027 96.6905 114.168 95.2006 119.574L90.2822 137.422L93.8787 168.03C93.7407 168.893 93.8541 169.777 94.2052 170.577C94.5563 171.376 95.13 172.057 95.8575 172.537C96.585 173.017 97.4351 173.276 98.3056 173.282C99.1762 173.288 100.03 173.042 100.764 172.573C101.499 172.104 102.082 171.432 102.445 170.637C102.808 169.843 102.934 168.96 102.809 168.096C102.683 167.231 102.312 166.421 101.739 165.764C101.166 165.106 100.415 164.629 99.5781 164.389Z" fill="#FFB6B6"/>
<path d="M106.686 138.295L91.8955 121.313L99.2227 104.016C100.182 101.751 101.986 99.9518 104.248 99.0027C106.511 98.0537 109.053 98.0297 111.333 98.936C113.613 99.8423 115.45 101.607 116.452 103.854C117.453 106.1 117.54 108.651 116.694 110.961L106.686 138.295Z" fill="#032E58"/>
<path d="M131.273 84.1564C134.831 77.623 132.439 69.4314 125.93 65.86C119.42 62.2885 111.258 64.6896 107.7 71.223C104.142 77.7564 106.534 85.948 113.043 89.5195C119.553 93.0909 127.715 90.6898 131.273 84.1564Z" fill="#FFB6B6"/>
<path d="M121.732 61.3105H113.055C107.366 61.3105 102.755 66.5176 102.755 72.9408L103.156 88.5204C109.303 89.2879 115.315 90.9017 121.023 93.3165L121.833 89.8452L123.43 94.4168C124.851 95.1077 126.26 95.8633 127.656 96.6834C126.026 88.9961 125.355 81.3266 126.475 75.369H129.413V72.1409L130.411 75.369H135.739C135.739 73.5228 135.377 71.6947 134.673 69.989C133.969 68.2834 132.937 66.7336 131.637 65.4281C130.336 64.1227 128.792 63.0872 127.092 62.3807C125.393 61.6742 123.572 61.3105 121.732 61.3105Z" fill="#2F2E41"/>
<path d="M150.025 249.631L148.768 249.935L147.713 230.24L140.032 171.285L131.221 148.837L135.513 133.191C135.513 133.191 140.484 122.307 128.058 113.917L118.118 97.138C111.251 92.6318 105.601 95.5783 102.59 103.238C99.9658 109.911 97.9288 118.354 99.1402 127.069C101.854 146.59 104.11 148.837 104.11 148.837C104.11 148.837 87.1665 167.657 90.7812 191.692L88.7667 253.923L86.9236 253.847L86.7217 258.79L102.824 259.453L103.025 254.51L101.69 254.455L107.499 229.786L116.084 197.134L130.995 237.042L136.01 253.018L134.358 253.418L135.512 258.227L151.179 254.44L150.025 249.631Z" fill="#032E58"/>
<path d="M161.09 137.882C160.908 138.083 160.744 138.301 160.6 138.532L136.877 122.77L119.929 101.141C118.862 99.78 117.322 98.8757 115.618 98.6102C113.913 98.3447 112.172 98.7378 110.745 99.7101C109.318 100.682 108.312 102.162 107.929 103.85C107.546 105.537 107.815 107.308 108.682 108.805C111.49 113.655 115.035 118.035 119.188 121.789L132.9 134.18L161.79 144.626C162.497 145.136 163.336 145.429 164.205 145.471C165.075 145.513 165.938 145.302 166.691 144.863C167.444 144.424 168.054 143.777 168.449 142.998C168.843 142.219 169.005 141.342 168.915 140.473C168.825 139.604 168.487 138.78 167.941 138.099C167.395 137.419 166.665 136.911 165.838 136.637C165.011 136.363 164.123 136.335 163.281 136.556C162.439 136.777 161.678 137.237 161.09 137.882Z" fill="#FFB6B6"/>
<path d="M141.007 119.842L119.262 125.535L107.117 111.227C105.527 109.353 104.729 106.93 104.894 104.475C105.059 102.019 106.174 99.7252 108.001 98.0829C109.827 96.4406 112.221 95.5799 114.671 95.6843C117.121 95.7887 119.433 96.8501 121.114 98.6418L141.007 119.842Z" fill="#032E58"/>
<path d="M309.556 297.998H17.0829C16.9402 297.998 16.8034 297.941 16.7025 297.84C16.6016 297.738 16.5449 297.601 16.5449 297.458C16.5449 297.315 16.6016 297.177 16.7025 297.076C16.8034 296.975 16.9402 296.918 17.0829 296.918H309.556C309.699 296.918 309.836 296.975 309.937 297.076C310.038 297.177 310.094 297.315 310.094 297.458C310.094 297.601 310.038 297.738 309.937 297.84C309.836 297.941 309.699 297.998 309.556 297.998Z" fill="#EDF6FF"/>
</g>
<defs>
<clipPath id="clip0_1889_56237">
<rect width="403.361" height="320" fill="white" transform="translate(0.319336)"/>
</clipPath>
</defs>
</svg>
