<svg width="408" height="320" viewBox="0 0 408 320" fill="none" xmlns="http://www.w3.org/2000/svg">
<g clip-path="url(#clip0_582_48871)">
<path d="M204.498 8.95954C204.48 10.0046 204.255 11.0358 203.838 11.9941C203.421 12.9525 202.819 13.8192 202.066 14.5449C201.314 15.2706 200.426 15.841 199.453 16.2234C198.48 16.6059 197.441 16.793 196.396 16.774H158.806C158.67 16.7705 158.534 16.767 158.397 16.7565C158.045 16.7338 157.695 16.6859 157.35 16.6133V3.30999C157.349 2.7777 157.512 2.25803 157.815 1.82059C158.119 1.38315 158.548 1.0488 159.047 0.862305H196.682C198.792 0.902184 200.799 1.7771 202.265 3.2951C203.73 4.8131 204.533 6.85022 204.498 8.95954Z" fill="#E6E6E6"/>
<path d="M402.955 1.82754e-05H160.532C160.009 -0.00152439 159.491 0.0946102 159.004 0.283459C158.178 0.592413 157.466 1.14631 156.964 1.87099C156.461 2.59567 156.192 3.45654 156.192 4.33835V268.687C156.193 269.838 156.65 270.941 157.464 271.755C158.277 272.568 159.381 273.025 160.532 273.026H402.955C404.105 273.025 405.209 272.568 406.023 271.755C406.836 270.941 407.294 269.838 407.294 268.687V4.33835C407.294 3.18788 406.836 2.08465 406.023 1.27115C405.209 0.457642 404.105 0.000435285 402.955 1.82754e-05ZM405.558 268.687C405.557 269.377 405.283 270.039 404.795 270.527C404.307 271.015 403.645 271.289 402.955 271.29H160.532C159.842 271.289 159.18 271.015 158.692 270.527C158.204 270.039 157.929 269.377 157.928 268.687V4.33835C157.929 3.64831 158.204 2.98683 158.692 2.4989C159.18 2.01097 159.842 1.73639 160.532 1.73535H402.955C403.645 1.73639 404.307 2.01097 404.795 2.4989C405.283 2.98683 405.557 3.64831 405.558 4.33835V268.687Z" fill="#E6E6E6"/>
<path d="M274.29 90.8287C277.435 90.8287 279.985 88.2796 279.985 85.1351C279.985 81.9905 277.435 79.4414 274.29 79.4414C271.144 79.4414 268.595 81.9905 268.595 85.1351C268.595 88.2796 271.144 90.8287 274.29 90.8287Z" fill="#0A645E"/>
<path d="M298.019 90.8287C301.164 90.8287 303.714 88.2796 303.714 85.1351C303.714 81.9905 301.164 79.4414 298.019 79.4414C294.874 79.4414 292.324 81.9905 292.324 85.1351C292.324 88.2796 294.874 90.8287 298.019 90.8287Z" fill="#0A645E"/>
<path d="M226.833 137.879C229.978 137.879 232.528 135.33 232.528 132.185C232.528 129.041 229.978 126.492 226.833 126.492C223.687 126.492 221.138 129.041 221.138 132.185C221.138 135.33 223.687 137.879 226.833 137.879Z" fill="#0A645E"/>
<path d="M250.561 137.879C253.706 137.879 256.256 135.33 256.256 132.185C256.256 129.041 253.706 126.492 250.561 126.492C247.416 126.492 244.866 129.041 244.866 132.185C244.866 135.33 247.416 137.879 250.561 137.879Z" fill="#0A645E"/>
<path d="M274.291 161.403C277.436 161.403 279.986 158.854 279.986 155.71C279.986 152.565 277.436 150.016 274.291 150.016C271.145 150.016 268.596 152.565 268.596 155.71C268.596 158.854 271.145 161.403 274.291 161.403Z" fill="#0A645E"/>
<path d="M298.019 161.403C301.164 161.403 303.714 158.854 303.714 155.71C303.714 152.565 301.164 150.016 298.019 150.016C294.874 150.016 292.324 152.565 292.324 155.71C292.324 158.854 294.874 161.403 298.019 161.403Z" fill="#0A645E"/>
<path d="M321.748 161.403C324.893 161.403 327.443 158.854 327.443 155.71C327.443 152.565 324.893 150.016 321.748 150.016C318.602 150.016 316.053 152.565 316.053 155.71C316.053 158.854 318.602 161.403 321.748 161.403Z" fill="#0A645E"/>
<path d="M179.047 4.20847C178.92 4.33538 178.849 4.50752 178.849 4.68701C178.849 4.8665 178.92 5.03865 179.047 5.16558L181.953 8.07108H174.787C174.608 8.07161 174.436 8.14315 174.31 8.27002C174.183 8.39689 174.112 8.56874 174.112 8.7479C174.112 8.92706 174.183 9.09891 174.31 9.22578C174.436 9.35265 174.608 9.42419 174.787 9.42471H181.953L179.047 12.3302C178.92 12.4571 178.849 12.6292 178.849 12.8087C178.849 12.9882 178.92 13.1604 179.047 13.2873C179.174 13.4142 179.346 13.4855 179.526 13.4856C179.706 13.4856 179.878 13.4143 180.005 13.2873L184.066 9.22648C184.193 9.09955 184.265 8.9274 184.265 8.7479C184.265 8.5684 184.193 8.39625 184.066 8.26932L180.005 4.20847C179.878 4.08155 179.706 4.01025 179.526 4.01025C179.346 4.01025 179.174 4.08155 179.047 4.20847Z" fill="white"/>
<path d="M350.679 97.2819H197.765C197.173 97.2819 196.693 97.0229 196.693 96.7034C196.693 96.384 197.173 96.125 197.765 96.125H350.679C351.271 96.125 351.751 96.384 351.751 96.7034C351.751 97.0229 351.271 97.2819 350.679 97.2819Z" fill="#E6E6E6"/>
<path d="M350.679 71.7272H197.765C197.173 71.7272 196.693 71.4682 196.693 71.1488C196.693 70.8293 197.173 70.5703 197.765 70.5703H350.679C351.271 70.5703 351.751 70.8293 351.751 71.1488C351.751 71.4682 351.271 71.7272 350.679 71.7272Z" fill="#E6E6E6"/>
<path d="M351.172 121.15H197.409C197.255 121.15 197.108 121.089 197 120.981C196.891 120.872 196.83 120.725 196.83 120.572C196.83 120.418 196.891 120.271 197 120.163C197.108 120.054 197.255 119.993 197.409 119.993H351.172C351.325 119.993 351.472 120.054 351.581 120.163C351.689 120.271 351.75 120.418 351.75 120.572C351.75 120.725 351.689 120.872 351.581 120.981C351.472 121.089 351.325 121.15 351.172 121.15Z" fill="#E6E6E6"/>
<path d="M351.172 144.286H197.409C197.255 144.286 197.108 144.225 197 144.117C196.891 144.008 196.83 143.861 196.83 143.708C196.83 143.554 196.891 143.407 197 143.299C197.108 143.19 197.255 143.129 197.409 143.129H351.172C351.325 143.129 351.472 143.19 351.581 143.299C351.689 143.407 351.75 143.554 351.75 143.708C351.75 143.861 351.689 144.008 351.581 144.117C351.472 144.225 351.325 144.286 351.172 144.286Z" fill="#E6E6E6"/>
<path d="M351.172 168.005H197.409C197.255 168.005 197.108 167.944 197 167.835C196.891 167.727 196.83 167.58 196.83 167.426C196.83 167.273 196.891 167.126 197 167.017C197.108 166.909 197.255 166.848 197.409 166.848H351.172C351.325 166.848 351.472 166.909 351.581 167.017C351.689 167.126 351.75 167.273 351.75 167.426C351.75 167.58 351.689 167.727 351.581 167.835C351.472 167.944 351.325 168.005 351.172 168.005Z" fill="#E6E6E6"/>
<path d="M333.236 166.813V71.508C333.236 71.31 333.495 71.1494 333.815 71.1494C334.134 71.1494 334.393 71.31 334.393 71.508V166.813C334.393 167.011 334.134 167.171 333.815 167.171C333.495 167.171 333.236 167.011 333.236 166.813Z" fill="#E6E6E6"/>
<path d="M309.515 166.813V71.508C309.515 71.31 309.774 71.1494 310.093 71.1494C310.413 71.1494 310.672 71.31 310.672 71.508V166.813C310.672 167.011 310.413 167.171 310.093 167.171C309.774 167.171 309.515 167.011 309.515 166.813Z" fill="#E6E6E6"/>
<path d="M285.793 166.813V71.508C285.793 71.31 286.052 71.1494 286.372 71.1494C286.691 71.1494 286.95 71.31 286.95 71.508V166.813C286.95 167.011 286.691 167.171 286.372 167.171C286.052 167.171 285.793 167.011 285.793 166.813Z" fill="#E6E6E6"/>
<path d="M262.65 166.813V71.508C262.65 71.31 262.909 71.1494 263.229 71.1494C263.548 71.1494 263.808 71.31 263.808 71.508V166.813C263.808 167.011 263.548 167.171 263.229 167.171C262.909 167.171 262.65 167.011 262.65 166.813Z" fill="#E6E6E6"/>
<path d="M238.351 191.017V71.5988C238.383 71.4703 238.458 71.3563 238.563 71.275C238.668 71.1936 238.796 71.1494 238.929 71.1494C239.062 71.1494 239.191 71.1936 239.295 71.275C239.4 71.3563 239.475 71.4703 239.508 71.5988V191.017C239.475 191.145 239.4 191.259 239.295 191.34C239.191 191.422 239.062 191.466 238.929 191.466C238.796 191.466 238.668 191.422 238.563 191.34C238.458 191.259 238.383 191.145 238.351 191.017Z" fill="#E6E6E6"/>
<path d="M214.05 191.017V71.5988C214.083 71.4703 214.157 71.3563 214.262 71.275C214.367 71.1936 214.496 71.1494 214.628 71.1494C214.761 71.1494 214.89 71.1936 214.995 71.275C215.099 71.3563 215.174 71.4703 215.207 71.5988V191.017C215.174 191.145 215.099 191.259 214.995 191.34C214.89 191.422 214.761 191.466 214.628 191.466C214.496 191.466 214.367 191.422 214.262 191.34C214.157 191.259 214.083 191.145 214.05 191.017Z" fill="#E6E6E6"/>
<path d="M197.409 191.72C197.256 191.721 197.108 191.66 196.999 191.552C196.891 191.444 196.829 191.297 196.829 191.143C196.829 190.99 196.889 190.842 196.998 190.734C197.106 190.625 197.253 190.564 197.406 190.563L256.284 190.308C256.436 190.311 256.581 190.373 256.69 190.48C256.798 190.587 256.861 190.732 256.865 190.884C256.865 190.96 256.851 191.036 256.822 191.106C256.793 191.176 256.751 191.24 256.697 191.294C256.644 191.348 256.58 191.391 256.51 191.42C256.44 191.449 256.365 191.465 256.289 191.465L197.411 191.72H197.409Z" fill="#E6E6E6"/>
<path d="M240.455 46.3786C240.302 46.3787 240.154 46.3179 240.046 46.2095C239.937 46.1011 239.876 45.954 239.876 45.8006C239.876 45.6472 239.937 45.5 240.045 45.3915C240.154 45.2829 240.301 45.2219 240.454 45.2217L323.032 45.1187H323.032C323.186 45.1185 323.333 45.1794 323.442 45.2878C323.55 45.3962 323.611 45.5433 323.611 45.6967C323.612 45.8501 323.551 45.9973 323.442 46.1058C323.334 46.2144 323.187 46.2754 323.033 46.2755L240.456 46.3786H240.455Z" fill="#E6E6E6"/>
<path d="M268.416 234.967C266.124 234.967 263.882 234.287 261.976 233.014C260.07 231.74 258.584 229.93 257.707 227.812C256.829 225.695 256.6 223.365 257.047 221.116C257.494 218.868 258.598 216.803 260.219 215.183C261.841 213.562 263.906 212.458 266.155 212.011C268.403 211.564 270.734 211.793 272.852 212.67C274.97 213.547 276.781 215.033 278.055 216.939C279.328 218.845 280.008 221.085 280.008 223.377C280.008 224.899 279.708 226.406 279.126 227.813C278.543 229.219 277.689 230.496 276.613 231.572C275.537 232.649 274.259 233.502 272.852 234.085C271.446 234.667 269.938 234.967 268.416 234.967Z" fill="#E6E6E6"/>
<path d="M272.99 222.233H269.559V218.803C269.559 218.5 269.439 218.209 269.224 217.995C269.01 217.781 268.719 217.66 268.416 217.66C268.112 217.66 267.822 217.781 267.607 217.995C267.393 218.209 267.272 218.5 267.272 218.803V222.233H263.842C263.538 222.233 263.248 222.353 263.033 222.568C262.819 222.782 262.698 223.073 262.698 223.376C262.698 223.679 262.819 223.97 263.033 224.185C263.248 224.399 263.538 224.52 263.842 224.52H267.272V227.949C267.272 228.099 267.301 228.248 267.358 228.387C267.416 228.526 267.5 228.653 267.606 228.759C267.712 228.866 267.839 228.95 267.977 229.008C268.116 229.065 268.265 229.095 268.416 229.095C268.566 229.095 268.715 229.065 268.854 229.008C268.993 228.95 269.119 228.866 269.225 228.759C269.331 228.653 269.416 228.526 269.473 228.387C269.53 228.248 269.559 228.099 269.559 227.949V224.519H272.99C273.293 224.519 273.584 224.399 273.798 224.185C274.013 223.97 274.133 223.679 274.133 223.376C274.133 223.073 274.013 222.782 273.798 222.568C273.584 222.353 273.293 222.233 272.99 222.233Z" fill="white"/>
<path d="M295.03 234.967C292.738 234.967 290.497 234.287 288.59 233.014C286.684 231.74 285.198 229.93 284.321 227.812C283.443 225.695 283.214 223.365 283.661 221.116C284.109 218.868 285.213 216.803 286.834 215.183C288.455 213.562 290.52 212.458 292.769 212.011C295.018 211.564 297.348 211.793 299.467 212.67C301.585 213.547 303.395 215.033 304.669 216.939C305.943 218.845 306.622 221.085 306.622 223.377C306.622 224.899 306.323 226.406 305.74 227.813C305.158 229.219 304.304 230.496 303.227 231.572C302.151 232.649 300.873 233.502 299.467 234.085C298.06 234.667 296.553 234.967 295.03 234.967Z" fill="#E6E6E6"/>
<path d="M300.897 228.308L297.877 224.774C298.584 223.774 298.891 222.545 298.738 221.33C298.584 220.115 297.982 219.001 297.048 218.208C296.115 217.415 294.918 217 293.694 217.045C292.47 217.089 291.307 217.59 290.434 218.449C289.56 219.308 289.04 220.463 288.976 221.686C288.911 222.909 289.307 224.112 290.084 225.058C290.862 226.004 291.966 226.624 293.179 226.798C294.392 226.971 295.625 226.684 296.637 225.994L299.577 229.435C299.727 229.609 299.939 229.716 300.168 229.733C300.397 229.751 300.623 229.677 300.798 229.528C300.972 229.379 301.081 229.167 301.099 228.939C301.118 228.71 301.045 228.483 300.897 228.308ZM290.691 221.93C290.691 221.301 290.877 220.686 291.227 220.163C291.576 219.64 292.073 219.232 292.655 218.991C293.236 218.75 293.876 218.687 294.493 218.81C295.111 218.933 295.678 219.236 296.123 219.681C296.568 220.126 296.871 220.692 296.994 221.31C297.116 221.927 297.053 222.566 296.813 223.148C296.572 223.729 296.164 224.226 295.641 224.576C295.117 224.925 294.502 225.112 293.873 225.112C293.029 225.111 292.22 224.775 291.624 224.179C291.027 223.582 290.691 222.774 290.691 221.93Z" fill="white"/>
<path d="M240.455 236.11C240.302 236.11 240.154 236.049 240.046 235.941C239.937 235.832 239.876 235.685 239.876 235.532C239.876 235.378 239.937 235.231 240.045 235.123C240.154 235.014 240.301 234.953 240.454 234.953L323.032 234.85H323.032C323.186 234.849 323.333 234.91 323.442 235.019C323.55 235.127 323.611 235.274 323.611 235.428C323.612 235.581 323.551 235.728 323.442 235.837C323.334 235.945 323.187 236.006 323.033 236.006L240.456 236.11H240.455Z" fill="#E6E6E6"/>
<path d="M134.779 311.787L142.16 311.787L145.672 283.326L134.778 283.326L134.779 311.787Z" fill="#FFB6B6"/>
<path d="M132.9 309.378V318.94H156.697V318.639C156.697 316.183 155.721 313.828 153.984 312.091C152.247 310.354 149.891 309.379 147.434 309.378L143.083 306.081L142.858 306.174L134.977 309.378H132.9Z" fill="#032E58"/>
<path d="M68.0918 302.193L74.6974 305.484L90.5394 281.577L80.7898 276.72L68.0918 302.193Z" fill="#FFB6B6"/>
<path d="M63.2168 307.758L84.5142 318.367L84.6472 318.101C85.1906 317.013 85.5141 315.828 85.5994 314.615C85.6847 313.402 85.53 312.184 85.1442 311.031C84.7584 309.877 84.1491 308.811 83.351 307.893C82.5529 306.976 81.5818 306.224 80.493 305.682L78.0688 300.794L77.8142 300.776L69.3439 300.123L69.1703 300.036L67.4809 299.197L63.2168 307.758Z" fill="#032E58"/>
<path d="M139.785 158.809L99.0878 160.233L98.8042 159.821C98.8042 159.821 95.3328 167.919 95.3328 174.861C95.3328 177.169 96.9382 192.263 96.1221 195.119C96.0206 195.474 96.7189 196.345 96.4899 197.999C96.3413 199.072 95.5212 198.246 95.3328 199.734C95.1975 200.802 96.6409 201.391 96.4899 202.626C96.3249 203.975 94.3394 208.346 94.1607 209.847C92.2579 225.827 89.7245 248.978 89.7245 248.978C89.7245 248.978 79.5494 276.224 77.3969 276.667C73.784 277.41 71.3448 283.978 73.3469 285.344C74.3003 285.994 86.622 290.369 86.622 290.369C87.2991 290.492 89.4171 289.43 88.0678 286.918C87.8194 286.456 89.3008 287.632 89.547 287.079C89.8088 286.49 89.2949 284.148 89.5947 283.495C92.2876 277.627 96.422 269.496 100.34 265.321C106.129 259.153 109.795 251.296 110.803 242.898L119.79 193.079L122.87 207.05L125.419 209.567L124.719 215.438L124.84 221.136L131.204 244.853C131.204 244.853 132.159 289.143 130.626 290.55C129.796 291.311 126.272 300.694 132.94 301.54L145.054 300.606C145.054 300.606 146.687 297.167 145.871 295.943C145.055 294.719 145.103 295.053 146.099 293.05C147.095 291.047 146.687 287.653 146.687 287.653C148.274 271.703 148.9 255.672 148.562 239.646C147.954 213.325 144.274 183.088 144.274 182.472C144.243 181.842 144.36 181.214 144.613 180.636V178.975L143.05 173.088L139.785 158.809Z" fill="#3D3F45"/>
<path d="M87.0967 173.608C86.7554 173.025 86.5462 172.374 86.4837 171.702C86.4212 171.029 86.507 170.351 86.735 169.715C86.963 169.079 87.3277 168.501 87.8033 168.021C88.279 167.542 88.8541 167.172 89.4881 166.938L89.1957 137.703L96.4084 142.265L95.5794 169.974C95.9011 171.065 95.8114 172.236 95.3273 173.265C94.8432 174.294 93.9983 175.11 92.9527 175.558C91.9071 176.006 90.7334 176.055 89.6541 175.695C88.5748 175.336 87.6649 174.593 87.0967 173.608Z" fill="#FFB8B8"/>
<path d="M88.7429 161.353L89.3569 161.323L89.43 161.325L91.7015 161.317L95.4428 161.309L95.7138 161.305L95.8358 161.328L97.1129 161.55L97.1659 161.208L99.6555 156.453L101.57 153.821L100.873 150.72L99.4997 149.009L101.832 146.183L102.127 144.787L104.08 135.607L110.552 105.158L110.552 105.14L110.688 104.494L112.793 94.6025L112.145 92.1152L111.422 89.3844C110.96 87.6508 109.888 86.1416 108.404 85.1331C107.76 84.6973 107.051 84.3662 106.303 84.152C105.35 83.8699 104.349 83.7875 103.363 83.9101L103.352 83.9135C102.792 83.983 102.242 84.1159 101.712 84.3096L101.502 84.3919C101.208 84.5108 100.923 84.6482 100.647 84.8031C99.7921 85.2785 99.0403 85.919 98.4353 86.6875C97.8304 87.456 97.3844 88.3372 97.1232 89.2796L90.2657 96.9168L89.0595 101.238L88.6716 102.626L87.4284 110.024L87.447 139.139L87.2256 140.458L86.9109 147.767L88.1408 149.443L86.7513 151.474L86.7037 152.589L86.6943 152.876L88.5501 154.76L88.6685 158.824L88.7429 161.353Z" fill="#043F79"/>
<path d="M95.4424 168.327C105.718 170.104 112.609 169.428 116.85 163.121C122.382 156.078 132.443 164.395 140.932 167.487L141.938 166.399L143.651 164.554L142.077 162.772L143.651 159.336L142.338 155.096L140.66 154.79L141.111 151.14L141.817 149.005L139.746 146.732L137.987 141.058L139.254 129.182C140.988 112.904 137.628 96.4894 129.638 82.2009L124.83 77.8857L122.834 76.0925L120.155 71.0947L117.326 71.4244L109.665 72.3095L109.405 72.9342L107.525 77.4692L100.694 84.8052C99.7276 85.8428 98.9935 87.0741 98.5402 88.4173C98.087 89.7605 97.925 91.1848 98.065 92.5955L98.2617 94.5738L98.4063 95.9968L99.089 102.846L101.872 130.825L102.08 132.311L104.319 148.398C100.68 151.915 100.459 151.148 98.9138 157.337C98.7402 158.025 96.7268 159.558 96.5995 160.229C96.4202 161.178 95.4424 168.327 95.4424 168.327Z" fill="#043F79"/>
<path d="M116.306 68.146C123.654 68.146 129.611 62.1905 129.611 54.844C129.611 47.4975 123.654 41.542 116.306 41.542C108.958 41.542 103.001 47.4975 103.001 54.844C103.001 62.1905 108.958 68.146 116.306 68.146Z" fill="#FFB6B6"/>
<path d="M102.386 44.8316C104.172 42.9726 107.025 42.0556 109.447 42.9378C109.989 41.388 110.946 40.0166 112.213 38.9727C113.481 37.9288 115.01 37.2526 116.635 37.0177C118.26 36.7827 119.919 36.998 121.43 37.6402C122.941 38.2823 124.247 39.3267 125.206 40.6595C125.644 40.4627 126.126 40.3824 126.605 40.4264C127.083 40.4703 127.542 40.6371 127.937 40.9105C128.722 41.4682 129.354 42.2138 129.775 43.0789C130.863 45.145 131.37 47.4673 131.243 49.7987C131.115 52.13 130.357 54.3831 129.051 56.3181C129.571 55.267 128.107 57.0773 126.68 56.603C125.455 56.2819 120.42 53.0544 119.164 53.2176C117.908 53.3807 117.5 52.3678 116.271 52.0607C115.067 51.6758 111.994 56.6509 111.378 59.9428C111.262 60.5667 110.978 61.3418 110.344 61.356C109.562 61.3735 109.328 60.2544 108.669 59.8341C108.358 59.6761 107.998 59.6448 107.665 59.747C107.331 59.8491 107.051 60.0766 106.882 60.3815C106.728 60.6949 106.651 61.0406 106.657 61.3898C106.664 61.7389 106.754 62.0815 106.92 62.3889C107.256 63 107.69 63.5527 108.203 64.0257L107.861 64.2132C107.525 64.454 107.116 64.5703 106.703 64.5423C106.29 64.5143 105.9 64.3437 105.6 64.0597C104.329 64.6328 100.873 61.4004 101.332 59.4448C100.367 57.0476 99.839 54.497 99.7736 51.9138C99.7203 49.3082 100.653 46.7786 102.386 44.8316Z" fill="#2F2E41"/>
<path d="M199.986 124.121C199.342 124.324 198.661 124.384 197.991 124.295C197.321 124.206 196.679 123.972 196.11 123.608C195.54 123.245 195.057 122.761 194.695 122.191C194.333 121.62 194.101 120.977 194.014 120.308L165.438 114.094L171.491 108.077L198.328 115.045C199.463 114.974 200.585 115.321 201.481 116.022C202.377 116.723 202.985 117.728 203.19 118.847C203.394 119.965 203.181 121.12 202.59 122.092C202 123.065 201.074 123.786 199.986 124.121Z" fill="#FFB8B8"/>
<path d="M122.763 82.877C121.107 82.9374 119.518 83.5479 118.248 84.612C117.545 85.1947 116.959 85.9052 116.52 86.706C116.038 87.5746 115.737 88.5322 115.635 89.5207L115.636 89.5265C115.488 90.9822 115.774 92.4492 116.459 93.7423C117.144 95.0355 118.196 96.0969 119.484 96.7926L128.897 101.893L130.09 102.537C138.11 110.71 151.635 114.982 167.193 117.817L176.138 120.263L179.145 119.147L179.873 122.005L182.867 122.103L184.495 121.765L187.902 120.429L188.552 119.121L188.552 119.116L189.95 112.915L189.959 112.874L189.959 112.868L190.285 111.449L188.364 110.56L186.693 108.329L183.671 108.389L180.915 108.629L180.108 106.741L145.186 90.5847L137.955 87.2363L137.937 87.2256L137.593 87.064L128.16 82.7007L125.592 82.7821L122.763 82.877Z" fill="#043F79"/>
<path d="M199.076 131.319C202.221 131.319 204.771 128.77 204.771 125.625C204.771 122.481 202.221 119.932 199.076 119.932C195.931 119.932 193.381 122.481 193.381 125.625C193.381 128.77 195.931 131.319 199.076 131.319Z" fill="#0A645E"/>
<path d="M35.8211 316.011C31.6429 316.379 27.4353 315.81 23.5054 314.344C19.5756 312.878 16.0229 310.554 13.1067 307.539C9.29356 303.52 6.67685 298.347 4.14625 293.344C3.4096 291.888 2.64815 290.382 1.87348 288.939C1.00981 287.366 0.637069 285.57 0.803264 283.784C0.969459 281.997 1.66698 280.301 2.80597 278.914C3.89747 277.527 5.37926 276.499 7.06042 275.962C8.74157 275.425 10.5451 275.404 12.2385 275.901L12.6077 276.007L15.9312 288.973C16.427 287.039 17.4912 282.681 18.1632 278.412L18.2197 278.055L18.5506 278.202C22.0208 279.737 25.2838 281.703 28.2627 284.053C33.5398 288.285 37.8318 293.615 40.8405 299.673C43.8491 305.731 45.5022 312.371 45.6849 319.132L45.6937 319.535L35.8211 316.011Z" fill="#FAFBFF"/>
<path d="M162.673 319.822L1.39496 320C1.21225 320 1.03702 319.927 0.907827 319.798C0.778633 319.669 0.706055 319.494 0.706055 319.311C0.706055 319.128 0.778633 318.953 0.907827 318.824C1.03702 318.695 1.21225 318.622 1.39496 318.622L162.673 318.444C162.855 318.445 163.03 318.518 163.159 318.647C163.287 318.776 163.36 318.951 163.36 319.133C163.36 319.315 163.287 319.49 163.159 319.619C163.03 319.748 162.855 319.821 162.673 319.822Z" fill="#FAFBFF"/>
<path d="M297.076 38.6503H266.411C265.721 38.6503 265.058 38.3761 264.57 37.8879C264.082 37.3998 263.808 36.7377 263.808 36.0473C263.808 35.357 264.082 34.6949 264.57 34.2067C265.058 33.7186 265.721 33.4443 266.411 33.4443H297.076C297.766 33.4443 298.428 33.7186 298.917 34.2067C299.405 34.6949 299.679 35.357 299.679 36.0473C299.679 36.7377 299.405 37.3998 298.917 37.8879C298.428 38.3761 297.766 38.6503 297.076 38.6503Z" fill="#E6E6E6"/>
<path d="M393.66 16.5465C392.399 16.5465 391.167 16.1728 390.118 15.4725C389.07 14.7722 388.253 13.7768 387.77 12.6123C387.288 11.4478 387.162 10.1663 387.408 8.93008C387.654 7.69381 388.261 6.55824 389.152 5.66694C390.044 4.77564 391.18 4.16866 392.416 3.92275C393.653 3.67685 394.934 3.80305 396.099 4.28542C397.264 4.76779 398.26 5.58465 398.96 6.6327C399.66 7.68076 400.034 8.91294 400.034 10.1734C400.034 11.8637 399.363 13.4847 398.167 14.6799C396.972 15.8751 395.35 16.5465 393.66 16.5465Z" fill="#E6E6E6"/>
</g>
<defs>
<clipPath id="clip0_582_48871">
<rect width="406.588" height="320" fill="white" transform="translate(0.706055)"/>
</clipPath>
</defs>
</svg>
