<svg width="230" height="180" viewBox="0 0 230 180" fill="none" xmlns="http://www.w3.org/2000/svg">
<g id="ilustra&#195;&#167;&#195;&#163;o" clip-path="url(#clip0_1761_40496)">
<path id="Vector" d="M115.281 5.03956C115.27 5.62741 115.144 6.20744 114.909 6.74651C114.675 7.28559 114.336 7.77314 113.913 8.18134C113.49 8.58953 112.99 8.91036 112.443 9.12549C111.895 9.34063 111.311 9.44586 110.723 9.43516H89.579C89.5024 9.43321 89.4257 9.43123 89.3491 9.42535C89.151 9.41256 88.954 9.38565 88.7598 9.34481V1.86168C88.7596 1.56227 88.851 1.26996 89.0217 1.0239C89.1923 0.777837 89.434 0.589767 89.7145 0.484863H110.884C112.071 0.507295 113.2 0.999434 114.025 1.85331C114.849 2.70718 115.301 3.85306 115.281 5.03956Z" fill="#E6E6E6"/>
<path id="Vector_2" d="M226.912 1.02799e-05H90.5493C90.2554 -0.000857467 89.964 0.0532182 89.6901 0.159446C89.2254 0.333232 88.8249 0.644797 88.5422 1.05243C88.2596 1.46006 88.1082 1.9443 88.1084 2.44032V151.137C88.1086 151.784 88.3659 152.404 88.8236 152.862C89.2813 153.32 89.902 153.577 90.5493 153.577H226.912C227.56 153.577 228.18 153.32 228.638 152.862C229.096 152.404 229.353 151.784 229.353 151.137V2.44032C229.353 1.79318 229.096 1.17262 228.638 0.71502C228.18 0.257423 227.56 0.000244848 226.912 1.02799e-05ZM228.377 151.137C228.376 151.525 228.222 151.897 227.947 152.171C227.673 152.446 227.3 152.6 226.912 152.601H90.5493C90.161 152.6 89.7889 152.446 89.5143 152.171C89.2398 151.897 89.0853 151.525 89.0847 151.137V2.44032C89.0853 2.05217 89.2398 1.68009 89.5143 1.40563C89.7889 1.13117 90.161 0.976718 90.5493 0.976135H226.912C227.3 0.976718 227.673 1.13117 227.947 1.40563C228.222 1.68009 228.376 2.05217 228.377 2.44032V151.137Z" fill="#E6E6E6"/>
<path id="Vector_3" d="M154.538 51.0909C156.308 51.0909 157.742 49.657 157.742 47.8882C157.742 46.1194 156.308 44.6855 154.538 44.6855C152.769 44.6855 151.335 46.1194 151.335 47.8882C151.335 49.657 152.769 51.0909 154.538 51.0909Z" fill="#0A645E"/>
<path id="Vector_4" d="M167.886 51.0909C169.655 51.0909 171.089 49.657 171.089 47.8882C171.089 46.1194 169.655 44.6855 167.886 44.6855C166.117 44.6855 164.683 46.1194 164.683 47.8882C164.683 49.657 166.117 51.0909 167.886 51.0909Z" fill="#0A645E"/>
<path id="Vector_5" d="M127.844 77.5562C129.613 77.5562 131.047 76.1223 131.047 74.3535C131.047 72.5848 129.613 71.1509 127.844 71.1509C126.075 71.1509 124.641 72.5848 124.641 74.3535C124.641 76.1223 126.075 77.5562 127.844 77.5562Z" fill="#0A645E"/>
<path id="Vector_6" d="M141.191 77.5562C142.96 77.5562 144.394 76.1223 144.394 74.3535C144.394 72.5848 142.96 71.1509 141.191 71.1509C139.422 71.1509 137.987 72.5848 137.987 74.3535C137.987 76.1223 139.422 77.5562 141.191 77.5562Z" fill="#0A645E"/>
<path id="Vector_7" d="M154.538 90.7901C156.308 90.7901 157.742 89.3562 157.742 87.5874C157.742 85.8186 156.308 84.3848 154.538 84.3848C152.769 84.3848 151.335 85.8186 151.335 87.5874C151.335 89.3562 152.769 90.7901 154.538 90.7901Z" fill="#0A645E"/>
<path id="Vector_8" d="M167.886 90.7901C169.655 90.7901 171.089 89.3562 171.089 87.5874C171.089 85.8186 169.655 84.3848 167.886 84.3848C166.117 84.3848 164.683 85.8186 164.683 87.5874C164.683 89.3562 166.117 90.7901 167.886 90.7901Z" fill="#0A645E"/>
<path id="Vector_9" d="M181.234 90.7901C183.003 90.7901 184.437 89.3562 184.437 87.5874C184.437 85.8186 183.003 84.3848 181.234 84.3848C179.464 84.3848 178.03 85.8186 178.03 87.5874C178.03 89.3562 179.464 90.7901 181.234 90.7901Z" fill="#0A645E"/>
<path id="Vector_10" d="M100.964 2.36589C100.893 2.43728 100.853 2.5341 100.853 2.63507C100.853 2.73603 100.893 2.83286 100.964 2.90427L102.599 4.53861H98.5682C98.4674 4.53891 98.3708 4.57915 98.2996 4.65051C98.2284 4.72188 98.1885 4.81854 98.1885 4.91932C98.1885 5.0201 98.2284 5.11676 98.2996 5.18813C98.3708 5.25949 98.4674 5.29973 98.5682 5.30003H102.599L100.964 6.93434C100.893 7.00574 100.853 7.10257 100.853 7.20354C100.853 7.30451 100.893 7.40134 100.964 7.47274C101.036 7.54414 101.133 7.58425 101.234 7.58425C101.335 7.58425 101.432 7.54414 101.503 7.47275L103.788 5.18852C103.859 5.11712 103.899 5.02029 103.899 4.91932C103.899 4.81835 103.859 4.72152 103.788 4.65012L101.503 2.36589C101.432 2.2945 101.335 2.25439 101.234 2.25439C101.133 2.25439 101.036 2.2945 100.964 2.36589Z" fill="white"/>
<path id="Vector_11" d="M197.507 54.7211H111.492C111.159 54.7211 110.89 54.5754 110.89 54.3957C110.89 54.216 111.159 54.0703 111.492 54.0703H197.507C197.84 54.0703 198.109 54.216 198.109 54.3957C198.109 54.5754 197.84 54.7211 197.507 54.7211Z" fill="#E6E6E6"/>
<path id="Vector_12" d="M197.507 40.3466H111.492C111.159 40.3466 110.89 40.2009 110.89 40.0212C110.89 39.8415 111.159 39.6958 111.492 39.6958H197.507C197.84 39.6958 198.109 39.8415 198.109 40.0212C198.109 40.2009 197.84 40.3466 197.507 40.3466Z" fill="#E6E6E6"/>
<path id="Vector_13" d="M197.784 68.1464H111.292C111.206 68.1464 111.123 68.1121 111.062 68.0511C111.001 67.99 110.967 67.9073 110.967 67.821C110.967 67.7347 111.001 67.6519 111.062 67.5909C111.123 67.5299 111.206 67.4956 111.292 67.4956H197.784C197.87 67.4956 197.953 67.5299 198.014 67.5909C198.075 67.6519 198.109 67.7347 198.109 67.821C198.109 67.9073 198.075 67.99 198.014 68.0511C197.953 68.1121 197.87 68.1464 197.784 68.1464Z" fill="#E6E6E6"/>
<path id="Vector_14" d="M197.784 81.162H111.292C111.206 81.162 111.123 81.1277 111.062 81.0667C111.001 81.0057 110.967 80.9229 110.967 80.8366C110.967 80.7503 111.001 80.6676 111.062 80.6065C111.123 80.5455 111.206 80.5112 111.292 80.5112H197.784C197.87 80.5112 197.953 80.5455 198.014 80.6065C198.075 80.6676 198.109 80.7503 198.109 80.8366C198.109 80.9229 198.075 81.0057 198.014 81.0667C197.953 81.1277 197.87 81.162 197.784 81.162Z" fill="#E6E6E6"/>
<path id="Vector_15" d="M197.784 94.5023H111.292C111.206 94.5023 111.123 94.468 111.062 94.407C111.001 94.346 110.967 94.2632 110.967 94.1769C110.967 94.0906 111.001 94.0079 111.062 93.9469C111.123 93.8858 111.206 93.8516 111.292 93.8516H197.784C197.87 93.8516 197.953 93.8858 198.014 93.9469C198.075 94.0079 198.109 94.0906 198.109 94.1769C198.109 94.2632 198.075 94.346 198.014 94.407C197.953 94.468 197.87 94.5023 197.784 94.5023Z" fill="#E6E6E6"/>
<path id="Vector_16" d="M187.696 93.8316V40.2227C187.696 40.1113 187.842 40.021 188.022 40.021C188.201 40.021 188.347 40.1113 188.347 40.2227V93.8316C188.347 93.943 188.201 94.0333 188.022 94.0333C187.842 94.0333 187.696 93.943 187.696 93.8316Z" fill="#E6E6E6"/>
<path id="Vector_17" d="M174.353 93.8316V40.2227C174.353 40.1113 174.498 40.021 174.678 40.021C174.858 40.021 175.003 40.1113 175.003 40.2227V93.8316C175.003 93.943 174.858 94.0333 174.678 94.0333C174.498 94.0333 174.353 93.943 174.353 93.8316Z" fill="#E6E6E6"/>
<path id="Vector_18" d="M161.009 93.8316V40.2227C161.009 40.1113 161.155 40.021 161.334 40.021C161.514 40.021 161.66 40.1113 161.66 40.2227V93.8316C161.66 93.943 161.514 94.0333 161.334 94.0333C161.155 94.0333 161.009 93.943 161.009 93.8316Z" fill="#E6E6E6"/>
<path id="Vector_19" d="M147.991 93.8316V40.2227C147.991 40.1113 148.137 40.021 148.317 40.021C148.496 40.021 148.642 40.1113 148.642 40.2227V93.8316C148.642 93.943 148.496 94.0333 148.317 94.0333C148.137 94.0333 147.991 93.943 147.991 93.8316Z" fill="#E6E6E6"/>
<path id="Vector_20" d="M134.322 107.446V40.2738C134.341 40.2015 134.383 40.1374 134.442 40.0916C134.501 40.0458 134.573 40.021 134.648 40.021C134.722 40.021 134.795 40.0458 134.854 40.0916C134.913 40.1374 134.955 40.2015 134.973 40.2738V107.446C134.955 107.519 134.913 107.583 134.854 107.628C134.795 107.674 134.722 107.699 134.648 107.699C134.573 107.699 134.501 107.674 134.442 107.628C134.383 107.583 134.341 107.519 134.322 107.446Z" fill="#E6E6E6"/>
<path id="Vector_21" d="M120.653 107.446V40.2738C120.672 40.2015 120.714 40.1374 120.773 40.0916C120.832 40.0458 120.904 40.021 120.979 40.021C121.053 40.021 121.126 40.0458 121.185 40.0916C121.244 40.1374 121.286 40.2015 121.304 40.2738V107.446C121.286 107.519 121.244 107.583 121.185 107.628C121.126 107.674 121.053 107.699 120.979 107.699C120.904 107.699 120.832 107.674 120.773 107.628C120.714 107.583 120.672 107.519 120.653 107.446Z" fill="#E6E6E6"/>
<path id="Vector_22" d="M111.293 107.843C111.207 107.843 111.124 107.809 111.063 107.748C111.001 107.687 110.967 107.604 110.967 107.518C110.967 107.432 111.001 107.349 111.062 107.288C111.123 107.227 111.205 107.192 111.292 107.192L144.41 107.048C144.496 107.05 144.577 107.085 144.638 107.145C144.699 107.205 144.734 107.287 144.737 107.372C144.737 107.415 144.729 107.458 144.713 107.497C144.697 107.537 144.673 107.573 144.643 107.603C144.613 107.633 144.577 107.657 144.537 107.674C144.498 107.69 144.456 107.699 144.413 107.699L111.294 107.843H111.293Z" fill="#E6E6E6"/>
<path id="Vector_23" d="M135.506 26.0881C135.42 26.0882 135.337 26.054 135.276 25.993C135.215 25.932 135.181 25.8493 135.181 25.763C135.181 25.6767 135.215 25.5939 135.276 25.5329C135.337 25.4718 135.42 25.4374 135.506 25.4374L181.956 25.3794H181.956C182.043 25.3793 182.125 25.4136 182.186 25.4745C182.247 25.5355 182.282 25.6182 182.282 25.7045C182.282 25.7908 182.248 25.8736 182.187 25.9347C182.126 25.9957 182.043 26.0301 181.957 26.0301L135.507 26.0881H135.506Z" fill="#E6E6E6"/>
<path id="Vector_24" d="M151.234 132.168C149.945 132.168 148.684 131.786 147.612 131.07C146.539 130.353 145.704 129.335 145.21 128.144C144.717 126.953 144.588 125.642 144.839 124.378C145.091 123.113 145.712 121.951 146.624 121.04C147.536 120.128 148.697 119.507 149.962 119.256C151.227 119.004 152.538 119.133 153.73 119.627C154.921 120.12 155.939 120.956 156.656 122.028C157.372 123.1 157.755 124.36 157.755 125.649C157.755 126.505 157.586 127.353 157.259 128.144C156.931 128.935 156.451 129.654 155.845 130.259C155.24 130.864 154.521 131.345 153.73 131.672C152.939 132 152.091 132.168 151.234 132.168Z" fill="#E6E6E6"/>
<path id="Vector_25" d="M153.807 125.006H151.878V123.077C151.878 122.906 151.81 122.743 151.689 122.622C151.569 122.501 151.405 122.434 151.235 122.434C151.064 122.434 150.9 122.501 150.78 122.622C150.659 122.743 150.591 122.906 150.591 123.077V125.006H148.662C148.491 125.006 148.328 125.074 148.207 125.194C148.086 125.315 148.019 125.478 148.019 125.649C148.019 125.819 148.086 125.983 148.207 126.104C148.328 126.224 148.491 126.292 148.662 126.292H150.591V128.221C150.591 128.306 150.608 128.389 150.64 128.468C150.672 128.546 150.72 128.617 150.779 128.677C150.839 128.737 150.91 128.784 150.988 128.817C151.066 128.849 151.15 128.866 151.235 128.866C151.319 128.866 151.403 128.849 151.481 128.817C151.559 128.784 151.63 128.737 151.69 128.677C151.75 128.617 151.797 128.546 151.829 128.468C151.862 128.389 151.878 128.306 151.878 128.221V126.292H153.807C153.978 126.292 154.142 126.224 154.262 126.104C154.383 125.983 154.451 125.819 154.451 125.649C154.451 125.478 154.383 125.315 154.262 125.194C154.142 125.074 153.978 125.006 153.807 125.006Z" fill="white"/>
<path id="Vector_26" d="M166.205 132.168C164.915 132.168 163.655 131.786 162.582 131.07C161.51 130.353 160.674 129.335 160.181 128.144C159.687 126.953 159.558 125.642 159.81 124.378C160.061 123.113 160.682 121.951 161.594 121.04C162.506 120.128 163.668 119.507 164.933 119.256C166.198 119.004 167.509 119.133 168.7 119.627C169.892 120.12 170.91 120.956 171.627 122.028C172.343 123.1 172.726 124.36 172.726 125.649C172.726 126.505 172.557 127.353 172.229 128.144C171.902 128.935 171.421 129.654 170.816 130.259C170.21 130.864 169.491 131.345 168.7 131.672C167.909 132 167.061 132.168 166.205 132.168Z" fill="#E6E6E6"/>
<path id="Vector_27" d="M169.506 128.423L167.807 126.435C168.205 125.872 168.377 125.181 168.291 124.498C168.205 123.814 167.866 123.188 167.341 122.742C166.816 122.296 166.142 122.062 165.454 122.087C164.765 122.112 164.111 122.394 163.62 122.877C163.129 123.36 162.836 124.01 162.8 124.698C162.763 125.386 162.986 126.062 163.423 126.595C163.861 127.127 164.482 127.476 165.164 127.573C165.846 127.671 166.54 127.509 167.109 127.121L168.763 129.057C168.847 129.155 168.967 129.215 169.096 129.225C169.224 129.234 169.352 129.193 169.45 129.109C169.548 129.025 169.609 128.906 169.619 128.778C169.63 128.649 169.589 128.521 169.506 128.423ZM163.764 124.835C163.764 124.481 163.869 124.135 164.066 123.841C164.263 123.547 164.542 123.317 164.869 123.182C165.196 123.047 165.556 123.011 165.904 123.08C166.251 123.149 166.57 123.32 166.82 123.57C167.07 123.82 167.241 124.139 167.31 124.486C167.379 124.833 167.344 125.193 167.208 125.52C167.073 125.847 166.843 126.127 166.549 126.323C166.254 126.52 165.908 126.625 165.554 126.625C165.08 126.624 164.625 126.436 164.289 126.1C163.954 125.765 163.765 125.31 163.764 124.835Z" fill="white"/>
<path id="Vector_28" d="M135.506 132.811C135.42 132.811 135.337 132.777 135.276 132.716C135.215 132.655 135.181 132.572 135.181 132.486C135.181 132.4 135.215 132.317 135.276 132.256C135.337 132.195 135.42 132.16 135.506 132.16L181.956 132.102H181.956C182.043 132.102 182.125 132.136 182.186 132.197C182.247 132.258 182.282 132.341 182.282 132.427C182.282 132.513 182.248 132.596 182.187 132.657C182.126 132.718 182.043 132.753 181.957 132.753L135.507 132.811H135.506Z" fill="#E6E6E6"/>
<path id="Vector_29" d="M76.0641 175.381L80.2159 175.381L82.191 159.371L76.0635 159.371L76.0641 175.381Z" fill="#FFB6B6"/>
<path id="Vector_30" d="M75.0068 174.025V179.403H88.3925V179.234C88.3923 177.853 87.8433 176.528 86.8662 175.551C85.8891 174.574 84.5639 174.025 83.1821 174.025L80.7347 172.17L80.6078 172.222L76.1752 174.025H75.0068Z" fill="#032E58"/>
<path id="Vector_31" d="M38.5518 169.984L42.2674 171.836L51.1785 158.388L45.6944 155.656L38.5518 169.984Z" fill="#FFB6B6"/>
<path id="Vector_32" d="M35.8096 173.114L47.7893 179.081L47.8642 178.932C48.1698 178.32 48.3518 177.653 48.3998 176.971C48.4478 176.289 48.3608 175.603 48.1438 174.955C47.9267 174.306 47.584 173.706 47.1351 173.19C46.6861 172.674 46.1399 172.251 45.5274 171.946L44.1638 169.196L44.0206 169.187L39.2561 168.819L39.1584 168.77L38.2081 168.298L35.8096 173.114Z" fill="#032E58"/>
<path id="Vector_33" d="M78.8802 89.3306L55.9877 90.1316L55.8282 89.8999C55.8282 89.8999 53.8755 94.4551 53.8755 98.3596C53.8755 99.6578 54.7786 108.148 54.3195 109.755C54.2624 109.955 54.6553 110.444 54.5264 111.375C54.4428 111.978 53.9815 111.514 53.8755 112.351C53.7994 112.951 54.6114 113.283 54.5264 113.978C54.4336 114.737 53.3168 117.195 53.2163 118.039C52.1459 127.028 50.7209 140.05 50.7209 140.05C50.7209 140.05 44.9974 155.377 43.7866 155.626C41.7543 156.043 40.3823 159.738 41.5085 160.506C42.0447 160.872 48.9757 163.333 48.9757 163.333C49.3566 163.402 50.548 162.805 49.789 161.392C49.6493 161.132 50.4826 161.794 50.621 161.482C50.7683 161.151 50.4792 159.834 50.6479 159.466C52.1626 156.166 54.4882 151.592 56.6921 149.244C59.9484 145.774 62.0106 141.355 62.5777 136.63L67.6328 108.607L69.3653 116.466L70.7989 117.882L70.4056 121.184L70.4734 124.39L74.0533 137.73C74.0533 137.73 74.5902 162.643 73.7279 163.435C73.2609 163.863 71.279 169.141 75.0297 169.617L81.844 169.091C81.844 169.091 82.7622 167.157 82.3031 166.468C81.844 165.78 81.8715 165.968 82.4316 164.841C82.9917 163.714 82.7622 161.805 82.7622 161.805C83.6548 152.833 84.007 143.816 83.8168 134.802C83.4752 119.996 81.4051 102.987 81.4051 102.641C81.3878 102.287 81.4531 101.933 81.5958 101.608V100.674L80.7165 97.3626L78.8802 89.3306Z" fill="#3D3F45"/>
<path id="Vector_34" d="M49.2427 97.6556C49.0507 97.3276 48.933 96.9616 48.8979 96.5832C48.8627 96.2049 48.911 95.8234 49.0392 95.4657C49.1675 95.108 49.3726 94.7828 49.6402 94.513C49.9077 94.2431 50.2312 94.0352 50.5879 93.9039L50.4234 77.459L54.4805 80.025L54.0142 95.6112C54.1952 96.2248 54.1447 96.8835 53.8724 97.4624C53.6001 98.0413 53.1248 98.5003 52.5367 98.7522C51.9485 99.0042 51.2883 99.0318 50.6812 98.8296C50.0741 98.6275 49.5623 98.2098 49.2427 97.6556Z" fill="#FFB8B8"/>
<path id="Vector_35" d="M50.168 90.7613L50.5133 90.7447L50.5544 90.7457L51.8322 90.7412L53.9366 90.7368L54.089 90.7346L54.1577 90.7477L54.8761 90.8726L54.9059 90.6799L56.3063 88.0056L57.3829 86.5249L56.9912 84.7803L56.2186 83.8182L57.5308 82.2285L57.6966 81.4434L58.7949 76.2795L62.4355 59.1522L62.4357 59.1419L62.5122 58.7785L63.6961 53.2144L63.3314 51.8153L62.925 50.2793C62.6649 49.3041 62.0623 48.4551 61.2273 47.8879C60.865 47.6428 60.4661 47.4565 60.0455 47.336C59.5095 47.1773 58.9464 47.131 58.3916 47.2L58.3854 47.2019C58.0705 47.241 57.7612 47.3157 57.4632 47.4247L57.3447 47.471C57.1797 47.5378 57.0192 47.6151 56.864 47.7023C56.3831 47.9696 55.9602 48.33 55.6199 48.7622C55.2797 49.1945 55.0288 49.6902 54.8819 50.2203L51.0245 54.5162L50.346 56.947L50.1278 57.7277L49.4286 61.8892L49.439 78.2663L49.3145 79.0082L49.1375 83.1196L49.8292 84.0621L49.0477 85.2047L49.0209 85.8318L49.0156 85.9933L50.0595 87.0531L50.1261 89.3388L50.168 90.7613Z" fill="#043F79"/>
<path id="Vector_36" d="M53.9365 94.6846C59.7168 95.6841 63.5928 95.3035 65.9781 91.7562C69.09 87.7945 74.7493 92.4724 79.5242 94.2117L80.0905 93.6L81.0538 92.562L80.1686 91.5599L81.0538 89.6271L80.3151 87.2421L79.3712 87.0697L79.6251 85.0166L80.0221 83.816L78.857 82.5372L77.8677 79.3453L78.5804 72.6654C79.5557 63.509 77.6659 54.2757 73.1715 46.2384L70.467 43.8111L69.3442 42.8024L67.8373 39.9912L66.2459 40.1767L61.937 40.6745L61.7905 41.0259L60.7328 43.5768L56.8904 47.7034C56.3469 48.287 55.934 48.9796 55.6791 49.7352C55.4241 50.4907 55.333 51.2919 55.4117 52.0854L55.5224 53.1982L55.6037 53.9986L55.9878 57.851L57.5532 73.5894L57.6703 74.4256L58.9298 83.4743C56.8828 85.4526 56.7582 85.021 55.8892 88.5025C55.7916 88.8897 54.659 89.7519 54.5874 90.1294C54.4865 90.663 53.9365 94.6846 53.9365 94.6846Z" fill="#043F79"/>
<path id="Vector_37" d="M65.6726 38.3325C69.8059 38.3325 73.1566 34.9825 73.1566 30.8501C73.1566 26.7177 69.8059 23.3677 65.6726 23.3677C61.5392 23.3677 58.1885 26.7177 58.1885 30.8501C58.1885 34.9825 61.5392 38.3325 65.6726 38.3325Z" fill="#FFB6B6"/>
<path id="Vector_38" d="M57.8429 25.2178C58.8474 24.1721 60.4522 23.6563 61.8148 24.1526C62.1195 23.2808 62.6576 22.5093 63.3705 21.9222C64.0834 21.335 64.9438 20.9546 65.8579 20.8225C66.7721 20.6903 67.7049 20.8114 68.555 21.1726C69.4051 21.5338 70.1397 22.1213 70.679 22.871C70.9256 22.7603 71.1965 22.7151 71.4657 22.7399C71.7348 22.7646 71.9931 22.8584 72.2153 23.0122C72.6566 23.3259 73.0121 23.7453 73.2493 24.2319C73.8612 25.3941 74.1464 26.7004 74.0746 28.0118C74.0028 29.3232 73.5766 30.5905 72.8415 31.679C73.1344 31.0877 72.3109 32.106 71.5083 31.8392C70.8189 31.6586 67.987 29.8431 67.2802 29.9349C66.5736 30.0267 66.3443 29.4569 65.653 29.2842C64.9759 29.0676 63.2474 31.8662 62.901 33.7179C62.8353 34.0688 62.6759 34.5048 62.3189 34.5128C61.8793 34.5226 61.7477 33.8931 61.3768 33.6567C61.202 33.5678 60.9996 33.5503 60.8121 33.6077C60.6246 33.6651 60.4667 33.7931 60.3717 33.9646C60.2851 34.1409 60.2417 34.3354 60.2454 34.5318C60.2491 34.7282 60.2996 34.9209 60.3928 35.0938C60.5823 35.4375 60.8261 35.7484 61.1147 36.0145L60.9227 36.1199C60.7336 36.2554 60.5032 36.3208 60.2711 36.3051C60.039 36.2893 59.8196 36.1933 59.6505 36.0336C58.9358 36.356 56.9916 34.5378 57.2497 33.4377C56.7069 32.0893 56.4101 30.6546 56.3733 29.2016C56.3433 27.7359 56.8682 26.313 57.8429 25.2178Z" fill="#2F2E41"/>
<path id="Vector_39" d="M112.743 69.8178C112.38 69.932 111.997 69.9654 111.62 69.9155C111.244 69.8657 110.882 69.7339 110.562 69.5293C110.242 69.3248 109.97 69.0526 109.767 68.7318C109.563 68.411 109.432 68.0494 109.383 67.6726L93.3096 64.1773L96.7139 60.793L111.81 64.7123C112.449 64.6723 113.08 64.8679 113.584 65.262C114.088 65.6562 114.43 66.2214 114.545 66.8508C114.66 67.4801 114.54 68.1297 114.208 68.6766C113.875 69.2234 113.354 69.6295 112.743 69.8178Z" fill="#FFB8B8"/>
<path id="Vector_40" d="M69.3042 46.6187C68.3725 46.6527 67.4788 46.9961 66.7642 47.5947C66.3687 47.9224 66.039 48.3221 65.7924 48.7725C65.5209 49.2611 65.3516 49.7998 65.2947 50.3558L65.2948 50.359C65.2115 51.1779 65.3727 52.0031 65.7579 52.7305C66.1432 53.4579 66.7353 54.0549 67.4595 54.4462L72.7546 57.315L73.4252 57.6776C77.9368 62.2748 85.5442 64.678 94.2958 66.2723L99.3272 67.6483L101.019 67.0207L101.428 68.6285L103.112 68.6835L104.028 68.4933L105.945 67.742L106.31 67.0062L106.31 67.0029L107.097 63.5149L107.102 63.4918L107.102 63.4885L107.285 62.6905L106.205 62.1906L105.265 60.9352L103.565 60.9693L102.014 61.1042L101.56 60.0421L81.9168 50.9543L77.8495 49.0708L77.8394 49.0648L77.6457 48.9739L72.3396 46.5195L70.895 46.5653L69.3042 46.6187Z" fill="#043F79"/>
<path id="Vector_41" d="M112.23 73.8668C113.999 73.8668 115.433 72.4329 115.433 70.6641C115.433 68.8953 113.999 67.4614 112.23 67.4614C110.461 67.4614 109.026 68.8953 109.026 70.6641C109.026 72.4329 110.461 73.8668 112.23 73.8668Z" fill="#0A645E"/>
<path id="Vector_42" d="M20.3999 177.756C18.0497 177.963 15.6829 177.643 13.4724 176.818C11.2618 175.994 9.26341 174.686 7.62305 172.991C5.47818 170.73 4.00628 167.82 2.58281 165.006C2.16845 164.187 1.74013 163.34 1.30438 162.528C0.81857 161.643 0.6089 160.633 0.702385 159.628C0.79587 158.623 1.18822 157.669 1.82891 156.889C2.44288 156.109 3.27638 155.53 4.22203 155.228C5.16768 154.926 6.18214 154.914 7.13469 155.194L7.34241 155.254L9.21184 162.547C9.49073 161.459 10.0893 159.008 10.4674 156.607L10.4991 156.406L10.6853 156.489C12.6373 157.352 14.4727 158.458 16.1483 159.78C19.1167 162.16 21.531 165.158 23.2233 168.566C24.9157 171.973 25.8456 175.708 25.9483 179.512L25.9532 179.738L20.3999 177.756Z" fill="#FAFBFF"/>
<path id="Vector_43" d="M91.7538 179.9L1.03497 180C0.932196 180 0.833629 179.959 0.760958 179.887C0.688286 179.814 0.647461 179.716 0.647461 179.613C0.647461 179.51 0.688286 179.412 0.760958 179.339C0.833629 179.266 0.932196 179.225 1.03497 179.225L91.7538 179.125C91.8563 179.126 91.9546 179.167 92.027 179.239C92.0995 179.312 92.1402 179.41 92.1402 179.513C92.1402 179.615 92.0995 179.714 92.027 179.786C91.9546 179.859 91.8563 179.9 91.7538 179.9Z" fill="#FAFBFF"/>
<path id="Vector_44" d="M167.356 21.7414H150.107C149.719 21.7414 149.346 21.5871 149.072 21.3125C148.797 21.0379 148.643 20.6655 148.643 20.2772C148.643 19.8888 148.797 19.5164 149.072 19.2418C149.346 18.9673 149.719 18.813 150.107 18.813H167.356C167.744 18.813 168.117 18.9673 168.391 19.2418C168.666 19.5164 168.82 19.8888 168.82 20.2772C168.82 20.6655 168.666 21.0379 168.391 21.3125C168.117 21.5871 167.744 21.7414 167.356 21.7414Z" fill="#E6E6E6"/>
<path id="Vector_45" d="M221.683 9.30795C220.974 9.30795 220.281 9.0977 219.691 8.70379C219.102 8.30988 218.642 7.74999 218.371 7.09494C218.099 6.43989 218.028 5.71909 218.167 5.02369C218.305 4.32829 218.646 3.68953 219.148 3.18817C219.649 2.68682 220.288 2.34539 220.984 2.20707C221.679 2.06874 222.4 2.13974 223.056 2.41107C223.711 2.6824 224.271 3.14188 224.665 3.73141C225.059 4.32094 225.269 5.01405 225.269 5.72307C225.269 6.67384 224.891 7.58566 224.219 8.25796C223.546 8.93026 222.634 9.30795 221.683 9.30795Z" fill="#E6E6E6"/>
</g>
<defs>
<clipPath id="clip0_1761_40496">
<rect width="228.706" height="180" fill="white" transform="translate(0.647461)"/>
</clipPath>
</defs>
</svg>
