<svg width="258" height="180" viewBox="0 0 258 180" fill="none" xmlns="http://www.w3.org/2000/svg">
<g clip-path="url(#clip0_582_48555)">
<g clip-path="url(#clip1_582_48555)">
<path d="M128.194 152.1C163.191 152.1 191.562 147.099 191.562 140.931C191.562 134.762 163.191 129.762 128.194 129.762C93.1962 129.762 64.8252 134.762 64.8252 140.931C64.8252 147.099 93.1962 152.1 128.194 152.1Z" fill="#F0F0F0"/>
<path d="M187.113 119.56H68.3516V99.4677H70.1836V84.5129C70.1876 80.9895 71.594 77.6115 74.0941 75.12C76.5943 72.6286 79.9841 71.2271 83.5199 71.2231H172.16C175.696 71.2271 179.086 72.6286 181.586 75.12C184.086 77.6115 185.493 80.9895 185.497 84.5129V99.4677H187.113V119.56Z" fill="#E4E4E4"/>
<path d="M190.331 141.673H184.419V141.566C184.413 136.355 182.333 131.36 178.636 127.676C174.939 123.991 169.926 121.919 164.697 121.913H90.7672C85.5385 121.919 80.5256 123.991 76.8283 127.676C73.1311 131.36 71.0513 136.355 71.0454 141.566V141.673H65.1334C63.7864 141.672 62.4951 141.138 61.5426 140.189C60.5902 139.24 60.0545 137.953 60.053 136.611V103.767C58.3362 102.801 56.9399 97.5511 57.8468 93.3588C58.416 90.7279 60.0592 87.5505 64.6548 87.3538C69.1284 87.162 72.449 91.3474 72.7456 95.3762C72.9063 97.4962 72.2815 99.6014 70.9894 101.293H71.0454V105.979C80.7465 102.881 90.4613 101.304 99.922 101.293C109.603 101.303 119.217 102.897 128.379 106.013C147.43 99.8727 166.283 99.7532 184.419 105.659V101.293H184.475C183.183 99.6014 182.558 97.4962 182.719 95.3762C183.044 90.9572 186.671 87.3584 190.805 87.3537H190.818C195.692 87.3537 197.416 90.2777 198.004 92.732C199.045 97.0755 197.135 102.793 195.411 103.767V136.611C195.41 137.953 194.874 139.24 193.921 140.189C192.969 141.138 191.678 141.672 190.331 141.673Z" fill="#CACACA"/>
<path d="M55.9888 110.217H19.7783V113.331H20.4249V141.576H24.0891V113.331H51.8936V141.576H55.5577V113.331H55.9888V110.217Z" fill="#F0F0F0"/>
<path d="M19.2038 98.9995C19.2105 98.9549 19.2266 98.9121 19.251 98.8741C19.2753 98.836 19.3075 98.8035 19.3453 98.7786L30.7199 91.2957C30.5484 91.2244 30.4051 91.0993 30.3116 90.9393C30.198 90.7418 30.1673 90.5076 30.2265 90.2877C30.2856 90.0678 30.4296 89.8801 30.6271 89.7657L31.5604 89.2287C31.7586 89.1155 31.9937 89.085 32.2144 89.1439C32.435 89.2028 32.6233 89.3464 32.7381 89.5432C32.8002 89.6514 32.8375 89.7719 32.8474 89.8961L41.058 84.4945C41.3338 83.829 41.7519 83.2314 42.2831 82.7434C42.8143 82.2554 43.4459 81.8887 44.1339 81.6687V79.2871H47.1514V81.6688C48.1526 81.9878 49.0261 82.6155 49.646 83.4614C50.2658 84.3074 50.5999 85.3277 50.6 86.3751V87.0195H47.5825C47.5825 87.5321 47.3781 88.0238 47.0143 88.3863C46.6505 88.7489 46.1571 88.9525 45.6427 88.9525C45.1282 88.9525 44.6348 88.7489 44.271 88.3863C43.9072 88.0238 43.7028 87.5321 43.7028 87.0195H40.6853V86.3751C40.6856 86.0662 40.7148 85.758 40.7725 85.4545L20.0012 99.1193L28.6295 109.573C28.6966 109.573 28.7632 109.572 28.8306 109.572C29.519 109.572 30.1861 109.588 30.8216 109.616C30.7833 109.51 30.7666 109.397 30.7724 109.285C30.7849 109.057 30.8872 108.844 31.057 108.692C31.2267 108.539 31.45 108.46 31.6782 108.471L32.7544 108.527C32.9825 108.54 33.1964 108.642 33.3493 108.811C33.5023 108.98 33.5818 109.203 33.5706 109.43C33.5626 109.564 33.5226 109.695 33.4538 109.811C35.3568 110.012 36.59 110.29 36.59 110.431C36.59 110.663 33.2786 110.442 29.1341 110.432C29.115 110.485 29.082 110.533 29.0384 110.57C28.9948 110.607 28.9422 110.631 28.8859 110.641C28.8296 110.651 28.7717 110.646 28.7181 110.626C28.6645 110.606 28.6172 110.573 28.581 110.528L28.5011 110.432C24.3687 110.443 21.0713 110.662 21.0713 110.431C21.0713 110.213 24.003 109.671 27.8017 109.584L19.2737 99.2522C19.2449 99.2173 19.2239 99.1768 19.2118 99.1332C19.1998 99.0897 19.1971 99.0442 19.2038 98.9995Z" fill="#F0F0F0"/>
<path d="M48.4805 109.647V94.9589C48.4805 94.5228 49.1573 94.168 49.9892 94.168C50.8212 94.168 51.498 94.5228 51.498 94.9589V109.647C51.498 110.083 50.8212 110.438 49.9892 110.438C49.1573 110.438 48.4805 110.083 48.4805 109.647Z" fill="#F0F0F0"/>
<path d="M44.8701 109.647V94.9589C44.8701 94.5228 45.5469 94.168 46.3789 94.168C47.2108 94.168 47.8877 94.5228 47.8877 94.9589V109.647C47.8877 110.083 47.2108 110.438 46.3789 110.438C45.5469 110.438 44.8701 110.083 44.8701 109.647Z" fill="#F0F0F0"/>
<path d="M41.2598 109.647V94.9589C41.2598 94.5228 41.9366 94.168 42.7685 94.168C43.6005 94.168 44.2773 94.5228 44.2773 94.9589V109.647C44.2773 110.083 43.6005 110.438 42.7685 110.438C41.9366 110.438 41.2598 110.083 41.2598 109.647Z" fill="#F0F0F0"/>
</g>
<path d="M251.091 95.4899C250.25 95.3706 249.448 95.0579 248.748 94.5765C248.049 94.095 247.471 93.4579 247.06 92.7154C246.649 91.9729 246.417 91.1453 246.381 90.2978C246.345 89.4504 246.507 88.6062 246.854 87.8319C247.201 87.0575 247.723 86.3741 248.379 85.8356C249.036 85.2971 249.809 84.9182 250.637 84.7287C251.465 84.5393 252.326 84.5444 253.152 84.7438C253.978 84.9431 254.747 85.3312 255.397 85.8775L253.947 88.3007L256.265 86.7962C257.132 87.9547 257.503 89.4095 257.296 90.841C257.226 91.3435 257.085 91.8336 256.877 92.2966C256.391 93.3843 255.564 94.2846 254.52 94.8608C253.476 95.437 252.272 95.6579 251.091 95.4899Z" fill="#52B4AD"/>
<path d="M251.091 95.4899C250.25 95.3706 249.448 95.0579 248.748 94.5765C248.049 94.095 247.471 93.4579 247.06 92.7154C246.649 91.9729 246.417 91.1453 246.381 90.2978C246.345 89.4504 246.507 88.6062 246.854 87.8319C247.201 87.0575 247.723 86.3741 248.379 85.8356C249.036 85.2971 249.809 84.9182 250.637 84.7287C251.465 84.5393 252.326 84.5444 253.152 84.7438C253.978 84.9431 254.747 85.3312 255.397 85.8775L253.947 88.3007L256.265 86.7962C257.132 87.9547 257.503 89.4095 257.296 90.841C257.226 91.3435 257.085 91.8336 256.877 92.2966C256.391 93.3843 255.564 94.2846 254.52 94.8608C253.476 95.437 252.272 95.6579 251.091 95.4899Z" fill="black" fill-opacity="0.2"/>
<path d="M229.849 121.238C231.395 119.343 230.593 116.508 229.462 114.341C228.332 112.174 226.89 109.869 227.387 107.476C228.101 104.038 232.158 102.7 235.437 101.429C237.87 100.486 240.183 99.2584 242.327 97.7719C243.186 97.1758 244.031 96.5242 244.631 95.6681C245.494 94.4351 245.771 92.8979 246.015 91.4133C246.828 86.4677 247.523 81.5048 248.102 76.5247" stroke="#3D3F45" stroke-miterlimit="10"/>
<path d="M251.234 94.7438C250.393 94.6245 249.591 94.3118 248.891 93.8304C248.191 93.3489 247.613 92.7118 247.202 91.9693C246.792 91.2268 246.559 90.3992 246.523 89.5518C246.488 88.7043 246.65 87.8601 246.996 87.0858C247.343 86.3114 247.865 85.628 248.522 85.0895C249.179 84.551 249.951 84.1721 250.78 83.9826C251.608 83.7932 252.469 83.7983 253.295 83.9977C254.121 84.197 254.889 84.5852 255.539 85.1315L254.09 87.5546L256.407 86.0501C257.274 87.2086 257.646 88.6634 257.439 90.0949C257.369 90.5974 257.227 91.0875 257.019 91.5505C256.534 92.6382 255.706 93.5385 254.663 94.1147C253.619 94.6909 252.415 94.9118 251.234 94.7438Z" stroke="#044E49" stroke-miterlimit="10"/>
<path d="M253.534 78.3111C253.664 77.4022 253.563 76.4752 253.24 75.6156C252.917 74.7559 252.382 73.9912 251.685 73.3919L250.024 75.5447L250.611 72.6676C249.577 72.1367 248.4 71.9477 247.251 72.1278C246.102 72.308 245.04 72.8479 244.219 73.6697C243.397 74.4915 242.859 75.5526 242.681 76.6999C242.503 77.8472 242.695 79.0213 243.229 80.0526C243.763 81.0839 244.611 81.9191 245.652 82.4376C246.693 82.9561 247.871 83.1311 249.018 82.9373C250.165 82.7435 251.22 82.191 252.032 81.3595C252.843 80.5279 253.369 79.4605 253.534 78.3111Z" fill="#52B4AD"/>
<path d="M253.534 78.3111C253.664 77.4022 253.563 76.4752 253.24 75.6156C252.917 74.7559 252.382 73.9912 251.685 73.3919L250.024 75.5447L250.611 72.6676C249.577 72.1367 248.4 71.9477 247.251 72.1278C246.102 72.308 245.04 72.8479 244.219 73.6697C243.397 74.4915 242.859 75.5526 242.681 76.6999C242.503 77.8472 242.695 79.0213 243.229 80.0526C243.763 81.0839 244.611 81.9191 245.652 82.4376C246.693 82.9561 247.871 83.1311 249.018 82.9373C250.165 82.7435 251.22 82.191 252.032 81.3595C252.843 80.5279 253.369 79.4605 253.534 78.3111Z" fill="black" fill-opacity="0.2"/>
<path d="M253.723 77.3163C253.853 76.4074 253.752 75.4804 253.429 74.6207C253.106 73.761 252.572 72.9963 251.875 72.3971L250.213 74.5498L250.801 71.6727C249.766 71.1419 248.59 70.9528 247.441 71.133C246.292 71.3131 245.23 71.853 244.408 72.6748C243.587 73.4966 243.048 74.5578 242.87 75.7051C242.692 76.8523 242.884 78.0264 243.418 79.0577C243.952 80.089 244.801 80.9242 245.842 81.4427C246.882 81.9613 248.061 82.1362 249.208 81.9425C250.354 81.7487 251.41 81.1961 252.221 80.3646C253.033 79.5331 253.559 78.4656 253.723 77.3163Z" stroke="#044E49" stroke-miterlimit="10"/>
<path d="M236.262 101.929C234.928 101.739 233.711 101.066 232.843 100.037C231.974 99.0092 231.515 97.698 231.553 96.3537C231.591 95.0093 232.123 93.7259 233.048 92.748C233.973 91.7702 235.226 91.1662 236.568 91.0513L236.117 93.2622L237.797 91.0837C237.802 91.0839 237.807 91.0846 237.812 91.0856C239.253 91.2908 240.552 92.0588 241.426 93.2207C242.299 94.3826 242.674 95.8431 242.468 97.281C242.263 98.7189 241.493 100.016 240.329 100.888C239.165 101.76 237.702 102.134 236.262 101.929Z" fill="#52B4AD"/>
<path d="M236.262 101.929C234.928 101.739 233.711 101.066 232.843 100.037C231.974 99.0092 231.515 97.698 231.553 96.3537C231.591 95.0093 232.123 93.7259 233.048 92.748C233.973 91.7702 235.226 91.1662 236.568 91.0513L236.117 93.2622L237.797 91.0837C237.802 91.0839 237.807 91.0846 237.812 91.0856C239.253 91.2908 240.552 92.0588 241.426 93.2207C242.299 94.3826 242.674 95.8431 242.468 97.281C242.263 98.7189 241.493 100.016 240.329 100.888C239.165 101.76 237.702 102.134 236.262 101.929Z" fill="black" fill-opacity="0.2"/>
<path d="M236.493 100.942C235.159 100.752 233.942 100.079 233.074 99.0503C232.206 98.0221 231.747 96.7109 231.784 95.3666C231.822 94.0223 232.354 92.7388 233.279 91.761C234.204 90.7831 235.457 90.1791 236.8 90.0642L236.348 92.2751L238.029 90.0966C238.034 90.0969 238.039 90.0975 238.044 90.0985C238.757 90.2001 239.443 90.441 240.063 90.8073C240.683 91.1737 241.225 91.6583 241.657 92.2336C242.09 92.8089 242.404 93.4636 242.583 94.1603C242.762 94.857 242.802 95.582 242.7 96.294C242.598 97.006 242.357 97.691 241.99 98.3099C241.623 98.9288 241.137 99.4694 240.561 99.901C239.985 100.333 239.329 100.647 238.631 100.825C237.933 101.004 237.206 101.043 236.493 100.942Z" stroke="#044E49" stroke-miterlimit="10"/>
<path d="M237.016 112.638C236.241 113.627 235.149 114.32 233.923 114.601C232.697 114.882 231.411 114.733 230.281 114.18C229.152 113.627 228.247 112.703 227.719 111.563C227.191 110.423 227.072 109.137 227.381 107.92C227.691 106.702 228.41 105.628 229.419 104.878C230.427 104.127 231.664 103.745 232.921 103.796C234.178 103.848 235.379 104.329 236.323 105.159C237.267 105.989 237.896 107.119 238.105 108.357L234.217 110.45L238.083 110.298C237.92 111.152 237.555 111.955 237.016 112.638Z" fill="#52B4AD"/>
<path d="M237.016 112.638C236.241 113.627 235.149 114.32 233.923 114.601C232.697 114.882 231.411 114.733 230.281 114.18C229.152 113.627 228.247 112.703 227.719 111.563C227.191 110.423 227.072 109.137 227.381 107.92C227.691 106.702 228.41 105.628 229.419 104.878C230.427 104.127 231.664 103.745 232.921 103.796C234.178 103.848 235.379 104.329 236.323 105.159C237.267 105.989 237.896 107.119 238.105 108.357L234.217 110.45L238.083 110.298C237.92 111.152 237.555 111.955 237.016 112.638Z" fill="black" fill-opacity="0.2"/>
<path d="M237.159 111.891C236.384 112.88 235.292 113.573 234.065 113.854C232.839 114.135 231.554 113.986 230.424 113.433C229.295 112.88 228.39 111.956 227.862 110.816C227.334 109.676 227.214 108.39 227.524 107.173C227.833 105.955 228.553 104.881 229.561 104.13C230.57 103.38 231.806 102.998 233.063 103.049C234.32 103.101 235.521 103.582 236.465 104.412C237.409 105.242 238.038 106.371 238.247 107.61L234.359 109.703L238.225 109.551C238.063 110.405 237.697 111.208 237.159 111.891Z" stroke="#044E49" stroke-miterlimit="10"/>
<path d="M103.871 1.97314H85.6807V22.2363H103.871V1.97314Z" fill="#044E49"/>
<path d="M107.035 0.130859H88.8447V20.394H107.035V0.130859Z" stroke="#3F3D56" stroke-miterlimit="10"/>
<path d="M61.6906 24.8677H43.5V45.1308H61.6906V24.8677Z" fill="#52B4AD"/>
<path d="M61.6906 24.8677H43.5V45.1308H61.6906V24.8677Z" fill="black" fill-opacity="0.2"/>
<path d="M64.8537 23.0264H46.6631V43.2895H64.8537V23.0264Z" stroke="#3F3D56" stroke-miterlimit="10"/>
<path d="M143.68 34.0786H125.489V54.3418H143.68V34.0786Z" fill="#044E49"/>
<path d="M146.844 32.2366H128.653V52.4997H146.844V32.2366Z" stroke="#3F3D56" stroke-miterlimit="10"/>
<path d="M172.547 150.158C185.142 150.158 195.352 138.6 195.352 124.342C195.352 110.084 185.142 98.5264 172.547 98.5264C159.953 98.5264 149.743 110.084 149.743 124.342C149.743 138.6 159.953 150.158 172.547 150.158Z" fill="#36334A"/>
<path d="M201.82 38.4407C196.34 40.8272 190.364 41.8604 184.399 41.4528C185.932 40.3619 186.915 38.6101 187.311 36.7734C187.707 34.9368 187.557 33.0173 187.147 31.1835C187.072 30.9741 187.077 30.7447 187.16 30.5383C187.243 30.4347 187.349 30.3512 187.47 30.2939C187.59 30.2366 187.722 30.207 187.856 30.2074C190.166 29.8864 196.782 28.4927 198.541 30.4667C199.375 31.4021 199.056 33.219 199.36 34.3615C199.486 34.8334 201.094 38.7579 201.82 38.4407Z" fill="#FBBEBE"/>
<path opacity="0.1" d="M201.82 38.4407C196.34 40.8272 190.364 41.8604 184.399 41.4528C185.932 40.3619 186.915 38.6101 187.311 36.7734C187.707 34.9368 187.557 33.0173 187.147 31.1835C187.072 30.9741 187.077 30.7447 187.16 30.5383C187.243 30.4347 187.349 30.3512 187.47 30.2939C187.59 30.2366 187.722 30.207 187.856 30.2074C190.166 29.8864 196.782 28.4927 198.541 30.4667C199.375 31.4021 199.056 33.219 199.36 34.3615C199.486 34.8334 201.094 38.7579 201.82 38.4407Z" fill="black"/>
<path d="M182.565 77.6311L148.293 78.6837C148.293 78.6837 117.976 108.157 143.021 117.105C143.021 117.105 173.866 122.105 181.247 116.315C181.247 116.315 190.474 79.9995 182.565 77.6311ZM180.984 87.3679L144.339 89.7364C144.339 89.7364 146.975 80.789 157.52 80.789C168.066 80.789 179.929 78.4206 180.984 83.9469C182.038 89.4732 180.984 87.3679 180.984 87.3679Z" fill="#3F3D56"/>
<path d="M155.547 72.9096C153.838 72.6485 151.979 72.4976 150.482 73.3616C149.984 73.6727 149.521 74.0372 149.102 74.4486C148.5 75.0005 147.902 75.5572 147.309 76.1188C146.876 76.5295 146.422 76.9823 146.311 77.5686C146.082 78.7749 147.478 79.7463 148.707 79.6992C149.936 79.652 151.039 78.9779 152.199 78.5719C154.537 77.754 163.134 79.1521 163.603 76.6394C164.201 73.4445 157.449 73.2115 155.547 72.9096Z" fill="#FBBEBE"/>
<path d="M171.568 70.8925C169.333 72.0258 166.899 72.7157 164.4 72.924C164.01 72.9305 163.625 73.0124 163.266 73.165C163.049 73.2985 162.883 73.5005 162.794 73.739C161.916 75.5744 161.373 77.5516 161.192 79.5774C161.168 79.6747 161.173 79.7767 161.206 79.8713C161.238 79.9658 161.298 80.049 161.377 80.1107C161.617 80.2309 161.883 80.2905 162.151 80.2843C166.253 80.5442 170.368 80.6838 174.497 80.703C174.679 80.717 174.862 80.6922 175.034 80.63C175.094 80.5983 175.146 80.5549 175.189 80.5025C175.231 80.4501 175.263 80.3896 175.281 80.3248C176.25 77.9205 176.707 75.3413 176.622 72.7511C176.515 69.7008 175.62 68.7456 171.568 70.8925Z" fill="#D7E5F2"/>
<path opacity="0.1" d="M171.568 70.8925C169.333 72.0258 166.899 72.7157 164.4 72.924C164.01 72.9305 163.625 73.0124 163.266 73.165C163.049 73.2985 162.883 73.5005 162.794 73.739C161.916 75.5744 161.373 77.5516 161.192 79.5774C161.168 79.6747 161.173 79.7767 161.206 79.8713C161.238 79.9658 161.298 80.049 161.377 80.1107C161.617 80.2309 161.883 80.2905 162.151 80.2843C166.253 80.5442 170.368 80.6838 174.497 80.703C174.679 80.717 174.862 80.6922 175.034 80.63C175.094 80.5983 175.146 80.5549 175.189 80.5025C175.231 80.4501 175.263 80.3896 175.281 80.3248C176.25 77.9205 176.707 75.3413 176.622 72.7511C176.515 69.7008 175.62 68.7456 171.568 70.8925Z" fill="black"/>
<path d="M217.629 98.4211L172.548 96.8422L183.093 52.3685C183.093 52.3685 225.274 49.2106 224.22 60.0001C223.165 70.7896 217.629 98.4211 217.629 98.4211Z" fill="#36334A"/>
<path d="M174.108 119.681C174.108 119.681 146.975 124.474 137.221 110.263C127.466 96.0527 174.129 103.684 174.129 103.684L178.084 114.474L174.108 119.681Z" fill="#36334A"/>
<path d="M165.957 180C172.8 180 178.348 174.462 178.348 167.632C178.348 160.801 172.8 155.263 165.957 155.263C159.114 155.263 153.566 160.801 153.566 167.632C153.566 174.462 159.114 180 165.957 180Z" fill="#36334A"/>
<path d="M167.143 176.579C171.439 176.579 174.921 172.573 174.921 167.631C174.921 162.69 171.439 158.684 167.143 158.684C162.848 158.684 159.366 162.69 159.366 167.631C159.366 172.573 162.848 176.579 167.143 176.579Z" fill="#3F3D56"/>
<path d="M233.71 51.0529C233.71 51.0529 223.428 45.2634 222.901 58.9476L214.201 122.632H217.892L227.91 54.4739C227.91 54.4739 232.919 55.2634 233.71 55.2634C234.501 55.2634 233.71 51.0529 233.71 51.0529Z" fill="#3F3D56"/>
<path d="M243.956 58.0796C243.862 58.4176 243.696 58.7316 243.471 59.0007C243.245 59.2697 242.965 59.4874 242.648 59.6393C242.331 59.7913 241.985 59.8738 241.634 59.8815C241.283 59.8892 240.934 59.8219 240.611 59.684L228.684 54.5938L230.847 49.8367L242.602 55.181C243.137 55.424 243.567 55.8495 243.815 56.3809C244.063 56.9123 244.113 57.5147 243.956 58.0796Z" fill="#36334A"/>
<path d="M171.493 118.158C171.493 118.158 152.511 116.053 147.239 134.211C141.966 152.369 142.493 166.316 138.012 165.264C133.53 164.211 124.039 160.527 124.039 160.527L124.83 166.053C124.83 166.053 141.439 174.474 144.075 165.527C146.711 156.579 148.293 123.685 163.32 124.474C178.347 125.264 180.984 123.685 180.984 123.685L171.493 118.158Z" fill="#3F3D56"/>
<path d="M135.375 109.474C135.375 109.474 120.612 111.316 114.812 122.105C109.012 132.895 106.112 152.369 106.112 152.369H111.649C111.649 152.369 114.812 113.684 131.421 115.79L135.375 109.474Z" fill="#3F3D56"/>
<path d="M125.358 169.737L101.895 155.263C101.895 155.263 100.576 150 115.603 147.895C115.603 147.895 144.014 157.813 141.277 161.538C138.539 165.263 129.312 171.052 125.358 169.737Z" fill="#36334A"/>
<path d="M161.739 122.632V153.421H165.166V122.105L161.739 122.632Z" fill="#3F3D56"/>
<path d="M166.748 141.579C166.748 141.579 173.339 167.368 169.121 171.052C169.121 171.052 163.584 154.737 159.366 156.842L160.684 141.579H166.748Z" fill="#36334A"/>
<path d="M192.32 34.2109C197.998 34.2109 202.601 29.6159 202.601 23.9477C202.601 18.2795 197.998 13.6846 192.32 13.6846C186.641 13.6846 182.038 18.2795 182.038 23.9477C182.038 29.6159 186.641 34.2109 192.32 34.2109Z" fill="#FBBEBE"/>
<path d="M190.376 39.5026C194.569 40.2138 198.192 35.3477 202.39 36.032C203.303 36.2185 204.176 36.5616 204.972 37.046C208.064 38.7922 210.758 41.1612 212.883 44.0026C215.008 46.844 216.518 50.0957 217.317 53.5509C217.791 55.6617 217.975 57.9505 217.082 59.9215C216.607 60.9692 215.856 61.864 215.105 62.7358C212.312 65.9779 209.247 69.2088 205.262 70.7775C204.873 72.1232 205.247 73.5802 205.714 74.9012C207.662 80.4165 204.563 86.3605 204.405 92.2066C204.378 93.2065 204.408 94.3023 203.782 95.0831C203.087 95.9499 201.845 96.1038 200.735 96.1663C190.554 96.7388 180.388 95.1798 170.311 93.6256C170.047 93.6076 169.793 93.5215 169.572 93.3759C169.241 93.1118 169.191 92.6397 169.12 92.2224C168.746 90.0134 170.711 88.2222 169.78 86.1841C168.178 82.6805 171.672 78.849 172.68 75.1315C173.687 71.414 174.084 70.7601 174.789 66.9736C175.052 65.5578 174.293 61.2897 174.525 59.8684C175.282 55.2258 174.71 49.9377 177.161 45.921C178.635 43.5077 178.252 41.6311 180.881 40.5819C183.655 39.4747 187.408 39.8474 190.376 39.5026Z" fill="#C5DBF2"/>
<path d="M143.942 100.709C140.873 101.299 137.614 101.863 135.252 103.907C133.809 105.155 132.84 106.847 131.898 108.505L122.289 125.417C119.358 130.575 116.426 135.735 113.768 141.039C113.536 141.425 113.4 141.86 113.371 142.309C113.382 142.942 113.808 143.486 114.244 143.946C115.76 145.514 117.622 146.708 119.682 147.431C121.742 148.154 123.943 148.386 126.109 148.11C126.77 144.694 130.023 142.436 131.618 139.342C132.494 137.641 132.846 135.73 133.411 133.903C135.521 127.09 140.528 121.619 145.39 116.394C147.688 113.925 150.04 111.412 153 109.792C156.474 107.891 160.504 107.365 164.385 106.575C168.266 105.786 172.285 104.589 175.031 101.739C176.197 100.512 177.075 99.0417 177.601 97.4342C178.128 95.8267 178.289 94.1226 178.075 92.445C175.589 92.2714 172.821 91.9486 170.423 92.7468C167.637 93.674 164.943 94.941 162.153 95.888C156.201 97.9089 150.116 99.5195 143.942 100.709Z" fill="#696880"/>
<path opacity="0.1" d="M143.942 100.709C140.873 101.299 137.614 101.863 135.252 103.907C133.809 105.155 132.84 106.847 131.898 108.505L122.289 125.417C119.358 130.575 116.426 135.735 113.768 141.039C113.536 141.425 113.4 141.86 113.371 142.309C113.382 142.942 113.808 143.486 114.244 143.946C115.76 145.514 117.622 146.708 119.682 147.431C121.742 148.154 123.943 148.386 126.109 148.11C126.77 144.694 130.023 142.436 131.618 139.342C132.494 137.641 132.846 135.73 133.411 133.903C135.521 127.09 140.528 121.619 145.39 116.394C147.688 113.925 150.04 111.412 153 109.792C156.474 107.891 160.504 107.365 164.385 106.575C168.266 105.786 172.285 104.589 175.031 101.739C176.197 100.512 177.075 99.0417 177.601 97.4342C178.128 95.8267 178.289 94.1226 178.075 92.445C175.589 92.2714 172.821 91.9486 170.423 92.7468C167.637 93.674 164.943 94.941 162.153 95.888C156.201 97.9089 150.116 99.5195 143.942 100.709Z" fill="black"/>
<path d="M102.513 154.337C102.171 154.582 101.907 154.921 101.756 155.313C101.407 156.499 102.895 157.336 104.086 157.678C106.761 158.446 109.615 159.216 112.284 158.424C113.92 157.939 115.344 156.898 116.97 156.378C119.383 155.606 121.996 156.045 124.491 156.489C125.048 153.359 124.673 150.135 123.412 147.215C122.612 145.373 119.409 144.476 117.502 144.395C115.417 144.306 114.693 145.842 113.49 147.255C110.559 150.697 105.889 151.495 102.513 154.337Z" fill="#3F3D56"/>
<path d="M145.9 105.749C144.425 106.335 142.913 106.945 141.756 108.029C140.534 109.175 139.819 110.746 139.167 112.287C137.24 116.842 135.6 121.513 134.256 126.272C133.576 128.677 132.971 131.109 132.056 133.435C130.229 138.076 127.13 142.521 127.421 147.499C127.42 148.103 127.583 148.697 127.893 149.217C128.307 149.816 129.011 150.134 129.679 150.424L133.185 151.943C135.066 152.758 137.361 153.542 139.042 152.369C140.167 151.584 140.616 150.16 140.955 148.833C142.18 144.039 142.938 139.06 145.133 134.624C147.614 129.611 151.81 125.559 154.03 120.425C154.344 119.699 154.642 118.919 155.259 118.423C155.77 118.013 156.431 117.854 157.07 117.709C170.236 114.716 183.699 113.079 196.76 109.658C198.617 109.171 200.559 108.594 201.884 107.207C203.721 105.283 203.884 102.36 203.943 99.7041C203.98 98.0397 203.972 96.2313 202.956 94.911C201.811 93.4219 199.756 93.0288 197.885 92.8323C190.711 92.079 184.094 93.2657 177.028 94.1349C170.563 94.9302 164.051 98.5728 158.02 100.953C153.978 102.547 149.939 104.146 145.9 105.749Z" fill="#696880"/>
<path d="M129.679 153.323C128.693 155.66 127.629 158.101 125.629 159.665C124.793 160.319 123.713 160.973 123.679 162.031C123.644 163.152 124.823 163.891 125.879 164.272C128.569 165.24 131.63 165.447 134.255 164.314C136.05 163.538 137.531 162.199 138.975 160.882C139.41 160.486 139.861 160.067 140.065 159.516C140.204 159.051 140.246 158.562 140.187 158.081C140.014 155.157 139.492 152.265 138.631 149.465C138.565 149.245 132.892 148.539 132.389 148.67C130.805 149.083 130.29 151.876 129.679 153.323Z" fill="#3F3D56"/>
<path d="M217.893 85.5264L183.62 86.579C183.62 86.579 153.303 116.053 178.348 125C178.348 125 209.193 130 216.574 124.211C216.574 124.211 225.802 87.8948 217.893 85.5264ZM216.311 95.2632L179.666 97.6316C179.666 97.6316 182.302 88.6843 192.848 88.6843C203.393 88.6843 215.256 86.3158 216.311 91.8422C217.365 97.3685 216.311 95.2632 216.311 95.2632Z" fill="#3F3D56"/>
<path d="M210.115 180C229.116 180 244.519 162.563 244.519 141.053C244.519 119.543 229.116 102.105 210.115 102.105C191.114 102.105 175.711 119.543 175.711 141.053C175.711 162.563 191.114 180 210.115 180Z" fill="#36334A"/>
<path d="M211.697 170C226.039 170 237.665 157.04 237.665 141.053C237.665 125.066 226.039 112.105 211.697 112.105C197.356 112.105 185.729 125.066 185.729 141.053C185.729 157.04 197.356 170 211.697 170Z" fill="#3F3D56"/>
<path d="M218.42 140.658C218.419 140.153 218.369 139.649 218.269 139.154L237.665 129.474L236.347 126.579L216.754 136.107C216.557 135.904 216.338 135.722 216.103 135.564L216.118 135.567L221.847 107.105L216.779 106.99L213.411 135L213.734 135.068C213.472 135.121 213.218 135.208 212.978 135.325L196.033 117.963L193.638 121.316L211.048 137.304C210.612 138.141 210.349 139.058 210.277 139.998L185.729 150L185.202 154.211L210.79 143.468C211.029 144.059 211.367 144.605 211.79 145.082L203.92 171.842H206.82L213.426 146.171C213.719 146.265 214.025 146.314 214.333 146.316C214.928 146.31 215.509 146.137 216.009 145.814L229.756 163.947L233.974 161.053L217.867 143.49C218.237 142.592 218.425 141.629 218.42 140.658Z" fill="#36334A"/>
<path d="M180.372 17.4501C180.836 16.2859 182.334 15.8043 182.824 14.6509C183.352 13.4104 182.525 11.832 183.243 10.6906C183.966 9.54065 185.652 9.67541 186.994 9.8976C188.578 10.1599 190.263 10.3363 191.741 9.70878C192.398 9.4297 192.981 9.00355 193.618 8.68022C194.629 8.16804 195.756 7.92358 196.889 7.97022C197.145 7.96438 197.398 8.02461 197.624 8.14506C197.838 8.29962 198.003 8.51266 198.1 8.75864C198.562 9.75804 198.628 11.0054 199.465 11.7223C199.867 12.0666 200.388 12.2289 200.87 12.4493C201.991 12.9895 202.919 13.86 203.529 14.9434C204.139 16.0268 204.401 17.2709 204.28 18.5078C204.17 19.0806 204.101 19.6604 204.073 20.243C204.106 21.5227 204.944 22.8009 204.516 24.0076C204.197 24.9045 203.267 25.4353 202.355 25.7118C202.095 25.8171 201.808 25.8316 201.539 25.753C201.071 25.5638 200.978 24.9637 200.828 24.4824C200.617 23.8522 200.21 23.3058 199.666 22.923C199.121 22.5402 198.469 22.341 197.803 22.3545C196.74 22.3996 195.664 22.9958 194.66 22.6411C194.167 22.4668 193.782 22.0863 193.387 21.743C192.48 20.9531 191.408 20.2958 190.216 20.1277C189.024 19.9595 187.704 20.3607 187.002 21.3368C186.718 21.7311 186.546 22.1952 186.276 22.5984C183.846 26.2218 179.369 19.9643 180.372 17.4501Z" fill="#36334A"/>
<path d="M185.85 79.9964C185.399 79.9379 184.94 79.9901 184.514 80.1486C184.087 80.3071 183.706 80.567 183.403 80.9058C181.096 83.0038 178.651 85.3686 178.233 88.4558C178.169 88.7372 178.203 89.0319 178.329 89.2916C178.551 89.6546 179.039 89.735 179.465 89.7421C180.543 89.7529 181.611 89.5336 182.597 89.0989C183.583 88.6642 184.465 88.0241 185.183 87.2216C185.578 86.7734 185.941 86.2605 186.484 86.0081C186.98 85.8239 187.512 85.758 188.038 85.8158C189.485 85.863 192.79 86.6025 194.052 85.8859C195.378 85.1324 195.013 82.7702 194.394 81.6313C192.922 78.9239 188.356 79.9693 185.85 79.9964Z" fill="#FBBEBE"/>
<path d="M218.05 57.2606C218.937 60.1071 218.417 63.3132 219.673 66.0177C220.507 67.8128 222.075 69.2597 222.56 71.1781C223.019 72.9909 222.405 74.9443 221.327 76.4734C220.249 78.0024 218.748 79.1767 217.242 80.2894C215.594 81.5079 213.882 82.697 211.94 83.3558C210.003 84.013 207.928 84.1123 205.884 84.2058L192.338 84.8257L189.843 77.3597L198.669 73.9087C199.553 73.5633 200.453 73.214 201.399 73.1441C203.032 73.0235 205.025 73.6221 206.074 72.3664C206.407 71.9049 206.619 71.3673 206.691 70.8029C207.547 66.4167 206.802 61.776 208.119 57.5054C208.771 55.3916 210.653 51.1515 213.22 50.7784C215.94 50.3831 217.435 55.2854 218.05 57.2606Z" fill="#C5DBF2"/>
</g>
<defs>
<clipPath id="clip0_582_48555">
<rect width="257.4" height="180" fill="white" transform="translate(0.299805)"/>
</clipPath>
<clipPath id="clip1_582_48555">
<rect width="179.1" height="100.8" fill="white" transform="translate(19.2002 51.3)"/>
</clipPath>
</defs>
</svg>
