<svg width="222" height="180" viewBox="0 0 222 180" fill="none" xmlns="http://www.w3.org/2000/svg">
<g id="ilustra&#195;&#167;&#195;&#163;o" clip-path="url(#clip0_582_48328)">
<g id="Group">
<path id="Vector" d="M69.8612 145.098C69.539 144.555 68.1448 145.136 67.8885 144.644C67.633 144.153 68.9284 143.406 69.6685 141.699C69.802 141.391 70.643 139.45 70.0204 138.852C68.8402 137.717 63.4399 142.4 61.55 140.868C61.1352 140.531 60.8455 139.86 59.5902 138.77C59.0908 138.336 58.7888 138.14 58.4966 138.213C58.0819 138.316 58.0491 138.87 57.6044 139.96C56.9375 141.593 56.5431 141.495 56.1546 142.798C55.8662 143.765 55.9321 144.328 55.5927 144.437C55.1124 144.592 54.6703 143.566 54.0616 143.658C53.4405 143.752 53.065 144.947 52.9464 145.841C52.7238 147.52 53.3415 148.628 53.6838 149.793C54.0558 151.058 54.2766 152.984 53.4175 155.709L44.9141 179.623C46.7914 174.716 52.227 161.264 54.5111 156.265C55.1704 154.822 55.8985 153.359 57.3933 152.781C58.8326 152.225 60.8091 152.557 63.329 151.951C63.6233 151.88 64.44 151.673 64.5428 151.193C64.6278 150.797 64.1474 150.576 64.2212 150.204C64.3202 149.706 65.2648 149.7 66.4257 149.126C67.2443 148.721 67.7542 148.239 68.1928 147.824C68.325 147.7 70.2903 145.82 69.8612 145.098Z" fill="#FAFBFF"/>
<path id="Vector_2" d="M36.4066 157.687C36.0469 157.689 35.9302 158.539 35.6142 158.523C35.2993 158.506 35.3056 157.656 34.6797 156.801C34.5668 156.647 33.8554 155.675 33.3814 155.807C32.4829 156.058 33.2274 160.055 31.9285 160.539C31.6435 160.645 31.2298 160.593 30.3316 160.893C29.9743 161.013 29.7909 161.104 29.7424 161.269C29.6736 161.502 29.9365 161.677 30.3437 162.21C30.9545 163.008 30.7922 163.172 31.3209 163.739C31.7134 164.159 32.009 164.289 31.965 164.487C31.9027 164.767 31.2705 164.688 31.1401 165.012C31.007 165.344 31.4861 165.872 31.8918 166.189C32.653 166.782 33.3759 166.799 34.0474 166.967C34.7772 167.15 35.7875 167.598 36.8796 168.805L46.1851 179.871C44.3138 177.535 39.2678 170.991 37.4688 168.43C36.9495 167.69 36.4399 166.911 36.5871 166.012C36.7289 165.147 37.4625 164.274 37.8916 162.865C37.9418 162.7 38.0754 162.24 37.8693 162.052C37.6989 161.896 37.4515 162.067 37.2903 161.924C37.074 161.732 37.3435 161.267 37.396 160.533C37.4329 160.015 37.3432 159.626 37.266 159.291C37.2427 159.191 36.8854 157.685 36.4066 157.687Z" fill="#FAFBFF"/>
<path id="Vector_3" d="M43.5829 159.295L43.3662 157.364L43.4652 157.218C43.9234 156.541 44.1569 155.88 44.1597 155.252C44.1602 155.152 44.1555 155.052 44.1509 154.951C44.1322 154.548 44.1088 154.047 44.3704 153.464C44.517 153.138 44.929 152.385 45.5483 152.478C45.7151 152.501 45.8412 152.578 45.9369 152.667C45.9509 152.645 45.9654 152.623 45.9808 152.598C46.1737 152.305 46.3264 152.179 46.4736 152.058C46.5866 151.964 46.7034 151.868 46.8864 151.641C46.9668 151.541 47.0294 151.453 47.0822 151.38C47.2424 151.157 47.4516 150.891 47.8206 150.896C48.2148 150.914 48.4212 151.24 48.5581 151.455C48.8023 151.839 48.913 152.116 48.9863 152.3C49.013 152.367 49.0433 152.443 49.0588 152.466C49.1858 152.652 50.2185 152.478 50.6075 152.415C51.4814 152.269 52.2376 152.143 52.5491 152.693C52.7724 153.087 52.6066 153.607 52.0414 154.281C51.8653 154.491 51.678 154.651 51.5118 154.776C51.6495 154.858 51.7728 154.983 51.8228 155.181C51.9405 155.649 51.5374 156.118 50.6253 156.577C50.3987 156.692 50.0938 156.845 49.6664 156.918C49.4651 156.953 49.2839 156.961 49.1288 156.966C49.1255 157.055 49.1045 157.152 49.0499 157.252C48.8897 157.546 48.5562 157.686 48.0536 157.652C47.5006 157.623 47.0453 157.518 46.6436 157.425C46.2928 157.345 45.9906 157.277 45.7534 157.293C45.3134 157.329 44.9743 157.68 44.5764 158.136L43.5829 159.295Z" fill="#FAFBFF"/>
<path id="Vector_4" d="M44.5881 147.797L42.7717 148.496L42.6048 148.438C41.8325 148.167 41.1327 148.109 40.5239 148.266C40.4271 148.291 40.3316 148.32 40.2343 148.351C39.8487 148.471 39.3694 148.62 38.7374 148.516C38.3848 148.457 37.5503 148.25 37.4835 147.629C37.4638 147.462 37.5059 147.32 37.5684 147.205C37.5431 147.198 37.5178 147.189 37.4904 147.18C37.1568 147.069 36.9961 146.953 36.8413 146.842C36.7223 146.756 36.5996 146.668 36.3327 146.549C36.2156 146.497 36.1148 146.458 36.0301 146.426C35.7735 146.328 35.4629 146.193 35.3738 145.836C35.2919 145.451 35.5549 145.169 35.7289 144.982C36.0392 144.649 36.2795 144.472 36.4389 144.354C36.4972 144.311 36.5627 144.263 36.5814 144.242C36.7299 144.072 36.299 143.119 36.1388 142.76C35.7762 141.953 35.4624 141.255 35.9165 140.815C36.2412 140.499 36.7875 140.527 37.5841 140.902C37.8321 141.019 38.0341 141.159 38.1973 141.288C38.2419 141.134 38.3326 140.983 38.5115 140.885C38.9352 140.652 39.492 140.923 40.1679 141.687C40.3365 141.877 40.562 142.132 40.7418 142.526C40.8263 142.712 40.8804 142.885 40.9243 143.033C41.0118 143.014 41.1111 143.009 41.2217 143.037C41.5469 143.117 41.7671 143.404 41.862 143.897C41.9743 144.439 41.9877 144.905 42.0001 145.316C42.0114 145.675 42.0221 145.984 42.0976 146.209C42.2435 146.625 42.6702 146.863 43.213 147.132L44.5881 147.797Z" fill="#FAFBFF"/>
<path id="Vector_5" d="M43.5829 142.109L43.3662 140.178L43.4652 140.032C43.9234 139.355 44.1569 138.694 44.1597 138.066C44.1602 137.966 44.1555 137.866 44.1509 137.765C44.1322 137.362 44.1088 136.861 44.3704 136.278C44.517 135.952 44.929 135.199 45.5483 135.292C45.7151 135.315 45.8412 135.392 45.9369 135.481C45.9509 135.459 45.9654 135.437 45.9808 135.412C46.1737 135.119 46.3264 134.993 46.4736 134.872C46.5866 134.778 46.7034 134.682 46.8864 134.455C46.9668 134.355 47.0294 134.267 47.0822 134.194C47.2424 133.971 47.4516 133.705 47.8206 133.71C48.2148 133.728 48.4212 134.054 48.5581 134.269C48.8023 134.653 48.913 134.93 48.9863 135.114C49.013 135.181 49.0433 135.257 49.0588 135.28C49.1858 135.466 50.2185 135.292 50.6075 135.229C51.4814 135.083 52.2376 134.957 52.5491 135.507C52.7724 135.901 52.6066 136.421 52.0414 137.095C51.8653 137.305 51.678 137.465 51.5118 137.59C51.6495 137.672 51.7728 137.797 51.8228 137.995C51.9405 138.463 51.5374 138.932 50.6253 139.391C50.3987 139.506 50.0938 139.659 49.6664 139.732C49.4651 139.767 49.2839 139.775 49.1288 139.78C49.1255 139.869 49.1045 139.966 49.0499 140.066C48.8897 140.36 48.5562 140.5 48.0536 140.466C47.5006 140.437 47.0453 140.332 46.6436 140.239C46.2928 140.159 45.9906 140.091 45.7534 140.107C45.3134 140.142 44.9743 140.494 44.5764 140.95L43.5829 142.109Z" fill="#FAFBFF"/>
<path id="Vector_6" d="M45.5618 179.592L45.1564 179.338L44.6838 179.392C44.6763 179.348 44.6506 179.247 44.6119 179.09C44.4003 178.226 43.7553 175.599 43.2172 171.461C42.8417 168.572 42.6292 165.603 42.5853 162.633C42.5414 159.659 42.6824 157.407 42.7954 155.597C42.8809 154.232 42.9846 152.932 43.0864 151.666C43.3573 148.283 43.6128 145.088 43.4227 141.55C43.3807 140.76 43.2924 139.117 42.3302 137.367C41.7721 136.353 41.0033 135.452 40.0449 134.691L40.6409 133.944C41.6988 134.785 42.5493 135.782 43.1691 136.909C44.2359 138.848 44.3321 140.639 44.3783 141.5C44.5717 145.1 44.3134 148.326 44.0397 151.741C43.9388 153.003 43.8351 154.297 43.7501 155.657C43.638 157.45 43.4984 159.682 43.5418 162.618C43.5848 165.552 43.7949 168.486 44.1653 171.338C44.6968 175.424 45.3325 178.012 45.5413 178.862C45.6525 179.316 45.6758 179.412 45.5618 179.592Z" fill="#FAFBFF"/>
<path id="Vector_7" d="M38.2906 136.208C38.2513 136.208 38.2116 136.207 38.1715 136.205C37.3569 136.161 36.6026 135.674 35.9291 134.758C35.6134 134.328 35.4518 133.836 35.1295 132.856C35.0795 132.705 34.8367 131.939 34.6891 130.884C34.5924 130.195 34.6045 129.907 34.7414 129.653C34.8932 129.369 35.1389 129.171 35.4154 129.038C35.4032 128.947 35.413 128.853 35.4527 128.756C35.6157 128.358 36.0492 128.411 36.2836 128.436C36.4023 128.451 36.5503 128.47 36.7101 128.462C36.9613 128.45 37.0963 128.375 37.3009 128.263C37.4966 128.156 37.7399 128.023 38.101 127.949C38.8128 127.801 39.4092 128.002 39.6058 128.068C40.6404 128.412 41.1504 129.215 41.7408 130.145C41.8585 130.331 42.2625 131.01 42.5291 131.941C42.7216 132.612 42.6945 132.91 42.6366 133.132C42.5189 133.588 42.241 133.849 41.5352 134.426C40.7982 135.029 40.4283 135.331 40.1107 135.515C39.3714 135.941 38.9071 136.208 38.2906 136.208Z" fill="#FAFBFF"/>
</g>
<g id="Group_2">
<path id="Vector_8" d="M83.0982 177.957L85.6031 177.957L86.7947 168.312L83.0977 168.313L83.0982 177.957Z" fill="#FFB6B6"/>
<path id="Vector_9" d="M91.6803 177.9C91.7583 178.031 91.7994 178.455 91.7994 178.607C91.7994 179.076 91.4188 179.456 90.9492 179.456H83.1917C82.8714 179.456 82.6117 179.197 82.6117 178.877V178.554C82.6117 178.554 82.228 177.586 83.0181 176.391C83.0181 176.391 84 177.326 85.4673 175.862L85.9 175.079L89.0322 177.366L90.7683 177.579C91.1481 177.626 91.4849 177.572 91.6803 177.9Z" fill="#032E58"/>
</g>
<g id="Group_3">
<path id="Vector_10" d="M75.4634 177.957L77.9683 177.957L79.1599 168.312L75.4629 168.313L75.4634 177.957Z" fill="#FFB6B6"/>
<path id="Vector_11" d="M84.0455 177.9C84.1235 178.031 84.1646 178.455 84.1646 178.607C84.1646 179.076 83.784 179.456 83.3145 179.456H75.557C75.2367 179.456 74.977 179.197 74.977 178.877V178.554C74.977 178.554 74.5932 177.586 75.3833 176.391C75.3833 176.391 76.3653 177.326 77.8326 175.862L78.2653 175.079L81.3974 177.366L83.1335 177.579C83.5133 177.626 83.8501 177.572 84.0455 177.9Z" fill="#032E58"/>
</g>
<path id="Vector_12" d="M85.9918 136.308L88.6638 146.636L87.3278 173.158L81.0296 173.579L80.6479 158.311L79.8844 174.028L73.3954 172.681L73.0137 138.104L85.9918 136.308Z" fill="#032E58"/>
<g id="Group_4">
<path id="uuid-f560b4a3-9a95-4199-88c1-6c6c96ee74ab-1098" d="M60.1259 101.534C59.2638 100.024 57.7844 99.244 56.8217 99.7919C55.859 100.34 55.7777 102.008 56.6403 103.518C56.9766 104.126 57.4539 104.645 58.0323 105.031L61.766 111.384L64.7151 109.571L60.7212 103.501C60.683 102.808 60.4789 102.133 60.1259 101.534Z" fill="#FFB6B6"/>
<path id="Vector_13" d="M77.0941 123.959C77.0941 123.959 73.5554 128.827 71.391 127.088C69.2266 125.348 57.2686 105.792 57.2686 105.792L62.0142 103.253L77.0941 123.959Z" fill="#044E49"/>
</g>
<path id="Vector_14" d="M73.7773 118.02L78.3579 111.161L82.9384 113.066L81.7932 119.163L73.7773 118.02Z" fill="#FFB6B6"/>
<path id="Vector_15" d="M74.1589 116.496L82.1748 116.115L87.5187 117.639L88.6638 145.834L72.6321 144.31V129.441L70.3418 121.83L74.1589 116.496Z" fill="#044E49"/>
<path id="Vector_16" d="M87.3877 135.514C87.1061 134.694 86.9938 133.828 87.0665 132.965C87.2715 130.527 87.3102 125.75 84.8208 123.593L83.4148 122.072C83.3856 122.041 83.3527 122.014 83.3229 121.983L85.6492 116.524L84.2439 115.928L82.0847 120.994C81.127 120.412 80.0224 120.09 78.8797 120.09C77.56 120.09 76.2985 120.52 75.2562 121.276L73.9393 116.46L72.4661 116.862L74.1126 122.354C74.0528 122.427 73.9874 122.494 73.9307 122.57L73.1263 123.647C72.9304 123.91 72.7142 124.154 72.48 124.382C71.9863 124.865 71.0229 126.037 71.0136 127.842C71.0104 128.459 70.8833 129.069 70.6949 129.657L69.7387 132.639C69.649 132.919 69.5785 133.205 69.5307 133.495C69.1091 136.048 67.6499 148.081 77.6233 147.84C86.9206 147.615 87.5325 141.965 87.4783 140.088C87.4665 139.681 87.5032 139.276 87.5792 138.876C87.7187 138.142 87.8442 136.843 87.3877 135.514Z" fill="#043F79"/>
<path id="Vector_17" d="M129.388 13.7224L130.258 27.1212L119.325 29.6252L120.087 18.7916L129.388 13.7224Z" fill="#FFB6B6"/>
<g id="Group_5">
<path id="Vector_18" d="M130.22 176.563L125.292 176.563L122.948 157.59L130.221 157.59L130.22 176.563Z" fill="#FFB6B6"/>
<path id="Vector_19" d="M113.337 176.451C113.184 176.709 113.103 177.542 113.103 177.842C113.103 178.764 113.851 179.511 114.775 179.511H130.036C130.666 179.511 131.177 179.001 131.177 178.372V177.738C131.177 177.738 131.932 175.832 130.378 173.483C130.378 173.483 128.446 175.322 125.559 172.441L124.708 170.902L118.546 175.4L115.131 175.82C114.384 175.911 113.721 175.805 113.337 176.451Z" fill="#032E58"/>
</g>
<g id="Group_6">
<path id="Vector_20" d="M143.581 176.563L138.653 176.563L136.309 157.59L143.582 157.59L143.581 176.563Z" fill="#FFB6B6"/>
<path id="Vector_21" d="M126.697 176.451C126.544 176.709 126.463 177.542 126.463 177.842C126.463 178.764 127.212 179.511 128.135 179.511H143.396C144.026 179.511 144.537 179.001 144.537 178.372V177.738C144.537 177.738 145.292 175.832 143.738 173.483C143.738 173.483 141.806 175.322 138.92 172.441L138.068 170.902L131.907 175.4L128.491 175.82C127.744 175.911 127.082 175.805 126.697 176.451Z" fill="#032E58"/>
</g>
<path id="Vector_22" d="M146.684 86.3958C146.684 86.3958 150.882 91.7299 150.119 94.778C149.356 97.826 144.012 167.932 144.012 167.932L136.377 167.551L131.797 104.684L130.619 167.932L123.399 167.551L114.238 89.0628L146.684 86.3958Z" fill="#032E58"/>
<path id="uuid-35c49308-43d3-4982-a82f-2c4b488719d7-1099" d="M102.548 103.404C101.826 106.166 99.8134 108.032 98.0528 107.573C96.2921 107.115 95.4505 104.504 96.1729 101.742C96.4463 100.634 96.9815 99.6084 97.7336 98.7497L100.94 87.0874L106.391 88.706L102.651 100.031C102.887 101.148 102.852 102.304 102.548 103.404Z" fill="#FFB6B6"/>
<path id="Vector_23" d="M120.508 24.8413C126.531 24.8413 131.415 19.9671 131.415 13.9544C131.415 7.94165 126.531 3.06738 120.508 3.06738C114.484 3.06738 109.601 7.94165 109.601 13.9544C109.601 19.9671 114.484 24.8413 120.508 24.8413Z" fill="#FFB6B6"/>
<path id="Vector_24" d="M119.2 27.7206L130.651 25.4346L143.248 31.9117L145.92 73.4418L149.355 89.0631L113.856 89.4442L115.383 68.4886L113.093 35.3408L119.2 27.7206Z" fill="#C5DBF2"/>
<path id="Vector_25" d="M116.528 36.4835C116.528 36.4835 110.42 34.5785 108.13 38.0076C105.84 41.4366 101.641 72.2984 101.641 72.2984L97.4424 95.54L105.077 96.683L117.673 55.915L116.528 36.4835Z" fill="#C5DBF2"/>
<g id="arm_man">
<path id="al&#195;&#167;a_Back" d="M191.101 154.821L188.045 155.789L167.544 89.4336C168.383 89.2174 169.271 89.3346 170.026 89.7612C170.782 90.1878 171.348 90.8913 171.607 91.7272L191.101 154.821Z" fill="#3F3D56"/>
<path id="uuid-bde1eca8-243b-424d-9fdc-27c2181c111a-1100" d="M172.08 90.0458C173.324 92.6154 173.005 95.3391 171.366 96.1293C169.728 96.9195 167.392 95.4771 166.147 92.9065C165.636 91.8864 165.377 90.759 165.392 89.6185L160.257 78.6648L165.458 76.3691L169.968 87.4113C170.873 88.1085 171.597 89.0119 172.08 90.0458Z" fill="#FFB6B6"/>
<path id="Vector_26" d="M138.468 32.3062C138.468 32.3062 143.953 29.0168 146.989 31.8099C150.025 34.6029 161.398 63.605 161.398 63.605L170.971 85.202L163.823 88.1104L141.947 51.4589L138.468 32.3062Z" fill="#C5DBF2"/>
</g>
<path id="Vector_27" d="M221.906 179.664C221.906 179.85 221.633 180 221.294 180H0.706201C0.367079 180 0.0947266 179.85 0.0947266 179.664C0.0947266 179.574 0.156419 179.495 0.259162 179.436H46.3613C47.3427 179.436 48.3036 179.399 49.2491 179.328H221.294C221.633 179.328 221.906 179.478 221.906 179.664Z" fill="#3D3F45"/>
<path id="uuid-76bcf24f-af63-48e1-b762-2a44b8a9d8fc-1101" d="M97.7747 104.604C98.4559 103.004 99.8349 102.059 100.855 102.491C101.874 102.924 102.149 104.572 101.467 106.172C101.203 106.815 100.79 107.385 100.26 107.836L97.2878 114.577L94.1484 113.117L97.4116 106.627C97.3691 105.933 97.4936 105.239 97.7747 104.604Z" fill="#FFB6B6"/>
<path id="Vector_28" d="M77.925 116.225C81.8024 116.225 84.9457 113.088 84.9457 109.217C84.9457 105.347 81.8024 102.209 77.925 102.209C74.0476 102.209 70.9043 105.347 70.9043 109.217C70.9043 113.088 74.0476 116.225 77.925 116.225Z" fill="#FFB6B6"/>
<path id="Vector_29" d="M86.7549 117.638L93.6256 114.971L95.9159 106.97L100.878 108.875L97.061 120.306L86.7549 124.236V117.638Z" fill="#044E49"/>
<path id="Vector_30" d="M77.002 117.009L81.1892 113.608C81.1892 113.608 80.7929 108.512 82.2983 108.053C83.8036 107.595 85.3734 105.764 85.3734 105.764C85.3734 105.764 82.882 100.146 78.4966 100.999C74.1111 101.851 75.1118 100.555 72.4092 101.983C69.7066 103.412 69.0729 105.318 69.4016 107.343C69.7304 109.369 68.7519 114.401 72.0252 114.66C75.2985 114.919 77.002 117.009 77.002 117.009Z" fill="#3D3F45"/>
<path id="Vector_31" d="M113.902 16.3921C113.106 14.9433 113.519 14.2517 112.801 13.6853C112.801 13.6853 112.512 13.4574 110.337 13.1671C110.129 9.61394 109.552 9.13909 109.552 9.13908C108.888 8.5918 107.831 8.66811 107.157 8.91668C105.732 9.44243 105.781 10.8275 104.835 11.0163C103.528 11.2772 107.092 9.04659 107.05 6.68701C107.016 4.76225 108.397 3.00562 108.878 3.14274C109.355 3.27869 110.634 1.89221 111.259 1.965C111.686 2.01471 113.495 1.3955 113.961 1.49233C114.47 1.59808 116.093 2.61547 116.18 2.41952C116.782 1.05783 116.669 0.657665 117.117 0.290113C117.912 -0.361185 119.079 0.229524 120.95 0.645937C124.801 1.50271 125.583 0.275219 127.509 1.30311C128.482 1.82235 129.231 3.07313 130.689 5.55349C132.728 9.02225 133.747 10.7566 133.601 12.6731C133.452 14.6275 132.514 14.4279 131.867 17.2872C131.145 20.47 132.012 22.0209 130.853 22.9811C129.957 23.7233 122.526 23.7804 121.694 23.0001C120.271 21.664 122.496 18.8913 120.985 16.6155C120.057 15.2186 118.027 14.468 117.024 15.042C115.889 15.691 116.309 17.8949 115.537 18.0391C114.875 18.1626 114.041 16.6446 113.902 16.3921Z" fill="#3D3F45"/>
<g id="Group_7">
<g id="Group_8">
<path id="Vector_32" d="M61.0377 104.961C62.5571 103.68 62.1537 100.71 60.1366 98.3265C59.2537 97.2833 58.208 96.5257 57.1837 96.1109L56.0064 94.7547L40.8043 75.7417C40.8043 75.7417 32.3855 56.8278 29.9003 54.7844C27.4152 52.7411 24.4913 53.8049 24.4913 53.8049L22.21 56.6222L36.4261 83.0307L50.9754 97.6459L52.9394 99.6899C53.1781 100.767 53.7517 101.923 54.6347 102.966C56.6516 105.349 59.5184 106.243 61.0377 104.961Z" fill="#FFB6B6"/>
<path id="Vector_33" d="M32.3411 58.3015L36.1508 63.8785L41.62 71.958L31.7928 75.3513L23.1162 60.4903L32.3411 58.3015Z" fill="#E6E6E6"/>
</g>
<path id="Vector_34" d="M36.2102 39.3215L33.451 49.8216L22.9316 47.756C22.9316 47.756 27.0704 40.1821 26.0357 36.7395L36.2102 39.3215Z" fill="#FFB6B6"/>
<g id="Group_9">
<path id="Vector_35" d="M25.1048 176L31.4395 175.999L34.4529 151.61L25.1035 151.611L25.1048 176Z" fill="#FFB6B6"/>
<path id="Vector_36" d="M46.8085 175.856C47.0057 176.188 47.1098 177.258 47.1098 177.644C47.1098 178.829 46.1472 179.79 44.9598 179.79H25.342C24.532 179.79 23.8753 179.134 23.8753 178.326V177.51C23.8753 177.51 22.9048 175.06 24.9028 172.04C24.9028 172.04 27.3861 174.405 31.0968 170.701L32.191 168.722L40.1118 174.505L44.5022 175.044C45.4627 175.162 46.3144 175.026 46.8085 175.856Z" fill="#032E58"/>
</g>
<path id="Vector_37" d="M42.6941 105.417L33.9652 164.707H23.0136L24.4698 130.863L25.2363 113.067L23.0136 104.596C23.0136 104.596 22.0002 102.713 21.1464 100.431C20.1841 97.8554 19.4241 94.7676 20.5524 93.3034C20.9676 92.7636 22.047 92.3641 23.5139 92.0666C24.4102 91.8838 25.4534 91.7415 26.5797 91.631C33.0561 90.9913 42.2683 91.3908 42.2683 91.3908L42.5025 99.1049L42.6324 103.413L42.6941 105.417Z" fill="#032E58"/>
<g id="Group_10">
<path id="Vector_38" d="M13.9463 173.099L20.2137 174.019L26.7492 150.326L17.4991 148.969L13.9463 173.099Z" fill="#FFB6B6"/>
<path id="Vector_39" d="M35.4399 176.108C35.5868 176.465 35.5338 177.539 35.4776 177.92C35.3049 179.093 34.2125 179.904 33.0377 179.732L13.6286 176.883C12.8272 176.766 12.273 176.022 12.3908 175.222L12.5096 174.415C12.5096 174.415 11.9065 171.85 14.3234 169.152C14.3234 169.152 16.4357 171.852 20.6466 168.727L22.0175 166.928L29.0115 173.799L33.2766 174.97C34.2097 175.226 35.0721 175.215 35.4399 176.108Z" fill="#032E58"/>
</g>
<path id="Vector_40" d="M42.8321 95.5291L41.6348 105.821L35.1056 127.509L24.3574 163.214L13.5234 161.625L23.2468 110.857L22.284 102.152C22.284 102.152 21.9705 101.286 21.6111 100.02C20.8977 97.5134 20.0029 93.432 20.9873 91.3501C21.1202 91.0671 21.2871 90.8216 21.4935 90.6228C21.8807 90.248 22.6676 90.0204 23.7219 89.8997C28.1286 89.4025 37.2039 90.8244 41.2421 91.5224L42.8321 95.5291Z" fill="#032E58"/>
<path id="Vector_41" d="M34.4856 46.7232L46.3846 61.6987L44.2486 77.3119L42.4182 93.1989L20.8622 89.9284C20.8622 89.9284 25.5183 78.7398 26.0356 78.2234C26.553 77.707 27.8525 78.9824 26.944 77.3119C26.0356 75.6414 25.0009 75.6414 25.8632 74.7808C26.7254 73.9201 19.1377 62.7315 19.1377 56.7069C19.1377 50.6823 22.7591 45.8625 22.7591 45.8625L34.4856 46.7232Z" fill="#0A645E"/>
<path id="Vector_42" d="M31.7091 41.3041C36.136 41.3041 39.7248 37.7219 39.7248 33.303C39.7248 28.8842 36.136 25.302 31.7091 25.302C27.2821 25.302 23.6934 28.8842 23.6934 33.303C23.6934 37.7219 27.2821 41.3041 31.7091 41.3041Z" fill="#FFB6B6"/>
<path id="Vector_43" d="M31.3347 48.6006C31.3347 48.6006 32.5342 39.1273 32.7465 36.3724C32.9588 33.6175 36.8547 29.3163 36.8547 29.3163L39.6146 31.5414C39.6146 31.5414 41.95 31.5414 40.3577 28.1508C38.7654 24.7601 35.7931 24.2304 35.7931 24.2304C35.7931 24.2304 35.4747 19.7801 29.9548 20.3099C24.4348 20.8397 21.9933 25.2899 21.9933 25.2899C21.9933 25.2899 21.6749 19.6742 18.1718 23.8065C14.6688 27.9389 12.6519 29.6342 16.3672 31.0117C20.0826 32.3891 22.8425 31.3295 22.8425 31.3295C22.8425 31.3295 19.2334 32.0712 19.8703 34.6142C20.5072 37.1572 11.4842 48.7066 15.6242 49.9781C19.7641 51.2496 28.9994 54.3223 30.0609 52.3092C31.1224 50.296 31.3347 48.6006 31.3347 48.6006Z" fill="#3D3F45"/>
<path id="Vector_44" d="M64.3766 105.755C65.9066 104.487 65.5282 101.513 63.5312 99.1129C62.6571 98.0623 61.6177 97.296 60.597 96.8726L59.4312 95.5067L44.3892 76.3672C44.3892 76.3672 36.1295 57.3834 33.6616 55.3193C31.1937 53.2553 28.261 54.2946 28.261 54.2946L25.9561 57.0927L39.95 83.6192L54.376 98.3556L56.3228 100.416C56.5524 101.495 57.1163 102.656 57.9905 103.706C59.9874 106.106 62.8465 107.023 64.3766 105.755Z" fill="#FFB6B6"/>
<path id="Vector_45" d="M25.083 52.8235C25.083 52.8235 28.7653 71.8974 32.9556 74.7093L41.3055 68.2103C41.3055 68.2103 42.0362 68.179 40.6763 66.6456C39.3163 65.1122 39.6645 61.8195 39.6645 61.8195C39.6645 61.8195 40.2764 62.6098 38.9449 61.5127C37.6133 60.4156 38.8529 52.8705 38.8529 52.8705L25.083 52.8235Z" fill="#0A645E"/>
</g>
<path id="Vector_46" d="M85.8998 131.517C85.7238 131.517 85.5654 131.395 85.527 131.217L85.1073 129.27C84.4904 126.408 82.013 124.318 79.0827 124.188C76.3679 124.066 73.8521 125.671 72.821 128.18L71.768 130.742C71.6882 130.937 71.4656 131.03 71.2699 130.95C71.075 130.87 70.9818 130.648 71.062 130.453L72.115 127.891C73.2683 125.085 76.0786 123.294 79.117 123.426C82.3936 123.572 85.1636 125.91 85.8536 129.11L86.2733 131.056C86.3176 131.262 86.1864 131.465 85.9807 131.509C85.9535 131.515 85.9262 131.517 85.8998 131.517Z" fill="#E1ADAD"/>
<path id="Vector_47" d="M86.351 137.714C86.3398 137.714 86.3282 137.713 86.3167 137.712L72.1916 136.455C71.9817 136.436 71.8266 136.251 71.8453 136.042C71.8643 135.832 72.0477 135.678 72.2594 135.696L86.3845 136.953C86.5944 136.972 86.7494 137.157 86.7308 137.367C86.7129 137.565 86.5467 137.714 86.351 137.714Z" fill="#E1ADAD"/>
<g id="Group 223">
<path id="Vector_48" d="M191.554 123.062C193.483 122.447 195.545 122.395 197.502 122.911C197.507 122.914 197.51 122.913 197.514 122.915C199.031 123.314 200.445 124.038 201.66 125.04C201.73 125.097 201.797 125.156 201.865 125.215C203.404 126.55 204.54 128.297 205.144 130.255L213.466 157.154C214.085 159.145 214.128 161.274 213.588 163.288C213.556 163.401 213.523 163.514 213.49 163.628C213.086 164.962 212.436 166.208 211.574 167.298C211.569 167.303 211.564 167.31 211.561 167.317C210.215 169.007 208.403 170.253 206.355 170.898L190.659 175.867L175.858 128.03L191.554 123.062Z" fill="#0A645E"/>
<path id="Vector_49" d="M166.961 90.021L186.87 154.39C186.933 154.592 186.956 154.804 186.937 155.015C186.919 155.226 186.859 155.431 186.762 155.618C186.665 155.806 186.533 155.972 186.372 156.108C186.212 156.243 186.027 156.346 185.827 156.409C185.628 156.472 185.418 156.495 185.209 156.476C185.001 156.457 184.799 156.397 184.613 156.299C184.428 156.201 184.264 156.066 184.13 155.904C183.996 155.741 183.895 155.554 183.832 155.352L164.925 94.2228C164.669 93.3919 164.737 92.4934 165.116 91.7119C165.495 90.9304 166.155 90.3254 166.961 90.021Z" fill="#3D3F45"/>
<path id="Vector_50" d="M192.139 179.329C190.417 179.329 189.021 177.934 189.021 176.214C189.021 174.493 190.417 173.098 192.139 173.098C193.861 173.098 195.257 174.493 195.257 176.214C195.257 177.934 193.861 179.329 192.139 179.329Z" fill="#3D3F45"/>
<path id="Vector_51" d="M211.161 174.085C209.439 174.085 208.043 172.69 208.043 170.97C208.043 169.249 209.439 167.854 211.161 167.854C212.882 167.854 214.278 169.249 214.278 170.97C214.278 172.69 212.882 174.085 211.161 174.085Z" fill="#3D3F45"/>
<path id="Vector_52" d="M197.336 123.252C200.434 132.737 208.551 157.538 211.869 167.559C211.872 167.552 211.876 167.546 211.882 167.54C212.773 166.452 213.445 165.21 213.863 163.878C213.896 163.765 213.93 163.652 213.964 163.539C210.407 152.649 204.45 134.282 201.845 125.55C201.776 125.491 201.707 125.433 201.634 125.375C200.378 124.376 198.916 123.653 197.349 123.255C197.344 123.253 197.341 123.254 197.336 123.252Z" fill="#3D3F45"/>
</g>
</g>
<defs>
<clipPath id="clip0_582_48328">
<rect width="221.811" height="180" fill="white" transform="translate(0.0947266)"/>
</clipPath>
</defs>
</svg>
