<svg width="32" height="33" viewBox="0 0 32 33" fill="none" xmlns="http://www.w3.org/2000/svg">
<g id="streamline:travel-hotel-laundry-laundry-machine">
<g id="Group">
<path id="Vector" d="M26.1218 4.33594H6.02073C5.0115 4.33594 4.19336 5.15408 4.19336 6.16331V26.2644C4.19336 27.2736 5.0115 28.0917 6.02073 28.0917H26.1218C27.131 28.0917 27.9492 27.2736 27.9492 26.2644V6.16331C27.9492 5.15408 27.131 4.33594 26.1218 4.33594Z" stroke="#0A645E" stroke-width="1.5" stroke-linecap="round" stroke-linejoin="round"/>
<path id="Vector_2" d="M16.0716 24.4361C19.6039 24.4361 22.4674 21.5726 22.4674 18.0403C22.4674 14.508 19.6039 11.6445 16.0716 11.6445C12.5393 11.6445 9.67578 14.508 9.67578 18.0403C9.67578 21.5726 12.5393 24.4361 16.0716 24.4361Z" stroke="#0A645E" stroke-width="1.5" stroke-linecap="round" stroke-linejoin="round"/>
<path id="Vector_3" d="M4.19336 9.82031H9.67547M22.4671 9.82031H27.9492M16.0713 17.9887V24.3844M16.0713 17.9887L10.5892 14.7542M16.0713 17.9887L21.5534 14.7542" stroke="#0A645E" stroke-width="1.5" stroke-linecap="round" stroke-linejoin="round"/>
</g>
</g>
</svg>
