<svg width="32" height="33" viewBox="0 0 32 33" fill="none" xmlns="http://www.w3.org/2000/svg">
<g id="streamline:food-barbeque-pot-cook-grill-bbq-drink-cooking-nutrition-pot-barbecue-grilling-food-cauldron">
<path id="Vector" d="M10.537 24.0098L9.51852 28.0898M21.463 24.0098L22.4815 28.0898M9.51852 8.70523V6.85907M22.4815 8.70523V6.85907M16 8.70523V4.08984M16 25.3206C19.0306 25.316 21.9484 24.1736 24.1721 22.1208C26.3959 20.0681 27.7626 17.2557 28 14.2437C28.0002 14.0051 27.9077 13.7758 27.742 13.6037C27.5763 13.4316 27.3502 13.3302 27.1111 13.3206H4.88889C4.64979 13.3302 4.42369 13.4316 4.25797 13.6037C4.09226 13.7758 3.99981 14.0051 4 14.2437C4.23742 17.2557 5.60409 20.0681 7.82786 22.1208C10.0516 24.1736 12.9694 25.316 16 25.3206Z" stroke="#0A645E" stroke-width="2.28571" stroke-linecap="round" stroke-linejoin="round"/>
</g>
</svg>
