<svg width="32" height="33" viewBox="0 0 32 33" fill="none" xmlns="http://www.w3.org/2000/svg">
<g id="file-icons:fancy">
<path id="Vector" d="M19.9287 2.08984L9.0692 7.46251L5 20.7663L11.2791 30.0898L21.9463 24.8847L26 11.4819L19.9287 2.08984ZM15.9636 11.0655L12.0348 8.27664L17.6803 5.48353L15.9636 11.0655ZM19.855 5.98009L22.9036 10.696L18.1465 11.5351L19.855 5.98009ZM10.6639 9.85509L15.3194 13.1599L13.645 18.604L7.74352 19.4029L10.6639 9.85509ZM11.2983 26.2343L8.02907 21.38L12.9982 20.7072L11.2983 26.2343ZM15.1588 21.2494L18.9941 24.0513L13.4677 26.7479L15.1588 21.2494ZM20.3539 22.4639L15.8069 19.1421L17.4858 13.6833L23.3209 12.654L20.3539 22.4639Z" fill="#0A645E"/>
</g>
</svg>
