<svg width="32" height="33" viewBox="0 0 32 33" fill="none" xmlns="http://www.w3.org/2000/svg">
<g id="guidance:kitchen">
<path id="Vector" d="M16 30.3359H2V3.66927C2 3.66927 4.66667 2.33594 9 2.33594C13.3333 2.33594 16 3.66927 16 3.66927V30.3359ZM16 30.3359V17.0026H16.3333C16.3333 17.0026 18.6667 18.3359 23 18.3359C27.3333 18.3359 29.6667 17.0026 29.6667 17.0026H30V30.3359H16ZM2 13.0026C2 13.0026 4.66667 11.6693 9 11.6693C13.3333 11.6693 16 13.0026 16 13.0026M5.33333 6.33594V9.0026M5.33333 15.0026V17.6693M24.6667 18.2679V13.3359C24.6667 12.8939 24.4911 12.47 24.1785 12.1574C23.866 11.8449 23.442 11.6693 23 11.6693C22.558 11.6693 22.134 11.8449 21.8215 12.1574C21.5089 12.47 21.3333 12.8939 21.3333 13.3359V13.6693" stroke="#0A645E" stroke-width="1.33333"/>
</g>
</svg>
