<svg width="32" height="33" viewBox="0 0 32 33" fill="none" xmlns="http://www.w3.org/2000/svg">
<g id="SwimmingPool" clip-path="url(#clip0_1660_111314)">
<path id="Vector" d="M11 7.33594H21" stroke="#0A645E" stroke-width="2" stroke-linecap="round" stroke-linejoin="round"/>
<path id="Vector_2" d="M11 11.3359H21" stroke="#0A645E" stroke-width="2" stroke-linecap="round" stroke-linejoin="round"/>
<path id="Vector_3" d="M11 15.3359H21" stroke="#0A645E" stroke-width="2" stroke-linecap="round" stroke-linejoin="round"/>
<path id="Vector_4" d="M11 4.33594V18.0097" stroke="#0A645E" stroke-width="2" stroke-linecap="round" stroke-linejoin="round"/>
<path id="Vector_5" d="M21 4.33594V18.2472" stroke="#0A645E" stroke-width="2" stroke-linecap="round" stroke-linejoin="round"/>
<path id="Vector_6" d="M4 21.3359C7 21.3359 7 23.3359 10 23.3359C13 23.3359 13 21.3359 16 21.3359C19 21.3359 19 23.3359 22 23.3359C25 23.3359 25 21.3359 28 21.3359" stroke="#0A645E" stroke-width="2" stroke-linecap="round" stroke-linejoin="round"/>
<path id="Vector_7" d="M4 26.3359C7 26.3359 7 28.3359 10 28.3359C13 28.3359 13 26.3359 16 26.3359C19 26.3359 19 28.3359 22 28.3359C25 28.3359 25 26.3359 28 26.3359" stroke="#0A645E" stroke-width="2" stroke-linecap="round" stroke-linejoin="round"/>
</g>
<defs>
<clipPath id="clip0_1660_111314">
<rect width="32" height="32" fill="white" transform="translate(0 0.335938)"/>
</clipPath>
</defs>
</svg>
