<svg width="32" height="33" viewBox="0 0 32 33" fill="none" xmlns="http://www.w3.org/2000/svg">
<g id="fluent:people-audience-24-regular">
<path id="Vector" d="M19.6671 14.1951C20.778 14.1951 21.6796 15.1029 21.6796 16.2214V19.9846H21.675V20.2741C21.675 20.5044 21.5841 20.7253 21.4224 20.8881C21.2606 21.051 21.0412 21.1425 20.8125 21.1425C20.5838 21.1425 20.3644 21.051 20.2026 20.8881C20.0409 20.7253 19.95 20.5044 19.95 20.2741V17.6688H19.9546V16.2214C19.9546 16.1446 19.9243 16.071 19.8704 16.0167C19.8165 15.9624 19.7433 15.9319 19.6671 15.9319H13.3398C13.2635 15.9319 13.1904 15.9624 13.1365 16.0167C13.0826 16.071 13.0523 16.1446 13.0523 16.2214V19.9846H13.05V20.2741C13.05 20.5044 12.9591 20.7253 12.7974 20.8881C12.6356 21.051 12.4162 21.1425 12.1875 21.1425C11.9588 21.1425 11.7394 21.051 11.5776 20.8881C11.4159 20.7253 11.325 20.5044 11.325 20.2741V17.6688H11.3273V16.2214C11.3273 15.1029 12.2277 14.1951 13.3398 14.1951H19.6671ZM26.275 16.2214V20.2741C26.275 20.5044 26.3659 20.7253 26.5276 20.8881C26.6894 21.051 26.9088 21.1425 27.1375 21.1425C27.3662 21.1425 27.5856 21.051 27.7474 20.8881C27.9091 20.7253 28 20.5044 28 20.2741V16.2214C28 15.684 27.788 15.1686 27.4106 14.7886C27.0331 14.4086 26.5212 14.1951 25.9875 14.1951H22.1062C22.5007 14.6756 22.7583 15.2743 22.8169 15.9319H25.9875C26.0637 15.9319 26.1369 15.9624 26.1908 16.0167C26.2447 16.071 26.275 16.1446 26.275 16.2214ZM5 20.2741C5 20.5044 5.09087 20.7253 5.25262 20.8881C5.41437 21.051 5.63375 21.1425 5.8625 21.1425C6.09125 21.1425 6.31063 21.051 6.47238 20.8881C6.63413 20.7253 6.725 20.5044 6.725 20.2741V16.2214C6.725 16.1446 6.75529 16.071 6.80921 16.0167C6.86312 15.9624 6.93625 15.9319 7.0125 15.9319H10.1899C10.2471 15.294 10.4949 14.6885 10.9007 14.1951H7.0125C6.47875 14.1951 5.96686 14.4086 5.58945 14.7886C5.21203 15.1686 5 15.684 5 16.2214V20.2741ZM16.5 6.08984C17.415 6.08984 18.2925 6.45582 18.9395 7.10726C19.5865 7.7587 19.95 8.64225 19.95 9.56353C19.95 10.4848 19.5865 11.3684 18.9395 12.0198C18.2925 12.6712 17.415 13.0372 16.5 13.0372C15.585 13.0372 14.7075 12.6712 14.0605 12.0198C13.4135 11.3684 13.05 10.4848 13.05 9.56353C13.05 8.64225 13.4135 7.7587 14.0605 7.10726C14.7075 6.45582 15.585 6.08984 16.5 6.08984ZM16.5 7.82669C16.0425 7.82669 15.6037 8.00967 15.2802 8.33539C14.9567 8.66112 14.775 9.10289 14.775 9.56353C14.775 10.0242 14.9567 10.4659 15.2802 10.7917C15.6037 11.1174 16.0425 11.3004 16.5 11.3004C16.9575 11.3004 17.3963 11.1174 17.7198 10.7917C18.0433 10.4659 18.225 10.0242 18.225 9.56353C18.225 9.10289 18.0433 8.66112 17.7198 8.33539C17.3963 8.00967 16.9575 7.82669 16.5 7.82669ZM23.975 7.24774C24.7375 7.24774 25.4688 7.55272 26.0079 8.09559C26.5471 8.63846 26.85 9.37474 26.85 10.1425C26.85 10.9102 26.5471 11.6465 26.0079 12.1894C25.4688 12.7322 24.7375 13.0372 23.975 13.0372C23.2125 13.0372 22.4812 12.7322 21.9421 12.1894C21.4029 11.6465 21.1 10.9102 21.1 10.1425C21.1 9.37474 21.4029 8.63846 21.9421 8.09559C22.4812 7.55272 23.2125 7.24774 23.975 7.24774ZM23.975 8.98458C23.67 8.98458 23.3775 9.10657 23.1618 9.32372C22.9462 9.54087 22.825 9.83538 22.825 10.1425C22.825 10.4496 22.9462 10.7441 23.1618 10.9612C23.3775 11.1784 23.67 11.3004 23.975 11.3004C24.28 11.3004 24.5725 11.1784 24.7882 10.9612C25.0038 10.7441 25.125 10.4496 25.125 10.1425C25.125 9.83538 25.0038 9.54087 24.7882 9.32372C24.5725 9.10657 24.28 8.98458 23.975 8.98458ZM9.025 7.24774C9.7875 7.24774 10.5188 7.55272 11.0579 8.09559C11.5971 8.63846 11.9 9.37474 11.9 10.1425C11.9 10.9102 11.5971 11.6465 11.0579 12.1894C10.5188 12.7322 9.7875 13.0372 9.025 13.0372C8.2625 13.0372 7.53123 12.7322 6.99207 12.1894C6.4529 11.6465 6.15 10.9102 6.15 10.1425C6.15 9.37474 6.4529 8.63846 6.99207 8.09559C7.53123 7.55272 8.2625 7.24774 9.025 7.24774ZM9.025 8.98458C8.72 8.98458 8.42749 9.10657 8.21183 9.32372C7.99616 9.54087 7.875 9.83538 7.875 10.1425C7.875 10.4496 7.99616 10.7441 8.21183 10.9612C8.42749 11.1784 8.72 11.3004 9.025 11.3004C9.33 11.3004 9.62251 11.1784 9.83817 10.9612C10.0538 10.7441 10.175 10.4496 10.175 10.1425C10.175 9.83538 10.0538 9.54087 9.83817 9.32372C9.62251 9.10657 9.33 8.98458 9.025 8.98458ZM5.8625 22.3004C5.63375 22.3004 5.41437 22.3919 5.25262 22.5547C5.09087 22.7176 5 22.9385 5 23.1688V23.7477C5 24.8993 5.45435 26.0038 6.2631 26.8181C7.07185 27.6324 8.16875 28.0898 9.3125 28.0898H23.6875C24.8312 28.0898 25.9281 27.6324 26.7369 26.8181C27.5456 26.0038 28 24.8993 28 23.7477V23.1688C28 22.9385 27.9091 22.7176 27.7474 22.5547C27.5856 22.3919 27.3662 22.3004 27.1375 22.3004H5.8625ZM9.3125 26.353C8.67605 26.353 8.06193 26.1168 7.58755 25.6896C7.11317 25.2623 6.81182 24.6741 6.7411 24.0372H26.2589C26.1882 24.6741 25.8868 25.2623 25.4125 25.6896C24.9381 26.1168 24.324 26.353 23.6875 26.353H9.3125Z" fill="#0A645E"/>
</g>
</svg>
