<svg width="32" height="33" viewBox="0 0 32 33" fill="none" xmlns="http://www.w3.org/2000/svg">
<g id="streamline:travel-hotel-iron-laundry-iron-heat">
<path id="Vector" d="M26.3323 14.0901H18.8704C15.138 14.0936 11.5011 15.254 8.47374 17.4073C5.44641 19.5606 3.18179 22.5979 2 26.0898H25.9674C26.2602 26.0899 26.5497 26.0273 26.8157 25.9065C27.0817 25.7856 27.318 25.6094 27.5084 25.3899C27.7009 25.1695 27.8423 24.9104 27.9229 24.6306C28.0034 24.3509 28.0211 24.0571 27.9748 23.7699L26.3323 14.0901ZM26.3323 14.0901L25.8863 11.4301C25.7264 10.4873 25.2296 9.63214 24.4856 9.01946C23.7417 8.40678 22.7999 8.07713 21.8309 8.09022H10.1108" stroke="#FF730E" stroke-width="2.28571" stroke-linecap="round" stroke-linejoin="round"/>
</g>
</svg>
