<svg width="48" height="48" viewBox="0 0 48 48" fill="none" xmlns="http://www.w3.org/2000/svg">
<g id="icon">
<path id="bedroom_parent" d="M6.44442 31.9445H9.05554V29.3611H28.2778V31.9445H30.8889V24.9167C30.8889 24.3889 30.7269 23.8495 30.4028 23.2986C30.0787 22.7477 29.6574 22.3055 29.1389 21.9722V18.7778C29.1389 17.8796 28.8588 17.1505 28.2986 16.5903C27.7384 16.0301 27.0093 15.75 26.1111 15.75H20.5278C20.1296 15.75 19.7731 15.8102 19.4583 15.9306C19.1435 16.0509 18.8704 16.2315 18.6389 16.4723C18.4074 16.2315 18.1343 16.0509 17.8195 15.9306C17.5046 15.8102 17.1481 15.75 16.75 15.75H11.2222C10.3241 15.75 9.5949 16.0301 9.03471 16.5903C8.47454 17.1505 8.19446 17.8796 8.19446 18.7778V21.9722C7.67593 22.3055 7.25463 22.7477 6.93054 23.2986C6.60646 23.8495 6.44442 24.3889 6.44442 24.9167V31.9445ZM9.05554 27.1389V25.4167C9.05554 24.9074 9.206 24.5023 9.50692 24.2014C9.80786 23.9005 10.2088 23.75 10.7098 23.75H26.6235C27.1245 23.75 27.5255 23.9005 27.8264 24.2014C28.1273 24.5023 28.2778 24.9074 28.2778 25.4167V27.1389H9.05554ZM10.4167 21.5278V17.9722H17.5555V21.5278H10.4167ZM19.7778 21.5278V17.9722H26.9167V21.5278H19.7778ZM4.77775 40.3333C4.02775 40.3333 3.37729 40.0579 2.82638 39.507C2.27546 38.956 2 38.3056 2 37.5556V9.77775C2 9.02775 2.27546 8.37729 2.82638 7.82637C3.37729 7.27546 4.02775 7 4.77775 7H32.5556C33.3056 7 33.956 7.27546 34.507 7.82637C35.0579 8.37729 35.3333 9.02775 35.3333 9.77775V37.5556C35.3333 38.3056 35.0579 38.956 34.507 39.507C33.956 40.0579 33.3056 40.3333 32.5556 40.3333H4.77775ZM4.77775 37.5556H32.5556V9.77775H4.77775V37.5556Z" fill="#032E58"/>
</g>
</svg>
