<svg width="49" height="48" viewBox="0 0 49 48" fill="none" xmlns="http://www.w3.org/2000/svg">
<g id="icon">
<path id="bedroom_child" d="M8.26465 31.1113H10.398V28.4763H25.438V31.1113H27.5713V24.113C27.5713 23.2819 27.338 22.5476 26.8713 21.9101C26.4046 21.2726 25.8024 20.8546 25.0647 20.6563V17.6813C25.0647 16.8219 24.7824 16.0923 24.218 15.4926C23.6535 14.8928 22.9669 14.593 22.158 14.593H13.678C12.8691 14.593 12.1824 14.8928 11.618 15.4926C11.0535 16.0923 10.7713 16.8219 10.7713 17.6813V20.6563C10.0335 20.8546 9.43132 21.2726 8.96465 21.9101C8.49798 22.5476 8.26465 23.2819 8.26465 24.113V31.1113ZM10.398 26.2096V24.113C10.398 23.7163 10.5224 23.3858 10.7713 23.1213C11.0202 22.8569 11.3313 22.7246 11.7046 22.7246H24.1313C24.5047 22.7246 24.8158 22.8569 25.0647 23.1213C25.3135 23.3858 25.438 23.7163 25.438 24.113V26.2096H10.398ZM12.9046 20.4863V16.8596H22.9313V20.4863H12.9046ZM4.58461 39.668C3.86461 39.668 3.24017 39.387 2.71129 38.8251C2.18241 38.2631 1.91797 37.5997 1.91797 36.8347V8.50127C1.91797 7.73627 2.18241 7.07281 2.71129 6.51087C3.24017 5.94894 3.86461 5.66797 4.58461 5.66797H31.2513C31.9713 5.66797 32.5958 5.94894 33.1247 6.51087C33.6535 7.07281 33.918 7.73627 33.918 8.50127V36.8347C33.918 37.5997 33.6535 38.2631 33.1247 38.8251C32.5958 39.387 31.9713 39.668 31.2513 39.668H4.58461ZM4.58461 36.8347H31.2513V8.50127H4.58461V36.8347Z" fill="#032E58"/>
</g>
</svg>
