<svg width="49" height="48" viewBox="0 0 49 48" fill="none" xmlns="http://www.w3.org/2000/svg">
<g id="PawPrint" clip-path="url(#clip0_1660_111204)">
<path id="Vector" d="M40 24C42.0711 24 43.75 22.3211 43.75 20.25C43.75 18.1789 42.0711 16.5 40 16.5C37.9289 16.5 36.25 18.1789 36.25 20.25C36.25 22.3211 37.9289 24 40 24Z" stroke="#032E58" stroke-width="2" stroke-linecap="round" stroke-linejoin="round"/>
<path id="Vector_2" d="M8.5 24C10.5711 24 12.25 22.3211 12.25 20.25C12.25 18.1789 10.5711 16.5 8.5 16.5C6.42893 16.5 4.75 18.1789 4.75 20.25C4.75 22.3211 6.42893 24 8.5 24Z" stroke="#032E58" stroke-width="2" stroke-linecap="round" stroke-linejoin="round"/>
<path id="Vector_3" d="M17.5 15C19.5711 15 21.25 13.3211 21.25 11.25C21.25 9.17893 19.5711 7.5 17.5 7.5C15.4289 7.5 13.75 9.17893 13.75 11.25C13.75 13.3211 15.4289 15 17.5 15Z" stroke="#032E58" stroke-width="2" stroke-linecap="round" stroke-linejoin="round"/>
<path id="Vector_4" d="M31 15C33.0711 15 34.75 13.3211 34.75 11.25C34.75 9.17893 33.0711 7.5 31 7.5C28.9289 7.5 27.25 9.17893 27.25 11.25C27.25 13.3211 28.9289 15 31 15Z" stroke="#032E58" stroke-width="2" stroke-linecap="round" stroke-linejoin="round"/>
<path id="Vector_5" d="M24.2494 19.5C22.7867 19.5005 21.3637 19.9762 20.1947 20.8554C19.0257 21.7347 18.1739 22.9698 17.7676 24.375C17.1672 26.4418 15.7741 28.1874 13.8919 29.2312C12.5256 29.9598 11.4938 31.1883 11.0123 32.6599C10.5308 34.1316 10.6369 35.7324 11.3084 37.1276C11.9798 38.5228 13.1647 39.6045 14.6152 40.1463C16.0657 40.6882 17.6695 40.6483 19.0913 40.035C22.3953 38.6803 26.0998 38.6803 29.4038 40.035C30.8256 40.6483 32.4294 40.6882 33.8799 40.1463C35.3304 39.6045 36.5153 38.5228 37.1868 37.1276C37.8582 35.7324 37.9643 34.1316 37.4828 32.6599C37.0013 31.1883 35.9695 29.9598 34.6032 29.2312C32.7221 28.1871 31.3302 26.4414 30.7313 24.375C30.325 22.9698 29.4732 21.7347 28.3042 20.8554C27.1352 19.9762 25.7122 19.5005 24.2494 19.5Z" stroke="#032E58" stroke-width="2" stroke-linecap="round" stroke-linejoin="round"/>
</g>
<defs>
<clipPath id="clip0_1660_111204">
<rect width="48" height="48" fill="white" transform="translate(0.75)"/>
</clipPath>
</defs>
</svg>
