<svg width="32" height="33" viewBox="0 0 32 33" fill="none" xmlns="http://www.w3.org/2000/svg">
<g id="iconoir:pillow">
<path id="Vector" d="M27.8775 9.09776L22.5442 13.0978M9.21082 21.0978L3.87749 25.0978M27.9308 17.4751L28.7295 23.0618C28.7867 23.4622 28.7521 23.8704 28.6282 24.2555C28.5044 24.6405 28.2946 24.9924 28.0146 25.2844C27.7347 25.5764 27.392 25.8009 27.0125 25.9409C26.633 26.0809 26.2266 26.1327 25.8242 26.0924L16.1442 25.1244C15.9677 25.1068 15.7899 25.1068 15.6135 25.1244L5.93215 26.0924C5.52966 26.1327 5.12328 26.0809 4.74378 25.9409C4.36427 25.8009 4.02159 25.5764 3.74166 25.2844C3.46174 24.9924 3.25191 24.6405 3.12807 24.2555C3.00422 23.8704 2.9696 23.4622 3.02682 23.0618L3.82549 17.4751C3.86126 17.2248 3.86126 16.9707 3.82549 16.7204L3.02682 11.1338C2.96963 10.7334 3.00424 10.3254 3.12801 9.94041C3.25179 9.55544 3.46149 9.20367 3.74126 8.91169C4.02103 8.61972 4.36354 8.3952 4.74287 8.25511C5.12221 8.11502 5.52843 8.06304 5.93082 8.10309L15.6122 9.07109C15.7886 9.08874 15.9664 9.08874 16.1428 9.07109L25.8242 8.10309C26.2266 8.06282 26.633 8.11464 27.0125 8.25463C27.392 8.39463 27.7347 8.61912 28.0146 8.91112C28.2946 9.20312 28.5044 9.55497 28.6282 9.94005C28.7521 10.3251 28.7867 10.7333 28.7295 11.1338L27.9308 16.7204C27.895 16.9707 27.895 17.2248 27.9308 17.4751Z" stroke="#FF730E" stroke-width="2" stroke-linecap="round" stroke-linejoin="round"/>
</g>
</svg>
