<svg width="32" height="33" viewBox="0 0 32 33" fill="none" xmlns="http://www.w3.org/2000/svg">
<g id="Television" clip-path="url(#clip0_1660_111246)">
<path id="Vector" d="M27 9.66797H5C4.44772 9.66797 4 10.1157 4 10.668V25.668C4 26.2203 4.44772 26.668 5 26.668H27C27.5523 26.668 28 26.2203 28 25.668V10.668C28 10.1157 27.5523 9.66797 27 9.66797Z" stroke="#FF730E" stroke-width="2" stroke-linecap="round" stroke-linejoin="round"/>
<path id="Vector_2" d="M10 3.66797L16 9.66797L22 3.66797" stroke="#FF730E" stroke-width="2" stroke-linecap="round" stroke-linejoin="round"/>
<path id="Vector_3" d="M23.5 16.668C24.3284 16.668 25 15.9964 25 15.168C25 14.3395 24.3284 13.668 23.5 13.668C22.6716 13.668 22 14.3395 22 15.168C22 15.9964 22.6716 16.668 23.5 16.668Z" fill="#FF730E"/>
<path id="Vector_4" d="M23.5 22.668C24.3284 22.668 25 21.9964 25 21.168C25 20.3395 24.3284 19.668 23.5 19.668C22.6716 19.668 22 20.3395 22 21.168C22 21.9964 22.6716 22.668 23.5 22.668Z" fill="#FF730E"/>
<path id="Vector_5" d="M19 26.668V9.66797" stroke="#FF730E" stroke-width="2" stroke-linecap="round" stroke-linejoin="round"/>
</g>
<defs>
<clipPath id="clip0_1660_111246">
<rect width="32" height="32" fill="white" transform="translate(0 0.667969)"/>
</clipPath>
</defs>
</svg>
