<svg width="32" height="32" viewBox="0 0 32 32" fill="none" xmlns="http://www.w3.org/2000/svg">
<g id="WifiHigh" clip-path="url(#clip0_1732_25595)">
<path id="Vector" d="M16 27C16.8284 27 17.5 26.3284 17.5 25.5C17.5 24.6716 16.8284 24 16 24C15.1716 24 14.5 24.6716 14.5 25.5C14.5 26.3284 15.1716 27 16 27Z" fill="#FF730E"/>
<path id="Vector_2" d="M29 11.6487C25.3346 8.64254 20.7405 6.9996 16 6.9996C11.2595 6.9996 6.66544 8.64254 3 11.6487" stroke="#FF730E" stroke-width="2" stroke-linecap="round" stroke-linejoin="round"/>
<path id="Vector_3" d="M25 16.125C22.4384 14.0971 19.2671 12.9938 16 12.9938C12.7329 12.9938 9.56158 14.0971 7 16.125" stroke="#FF730E" stroke-width="2" stroke-linecap="round" stroke-linejoin="round"/>
<path id="Vector_4" d="M21 20.625C19.5471 19.5682 17.7966 18.9989 16 18.9989C14.2034 18.9989 12.4529 19.5682 11 20.625" stroke="#FF730E" stroke-width="2" stroke-linecap="round" stroke-linejoin="round"/>
</g>
<defs>
<clipPath id="clip0_1732_25595">
<rect width="32" height="32" fill="white"/>
</clipPath>
</defs>
</svg>
