<svg width="23" height="24" viewBox="0 0 23 24" fill="none" xmlns="http://www.w3.org/2000/svg">
<g id="add_a_photo">
<mask id="mask0_1660_113053" style="mask-type:alpha" maskUnits="userSpaceOnUse" x="0" y="0" width="23" height="24">
<rect id="Bounding box" width="22.8" height="24" fill="#D9D9D9"/>
</mask>
<g mask="url(#mask0_1660_113053)">
<path id="add_a_photo_2" d="M19.2171 7.76614V5.66614H17.1171V3.99949H19.2171V1.88281H20.8837V3.99949H23.0004V5.66614H20.8837V7.76614H19.2171ZM2.56704 21.9995C2.11704 21.9995 1.72677 21.8342 1.39622 21.5037C1.06567 21.1731 0.900391 20.7828 0.900391 20.3328V7.78281C0.900391 7.34393 1.06567 6.95643 1.39622 6.62031C1.72677 6.28421 2.11704 6.11616 2.56704 6.11616H6.06707L7.90039 3.99949H14.5671V5.66614H8.65872L6.83372 7.78281H2.56704V20.3328H19.2337V10.3328H20.9004V20.3328C20.9004 20.7828 20.7323 21.1731 20.3962 21.5037C20.0601 21.8342 19.6726 21.9995 19.2337 21.9995H2.56704ZM10.8921 18.3995C12.1143 18.3995 13.1434 17.9814 13.9795 17.1453C14.8157 16.3092 15.2337 15.28 15.2337 14.0578C15.2337 12.8356 14.8157 11.8092 13.9795 10.9787C13.1434 10.1481 12.1143 9.73284 10.8921 9.73284C9.66983 9.73284 8.64344 10.1481 7.81289 10.9787C6.98234 11.8092 6.56707 12.8356 6.56707 14.0578C6.56707 15.28 6.98234 16.3092 7.81289 17.1453C8.64344 17.9814 9.66983 18.3995 10.8921 18.3995ZM10.8921 16.7328C10.1309 16.7328 9.49761 16.4773 8.99204 15.9662C8.48649 15.455 8.23372 14.8189 8.23372 14.0578C8.23372 13.2967 8.48649 12.6634 8.99204 12.1578C9.49761 11.6523 10.1309 11.3995 10.8921 11.3995C11.6532 11.3995 12.2893 11.6523 12.8004 12.1578C13.3115 12.6634 13.5671 13.2967 13.5671 14.0578C13.5671 14.8189 13.3115 15.455 12.8004 15.9662C12.2893 16.4773 11.6532 16.7328 10.8921 16.7328Z" fill="#032E58"/>
</g>
</g>
</svg>
