<svg width="32" height="33" viewBox="0 0 32 33" fill="none" xmlns="http://www.w3.org/2000/svg">
<path d="M28.5 16.6836C28.5 17.0814 28.342 17.4629 28.0607 17.7443C27.7794 18.0256 27.3978 18.1836 27 18.1836H17.5V27.6836C17.5 28.0814 17.342 28.4629 17.0607 28.7443C16.7794 29.0256 16.3978 29.1836 16 29.1836C15.6022 29.1836 15.2206 29.0256 14.9393 28.7443C14.658 28.4629 14.5 28.0814 14.5 27.6836V18.1836H5C4.60218 18.1836 4.22064 18.0256 3.93934 17.7443C3.65804 17.4629 3.5 17.0814 3.5 16.6836C3.5 16.2858 3.65804 15.9042 3.93934 15.6229C4.22064 15.3416 4.60218 15.1836 5 15.1836H14.5V5.68359C14.5 5.28577 14.658 4.90424 14.9393 4.62293C15.2206 4.34163 15.6022 4.18359 16 4.18359C16.3978 4.18359 16.7794 4.34163 17.0607 4.62293C17.342 4.90424 17.5 5.28577 17.5 5.68359V15.1836H27C27.3978 15.1836 27.7794 15.3416 28.0607 15.6229C28.342 15.9042 28.5 16.2858 28.5 16.6836Z" fill="#3D3F45"/>
</svg>
