<svg width="309" height="200" viewBox="0 0 309 200" fill="none" xmlns="http://www.w3.org/2000/svg">
<g clip-path="url(#clip0_2675_40331)">
<path d="M280.98 199.408L272.182 172.821C272.182 172.821 281.86 182.512 281.86 190.463L280.123 172.076C280.123 172.076 285.086 178.785 284.589 188.972C284.093 199.16 280.98 199.408 280.98 199.408Z" fill="#E6E6E6"/>
<path d="M92.0353 175.199L83.4483 149.251C83.4483 149.251 92.8934 158.709 92.8934 166.469L91.1981 148.523C91.1981 148.523 96.0418 155.071 95.5574 165.014C95.073 174.956 92.0353 175.199 92.0353 175.199Z" fill="#E6E6E6"/>
<path d="M226.061 187.173C226.076 204.242 192.267 198.992 150.876 199.028C109.486 199.064 76.1878 204.372 76.1731 187.303C76.1584 170.234 109.955 166.492 151.346 166.456C192.736 166.421 226.047 170.104 226.061 187.173Z" fill="#E6E6E6"/>
<path d="M308.057 199.018H0V199.799H308.057V199.018Z" fill="#3F3D56"/>
<path d="M197.053 164.121H191.642L189.067 143.222H197.053V164.121Z" fill="#A0616A"/>
<path d="M187.176 162.573H198.213V169.153H181.206V168.551C181.206 166.966 181.835 165.445 182.955 164.324C184.074 163.203 185.593 162.573 187.176 162.573Z" fill="#2F2E41"/>
<path d="M236.828 194.969H231.417L228.841 174.069H236.828V194.969Z" fill="#A0616A"/>
<path d="M226.951 193.42H237.988V200H220.981V199.398C220.981 197.813 221.61 196.292 222.729 195.171C223.849 194.05 225.367 193.42 226.951 193.42Z" fill="#2F2E41"/>
<path d="M261.788 132.879C262.162 132.425 262.432 131.894 262.579 131.324C262.726 130.753 262.747 130.158 262.639 129.579C262.531 129 262.298 128.452 261.956 127.973C261.614 127.494 261.171 127.096 260.659 126.807L248.091 75.5415L240.055 79.0035L255.003 128.573C254.576 129.467 254.49 130.487 254.763 131.44C255.037 132.393 255.649 133.213 256.486 133.743C257.322 134.274 258.323 134.479 259.301 134.32C260.278 134.161 261.163 133.648 261.788 132.879Z" fill="#A0616A"/>
<path d="M251.986 29.2707C251.537 28.8012 250.991 28.4358 250.387 28.2004C249.782 27.965 249.133 27.8652 248.485 27.9081C247.838 27.951 247.208 28.1356 246.639 28.4487C246.071 28.7619 245.578 29.1961 245.195 29.7207L225.742 31.9569L228.701 39.47L246.392 36.1546C247.315 36.7402 248.42 36.9665 249.499 36.7906C250.577 36.6148 251.553 36.049 252.243 35.2004C252.932 34.3519 253.287 33.2796 253.239 32.1867C253.192 31.0938 252.746 30.0563 251.986 29.2707Z" fill="#A0616A"/>
<path d="M219.929 127.563L228.418 191.355L238.983 189.177C238.983 189.177 237.429 142.718 242.711 137.118C247.994 131.517 235.917 121.706 235.917 121.706L219.929 127.563Z" fill="#2F2E41"/>
<path d="M223.439 109.992L219.539 115.849C219.539 115.849 189.513 103.354 189.513 123.268C189.513 143.181 187.795 156.695 187.174 157.629C186.552 158.562 194.363 160.984 198.092 160.362C198.092 160.362 202.692 128.258 202.382 126.391C202.382 126.391 231.836 140.852 237.429 139.607C243.022 138.362 244.343 133.956 245.276 131.467C246.208 128.978 244.886 109.211 244.886 109.211L226.242 103.514L223.439 109.992Z" fill="#2F2E41"/>
<path d="M223.965 74.8266L222.853 73.4911C222.853 73.4911 210.405 45.4446 215.295 37.8765C220.186 30.3084 241.526 29.1955 242.193 29.6406C242.86 30.0858 240.6 35.8658 242.156 38.5369C242.156 38.5369 225.625 42.1257 224.513 42.5709C223.402 43.0161 233.079 59.4678 233.079 59.4678L231.967 69.4844L223.965 74.8266Z" fill="#CCCCCC"/>
<path d="M245.75 61.0259C245.75 61.0259 234.19 62.3615 233.746 62.3615C233.301 62.3615 233.079 59.4678 233.079 59.4678L222.853 73.491C222.853 73.491 217.816 114.174 219.149 113.506C220.483 112.839 245.083 116.674 245.305 114.893C245.527 113.112 245.083 104.209 245.75 103.763C246.417 103.318 257.309 75.7169 257.309 75.7169C257.309 75.7169 256.197 69.9296 252.418 67.9262C248.639 65.9229 245.75 61.0259 245.75 61.0259Z" fill="#CCCCCC"/>
<path d="M253.752 71.9326L257.309 75.7167C257.309 75.7167 262.593 119.199 259.704 120.534C256.814 121.87 251.125 121.706 251.125 121.706L245.527 101.092L253.752 71.9326Z" fill="#CCCCCC"/>
<path d="M234.642 58.272C240.293 58.272 244.873 53.685 244.873 48.0266C244.873 42.3683 240.293 37.7812 234.642 37.7812C228.991 37.7812 224.41 42.3683 224.41 48.0266C224.41 53.685 228.991 58.272 234.642 58.272Z" fill="#A0616A"/>
<path d="M232.241 49.6247C232.103 47.4988 229.424 47.4259 227.297 47.4058C225.169 47.3857 222.626 47.4617 221.422 45.7052C220.627 44.5443 220.779 42.9327 221.436 41.6881C222.093 40.4435 223.174 39.4863 224.238 38.5654C226.983 36.1879 229.813 33.8293 233.11 32.3076C236.406 30.7858 240.269 30.1709 243.688 31.3925C247.888 32.8931 253.565 40.6176 254.055 45.0556C254.546 49.4936 252.774 54.0178 249.789 57.3342C246.803 60.6505 239.969 59.3124 235.668 60.4922C238.283 56.7869 236.56 50.0541 232.371 48.3237L232.241 49.6247Z" fill="#2F2E41"/>
<path d="M141.052 182.15C154.617 182.15 165.614 171.139 165.614 157.555C165.614 143.972 154.617 132.96 141.052 132.96C127.486 132.96 116.489 143.972 116.489 157.555C116.489 171.139 127.486 182.15 141.052 182.15Z" fill="#FF730E"/>
<path d="M124.648 131.212C121.244 131.213 117.913 130.225 115.058 128.368C112.203 126.512 109.946 123.867 108.561 120.753L69.5853 32.8625C68.2942 29.9511 67.6113 26.806 67.5787 23.6207C67.5461 20.4353 68.1645 17.2769 69.3957 14.3397C70.6269 11.4024 72.4451 8.7483 74.7384 6.54051C77.0316 4.33272 79.7516 2.61788 82.7311 1.50141C85.7106 0.384929 88.8866 -0.1096 92.064 0.0482211C95.2413 0.206042 98.3529 1.01288 101.207 2.41913C104.062 3.82538 106.599 5.80135 108.663 8.22556C110.727 10.6498 112.274 13.471 113.209 16.5159L141.432 108.436C142.24 111.067 142.42 113.852 141.959 116.565C141.497 119.279 140.407 121.846 138.774 124.061C137.142 126.276 135.014 128.077 132.561 129.319C130.107 130.561 127.397 131.209 124.648 131.212Z" fill="#FF730E"/>
</g>
<defs>
<clipPath id="clip0_2675_40331">
<rect width="308.057" height="200" fill="white"/>
</clipPath>
</defs>
</svg>
