<svg width="358" height="200" viewBox="0 0 358 200" fill="none" xmlns="http://www.w3.org/2000/svg">
<g clip-path="url(#clip0_2477_47518)">
<path d="M75.2104 199.239H20.6119C20.6119 199.239 19.5052 183.008 26.0531 182.824C32.601 182.64 31.8632 190.017 40.0716 179.873C48.2801 169.729 58.2402 170.282 59.5314 176.277C60.8225 182.271 57.0414 187.066 63.9583 185.591C70.8751 184.115 80.836 187.988 75.2104 199.239Z" fill="#E6E6E6"/>
<path d="M46.9896 199.243L46.8052 199.235C47.2351 188.55 49.473 181.685 51.2752 177.806C53.2316 173.595 55.1169 171.891 55.1359 171.874L55.2586 172.012C55.24 172.029 53.3768 173.716 51.436 177.898C49.6438 181.759 47.418 188.597 46.9896 199.243Z" fill="white"/>
<path d="M66.7498 199.264L66.5728 199.213C67.9459 194.684 70.421 190.566 73.7766 187.229L73.9004 187.366C70.5698 190.68 68.1129 194.768 66.7498 199.264Z" fill="white"/>
<path d="M29.2117 199.251L29.0288 199.226C29.6241 195.22 28.9942 191.127 27.2219 187.485C26.4953 185.957 25.5335 184.553 24.3716 183.324L24.4993 183.191C25.677 184.435 26.6521 185.856 27.3889 187.403C29.1772 191.078 29.8126 195.208 29.2117 199.251Z" fill="white"/>
<path d="M82.6199 199.485H14.7232L14.7077 199.256C14.6689 198.684 13.8025 185.189 18.1754 180.374C18.6093 179.865 19.1448 179.453 19.7476 179.164C20.3504 178.874 21.0071 178.715 21.6754 178.694C24.5257 178.613 26.3171 179.681 27.762 180.538C30.4853 182.153 32.2841 183.22 38.8254 175.137C45.9112 166.38 53.5569 164.495 57.952 165.543C60.7918 166.22 62.7489 168.133 63.3217 170.792C63.8654 173.31 63.6914 175.676 63.5524 177.578C63.4036 179.612 63.2864 181.218 64.1221 181.947C64.821 182.554 66.2116 182.609 68.5027 182.121C73.1626 181.127 79.6663 181.977 82.9302 186.194C84.6862 188.463 86.0698 192.586 82.6882 199.349L82.6199 199.485ZM15.1865 198.992H82.3143C84.8341 193.88 84.913 189.562 82.5399 186.496C79.5455 182.628 73.2636 181.61 68.6056 182.603C66.1161 183.134 64.6331 183.047 63.7978 182.319C62.7761 181.429 62.9015 179.714 63.06 177.543C63.1967 175.674 63.3664 173.347 62.839 170.898C62.3078 168.432 60.4846 166.655 57.837 166.024C53.5821 165.009 46.1484 166.87 39.2087 175.448C32.3998 183.863 30.3483 182.647 27.51 180.962C26.0472 180.094 24.3867 179.111 21.689 179.187C21.0873 179.206 20.4964 179.351 19.9541 179.613C19.4119 179.874 18.9303 180.246 18.5405 180.705C14.6114 185.033 15.0906 197.167 15.1869 198.992H15.1865Z" fill="#2F2E41"/>
<path d="M304.47 199.759H237.594L237.581 199.384L234.388 108.067H307.676L304.47 199.759ZM238.344 198.982H303.72L306.872 108.844H235.192L238.344 198.982Z" fill="#3F3D56"/>
<path d="M253.547 124.987H248.46V187.927H253.547V124.987Z" fill="#3F3D56"/>
<path d="M273.575 124.987H268.489V187.927H273.575V124.987Z" fill="#3F3D56"/>
<path d="M293.604 124.987H288.517V187.927H293.604V124.987Z" fill="#3F3D56"/>
<path d="M350.172 134.883L349.843 134.675L266.775 82.1859L273.981 70.7852L274.309 70.9926L357.377 123.482L350.172 134.883ZM267.847 81.9443L349.93 133.811L356.305 123.724L274.223 71.8564L267.847 81.9443Z" fill="#3F3D56"/>
<path d="M330.116 77.9563C327.701 76.4283 324.899 75.6251 322.042 75.6419C319.184 75.6586 316.391 76.4947 313.995 78.0509C311.599 79.6071 309.699 81.818 308.521 84.4214C307.344 87.0248 306.938 89.9112 307.352 92.7383L311.313 95.2411C310.318 92.9301 310.088 90.3611 310.659 87.9103C311.229 85.4595 312.569 83.2557 314.483 81.6215C316.396 79.9873 318.783 79.0086 321.293 78.8287C323.803 78.6489 326.305 79.2772 328.432 80.6218C330.559 81.9664 332.2 83.9567 333.114 86.3011C334.028 88.6455 334.167 91.2209 333.512 93.6503C332.856 96.0797 331.44 98.2353 329.47 99.8017C327.501 101.368 325.082 102.263 322.567 102.355L326.528 104.858C329.259 104.019 331.693 102.415 333.54 100.235C335.387 98.0545 336.57 95.3904 336.948 92.5583C337.326 89.7262 336.884 86.8451 335.673 84.2568C334.463 81.6686 332.535 79.4819 330.119 77.9563H330.116Z" fill="#3F3D56"/>
<path d="M352.987 199.223H0V200H352.987V199.223Z" fill="#3F3D56"/>
<path d="M154.179 193.925H148.524L145.832 172.113H154.181L154.179 193.925Z" fill="#FEB8B8"/>
<path d="M137.617 199.175H155.391V192.308H144.389C142.593 192.308 140.87 193.022 139.6 194.291C138.33 195.561 137.617 197.284 137.617 199.079V199.175Z" fill="#2F2E41"/>
<path d="M152.191 160.126L156.093 164.221L173.743 151.125L167.985 145.082L152.191 160.126Z" fill="#FEB8B8"/>
<path d="M160.112 166.096L152.52 158.132L147.548 162.87L159.812 175.737L159.881 175.671C160.525 175.058 161.042 174.323 161.402 173.51C161.762 172.697 161.958 171.821 161.98 170.931C162.001 170.042 161.847 169.158 161.526 168.328C161.206 167.499 160.725 166.74 160.112 166.096Z" fill="#2F2E41"/>
<path d="M112.827 100.37C112.469 99.7941 112.242 99.1469 112.161 98.4738C112.08 97.8006 112.148 97.118 112.36 96.4739C112.571 95.8298 112.921 95.2399 113.386 94.7458C113.85 94.2516 114.417 93.8652 115.046 93.6138L137.25 37.0303L145.905 42.2119L121.24 96.4941C121.592 97.58 121.534 98.7576 121.076 99.8035C120.618 100.849 119.792 101.691 118.755 102.169C117.718 102.647 116.542 102.727 115.449 102.396C114.357 102.064 113.424 101.343 112.827 100.37Z" fill="#FEB8B8"/>
<path d="M197.106 104.426C196.429 104.378 195.772 104.182 195.179 103.852C194.587 103.522 194.074 103.066 193.677 102.516C193.279 101.966 193.008 101.336 192.88 100.67C192.753 100.004 192.774 99.3176 192.94 98.6602L160.184 47.4576L169.461 43.4971L198.91 95.3419C199.998 95.6934 200.918 96.432 201.497 97.4174C202.076 98.4028 202.273 99.5664 202.05 100.687C201.828 101.808 201.201 102.808 200.29 103.498C199.378 104.187 198.245 104.518 197.106 104.428V104.426Z" fill="#FEB8B8"/>
<path d="M137.469 94.7044L143.267 180.87L157.123 179.647L159.976 116.077L167.719 143.379L184.428 144.601L177.814 90.6294L137.469 94.7044Z" fill="#2F2E41"/>
<path d="M170.164 139.304L167.718 143.379L150.603 155.196L162.829 161.716C162.829 161.716 186.466 148.676 184.429 144.601L170.164 139.304Z" fill="#2F2E41"/>
<path d="M125.335 59.8427L130.159 46.2528C131.232 43.229 132.894 40.448 135.049 38.0707C137.204 35.6935 139.809 33.7673 142.714 32.4034C149.242 29.9986 156.343 29.6099 163.095 31.2879L164.85 31.7236C169.531 32.8579 173.916 34.9757 177.714 37.9361C180.687 40.279 183.361 43.2455 183.599 46.4364C183.6 46.4432 183.602 46.4499 183.605 46.4562C184.428 50.0642 184.835 68.8086 184.835 68.8086H177.573L178.722 94.0731L178.629 93.8902C178.629 93.8902 136.746 101.815 136.746 97.7404V71.6601L135.888 62.2171L125.335 59.8427Z" fill="#CCCCCC"/>
<path d="M164.429 27.7553C170.839 27.7553 176.036 22.5594 176.036 16.1499C176.036 9.74036 170.839 4.54443 164.429 4.54443C158.019 4.54443 152.823 9.74036 152.823 16.1499C152.823 22.5594 158.019 27.7553 164.429 27.7553Z" fill="#FEB8B8"/>
<path d="M166.168 10.9452L175.18 11.3063C176.314 11.3028 177.552 11.2628 178.415 10.5297C179.716 9.42349 179.498 7.33608 178.802 5.77673C176.86 1.43493 172.529 -0.120533 167.773 0.00721216C163.017 0.134958 158.034 1.74672 155.473 5.75381C152.912 9.76091 152.22 14.821 153.185 19.4773C154.3 17.1097 156.017 15.0759 158.164 13.579C160.311 12.0821 162.813 11.1745 165.42 10.9467L166.168 10.9452Z" fill="#2F2E41"/>
<path d="M219.685 124.462L187.065 101.603C186.762 101.39 186.555 101.065 186.491 100.7C186.427 100.335 186.51 99.9596 186.722 99.6557L212.325 63.1288C212.538 62.8257 212.863 62.6195 213.228 62.5554C213.593 62.4912 213.968 62.5742 214.272 62.7863L246.892 85.6457C247.195 85.859 247.401 86.1836 247.466 86.5486C247.53 86.9135 247.447 87.289 247.235 87.5929L221.633 124.119C221.419 124.422 221.095 124.629 220.73 124.693C220.364 124.758 219.989 124.675 219.685 124.462Z" fill="#FF730E"/>
<path d="M227.02 99.6581L207.879 86.2445C207.658 86.0894 207.469 85.8922 207.324 85.6642C207.179 85.4362 207.08 85.1818 207.034 84.9156C206.987 84.6494 206.993 84.3766 207.051 84.1128C207.11 83.8489 207.22 83.5992 207.375 83.3779C207.53 83.1565 207.728 82.9679 207.956 82.8228C208.184 82.6777 208.438 82.5789 208.704 82.5321C208.97 82.4853 209.243 82.4913 209.507 82.55C209.771 82.6086 210.021 82.7186 210.242 82.8737L229.383 96.2872C229.83 96.6005 230.134 97.0785 230.229 97.6161C230.323 98.1537 230.201 98.7069 229.887 99.1539C229.574 99.6009 229.096 99.9051 228.558 99.9997C228.021 100.094 227.467 99.9714 227.02 99.6581Z" fill="#FAFBFF"/>
<path d="M222.627 105.926L203.487 92.5127C203.265 92.3577 203.076 92.1605 202.931 91.9324C202.785 91.7044 202.686 91.4499 202.639 91.1836C202.592 90.9173 202.598 90.6443 202.657 90.3803C202.716 90.1163 202.826 89.8664 202.981 89.645C203.136 89.4235 203.333 89.2348 203.562 89.0897C203.79 88.9445 204.044 88.8458 204.311 88.799C204.577 88.7523 204.85 88.7585 205.114 88.8173C205.378 88.8762 205.628 88.9864 205.849 89.1418L224.99 102.555C225.437 102.869 225.74 103.347 225.835 103.884C225.929 104.421 225.806 104.974 225.493 105.421C225.18 105.868 224.702 106.172 224.165 106.267C223.627 106.361 223.074 106.239 222.627 105.926Z" fill="#FAFBFF"/>
<path d="M218.187 112.26L199.046 98.8466C198.825 98.6915 198.636 98.4943 198.491 98.2663C198.346 98.0383 198.247 97.7839 198.201 97.5177C198.154 97.2515 198.16 96.9787 198.218 96.7149C198.277 96.451 198.387 96.2013 198.542 95.9799C198.697 95.7586 198.895 95.57 199.123 95.4249C199.351 95.2798 199.605 95.181 199.871 95.1341C200.137 95.0873 200.41 95.0934 200.674 95.152C200.938 95.2106 201.188 95.3206 201.409 95.4758L220.55 108.889C220.997 109.203 221.301 109.681 221.396 110.218C221.49 110.756 221.368 111.309 221.054 111.756C220.741 112.203 220.263 112.507 219.725 112.602C219.187 112.696 218.634 112.573 218.187 112.26Z" fill="#FAFBFF"/>
<path d="M226.967 87.2604L219.553 82.0649C219.331 81.9099 219.142 81.7127 218.997 81.4847C218.852 81.2566 218.753 81.0022 218.706 80.7359C218.659 80.4695 218.665 80.1966 218.723 79.9326C218.782 79.6686 218.892 79.4187 219.047 79.1972C219.202 78.9758 219.4 78.7871 219.628 78.6419C219.856 78.4968 220.111 78.398 220.377 78.3513C220.643 78.3045 220.916 78.3108 221.18 78.3696C221.444 78.4284 221.694 78.5387 221.916 78.6941L229.329 83.8895C229.776 84.2028 230.081 84.6808 230.175 85.2184C230.27 85.756 230.147 86.3092 229.834 86.7562C229.52 87.2032 229.042 87.5074 228.504 87.602C227.967 87.6965 227.414 87.5736 226.967 87.2604Z" fill="#FAFBFF"/>
</g>
<defs>
<clipPath id="clip0_2477_47518">
<rect width="357.377" height="200" fill="white"/>
</clipPath>
</defs>
</svg>
