<svg width="32" height="32" viewBox="0 0 32 32" fill="none" xmlns="http://www.w3.org/2000/svg">
<g clip-path="url(#clip0_2572_61674)">
<path d="M25.5 16C26.8807 16 28 14.8807 28 13.5C28 12.1193 26.8807 11 25.5 11C24.1193 11 23 12.1193 23 13.5C23 14.8807 24.1193 16 25.5 16Z" stroke="#FF730E" stroke-width="2" stroke-linecap="round" stroke-linejoin="round"/>
<path d="M4.5 16C5.88071 16 7 14.8807 7 13.5C7 12.1193 5.88071 11 4.5 11C3.11929 11 2 12.1193 2 13.5C2 14.8807 3.11929 16 4.5 16Z" stroke="#FF730E" stroke-width="2" stroke-linecap="round" stroke-linejoin="round"/>
<path d="M10.5 10C11.8807 10 13 8.88071 13 7.5C13 6.11929 11.8807 5 10.5 5C9.11929 5 8 6.11929 8 7.5C8 8.88071 9.11929 10 10.5 10Z" stroke="#FF730E" stroke-width="2" stroke-linecap="round" stroke-linejoin="round"/>
<path d="M19.5 10C20.8807 10 22 8.88071 22 7.5C22 6.11929 20.8807 5 19.5 5C18.1193 5 17 6.11929 17 7.5C17 8.88071 18.1193 10 19.5 10Z" stroke="#FF730E" stroke-width="2" stroke-linecap="round" stroke-linejoin="round"/>
<path d="M15 13C14.0248 13.0004 13.0762 13.3175 12.2968 13.9036C11.5175 14.4898 10.9496 15.3132 10.6787 16.25C10.2785 17.6278 9.34973 18.7916 8.09499 19.4875C7.1841 19.9732 6.49624 20.7922 6.17524 21.7733C5.85425 22.7544 5.92496 23.8216 6.37261 24.7517C6.82025 25.6819 7.61017 26.403 8.57717 26.7642C9.54417 27.1255 10.6134 27.0989 11.5612 26.69C13.7639 25.7869 16.2336 25.7869 18.4362 26.69C19.3841 27.0989 20.4533 27.1255 21.4203 26.7642C22.3873 26.403 23.1772 25.6819 23.6249 24.7517C24.0725 23.8216 24.1432 22.7544 23.8222 21.7733C23.5012 20.7922 22.8134 19.9732 21.9025 19.4875C20.6484 18.7914 19.7205 17.6276 19.3212 16.25C19.0504 15.3132 18.4825 14.4898 17.7032 13.9036C16.9238 13.3175 15.9752 13.0004 15 13Z" stroke="#FF730E" stroke-width="2" stroke-linecap="round" stroke-linejoin="round"/>
</g>
<defs>
<clipPath id="clip0_2572_61674">
<rect width="32" height="32" fill="white"/>
</clipPath>
</defs>
</svg>
