<svg width="25" height="24" viewBox="0 0 25 24" fill="none" xmlns="http://www.w3.org/2000/svg">
<g id="PencilSimple">
<path id="Vector" d="M21.8103 6.87915L17.6216 2.68946C17.4823 2.55014 17.3169 2.43962 17.1349 2.36421C16.9529 2.28881 16.7578 2.25 16.5608 2.25C16.3638 2.25 16.1687 2.28881 15.9867 2.36421C15.8047 2.43962 15.6393 2.55014 15.5 2.68946L3.93969 14.2507C3.7998 14.3895 3.68889 14.5547 3.61341 14.7367C3.53792 14.9188 3.49938 15.114 3.50001 15.311V19.5007C3.50001 19.8985 3.65804 20.2801 3.93935 20.5614C4.22065 20.8427 4.60218 21.0007 5.00001 21.0007H9.1897C9.38675 21.0013 9.58197 20.9628 9.76399 20.8873C9.94602 20.8118 10.1112 20.7009 10.25 20.561L21.8103 9.00071C21.9496 8.86142 22.0602 8.69604 22.1356 8.51403C22.211 8.33202 22.2498 8.13694 22.2498 7.93993C22.2498 7.74292 22.211 7.54784 22.1356 7.36582C22.0602 7.18381 21.9496 7.01844 21.8103 6.87915ZM9.1897 19.5007H5.00001V15.311L13.25 7.06102L17.4397 11.2507L9.1897 19.5007ZM18.5 10.1895L14.3103 6.00071L16.5603 3.75071L20.75 7.93946L18.5 10.1895Z" fill="#3D3F45"/>
</g>
</svg>
