<svg width="24" height="25" viewBox="0 0 24 25" fill="none" xmlns="http://www.w3.org/2000/svg">
<path d="M21.4739 7.7832L17.2851 3.59351C17.1459 3.45419 16.9805 3.34367 16.7985 3.26827C16.6165 3.19286 16.4214 3.15405 16.2244 3.15405C16.0274 3.15405 15.8323 3.19286 15.6503 3.26827C15.4682 3.34367 15.3029 3.45419 15.1636 3.59351L3.60327 15.1548C3.46338 15.2935 3.35246 15.4588 3.27698 15.6408C3.2015 15.8228 3.16295 16.018 3.16358 16.2151V20.4048C3.16358 20.8026 3.32162 21.1841 3.60292 21.4654C3.88423 21.7467 4.26576 21.9048 4.66358 21.9048H8.85327C9.05032 21.9054 9.24554 21.8668 9.42757 21.7914C9.60959 21.7159 9.7748 21.605 9.91358 21.4651L21.4739 9.90476C21.6132 9.76547 21.7237 9.6001 21.7991 9.41809C21.8745 9.23608 21.9134 9.04099 21.9134 8.84398C21.9134 8.64697 21.8745 8.45189 21.7991 8.26988C21.7237 8.08787 21.6132 7.92249 21.4739 7.7832ZM8.85327 20.4048H4.66358V16.2151L12.9136 7.96508L17.1033 12.1548L8.85327 20.4048ZM18.1636 11.0935L13.9739 6.90476L16.2239 4.65476L20.4136 8.84351L18.1636 11.0935Z" fill="#3D3F45"/>
</svg>
