<svg width="539" height="658" viewBox="0 0 539 658" fill="none" xmlns="http://www.w3.org/2000/svg">
<g clip-path="url(#clip0_876_90688)">
<path d="M505.506 11.2469L16.1094 26.8516L35.9016 646.416L525.299 630.811L505.506 11.2469Z" fill="#292A2E"/>
<path opacity="0.58" d="M505.506 11.2469L16.1094 26.8516L35.9016 646.416L525.299 630.811L505.506 11.2469Z" fill="#FF730E"/>
<path d="M487.603 0.451299L0.453125 40.6016L51.3965 657.546L538.547 617.395L487.603 0.451299Z" fill="white"/>
<path d="M487.219 0.906521L538.096 617.013L51.7808 657.094L0.907373 40.9867L487.223 0.906521M487.989 0L0 40.2188L51.0114 658L539 617.781L487.989 0Z" fill="black"/>
<path d="M454.466 43.8774L232.117 62.2031L233.444 78.266L455.793 59.9403L454.466 43.8774Z" fill="#044E49"/>
<path d="M458.244 87.6015L235.809 105.879L235.878 106.717L458.313 88.4391L458.244 87.6015Z" fill="black"/>
<path d="M460.677 117.102L238.242 135.379L238.311 136.217L460.746 117.939L460.677 117.102Z" fill="black"/>
<path d="M463.111 146.602L240.676 164.879L240.745 165.717L463.18 147.439L463.111 146.602Z" fill="black"/>
<path d="M465.552 176.098L243.117 194.375L243.186 195.213L465.621 176.935L465.552 176.098Z" fill="black"/>
<path d="M345.454 215.682L245.555 223.891L245.624 224.728L345.523 216.52L345.454 215.682Z" fill="black"/>
<path d="M471.692 252.468L57.4922 286.605L58.8186 302.668L473.018 268.531L471.692 252.468Z" fill="#0A645E"/>
<path d="M270.771 487.541L101.703 501.434L101.772 502.271L270.84 488.379L270.771 487.541Z" fill="black"/>
<path d="M273.646 522.256L104.578 536.148L104.647 536.986L273.715 523.094L273.646 522.256Z" fill="black"/>
<path d="M276.506 556.975L107.438 570.867L107.506 571.705L276.575 557.813L276.506 556.975Z" fill="black"/>
<path d="M279.373 591.686L110.305 605.578L110.374 606.416L279.442 592.523L279.373 591.686Z" fill="black"/>
<path d="M84.1 509.691C89.0114 509.691 92.9929 505.713 92.9929 500.806C92.9929 495.9 89.0114 491.922 84.1 491.922C79.1885 491.922 75.207 495.9 75.207 500.806C75.207 505.713 79.1885 509.691 84.1 509.691Z" fill="#044E49"/>
<path d="M92.8851 616.121C97.7965 616.121 101.778 612.143 101.778 607.236C101.778 602.329 97.7965 598.352 92.8851 598.352C87.9737 598.352 83.9922 602.329 83.9922 607.236C83.9922 612.143 87.9737 616.121 92.8851 616.121Z" fill="#044E49"/>
<path d="M90.0218 581.418C94.9333 581.418 98.9148 577.44 98.9148 572.533C98.9148 567.626 94.9333 563.648 90.0218 563.648C85.1104 563.648 81.1289 567.626 81.1289 572.533C81.1289 577.44 85.1104 581.418 90.0218 581.418Z" fill="#044E49"/>
<path d="M87.0609 545.554C91.9723 545.554 95.9538 541.577 95.9538 536.67C95.9538 531.763 91.9723 527.785 87.0609 527.785C82.1495 527.785 78.168 531.763 78.168 536.67C78.168 541.577 82.1495 545.554 87.0609 545.554Z" fill="#044E49"/>
<path d="M489.779 469.487L320.711 483.379L320.78 484.217L489.848 470.324L489.779 469.487Z" fill="black"/>
<path d="M492.646 504.201L323.578 518.094L323.647 518.931L492.715 505.039L492.646 504.201Z" fill="black"/>
<path d="M495.51 538.92L326.441 552.812L326.51 553.65L495.579 539.758L495.51 538.92Z" fill="black"/>
<path d="M498.373 573.635L329.305 587.527L329.374 588.365L498.442 574.473L498.373 573.635Z" fill="black"/>
<path d="M303.026 491.644C307.937 491.644 311.919 487.666 311.919 482.76C311.919 477.853 307.937 473.875 303.026 473.875C298.114 473.875 294.133 477.853 294.133 482.76C294.133 487.666 298.114 491.644 303.026 491.644Z" fill="#044E49"/>
<path d="M311.815 598.074C316.726 598.074 320.708 594.096 320.708 589.189C320.708 584.282 316.726 580.305 311.815 580.305C306.903 580.305 302.922 584.282 302.922 589.189C302.922 594.096 306.903 598.074 311.815 598.074Z" fill="#044E49"/>
<path d="M308.948 563.371C313.859 563.371 317.841 559.393 317.841 554.486C317.841 549.579 313.859 545.602 308.948 545.602C304.036 545.602 300.055 549.579 300.055 554.486C300.055 559.393 304.036 563.371 308.948 563.371Z" fill="#044E49"/>
<path d="M305.987 527.507C310.898 527.507 314.88 523.53 314.88 518.623C314.88 513.716 310.898 509.738 305.987 509.738C301.075 509.738 297.094 513.716 297.094 518.623C297.094 523.53 301.075 527.507 305.987 527.507Z" fill="#044E49"/>
<path d="M130.706 158.872C146.872 158.872 159.978 145.779 159.978 129.628C159.978 113.476 146.872 100.383 130.706 100.383C114.539 100.383 101.434 113.476 101.434 129.628C101.434 145.779 114.539 158.872 130.706 158.872Z" fill="#0760BA"/>
<path d="M204.022 201.787C196.834 212.487 187.327 221.431 176.205 227.957C165.083 234.482 152.632 238.421 139.778 239.48C126.923 240.54 113.995 238.693 101.953 234.077C89.911 229.46 79.0644 222.193 70.2188 212.815C77.1814 201.834 86.5987 192.616 97.7302 185.885C108.862 179.155 121.404 175.096 134.372 174.027C147.339 172.958 160.378 174.909 172.463 179.726C184.548 184.543 195.35 192.094 204.02 201.787H204.022Z" fill="#0760BA"/>
<path d="M132.814 68.9964C154.756 69.0201 175.84 77.5157 191.66 92.7076C207.479 107.899 216.808 128.612 217.699 150.516C218.589 172.419 210.971 193.819 196.437 210.243C181.903 226.666 161.578 236.842 139.71 238.643C137.355 238.837 134.971 238.935 132.621 238.935C110.679 238.911 89.5948 230.416 73.7758 215.224C57.9567 200.032 48.627 179.32 47.7367 157.416C46.8463 135.512 54.4643 114.112 68.9983 97.6889C83.5322 81.2656 103.857 71.0899 125.726 69.2888C128.08 69.0947 130.462 68.9964 132.814 68.9964ZM132.815 68.1562C130.448 68.1562 128.058 68.2537 125.658 68.4511C114.417 69.3768 103.469 72.5054 93.4384 77.6585C83.4077 82.8115 74.4912 89.888 67.1981 98.4838C59.905 107.08 54.378 117.027 50.9328 127.757C47.4876 138.486 46.1916 149.789 47.1189 161.02C48.8895 182.466 58.6611 202.465 74.4968 217.052C90.3324 231.639 111.076 239.749 132.615 239.775C134.982 239.775 137.368 239.677 139.773 239.48C151.013 238.553 161.961 235.424 171.991 230.271C182.021 225.118 190.937 218.041 198.23 209.445C205.522 200.849 211.049 190.903 214.494 180.173C217.939 169.443 219.234 158.141 218.307 146.911C216.537 125.465 206.765 105.466 190.929 90.8786C175.093 76.2916 154.349 68.1816 132.81 68.1562H132.815Z" fill="black"/>
<path d="M475.818 300.413L61.457 334.461L61.526 335.299L475.886 301.251L475.818 300.413Z" fill="black"/>
<path d="M478.071 329.768L63.8672 363.848L63.9361 364.684L478.14 330.604L478.071 329.768Z" fill="black"/>
<path d="M480.509 359.256L66.3047 393.336L66.3736 394.172L480.578 360.092L480.509 359.256Z" fill="black"/>
<path d="M482.947 388.744L68.7422 422.824L68.8111 423.661L483.016 389.581L482.947 388.744Z" fill="black"/>
<path d="M171.102 444.291L71.2031 452.5L71.2721 453.338L171.171 445.129L171.102 444.291Z" fill="black"/>
<path d="M55.7108 8.59521C58.8833 9.06158 61.7536 10.7325 63.7238 13.2601C65.6941 15.7878 66.6126 18.9772 66.2881 22.1645L61.89 69.6329C61.6689 72.1227 60.4675 74.4229 58.5498 76.0282C56.632 77.6334 54.1548 78.4125 51.6625 78.194C49.2561 77.9265 47.0506 76.727 45.5196 74.853C43.9885 72.979 43.2539 70.5801 43.4734 68.171L47.9969 19.3651C48.1208 17.8357 48.808 16.4066 49.9257 15.3543C51.0434 14.3019 52.512 13.7011 54.0474 13.668C54.8954 13.6656 55.7346 13.8401 56.5112 14.1803C57.2878 14.5204 57.9848 15.0188 58.5576 15.6436C59.1304 16.2683 59.5663 17.0056 59.8375 17.8083C60.1087 18.6111 60.2091 19.4615 60.1325 20.3052L56.9579 54.5648C56.9195 54.9773 56.7188 55.3577 56.3998 55.6224C56.0808 55.8871 55.6696 56.0144 55.2567 55.9763C55.052 55.9573 54.8532 55.8982 54.6714 55.8024C54.4896 55.7065 54.3286 55.5758 54.1974 55.4177C54.0663 55.2596 53.9676 55.0772 53.9071 54.881C53.8466 54.6848 53.8254 54.4785 53.8448 54.2741L57.0067 20.1498C57.0888 19.4041 56.8926 18.6543 56.4556 18.0443C56.0186 17.4342 55.3716 17.0067 54.6386 16.8438C54.2328 16.7654 53.815 16.7728 53.4122 16.8654C53.0094 16.958 52.6304 17.1338 52.2997 17.3815C51.9689 17.6291 51.6937 17.9432 51.4917 18.3035C51.2897 18.6638 51.1654 19.0623 51.1268 19.4735L46.6034 68.2811C46.4434 69.8133 46.858 71.3503 47.7669 72.5946C48.6758 73.839 50.0144 74.7023 51.5238 75.0174C52.3606 75.1764 53.2214 75.159 54.0511 74.9663C54.8808 74.7737 55.6611 74.41 56.3419 73.8986C57.0227 73.3871 57.5892 72.7393 58.0048 71.9965C58.4205 71.2537 58.6763 70.4323 58.7558 69.585L63.1825 21.8175C63.4202 19.3574 62.6707 16.9036 61.0986 14.9953C59.5266 13.0869 57.2605 11.8801 54.7984 11.6399C52.4111 11.4627 50.0495 12.2282 48.2211 13.7718C46.3926 15.3154 45.2433 17.5141 45.0199 19.8952L41.2214 60.8752C41.2025 61.0794 41.1435 61.2778 41.0479 61.4592C40.9522 61.6406 40.8216 61.8014 40.6637 61.9324C40.5058 62.0634 40.3236 62.1621 40.1276 62.2227C39.9315 62.2833 39.7254 62.3048 39.521 62.2858C39.3166 62.267 39.1178 62.2082 38.9362 62.1126C38.7545 62.0171 38.5935 61.8867 38.4622 61.7289C38.331 61.5712 38.2322 61.3891 38.1715 61.1932C38.1108 60.9972 38.0893 60.7913 38.1083 60.587L41.9059 19.607C42.0599 17.9669 42.5431 16.3746 43.3267 14.9252C44.1104 13.4759 45.1784 12.1991 46.4669 11.1713C47.7554 10.1434 49.2381 9.38559 50.8263 8.94298C52.4146 8.50038 54.0758 8.3821 55.7108 8.59521Z" fill="#032E58"/>
</g>
<defs>
<clipPath id="clip0_876_90688">
<rect width="539" height="658" fill="white"/>
</clipPath>
</defs>
</svg>
