<svg width="24" height="25" viewBox="0 0 24 25" fill="none" xmlns="http://www.w3.org/2000/svg">
<g id="distance">
<mask id="mask0_1660_111360" style="mask-type:alpha" maskUnits="userSpaceOnUse" x="0" y="0" width="24" height="25">
<rect id="Bounding box" y="0.00390625" width="24" height="24" fill="#D9D9D9"/>
</mask>
<g mask="url(#mask0_1660_111360)">
<path id="distance_2" d="M12 22.0039C10.2333 22.0039 8.79167 21.7247 7.675 21.1664C6.55833 20.6081 6 19.8872 6 19.0039C6 18.4206 6.24167 17.9122 6.725 17.4789C7.20833 17.0456 7.875 16.7039 8.725 16.4539L9.3 18.3539C9.01667 18.4372 8.75833 18.5414 8.525 18.6664C8.29167 18.7914 8.13333 18.9039 8.05 19.0039C8.26667 19.2706 8.76667 19.5039 9.55 19.7039C10.3333 19.9039 11.15 20.0039 12 20.0039C12.85 20.0039 13.6708 19.9039 14.4625 19.7039C15.2542 19.5039 15.7583 19.2706 15.975 19.0039C15.8917 18.9039 15.7333 18.7914 15.5 18.6664C15.2667 18.5414 15.0083 18.4372 14.725 18.3539L15.3 16.4539C16.15 16.7039 16.8125 17.0456 17.2875 17.4789C17.7625 17.9122 18 18.4206 18 19.0039C18 19.8872 17.4417 20.6081 16.325 21.1664C15.2083 21.7247 13.7667 22.0039 12 22.0039ZM12 15.3289C12.3 14.7789 12.6167 14.2747 12.95 13.8164C13.2833 13.3581 13.6083 12.9206 13.925 12.5039C14.5417 11.7039 15.0333 10.9831 15.4 10.3414C15.7667 9.69974 15.95 8.90391 15.95 7.95391C15.95 6.85391 15.5667 5.92057 14.8 5.15391C14.0333 4.38724 13.1 4.00391 12 4.00391C10.9 4.00391 9.96667 4.38724 9.2 5.15391C8.43333 5.92057 8.05 6.85391 8.05 7.95391C8.05 8.90391 8.23333 9.69974 8.6 10.3414C8.96667 10.9831 9.45833 11.7039 10.075 12.5039C10.3917 12.9206 10.7167 13.3581 11.05 13.8164C11.3833 14.2747 11.7 14.7789 12 15.3289ZM12 19.0039C11.8167 19.0039 11.65 18.9497 11.5 18.8414C11.35 18.7331 11.2417 18.5872 11.175 18.4039C10.7917 17.2206 10.3083 16.2289 9.725 15.4289C9.14167 14.6289 8.575 13.8622 8.025 13.1289C7.49167 12.3956 7.02917 11.6372 6.6375 10.8539C6.24583 10.0706 6.05 9.10391 6.05 7.95391C6.05 6.28724 6.625 4.87891 7.775 3.72891C8.925 2.57891 10.3333 2.00391 12 2.00391C13.6667 2.00391 15.075 2.57891 16.225 3.72891C17.375 4.87891 17.95 6.28724 17.95 7.95391C17.95 9.10391 17.7583 10.0706 17.375 10.8539C16.9917 11.6372 16.525 12.3956 15.975 13.1289C15.4417 13.8622 14.8792 14.6289 14.2875 15.4289C13.6958 16.2289 13.2083 17.2206 12.825 18.4039C12.7583 18.5872 12.65 18.7331 12.5 18.8414C12.35 18.9497 12.1833 19.0039 12 19.0039ZM12 10.0789C12.5833 10.0789 13.0833 9.87057 13.5 9.45391C13.9167 9.03724 14.125 8.53724 14.125 7.95391C14.125 7.37057 13.9167 6.87057 13.5 6.45391C13.0833 6.03724 12.5833 5.82891 12 5.82891C11.4167 5.82891 10.9167 6.03724 10.5 6.45391C10.0833 6.87057 9.875 7.37057 9.875 7.95391C9.875 8.53724 10.0833 9.03724 10.5 9.45391C10.9167 9.87057 11.4167 10.0789 12 10.0789Z" fill="#3D3F45"/>
</g>
</g>
</svg>
