<svg width="36" height="36" viewBox="0 0 36 36" fill="none" xmlns="http://www.w3.org/2000/svg">
<g id="InfoOutlined">
<path id="Vector" d="M16.5416 10.7096H19.4583V13.6263H16.5416V10.7096ZM16.5416 16.543H19.4583V25.293H16.5416V16.543ZM18 3.41797C9.94996 3.41797 3.41663 9.9513 3.41663 18.0013C3.41663 26.0513 9.94996 32.5846 18 32.5846C26.05 32.5846 32.5833 26.0513 32.5833 18.0013C32.5833 9.9513 26.05 3.41797 18 3.41797ZM18 29.668C11.5687 29.668 6.33329 24.4326 6.33329 18.0013C6.33329 11.5701 11.5687 6.33464 18 6.33464C24.4312 6.33464 29.6666 11.5701 29.6666 18.0013C29.6666 24.4326 24.4312 29.668 18 29.668Z" fill="#FF730E"/>
</g>
</svg>
