<svg width="651" height="709" viewBox="0 0 651 709" fill="none" xmlns="http://www.w3.org/2000/svg">
<g clip-path="url(#clip0_1091_109135)">
<path d="M454.143 357.693C454.905 358.697 455.878 359.522 456.993 360.109C458.108 360.696 459.338 361.031 460.597 361.09C461.855 361.15 463.111 360.932 464.276 360.453C465.442 359.973 466.488 359.244 467.341 358.316L495.422 370.548L492.687 354.847L466.44 345.638C464.788 344.306 462.706 343.626 460.587 343.729C458.469 343.831 456.462 344.709 454.946 346.195C453.43 347.68 452.511 349.672 452.363 351.791C452.215 353.91 452.848 356.01 454.143 357.693Z" fill="#A0616A"/>
<path d="M472.881 362.595L538.103 391.694L538.243 391.644L612.581 365.111C618.118 362.213 622.339 357.304 624.381 351.389C626.422 345.475 626.129 339.003 623.561 333.298C622.138 330.146 620.065 327.332 617.477 325.04C614.89 322.749 611.847 321.032 608.55 320.003C605.252 318.974 601.775 318.657 598.346 319.071C594.917 319.485 591.614 320.622 588.656 322.407L533.335 355.786L479.691 348.822L472.881 362.595Z" fill="#032E58"/>
<path d="M445.556 171.003C470.213 116.377 469.303 47.1352 431.037 1.03906C418.235 64.9588 383.272 122.283 332.335 162.869C312.634 178.45 289.102 193.725 283.72 218.283C280.371 233.563 285.118 249.726 293.324 263.036C301.531 276.347 312.971 287.297 324.28 298.088L325.549 301.781C374.759 267.655 420.899 225.63 445.556 171.003Z" fill="#044E49"/>
<path d="M429.971 1.70428C438.777 50.0045 432.235 101.436 410.83 145.688C406.202 155.255 400.676 164.557 393.278 172.251C386.009 179.696 376.883 185.055 366.846 187.772C357.54 190.494 347.705 192.199 339.221 197.139C330.278 202.346 324.728 211.084 322.566 221.104C319.921 233.364 321.831 245.844 324.123 257.984C326.667 271.463 329.524 285.424 325.836 298.974C325.39 300.615 327.959 301.214 328.405 299.574C334.821 276 322.347 252.749 324.091 229.047C324.905 217.987 329.051 207.106 338.518 200.698C346.797 195.094 356.937 193.328 366.385 190.654C376.304 187.846 385.213 183.557 392.794 176.442C400.548 169.164 406.449 160.059 411.3 150.652C422.143 129.239 429.557 106.251 433.271 82.5314C437.659 55.4836 437.396 27.8832 432.492 0.924446C432.188 -0.744 429.669 0.0467087 429.971 1.70428Z" fill="white"/>
<path d="M418.547 131.673C426.535 134.237 435.173 133.874 442.918 130.648C450.663 127.422 457.011 121.543 460.829 114.062C461.596 112.546 459.279 111.28 458.511 112.799C454.969 119.772 449.055 125.247 441.837 128.236C434.618 131.226 426.571 131.532 419.147 129.1C417.533 128.573 416.942 131.149 418.547 131.673Z" fill="white"/>
<path d="M371.747 187.018C363.765 171.818 361.796 154.162 366.233 137.572C366.674 135.929 364.105 135.33 363.665 136.972C359.079 154.244 361.165 172.613 369.506 188.413C370.302 189.918 372.539 188.515 371.747 187.018Z" fill="white"/>
<path d="M434.269 56.3393C430.972 55.9923 427.813 54.8304 425.075 52.9581C422.337 51.0857 420.106 48.5616 418.582 45.6123C417.806 44.0975 415.57 45.5019 416.342 47.0068C418.04 50.2574 420.507 53.0421 423.528 55.1175C426.548 57.1928 430.03 58.4957 433.67 58.9123C434.009 58.9804 434.362 58.9163 434.656 58.7332C434.951 58.55 435.164 58.2615 435.254 57.9263C435.332 57.5852 435.272 57.2272 435.087 56.93C434.903 56.6329 434.609 56.4206 434.269 56.3393Z" fill="white"/>
<path d="M228.386 1.57031C228.844 2.52997 229.302 3.48961 229.75 4.46888C235.842 17.4027 240.874 30.8108 244.798 44.5609C245.118 45.6191 245.427 46.6965 245.716 47.7617C254.817 80.9898 257.679 115.621 254.158 149.896C252.745 163.534 250.297 177.044 246.837 190.309C242.057 208.629 235.42 228.111 236.918 246.404C237.052 248.315 237.305 250.215 237.675 252.094L320.952 303.041C321.199 303.062 321.436 303.102 321.684 303.123L324.916 305.309C325.142 304.638 325.363 303.936 325.589 303.265C325.722 302.875 325.836 302.475 325.969 302.086C326.051 301.823 326.133 301.559 326.223 301.327C326.25 301.239 326.277 301.151 326.294 301.083C326.383 300.85 326.442 300.625 326.52 300.411C327.761 296.493 328.977 292.56 330.168 288.611C330.18 288.592 330.18 288.592 330.173 288.562C339.169 258.45 345.734 227.321 347.374 196.184C347.423 195.247 347.484 194.291 347.495 193.331C348.156 179.292 347.671 165.222 346.044 151.262C345.128 143.621 343.827 136.031 342.145 128.521C337.762 109.126 330.36 90.5426 320.212 73.4514C299.975 39.3833 269.086 12.1767 231.282 2.29685C230.315 2.04468 229.365 1.80327 228.386 1.57031Z" fill="#52B4AD"/>
<path d="M228.386 1.57031C228.844 2.52997 229.302 3.48961 229.75 4.46888C235.842 17.4027 240.874 30.8108 244.798 44.5609C245.118 45.6191 245.427 46.6965 245.716 47.7617C254.817 80.9898 257.679 115.621 254.158 149.896C252.745 163.534 250.297 177.044 246.837 190.309C242.057 208.629 235.42 228.111 236.918 246.404C237.052 248.315 237.305 250.215 237.675 252.094L320.952 303.041C321.199 303.062 321.436 303.102 321.684 303.123L324.916 305.309C325.142 304.638 325.363 303.936 325.589 303.265C325.722 302.875 325.836 302.475 325.969 302.086C326.051 301.823 326.133 301.559 326.223 301.327C326.25 301.239 326.277 301.151 326.294 301.083C326.383 300.85 326.442 300.625 326.52 300.411C327.761 296.493 328.977 292.56 330.168 288.611C330.18 288.592 330.18 288.592 330.173 288.562C339.169 258.45 345.734 227.321 347.374 196.184C347.423 195.247 347.484 194.291 347.495 193.331C348.156 179.292 347.671 165.222 346.044 151.262C345.128 143.621 343.827 136.031 342.145 128.521C337.762 109.126 330.36 90.5426 320.212 73.4514C299.975 39.3833 269.086 12.1767 231.282 2.29685C230.315 2.04468 229.365 1.80327 228.386 1.57031Z" fill="black" fill-opacity="0.2"/>
<path d="M227.928 2.74408C263.993 35.9985 289.685 81.0085 299.194 129.249C301.25 139.679 302.429 150.438 301.147 161.043C299.819 171.371 295.753 181.154 289.373 189.375C283.578 197.161 276.75 204.453 272.946 213.514C268.936 223.064 269.756 233.387 274.053 242.692C279.31 254.076 288.338 262.889 297.465 271.2C307.599 280.427 318.271 289.851 323.472 302.894C324.102 304.474 326.514 303.402 325.884 301.825C316.836 279.133 292.901 268.09 280.045 248.114C274.047 238.793 270.817 227.604 274.524 216.779C277.766 207.312 284.801 199.787 290.736 191.954C296.969 183.73 301.504 174.934 303.28 164.681C305.096 154.194 304.335 143.366 302.554 132.93C298.34 109.294 290.442 86.4684 279.149 65.2899C266.394 41.0475 249.593 19.1691 229.472 0.601246C228.227 -0.547469 226.691 1.60289 227.928 2.74408Z" fill="white"/>
<path d="M296.929 113.41C304.848 110.641 311.527 105.142 315.772 97.8953C320.017 90.6489 321.552 82.127 320.103 73.8516C319.804 72.1782 317.194 72.5648 317.493 74.2405C318.857 81.944 317.426 89.882 313.459 96.6218C309.493 103.362 303.251 108.459 295.861 110.994C294.256 111.547 295.333 113.96 296.929 113.41Z" fill="white"/>
<path d="M292.831 185.817C277.321 178.493 265.136 165.584 258.707 149.662C258.071 148.084 255.66 149.155 256.295 150.731C263.016 167.287 275.723 180.696 291.88 188.281C293.421 189.003 294.363 186.535 292.831 185.817Z" fill="white"/>
<path d="M264.201 43.7789C261.36 45.4901 258.139 46.4677 254.828 46.6238C251.516 46.78 248.217 46.1099 245.228 44.6737C243.698 43.9326 242.757 46.402 244.277 47.1383C247.587 48.7097 251.231 49.4453 254.89 49.2809C258.55 49.1165 262.113 48.057 265.269 46.195C265.581 46.0445 265.825 45.7805 265.949 45.4568C266.074 45.1331 266.071 44.7739 265.941 44.4523C265.798 44.1331 265.535 43.8833 265.21 43.7572C264.884 43.6311 264.522 43.6389 264.201 43.7789Z" fill="white"/>
<path d="M407.756 558.646H-226.614V190.794C-226.611 188.038 -225.516 185.396 -223.57 183.447C-221.624 181.498 -218.986 180.402 -216.234 180.398H397.377C400.128 180.402 402.767 181.498 404.712 183.447C406.658 185.396 407.753 188.038 407.756 190.794V558.646Z" fill="#CACACA"/>
<path d="M-207.014 194.777H388.156V533.209H-207.014V194.777Z" fill="white"/>
<path d="M408.309 548.695V594.089C408.309 595.97 407.939 597.834 407.22 599.572C406.501 601.311 405.447 602.891 404.118 604.221C402.79 605.552 401.213 606.608 399.477 607.328C397.741 608.048 395.881 608.419 394.002 608.419H159.861V698.004H162.971C163.216 698.003 163.457 698.052 163.683 698.145C163.908 698.239 164.113 698.376 164.286 698.549C164.458 698.722 164.595 698.927 164.688 699.153C164.782 699.378 164.83 699.62 164.83 699.865V706.096C164.83 706.34 164.782 706.582 164.688 706.808C164.595 707.034 164.458 707.239 164.286 707.412C164.113 707.585 163.908 707.722 163.683 707.816C163.457 707.909 163.216 707.957 162.971 707.957H17.6199C17.3758 707.957 17.1342 707.909 16.9087 707.816C16.6832 707.722 16.4783 707.585 16.3057 707.412C16.1331 707.239 15.9962 707.034 15.9028 706.808C15.8094 706.582 15.7614 706.34 15.7614 706.096V699.865C15.7614 699.62 15.8094 699.378 15.9028 699.153C15.9962 698.927 16.1331 698.722 16.3057 698.549C16.4783 698.376 16.6832 698.239 16.9087 698.145C17.1342 698.052 17.3758 698.004 17.6198 698.004H20.7303V608.419H-213.411C-215.289 608.419 -217.15 608.048 -218.885 607.328C-220.621 606.608 -222.198 605.552 -223.527 604.221C-224.856 602.891 -225.909 601.311 -226.628 599.572C-227.347 597.834 -227.717 595.97 -227.717 594.089V548.695L408.309 548.695Z" fill="#3F3D56"/>
<path d="M203.086 362.144H348.125C349.136 362.143 350.105 361.741 350.82 361.025C351.534 360.309 351.936 359.338 351.938 358.326V299.381C351.936 298.369 351.534 297.398 350.82 296.682C350.105 295.966 349.136 295.564 348.125 295.562H203.086C202.076 295.564 201.107 295.966 200.392 296.682C199.677 297.398 199.275 298.369 199.274 299.381V358.326C199.275 359.338 199.677 360.309 200.392 361.025C201.107 361.741 202.076 362.143 203.086 362.144Z" fill="#043F79"/>
<path d="M216.898 390.423H334.316C335.529 390.423 336.693 389.94 337.551 389.08C338.409 388.221 338.891 387.056 338.891 385.84C338.891 384.625 338.409 383.46 337.551 382.6C336.693 381.741 335.529 381.258 334.316 381.258H216.898C210.998 381.176 210.939 390.506 216.898 390.423Z" fill="#E4E4E4"/>
<path d="M216.898 411.423H334.316C335.529 411.423 336.693 410.94 337.551 410.08C338.409 409.221 338.891 408.056 338.891 406.84C338.891 405.625 338.409 404.46 337.551 403.6C336.693 402.741 335.529 402.258 334.316 402.258H216.898C210.998 402.176 210.939 411.506 216.898 411.423Z" fill="#E4E4E4"/>
<path d="M216.898 432.423H334.316C335.529 432.423 336.693 431.94 337.551 431.08C338.409 430.221 338.891 429.056 338.891 427.84C338.891 426.625 338.409 425.46 337.551 424.6C336.693 423.741 335.529 423.258 334.316 423.258H216.898C210.998 423.176 210.939 432.506 216.898 432.423Z" fill="#E4E4E4"/>
<path d="M18.0513 362.144H163.09C164.101 362.143 165.07 361.741 165.784 361.025C166.499 360.309 166.901 359.338 166.902 358.326V299.381C166.901 298.369 166.499 297.398 165.784 296.682C165.07 295.966 164.101 295.564 163.09 295.562H18.0513C17.0406 295.564 16.0715 295.966 15.3568 296.682C14.6421 297.398 14.2402 298.369 14.239 299.381V358.326C14.2402 359.338 14.6421 360.309 15.3568 361.025C16.0715 361.741 17.0406 362.143 18.0513 362.144Z" fill="#043F79"/>
<path d="M31.8628 390.423H149.281C150.494 390.423 151.658 389.94 152.516 389.08C153.373 388.221 153.855 387.056 153.855 385.84C153.855 384.625 153.373 383.46 152.516 382.6C151.658 381.741 150.494 381.258 149.281 381.258H31.8628C25.9631 381.176 25.9041 390.506 31.8628 390.423Z" fill="#E4E4E4"/>
<path d="M31.8628 411.423H149.281C150.494 411.423 151.658 410.94 152.516 410.08C153.373 409.221 153.855 408.056 153.855 406.84C153.855 405.625 153.373 404.46 152.516 403.6C151.658 402.741 150.494 402.258 149.281 402.258H31.8628C25.9631 402.176 25.9041 411.506 31.8628 411.423Z" fill="#E4E4E4"/>
<path d="M31.8628 432.423H149.281C150.494 432.423 151.658 431.94 152.516 431.08C153.373 430.221 153.855 429.056 153.855 427.84C153.855 426.625 153.373 425.46 152.516 424.6C151.658 423.741 150.494 423.258 149.281 423.258H31.8628C25.9631 423.176 25.9041 432.506 31.8628 432.423Z" fill="#E4E4E4"/>
<path d="M349.796 688.984L350.31 476.066L348.372 476.061L348.465 436.9L350.403 436.905L350.562 371.532C350.568 369.09 351.053 366.674 351.992 364.42C352.93 362.167 354.302 360.121 356.03 358.398C357.758 356.676 359.808 355.311 362.062 354.383C364.316 353.454 366.731 352.979 369.169 352.984L507.306 353.318C509.743 353.324 512.156 353.811 514.406 354.751C516.656 355.69 518.699 357.065 520.419 358.795C522.138 360.526 523.501 362.579 524.428 364.837C525.356 367.095 525.83 369.514 525.824 371.955L525.714 417.537L528.801 417.614L528.119 444.994L525.648 444.932L525.634 450.974L528.263 451.04L527.581 478.42L525.567 478.369L525.058 689.408C525.057 691.851 524.574 694.269 523.637 696.525C522.701 698.781 521.329 700.829 519.6 702.552C517.871 704.275 515.82 705.64 513.563 706.567C511.307 707.495 508.89 707.967 506.451 707.956L368.315 707.622C363.393 707.604 358.68 705.632 355.208 702.138C351.736 698.644 349.79 693.914 349.796 688.984Z" fill="#3F3D56"/>
<path d="M510.675 699.435C512.397 698.815 513.888 697.679 514.943 696.181C515.999 694.683 516.568 692.896 516.574 691.062L517.348 370.26C517.353 367.897 516.421 365.629 514.757 363.954C513.093 362.279 510.833 361.335 508.474 361.329L479.083 361.258L479.447 362.157C480.078 363.718 480.317 365.411 480.141 367.085C479.966 368.76 479.382 370.366 478.44 371.761C477.499 373.157 476.23 374.299 474.744 375.087C473.258 375.876 471.602 376.286 469.92 376.282L404.693 376.124C403.069 375.983 401.502 375.46 400.117 374.599C398.732 373.738 397.57 372.562 396.723 371.167C395.888 369.797 395.389 368.248 395.266 366.647C395.143 365.046 395.399 363.439 396.015 361.956L396.383 361.058L366.023 360.984C363.665 360.982 361.402 361.916 359.731 363.582C358.059 365.249 357.116 367.511 357.107 369.873L356.368 675.946C356.361 682.213 358.835 688.227 363.25 692.67C367.664 697.112 373.657 699.619 379.914 699.642L507.658 699.951C508.685 699.954 509.706 699.78 510.675 699.435Z" fill="white"/>
<path d="M460.353 368.863C459.236 368.863 458.331 367.957 458.331 366.838C458.331 365.719 459.236 364.812 460.353 364.812C461.47 364.812 462.375 365.719 462.375 366.838C462.375 367.957 461.47 368.863 460.353 368.863Z" fill="white"/>
<path d="M382.184 467.455H487.132C487.863 467.454 488.565 467.163 489.082 466.645C489.599 466.127 489.89 465.425 489.891 464.692V422.04C489.89 421.308 489.599 420.606 489.082 420.088C488.565 419.57 487.863 419.278 487.132 419.277H382.184C381.453 419.278 380.751 419.57 380.234 420.088C379.717 420.606 379.426 421.308 379.425 422.04V464.692C379.426 465.425 379.717 466.127 380.234 466.645C380.751 467.163 381.453 467.454 382.184 467.455Z" fill="#043F79"/>
<path d="M392.176 487.913H477.138C477.574 487.914 478.005 487.828 478.407 487.662C478.809 487.496 479.175 487.252 479.483 486.944C479.791 486.636 480.036 486.27 480.202 485.867C480.369 485.465 480.455 485.033 480.455 484.597C480.455 484.161 480.369 483.729 480.202 483.327C480.036 482.924 479.791 482.558 479.483 482.25C479.175 481.942 478.809 481.698 478.407 481.532C478.005 481.366 477.574 481.281 477.138 481.282H392.176C387.907 481.222 387.865 487.973 392.176 487.913Z" fill="#E4E4E4"/>
<path d="M392.177 503.112H477.139C478.017 503.112 478.859 502.763 479.48 502.141C480.1 501.519 480.449 500.676 480.449 499.796C480.449 498.917 480.1 498.074 479.48 497.452C478.859 496.83 478.017 496.481 477.139 496.481H392.177C387.908 496.421 387.865 503.172 392.177 503.112Z" fill="#E4E4E4"/>
<path d="M392.176 518.307H477.138C477.574 518.308 478.005 518.223 478.407 518.057C478.809 517.891 479.175 517.646 479.483 517.339C479.791 517.031 480.036 516.665 480.202 516.262C480.369 515.859 480.455 515.428 480.455 514.992C480.455 514.556 480.369 514.124 480.202 513.721C480.036 513.319 479.791 512.953 479.483 512.645C479.175 512.337 478.809 512.093 478.407 511.927C478.005 511.76 477.574 511.675 477.138 511.676H392.176C387.907 511.616 387.865 518.368 392.176 518.307Z" fill="#E4E4E4"/>
<path d="M382.184 595.268H487.132C487.863 595.267 488.565 594.975 489.082 594.457C489.599 593.939 489.89 593.237 489.891 592.505V549.853C489.89 549.12 489.599 548.418 489.082 547.9C488.565 547.382 487.863 547.091 487.132 547.09H382.184C381.453 547.091 380.751 547.382 380.234 547.9C379.717 548.418 379.426 549.12 379.425 549.853V592.505C379.426 593.237 379.717 593.939 380.234 594.457C380.751 594.975 381.453 595.267 382.184 595.268Z" fill="#043F79"/>
<path d="M392.176 615.729H477.138C477.574 615.73 478.005 615.645 478.407 615.479C478.809 615.312 479.175 615.068 479.483 614.76C479.791 614.452 480.036 614.087 480.202 613.684C480.369 613.281 480.455 612.85 480.455 612.414C480.455 611.978 480.369 611.546 480.202 611.143C480.036 610.741 479.791 610.375 479.483 610.067C479.175 609.759 478.809 609.515 478.407 609.348C478.005 609.182 477.574 609.097 477.138 609.098H392.176C387.907 609.038 387.865 615.789 392.176 615.729Z" fill="#E4E4E4"/>
<path d="M392.177 630.924H477.139C478.017 630.924 478.859 630.575 479.48 629.953C480.1 629.332 480.449 628.488 480.449 627.609C480.449 626.73 480.1 625.886 479.48 625.265C478.859 624.643 478.017 624.293 477.139 624.293H392.177C387.908 624.234 387.865 630.985 392.177 630.924Z" fill="#E4E4E4"/>
<path d="M392.176 646.124H477.138C477.574 646.125 478.005 646.039 478.407 645.873C478.809 645.707 479.175 645.463 479.483 645.155C479.791 644.847 480.036 644.481 480.202 644.078C480.369 643.676 480.455 643.244 480.455 642.808C480.455 642.372 480.369 641.94 480.202 641.538C480.036 641.135 479.791 640.769 479.483 640.461C479.175 640.153 478.809 639.909 478.407 639.743C478.005 639.577 477.574 639.492 477.138 639.493H392.176C387.907 639.433 387.865 646.184 392.176 646.124Z" fill="#E4E4E4"/>
<path d="M616.786 696.306L605.382 696.305L599.958 652.25H616.789L616.786 696.306Z" fill="#A0616A"/>
<path d="M619.695 692.573L616.486 692.573L603.954 687.469L597.238 692.572C593.442 692.573 589.801 694.083 587.117 696.771C584.433 699.459 582.925 703.105 582.925 706.907V707.373L619.695 707.374L619.695 692.573Z" fill="#2F2E41"/>
<path d="M572.594 689.107L561.471 691.623L546.49 649.846L562.907 646.133L572.594 689.107Z" fill="#A0616A"/>
<path d="M574.613 684.826L571.482 685.535L558.136 683.32L552.707 689.781C549.004 690.618 545.785 692.895 543.758 696.109C541.731 699.323 541.062 703.212 541.898 706.921L542 707.375L577.867 699.264L574.613 684.826Z" fill="#2F2E41"/>
<path d="M631.229 426.969C636.576 443.12 636.01 460.651 629.944 479.467L627.351 585.407C627.351 585.407 631.215 654.879 618.747 679.326H600.665L591.713 579.062L590.589 511.764L551.824 568.541L576.514 677.687L554.26 679.68L514.194 561.231L563.628 446.315L631.229 426.969Z" fill="#3D3F45"/>
<path d="M560.403 449.711L626.151 439.177C627.876 438.624 629.46 437.703 630.796 436.479C632.132 435.255 633.187 433.755 633.89 432.084C634.592 430.412 634.925 428.608 634.866 426.796C634.807 424.983 634.357 423.205 633.547 421.583L630.565 415.609L631.724 352.849C631.863 344.686 629.854 336.629 625.898 329.491C621.942 322.352 616.178 316.383 609.187 312.183L602.776 308.343L599.536 300.102L569.657 300.831L569.57 311.641L558.87 328.731L558.87 328.802L559.542 421.82L562.491 431.42L558.031 442.585L560.403 449.711Z" fill="#032E58"/>
<path d="M581.86 289.851C566.867 289.851 554.712 277.677 554.712 262.66C554.712 247.643 566.867 235.469 581.86 235.469C596.853 235.469 609.008 247.643 609.008 262.66C609.008 277.677 596.853 289.851 581.86 289.851Z" fill="#A0616A"/>
<path d="M610.129 268.589C610.939 265.172 610.567 260.364 610.11 256.924C609.524 252.388 607.992 248.025 605.616 244.12C603.239 240.214 600.069 236.852 596.312 234.252C594.871 233.156 593.16 232.474 591.361 232.281C590.462 232.205 589.562 232.416 588.79 232.884C588.018 233.351 587.414 234.052 587.064 234.884C586.611 233.753 585.931 232.726 585.067 231.867C584.203 231.009 583.172 230.336 582.038 229.892C579.76 229.018 577.311 228.688 574.883 228.927C570.179 229.316 565.666 230.973 561.826 233.722C557.986 236.472 554.96 240.212 553.07 244.545C552.345 246.27 550.32 239.897 549.401 241.527C548.557 243.222 547.084 244.518 545.298 245.139C543.497 245.642 542.766 253.071 542.058 251.338C541.508 252.619 541.291 254.017 541.426 255.404C541.561 256.791 542.045 258.121 542.832 259.271C543.619 260.42 544.683 261.351 545.926 261.978C547.169 262.604 548.55 262.905 549.94 262.853C551.757 262.618 553.559 262.272 555.335 261.819C558.595 261.407 561.894 262.206 564.607 264.063C567.32 265.921 569.26 268.709 570.061 271.901C570.556 270.045 571.348 268.281 572.405 266.677C572.942 265.88 573.661 265.222 574.502 264.759C575.344 264.296 576.284 264.04 577.244 264.014C578.161 264.12 579.047 264.412 579.848 264.873C580.649 265.334 581.347 265.954 581.9 266.695C583.095 268.101 583.993 269.741 585.197 271.139C588.729 275.241 593.507 284.807 598.542 284.109C602.515 283.559 609.024 273.254 610.129 268.589Z" fill="#2F2E41"/>
<path d="M480.656 429.86C481.811 430.363 483.062 430.606 484.322 430.572C485.581 430.538 486.818 430.227 487.944 429.663C489.071 429.098 490.06 428.293 490.843 427.304C491.625 426.316 492.182 425.167 492.473 423.939L522.939 420.856L512.888 408.5L485.497 413.322C483.406 412.969 481.258 413.396 479.46 414.523C477.662 415.65 476.34 417.398 475.743 419.437C475.146 421.475 475.316 423.662 476.222 425.583C477.127 427.504 478.705 429.026 480.656 429.86Z" fill="#A0616A"/>
<path d="M499.396 424.961L570.496 418.399L570.593 418.287L622.484 358.734C625.898 353.494 627.184 347.144 626.078 340.986C624.971 334.827 621.556 329.325 616.531 325.606C613.751 323.553 610.568 322.114 607.192 321.382C603.816 320.651 600.324 320.643 596.946 321.361C593.567 322.079 590.378 323.505 587.59 325.546C584.801 327.587 582.475 330.196 580.766 333.202L548.806 389.412L498.613 409.611L499.396 424.961Z" fill="#032E58"/>
<path d="M-600.971 709H649.45C649.861 708.999 650.254 708.835 650.544 708.544C650.833 708.253 650.996 707.859 650.996 707.447C650.996 707.036 650.833 706.642 650.544 706.351C650.254 706.06 649.861 705.896 649.45 705.895H-600.971C-601.382 705.895 -601.776 706.058 -602.067 706.349C-602.358 706.641 -602.521 707.036 -602.521 707.447C-602.521 707.859 -602.358 708.254 -602.067 708.546C-601.776 708.837 -601.382 709 -600.971 709Z" fill="#CCCCCC"/>
</g>
<defs>
<clipPath id="clip0_1091_109135">
<rect width="1018" height="709" fill="white" transform="matrix(-1 0 0 1 651 0)"/>
</clipPath>
</defs>
</svg>
