<svg width="54" height="54" viewBox="0 0 54 54" fill="none" xmlns="http://www.w3.org/2000/svg">
<g clip-path="url(#clip0_1154_652)">
<path d="M27 47.25C22.5245 47.25 18.2322 45.4721 15.0676 42.3074C11.9029 39.1428 10.125 34.8505 10.125 30.375V25.3125C14.6005 25.3125 18.8928 27.0904 22.0574 30.2551C25.2221 33.4197 27 37.712 27 42.1875V47.25Z" stroke="#0760BA" stroke-width="2" stroke-linecap="round" stroke-linejoin="round"/>
<path d="M27 47.25V42.1875C27 39.9714 27.4365 37.7771 28.2845 35.7297C29.1326 33.6823 30.3756 31.8221 31.9426 30.2551C33.5096 28.6881 35.3698 27.4451 37.4172 26.597C39.4646 25.749 41.6589 25.3125 43.875 25.3125V30.375C43.875 34.8505 42.0971 39.1428 38.9324 42.3074C35.7678 45.4721 31.4755 47.25 27 47.25Z" stroke="#0760BA" stroke-width="2" stroke-linecap="round" stroke-linejoin="round"/>
<path d="M43.875 25.3125V13.5C39.3995 13.5 35.1072 15.2779 31.9426 18.4426C28.7779 21.6072 27 25.8995 27 30.375V42.1875" stroke="#0760BA" stroke-width="2" stroke-linecap="round" stroke-linejoin="round"/>
<path d="M10.125 25.3125V13.5C14.6005 13.5 18.8928 15.2779 22.0574 18.4426C25.2221 21.6072 27 25.8995 27 30.375V42.1875" stroke="#0760BA" stroke-width="2" stroke-linecap="round" stroke-linejoin="round"/>
<path d="M17.7292 15.3077C20.1698 8.47758 27 5.0625 27 5.0625C27 5.0625 33.8301 8.47758 36.2812 15.3098" stroke="#0760BA" stroke-width="2" stroke-linecap="round" stroke-linejoin="round"/>
</g>
<defs>
<clipPath id="clip0_1154_652">
<rect width="54" height="54" fill="white"/>
</clipPath>
</defs>
</svg>
