<svg width="358" height="200" viewBox="0 0 358 200" fill="none" xmlns="http://www.w3.org/2000/svg">
<g clip-path="url(#clip0_2678_17924)">
<path d="M75.2101 199.239H20.6117C20.6117 199.239 19.5049 183.009 26.0529 182.824C32.6008 182.64 31.863 190.017 40.0714 179.873C48.2798 169.729 58.2399 170.283 59.5311 176.277C60.8223 182.271 57.0412 187.066 63.958 185.591C70.8749 184.115 80.8358 187.988 75.2101 199.239Z" fill="#E6E6E6"/>
<path d="M46.9891 199.242L46.8047 199.235C47.2346 188.549 49.4725 181.685 51.2747 177.806C53.2311 173.595 55.1164 171.89 55.1354 171.874L55.2581 172.012C55.2395 172.028 53.3763 173.716 51.4355 177.898C49.6433 181.759 47.4175 188.597 46.9891 199.242Z" fill="white"/>
<path d="M66.7493 199.264L66.5723 199.213C67.9454 194.684 70.4205 190.566 73.7761 187.229L73.9 187.366C70.5693 190.68 68.1125 194.768 66.7493 199.264Z" fill="white"/>
<path d="M29.2112 199.251L29.0283 199.226C29.6236 195.22 28.9938 191.127 27.2214 187.485C26.4949 185.958 25.5331 184.554 24.3711 183.324L24.4989 183.191C25.6765 184.435 26.6516 185.857 27.3884 187.403C29.1767 191.079 29.8121 195.209 29.2112 199.251Z" fill="white"/>
<path d="M82.6201 199.485H14.7235L14.7079 199.256C14.6691 198.684 13.8028 185.189 18.1757 180.374C18.6095 179.865 19.1451 179.453 19.7479 179.164C20.3507 178.874 21.0074 178.715 21.6757 178.694C24.526 178.613 26.3173 179.681 27.7623 180.538C30.4856 182.153 32.2843 183.22 38.8256 175.137C45.9114 166.38 53.5571 164.495 57.9522 165.543C60.792 166.22 62.7492 168.133 63.322 170.792C63.8656 173.31 63.6916 175.676 63.5526 177.578C63.4039 179.612 63.2866 181.218 64.1223 181.947C64.8213 182.554 66.2119 182.609 68.503 182.121C73.1629 181.127 79.6665 181.977 82.9304 186.194C84.6864 188.463 86.07 192.586 82.6885 199.349L82.6201 199.485ZM15.1867 198.992H82.3145C84.8344 193.88 84.9132 189.562 82.5402 186.496C79.5458 182.628 73.2639 181.61 68.6059 182.603C66.1163 183.134 64.6333 183.047 63.798 182.319C62.7764 181.429 62.9018 179.714 63.0602 177.543C63.1969 175.674 63.3666 173.347 62.8393 170.898C62.308 168.432 60.4849 166.655 57.8373 166.024C53.5824 165.009 46.1487 166.87 39.2089 175.448C32.4 183.863 30.3485 182.647 27.5102 180.962C26.0474 180.094 24.3869 179.111 21.6892 179.187C21.0876 179.206 20.4966 179.351 19.9544 179.613C19.4121 179.874 18.9306 180.246 18.5407 180.705C14.6116 185.033 15.0908 197.167 15.1871 198.992H15.1867Z" fill="#2F2E41"/>
<path d="M304.47 199.759H237.595L237.582 199.384L234.389 108.068H307.676L304.47 199.759ZM238.345 198.982H303.72L306.872 108.844H235.193L238.345 198.982Z" fill="#3F3D56"/>
<path d="M253.548 124.987H248.461V187.927H253.548V124.987Z" fill="#3F3D56"/>
<path d="M273.575 124.987H268.488V187.927H273.575V124.987Z" fill="#3F3D56"/>
<path d="M293.604 124.987H288.518V187.927H293.604V124.987Z" fill="#3F3D56"/>
<path d="M350.172 134.883L349.844 134.676L266.775 82.1861L273.981 70.7854L274.309 70.9928L357.377 123.482L350.172 134.883ZM267.847 81.9446L349.93 133.811L356.306 123.724L274.223 71.8566L267.847 81.9446Z" fill="#3F3D56"/>
<path d="M330.117 77.9562C327.702 76.4282 324.9 75.625 322.042 75.6417C319.185 75.6585 316.392 76.4946 313.996 78.0508C311.599 79.607 309.7 81.8179 308.522 84.4213C307.345 87.0246 306.939 89.9111 307.353 92.7381L311.314 95.241C310.318 92.93 310.089 90.361 310.659 87.9102C311.23 85.4594 312.57 83.2556 314.484 81.6214C316.397 79.9872 318.784 79.0085 321.294 78.8286C323.804 78.6487 326.306 79.2771 328.433 80.6217C330.56 81.9663 332.201 83.9565 333.115 86.3009C334.029 88.6453 334.168 91.2208 333.513 93.6502C332.857 96.0795 331.441 98.2352 329.471 99.8016C327.502 101.368 325.082 102.263 322.567 102.355L326.528 104.858C329.26 104.019 331.694 102.415 333.541 100.235C335.388 98.0544 336.571 95.3902 336.949 92.5581C337.327 89.726 336.885 86.8449 335.674 84.2567C334.464 81.6685 332.536 79.4818 330.12 77.9562H330.117Z" fill="#3F3D56"/>
<path d="M352.987 199.223H0V200H352.987V199.223Z" fill="#3F3D56"/>
<path d="M154.179 193.925H148.524L145.832 172.113H154.181L154.179 193.925Z" fill="#FEB8B8"/>
<path d="M137.617 199.175H155.391V192.308H144.389C142.593 192.308 140.871 193.022 139.601 194.291C138.331 195.561 137.617 197.284 137.617 199.079V199.175Z" fill="#2F2E41"/>
<path d="M152.193 160.126L156.094 164.221L173.745 151.125L167.987 145.082L152.193 160.126Z" fill="#FEB8B8"/>
<path d="M160.112 166.096L152.521 158.132L147.549 162.869L159.813 175.736L159.882 175.671C160.526 175.057 161.042 174.323 161.402 173.51C161.762 172.696 161.959 171.82 161.98 170.931C162.001 170.042 161.847 169.158 161.527 168.328C161.206 167.498 160.726 166.74 160.112 166.096Z" fill="#2F2E41"/>
<path d="M112.828 100.37C112.47 99.7944 112.243 99.1471 112.162 98.474C112.081 97.8009 112.149 97.1183 112.361 96.4742C112.572 95.8301 112.922 95.2402 113.387 94.746C113.851 94.2519 114.418 93.8655 115.047 93.614L137.251 37.0305L145.906 42.2122L121.241 96.4943C121.593 97.5803 121.535 98.7578 121.077 99.8038C120.619 100.85 119.793 101.691 118.756 102.169C117.719 102.647 116.543 102.728 115.45 102.396C114.358 102.065 113.425 101.344 112.828 100.37Z" fill="#FEB8B8"/>
<path d="M197.106 104.426C196.429 104.378 195.772 104.182 195.179 103.852C194.587 103.522 194.074 103.066 193.677 102.516C193.279 101.966 193.008 101.336 192.88 100.67C192.753 100.004 192.774 99.3176 192.94 98.6602L160.184 47.4576L169.461 43.4971L198.91 95.3419C199.998 95.6934 200.918 96.432 201.497 97.4174C202.076 98.4028 202.273 99.5664 202.05 100.687C201.828 101.808 201.201 102.808 200.29 103.498C199.378 104.187 198.245 104.518 197.106 104.428V104.426Z" fill="#FEB8B8"/>
<path d="M137.471 94.7043L143.269 180.87L157.125 179.647L159.978 116.077L167.721 143.378L184.43 144.601L177.816 90.6293L137.471 94.7043Z" fill="#2F2E41"/>
<path d="M170.165 139.304L167.718 143.379L150.604 155.196L162.83 161.716C162.83 161.716 186.466 148.676 184.429 144.601L170.165 139.304Z" fill="#2F2E41"/>
<path d="M125.336 59.8426L130.159 46.2526C131.232 43.2288 132.895 40.4479 135.05 38.0706C137.205 35.6934 139.81 33.7671 142.715 32.4033C149.243 29.9985 156.344 29.6098 163.095 31.2878L164.851 31.7234C169.531 32.8578 173.917 34.9756 177.715 37.936C180.687 40.2789 183.361 43.2454 183.599 46.4363C183.601 46.4431 183.603 46.4497 183.605 46.4561C184.428 50.064 184.836 68.8085 184.836 68.8085H177.574L178.723 94.0729L178.63 93.8901C178.63 93.8901 136.747 101.815 136.747 97.7403V71.66L135.888 62.2169L125.336 59.8426Z" fill="#CCCCCC"/>
<path d="M164.431 27.7552C170.841 27.7552 176.038 22.5592 176.038 16.1497C176.038 9.74024 170.841 4.54431 164.431 4.54431C158.021 4.54431 152.824 9.74024 152.824 16.1497C152.824 22.5592 158.021 27.7552 164.431 27.7552Z" fill="#FEB8B8"/>
<path d="M166.169 10.9452L175.181 11.3063C176.315 11.3028 177.553 11.2628 178.416 10.5297C179.717 9.42349 179.499 7.33608 178.803 5.77673C176.861 1.43493 172.53 -0.120533 167.774 0.00721216C163.018 0.134958 158.035 1.74672 155.474 5.75381C152.913 9.76091 152.221 14.821 153.186 19.4773C154.301 17.1097 156.018 15.0759 158.165 13.579C160.312 12.0821 162.814 11.1745 165.421 10.9467L166.169 10.9452Z" fill="#2F2E41"/>
<path d="M219.685 124.462L187.065 101.603C186.762 101.39 186.556 101.065 186.492 100.7C186.428 100.335 186.511 99.9597 186.723 99.6559L212.326 63.1289C212.539 62.8258 212.864 62.6197 213.229 62.5555C213.594 62.4913 213.969 62.5743 214.273 62.7864L246.893 85.6458C247.196 85.8591 247.402 86.1837 247.466 86.5487C247.531 86.9136 247.448 87.2892 247.235 87.593L221.633 124.119C221.42 124.422 221.095 124.629 220.73 124.693C220.365 124.758 219.989 124.675 219.685 124.462Z" fill="#FF730E"/>
<path d="M227.022 99.6581L207.881 86.2445C207.66 86.0894 207.471 85.8922 207.326 85.6642C207.181 85.4362 207.082 85.1818 207.035 84.9156C206.988 84.6494 206.994 84.3766 207.053 84.1128C207.112 83.8489 207.222 83.5992 207.377 83.3779C207.532 83.1565 207.729 82.9679 207.957 82.8228C208.185 82.6777 208.439 82.5789 208.706 82.5321C208.972 82.4853 209.245 82.4913 209.509 82.55C209.773 82.6086 210.022 82.7186 210.244 82.8737L229.384 96.2872C229.831 96.6005 230.136 97.0785 230.23 97.6161C230.325 98.1537 230.202 98.7069 229.889 99.1539C229.575 99.6009 229.097 99.9051 228.56 99.9997C228.022 100.094 227.469 99.9714 227.022 99.6581Z" fill="#FAFBFF"/>
<path d="M222.629 105.926L203.488 92.5127C203.266 92.3577 203.077 92.1605 202.932 91.9324C202.787 91.7044 202.688 91.4499 202.641 91.1836C202.594 90.9173 202.6 90.6443 202.658 90.3803C202.717 90.1163 202.827 89.8664 202.982 89.645C203.137 89.4235 203.335 89.2348 203.563 89.0897C203.791 88.9445 204.046 88.8458 204.312 88.799C204.578 88.7523 204.851 88.7585 205.115 88.8173C205.379 88.8762 205.629 88.9864 205.851 89.1418L224.991 102.555C225.438 102.869 225.742 103.347 225.836 103.884C225.93 104.421 225.807 104.974 225.494 105.421C225.181 105.868 224.703 106.172 224.166 106.267C223.629 106.361 223.076 106.239 222.629 105.926Z" fill="#FAFBFF"/>
<path d="M218.188 112.26L199.047 98.8469C198.826 98.6917 198.637 98.4945 198.492 98.2665C198.347 98.0385 198.248 97.7841 198.201 97.5179C198.154 97.2518 198.16 96.9789 198.219 96.7151C198.278 96.4512 198.388 96.2015 198.543 95.9802C198.698 95.7589 198.895 95.5702 199.123 95.4251C199.351 95.28 199.606 95.1812 199.872 95.1344C200.138 95.0876 200.411 95.0936 200.675 95.1523C200.939 95.2109 201.188 95.3209 201.41 95.476L220.55 108.89C220.998 109.203 221.302 109.681 221.396 110.218C221.491 110.756 221.368 111.309 221.055 111.756C220.741 112.203 220.263 112.507 219.726 112.602C219.188 112.697 218.635 112.574 218.188 112.26Z" fill="#FAFBFF"/>
<path d="M226.968 87.2605L219.554 82.065C219.333 81.91 219.144 81.7129 218.998 81.4848C218.853 81.2568 218.754 81.0023 218.707 80.736C218.66 80.4697 218.666 80.1967 218.725 79.9327C218.783 79.6687 218.893 79.4188 219.049 79.1973C219.204 78.9759 219.401 78.7872 219.629 78.642C219.858 78.4969 220.112 78.3981 220.378 78.3514C220.645 78.3047 220.918 78.3109 221.182 78.3697C221.446 78.4285 221.696 78.5388 221.917 78.6942L229.331 83.8896C229.778 84.2029 230.082 84.6809 230.177 85.2185C230.271 85.7561 230.148 86.3093 229.835 86.7563C229.522 87.2033 229.044 87.5075 228.506 87.6021C227.968 87.6966 227.415 87.5738 226.968 87.2605Z" fill="#FAFBFF"/>
</g>
<defs>
<clipPath id="clip0_2678_17924">
<rect width="357.377" height="200" fill="white"/>
</clipPath>
</defs>
</svg>
