<svg width="121" height="120" viewBox="0 0 121 120" fill="none" xmlns="http://www.w3.org/2000/svg">
<g id="Files">
<path id="Vector" d="M100.653 31.0969L81.9031 12.3469C81.5546 11.9987 81.1409 11.7227 80.6857 11.5345C80.2305 11.3463 79.7426 11.2496 79.25 11.25H41.75C39.7609 11.25 37.8532 12.0402 36.4467 13.4467C35.0402 14.8532 34.25 16.7609 34.25 18.75V26.25H26.75C24.7609 26.25 22.8532 27.0402 21.4467 28.4467C20.0402 29.8532 19.25 31.7609 19.25 33.75V101.25C19.25 103.239 20.0402 105.147 21.4467 106.553C22.8532 107.96 24.7609 108.75 26.75 108.75H79.25C81.2391 108.75 83.1468 107.96 84.5533 106.553C85.9598 105.147 86.75 103.239 86.75 101.25V93.75H94.25C96.2391 93.75 98.1468 92.9598 99.5533 91.5533C100.96 90.1468 101.75 88.2391 101.75 86.25V33.75C101.75 33.2574 101.654 32.7695 101.466 32.3143C101.277 31.8591 101.001 31.4454 100.653 31.0969ZM79.25 101.25H26.75V33.75H62.6984L79.25 50.3016V89.925C79.25 89.9531 79.25 89.9766 79.25 90C79.25 90.0234 79.25 90.0469 79.25 90.075V101.25ZM94.25 86.25H86.75V48.75C86.7504 48.2574 86.6537 47.7695 86.4655 47.3143C86.2773 46.8591 86.0013 46.4454 85.6531 46.0969L66.9031 27.3469C66.5546 26.9987 66.1409 26.7227 65.6857 26.5345C65.2305 26.3463 64.7426 26.2496 64.25 26.25H41.75V18.75H77.6984L94.25 35.3016V86.25ZM68 71.25C68 72.2446 67.6049 73.1984 66.9017 73.9017C66.1984 74.6049 65.2446 75 64.25 75H41.75C40.7554 75 39.8016 74.6049 39.0984 73.9017C38.3951 73.1984 38 72.2446 38 71.25C38 70.2554 38.3951 69.3016 39.0984 68.5983C39.8016 67.8951 40.7554 67.5 41.75 67.5H64.25C65.2446 67.5 66.1984 67.8951 66.9017 68.5983C67.6049 69.3016 68 70.2554 68 71.25ZM68 86.25C68 87.2446 67.6049 88.1984 66.9017 88.9017C66.1984 89.6049 65.2446 90 64.25 90H41.75C40.7554 90 39.8016 89.6049 39.0984 88.9017C38.3951 88.1984 38 87.2446 38 86.25C38 85.2554 38.3951 84.3016 39.0984 83.5983C39.8016 82.8951 40.7554 82.5 41.75 82.5H64.25C65.2446 82.5 66.1984 82.8951 66.9017 83.5983C67.6049 84.3016 68 85.2554 68 86.25Z" fill="#FAFBFF"/>
</g>
</svg>
