<svg width="462" height="340" viewBox="0 0 462 340" fill="none" xmlns="http://www.w3.org/2000/svg">
<g clip-path="url(#clip0_1660_107559)">
<path d="M225.023 39.0435C235.816 39.0435 244.565 30.3037 244.565 19.5227C244.565 8.74165 235.816 0.00187683 225.023 0.00187683C214.231 0.00187683 205.482 8.74165 205.482 19.5227C205.482 30.3037 214.231 39.0435 225.023 39.0435Z" fill="#FF730E"/>
<path d="M205.725 143.312L183.643 143.617L174.79 45.0067C174.575 42.6132 175.349 40.1932 176.913 38.3674L198.627 13.0268C201.666 9.47985 206.835 8.83987 210.649 11.5396L237.845 30.7879C240.063 32.3581 241.438 34.8132 241.617 37.5237L246.506 111.821L258.806 126.365L258.832 126.395L261.979 142.537L205.725 143.312Z" fill="#E6E6E6"/>
<path d="M201.1 35.9553L200.744 31.3785C200.65 30.1704 201.558 29.1112 202.767 29.0174L209.204 28.5184C210.414 28.4246 211.474 29.3312 211.568 30.5393L211.923 35.1162C212.017 36.3243 211.11 37.3835 209.9 37.4772L203.463 37.9763C202.254 38.07 201.193 37.1634 201.1 35.9553Z" fill="#0A645E"/>
<path d="M190.252 72.5365L188.937 55.6026C188.843 54.3945 189.751 53.3353 190.96 53.2416L200.49 52.5028C201.699 52.409 202.759 53.3156 202.853 54.5237L204.169 71.4576C204.263 72.6657 203.355 73.7248 202.146 73.8186L192.616 74.5574C191.407 74.6512 190.346 73.7446 190.252 72.5365Z" fill="#563D3D"/>
<path d="M214.873 110.505C213.718 110.554 212.717 109.692 212.594 108.544L210.84 92.2141C210.765 91.517 211.018 90.8443 211.532 90.3676C212.047 89.8913 212.738 89.692 213.428 89.8188L213.92 89.91C214.898 90.0912 215.636 90.9096 215.713 91.9007L216.974 108.14C217.021 108.74 216.826 109.318 216.427 109.768C216.045 110.198 215.524 110.456 214.953 110.5C214.927 110.503 214.9 110.504 214.873 110.505Z" fill="#563D3D"/>
<path d="M194.703 109.798L193.383 92.8146C193.29 91.6157 194.155 90.5808 195.353 90.4582L203.998 89.5758C205.198 89.4661 206.281 90.3291 206.41 91.5286L208.244 108.684C208.308 109.28 208.132 109.861 207.748 110.322C207.365 110.783 206.825 111.062 206.227 111.108L197.066 111.818C195.857 111.912 194.797 111.006 194.703 109.798Z" fill="#563D3D"/>
<path d="M246.801 117.432L254.526 128.962L256.359 142.46L261.791 142.384L258.688 126.464L246.355 111.881C245.528 113.683 245.697 115.785 246.801 117.432Z" fill="#CCCCCC"/>
<path d="M255.84 138.598L233.83 140.607L233.858 140.916L255.868 138.907L255.84 138.598Z" fill="#563D3D"/>
<path d="M254.292 135.975L233.413 137.758L233.44 138.067L254.318 136.284L254.292 135.975Z" fill="#563D3D"/>
<path d="M252.991 133.272L233.038 135.211L233.068 135.519L253.021 133.58L252.991 133.272Z" fill="#563D3D"/>
<path d="M252.156 130.55L233.014 132.674L233.048 132.982L252.19 130.858L252.156 130.55Z" fill="#563D3D"/>
<path d="M251.036 128.155L232.648 130.232L232.683 130.541L251.071 128.464L251.036 128.155Z" fill="#563D3D"/>
<path d="M249.635 126.078L231.677 127.471L231.701 127.78L249.659 126.387L249.635 126.078Z" fill="#563D3D"/>
<path d="M248.537 123.984L231.1 125.541L231.128 125.85L248.565 124.292L248.537 123.984Z" fill="#563D3D"/>
<path d="M247.438 121.896L230.57 123.768L230.605 124.076L247.473 122.204L247.438 121.896Z" fill="#563D3D"/>
<path d="M246.655 119.791L229.978 121.379L230.007 121.687L246.685 120.099L246.655 119.791Z" fill="#563D3D"/>
<path d="M245.25 117.748L229.298 119.486L229.332 119.795L245.284 118.056L245.25 117.748Z" fill="#563D3D"/>
<path d="M244.488 115.912L228.651 117.295L228.678 117.604L244.515 116.22L244.488 115.912Z" fill="#563D3D"/>
<path d="M226.987 110.868L225.359 89.9183C225.265 88.71 226.173 87.6508 227.382 87.5571L237.531 86.7703C238.74 86.6766 239.8 87.5832 239.894 88.7915L241.522 109.741C241.616 110.949 240.708 112.008 239.499 112.102L229.35 112.889C228.141 112.983 227.081 112.076 226.987 110.868Z" fill="#0A645E"/>
<path d="M205.725 143.312L187.672 143.562L187.526 143.564L186.447 129.675C186.311 127.919 187.63 126.379 189.388 126.243L207.133 124.867C208.891 124.731 210.432 126.049 210.569 127.805L211.737 142.847L211.583 142.858L205.725 143.312Z" fill="#CCCCCC"/>
<path d="M225.272 72.7747L224.028 56.7675C223.934 55.5594 224.842 54.5002 226.051 54.4064L229.396 54.1471C230.605 54.0534 231.666 54.96 231.759 56.1681L233.003 72.1753C233.097 73.3833 232.19 74.4424 230.98 74.5362L227.635 74.7955C226.426 74.8892 225.366 73.9827 225.272 72.7747Z" fill="#563D3D"/>
<path d="M234.124 142.665L232.14 129.145L228.349 116.386L227.3 112.893C225.627 111.937 223.581 113.303 223.826 115.212L224.019 116.721L227.81 129.48L229.794 143.001" fill="#CCCCCC"/>
<path d="M128.337 144.34L106.255 144.644L97.402 46.0339C97.1872 43.6404 97.961 41.2204 99.5255 39.3947L121.239 14.0541C124.279 10.5066 129.447 9.86727 133.261 12.5668L160.457 31.8151C162.676 33.3854 164.051 35.8405 164.229 38.5509L169.118 112.848L181.418 127.392L181.444 127.423L184.591 143.564L128.337 144.34Z" fill="#E6E6E6"/>
<path d="M123.712 36.9826L123.356 32.4057C123.262 31.1976 124.17 30.1384 125.38 30.0447L131.817 29.5456C133.026 29.4519 134.086 30.3585 134.18 31.5666L134.536 36.1435C134.63 37.3515 133.722 38.4107 132.513 38.5045L126.076 39.0035C124.866 39.0973 123.806 38.1907 123.712 36.9826Z" fill="#0A645E"/>
<path d="M112.865 73.5639L111.549 56.63C111.455 55.4219 112.363 54.3627 113.572 54.269L123.102 53.5302C124.311 53.4364 125.372 54.343 125.466 55.5511L126.781 72.485C126.875 73.6931 125.967 74.7523 124.758 74.846L115.228 75.5848C114.019 75.6786 112.959 74.772 112.865 73.5639Z" fill="#563D3D"/>
<path d="M134.356 91.6229C133.913 92.032 133.697 92.6102 133.761 93.2089L135.514 109.539C135.621 110.525 136.481 111.265 137.473 111.224C137.994 111.204 138.464 110.977 138.807 110.59C139.15 110.204 139.317 109.707 139.277 109.192L138.016 92.9525C137.95 92.1012 137.317 91.3982 136.476 91.2427L135.984 91.1515C135.817 91.1207 135.651 91.1121 135.488 91.1248C135.07 91.1572 134.674 91.3287 134.356 91.6229Z" fill="#563D3D"/>
<path d="M108.216 113.185C107.752 112.802 107.471 112.261 107.424 111.661L106.162 95.4217C106.085 94.4306 106.687 93.5084 107.626 93.1785L108.098 93.0126C108.759 92.7811 109.474 92.8714 110.056 93.2627C110.638 93.6543 110.991 94.2804 111.025 94.9803L111.815 111.385C111.87 112.539 111.014 113.544 109.865 113.674C109.839 113.677 109.812 113.68 109.785 113.682C109.215 113.726 108.66 113.551 108.216 113.185Z" fill="#563D3D"/>
<path d="M169.413 118.46L177.138 129.989L178.971 143.488L184.403 143.412L181.3 127.491L168.966 112.908C168.14 114.71 168.309 116.812 169.413 118.46Z" fill="#CCCCCC"/>
<path d="M178.452 139.624L156.442 141.633L156.47 141.941L178.481 139.932L178.452 139.624Z" fill="#563D3D"/>
<path d="M176.904 137.002L156.025 138.785L156.051 139.094L176.93 137.311L176.904 137.002Z" fill="#563D3D"/>
<path d="M175.603 134.299L155.649 136.238L155.679 136.547L175.633 134.608L175.603 134.299Z" fill="#563D3D"/>
<path d="M174.767 131.577L155.626 133.701L155.66 134.009L174.802 131.885L174.767 131.577Z" fill="#563D3D"/>
<path d="M173.648 129.181L155.26 131.258L155.295 131.566L173.683 129.489L173.648 129.181Z" fill="#563D3D"/>
<path d="M172.247 127.106L154.289 128.498L154.313 128.807L172.271 127.415L172.247 127.106Z" fill="#563D3D"/>
<path d="M171.149 125.011L153.712 126.568L153.74 126.877L171.177 125.32L171.149 125.011Z" fill="#563D3D"/>
<path d="M170.05 122.921L153.182 124.793L153.216 125.101L170.085 123.229L170.05 122.921Z" fill="#563D3D"/>
<path d="M169.268 120.818L152.59 122.406L152.62 122.715L169.297 121.127L169.268 120.818Z" fill="#563D3D"/>
<path d="M167.862 118.775L151.91 120.514L151.944 120.822L167.895 119.083L167.862 118.775Z" fill="#563D3D"/>
<path d="M167.1 116.939L151.263 118.322L151.29 118.631L167.127 117.248L167.1 116.939Z" fill="#563D3D"/>
<path d="M149.599 111.895L147.971 90.9455C147.877 89.7372 148.785 88.6781 149.994 88.5843L160.143 87.7975C161.352 87.7038 162.412 88.6104 162.506 89.8187L164.134 110.769C164.227 111.977 163.32 113.036 162.111 113.129L151.962 113.916C150.753 114.01 149.692 113.103 149.599 111.895Z" fill="#0A645E"/>
<path d="M128.337 144.34L110.283 144.589L110.138 144.591L109.059 130.703C108.923 128.946 110.242 127.406 112 127.27L129.745 125.895C131.503 125.758 133.044 127.076 133.181 128.833L134.349 143.874L134.195 143.886L128.337 144.34Z" fill="#CCCCCC"/>
<path d="M147.884 73.8021L146.64 57.795C146.546 56.5869 147.454 55.5277 148.663 55.4339L152.008 55.1746C153.217 55.0809 154.277 55.9875 154.371 57.1956L155.615 73.2027C155.709 74.4108 154.801 75.4699 153.592 75.5637L150.247 75.823C149.038 75.9168 147.977 75.0102 147.884 73.8021Z" fill="#563D3D"/>
<path d="M156.736 143.693L154.752 130.172L150.961 117.413L149.911 113.92C148.239 112.964 146.193 114.331 146.438 116.24L146.631 117.749L150.422 130.508L152.406 144.029" fill="#CCCCCC"/>
<path d="M50.9487 145.367L28.867 145.671L20.0138 47.0613C19.799 44.6679 20.5729 42.2478 22.1373 40.4221L43.8511 15.0815C46.8905 11.5342 52.059 10.8948 55.8727 13.5943L83.0688 32.8425C85.2875 34.4128 86.6623 36.8679 86.8406 39.5783L91.7298 113.875L104.03 128.419L104.056 128.45L107.203 144.592L50.9487 145.367Z" fill="#E6E6E6"/>
<path d="M46.3237 38.01L45.9681 33.4332C45.8742 32.2251 46.7818 31.1659 47.9913 31.0721L54.4286 30.5731C55.6378 30.4793 56.6981 31.3859 56.792 32.594L57.1475 37.1709C57.2414 38.379 56.3338 39.4382 55.1246 39.5319L48.6874 40.031C47.4778 40.1247 46.4175 39.2181 46.3237 38.01Z" fill="#0A645E"/>
<path d="M35.4766 74.5912L34.161 57.6573C34.0671 56.4492 34.9747 55.39 36.1842 55.2962L45.714 54.5574C46.9232 54.4637 47.9835 55.3703 48.0774 56.5784L49.393 73.5123C49.4868 74.7204 48.5792 75.7796 47.37 75.8733L37.8402 76.6121C36.6307 76.7059 35.5704 75.7992 35.4766 74.5912Z" fill="#563D3D"/>
<path d="M30.2895 94.351L30.7615 94.1853C32.0525 93.7319 33.4163 94.6487 33.4821 96.0142L34.2717 112.419C34.3235 113.494 33.5306 114.425 32.4596 114.547C31.3093 114.677 30.2802 113.828 30.1906 112.675L28.929 96.4361C28.8574 95.5134 29.4156 94.6579 30.2895 94.351Z" fill="#563D3D"/>
<path d="M39.9269 111.851L38.6074 94.8681C38.5143 93.6692 39.3794 92.6342 40.5773 92.5116L49.2224 91.6292C50.4277 91.5164 51.5052 92.3825 51.6336 93.582L53.4683 110.737C53.5319 111.333 53.356 111.915 52.9725 112.375C52.5893 112.836 52.0489 113.115 51.4509 113.162L42.2905 113.872C41.081 113.966 40.0207 113.059 39.9269 111.851Z" fill="#563D3D"/>
<path d="M92.0244 119.487L99.7499 131.017L101.583 144.515L107.015 144.439L103.911 128.519L91.5783 113.936C90.7517 115.738 90.9205 117.84 92.0244 119.487Z" fill="#CCCCCC"/>
<path d="M101.064 140.651L79.0537 142.66L79.0819 142.969L101.092 140.96L101.064 140.651Z" fill="#563D3D"/>
<path d="M99.5156 138.028L78.6367 139.811L78.6631 140.119L99.542 138.337L99.5156 138.028Z" fill="#563D3D"/>
<path d="M98.2152 135.327L78.2617 137.266L78.2918 137.574L98.2452 135.635L98.2152 135.327Z" fill="#563D3D"/>
<path d="M97.3793 132.604L78.2378 134.729L78.2721 135.037L97.4135 132.912L97.3793 132.604Z" fill="#563D3D"/>
<path d="M96.2596 130.208L77.8716 132.285L77.9065 132.593L96.2945 130.516L96.2596 130.208Z" fill="#563D3D"/>
<path d="M94.8591 128.133L76.9004 129.525L76.9244 129.834L94.8831 128.442L94.8591 128.133Z" fill="#563D3D"/>
<path d="M93.7614 126.036L76.3242 127.594L76.3518 127.902L93.789 126.345L93.7614 126.036Z" fill="#563D3D"/>
<path d="M92.6621 123.948L75.7939 125.82L75.8282 126.128L92.6964 124.256L92.6621 123.948Z" fill="#563D3D"/>
<path d="M91.8793 121.846L75.2021 123.434L75.2316 123.742L91.9088 122.154L91.8793 121.846Z" fill="#563D3D"/>
<path d="M90.4735 119.802L74.522 121.541L74.5556 121.849L90.5071 120.11L90.4735 119.802Z" fill="#563D3D"/>
<path d="M89.7122 117.964L73.875 119.348L73.902 119.656L89.7392 118.273L89.7122 117.964Z" fill="#563D3D"/>
<path d="M72.2104 112.923L70.5828 91.973C70.489 90.7647 71.3965 89.7055 72.6061 89.6118L82.7543 88.825C83.9636 88.7313 85.0239 89.6379 85.1177 90.8461L86.7453 111.796C86.8392 113.004 85.9316 114.063 84.7224 114.157L74.5741 114.944C73.3646 115.037 72.3043 114.131 72.2104 112.923Z" fill="#0A645E"/>
<path d="M50.9485 145.367L32.8952 145.617L32.7498 145.619L31.6708 131.73C31.5344 129.974 32.8539 128.434 34.6122 128.297L52.3565 126.922C54.1148 126.785 55.6561 128.104 55.7926 129.86L56.9611 144.901L56.8065 144.913L50.9485 145.367Z" fill="#CCCCCC"/>
<path d="M70.4954 74.8294L69.2518 58.8223C69.1579 57.6142 70.0655 56.555 71.275 56.4613L74.6197 56.202C75.829 56.1082 76.8893 57.0148 76.9831 58.2229L78.2267 74.23C78.3206 75.4381 77.413 76.4973 76.2038 76.591L72.8591 76.8503C71.6495 76.9441 70.5892 76.0375 70.4954 74.8294Z" fill="#563D3D"/>
<path d="M79.3474 144.72L77.3637 131.199L73.5724 118.44L72.5232 114.948C70.8506 113.992 68.8045 115.358 69.0494 117.267L69.2428 118.776L73.0341 131.535L75.0179 145.056" fill="#CCCCCC"/>
<path d="M282.793 142.123L0 145.785L0.00804221 146.405L282.801 142.743L282.793 142.123Z" fill="#CCCCCC"/>
<path d="M93.8291 271.653C93.1961 270.587 90.4579 271.728 89.9545 270.761C89.4528 269.796 91.997 268.327 93.4505 264.972C93.7126 264.367 95.3644 260.553 94.1416 259.376C91.8238 257.146 81.2173 266.35 77.5055 263.338C76.6909 262.677 76.1218 261.358 73.6564 259.215C72.6756 258.363 72.0825 257.978 71.5085 258.121C70.6941 258.324 70.6296 259.413 69.7562 261.554C68.4465 264.765 67.6719 264.571 66.9088 267.132C66.3423 269.034 66.4717 270.14 65.8051 270.355C64.8618 270.66 63.9936 268.643 62.7981 268.823C61.5782 269.008 60.8407 271.356 60.6078 273.114C60.1706 276.414 61.3837 278.591 62.056 280.881C62.7867 283.369 63.2203 287.153 61.533 292.509L44.832 339.515C48.5191 329.869 59.1949 303.429 63.6808 293.603C64.9759 290.767 66.4057 287.89 69.3417 286.755C72.1684 285.661 76.0504 286.314 80.9996 285.123C81.5776 284.984 83.1816 284.576 83.3835 283.634C83.5504 282.855 82.6069 282.42 82.7519 281.69C82.9463 280.711 84.8016 280.699 87.0816 279.57C88.6893 278.774 89.6908 277.827 90.5521 277.012C90.8118 276.767 94.6717 273.072 93.8291 271.653Z" fill="#0A645E"/>
<path d="M28.1224 296.397C27.4159 296.4 27.1868 298.072 26.5661 298.039C25.9477 298.007 25.96 296.336 24.7306 294.655C24.5089 294.352 23.1118 292.442 22.1808 292.702C20.4162 293.195 21.8783 301.051 19.3274 302.001C18.7676 302.21 17.955 302.108 16.1909 302.699C15.4891 302.934 15.1289 303.114 15.0337 303.436C14.8985 303.894 15.4148 304.24 16.2148 305.286C17.4144 306.854 17.0956 307.178 18.134 308.292C18.9049 309.118 19.4854 309.374 19.3989 309.762C19.2765 310.313 18.035 310.157 17.7788 310.795C17.5174 311.446 18.4585 312.485 19.2552 313.107C20.7503 314.273 22.17 314.307 23.4889 314.638C24.9222 314.997 26.9065 315.877 29.0514 318.249L47.3276 340C43.6524 335.409 33.7418 322.546 30.2087 317.512C29.1887 316.059 28.1878 314.527 28.477 312.76C28.7555 311.059 30.1963 309.344 31.0391 306.574C31.1375 306.25 31.4 305.346 30.9952 304.975C30.6606 304.669 30.1747 305.006 29.858 304.724C29.4332 304.347 29.9626 303.433 30.0656 301.99C30.1382 300.972 29.9619 300.207 29.8102 299.55C29.7645 299.352 29.0628 296.394 28.1224 296.397Z" fill="#0A645E"/>
<path d="M42.2162 299.558L41.7905 295.762L41.985 295.474C42.8849 294.144 43.3436 292.845 43.349 291.611C43.35 291.415 43.3408 291.219 43.3316 291.019C43.2949 290.227 43.2491 289.243 43.7628 288.096C44.0508 287.456 44.8599 285.976 46.0763 286.159C46.4037 286.205 46.6514 286.355 46.8395 286.531C46.867 286.487 46.8954 286.443 46.9257 286.395C47.3045 285.818 47.6045 285.571 47.8935 285.332C48.1155 285.149 48.3448 284.96 48.7044 284.513C48.8622 284.317 48.9851 284.145 49.0887 284C49.4034 283.562 49.8143 283.04 50.539 283.049C51.3132 283.085 51.7187 283.725 51.9875 284.148C52.4672 284.903 52.6846 285.448 52.8287 285.809C52.881 285.941 52.9406 286.089 52.9709 286.135C53.2204 286.502 55.2486 286.159 56.0127 286.034C57.729 285.748 59.2142 285.501 59.826 286.582C60.2645 287.356 59.9388 288.378 58.8289 289.703C58.483 290.116 58.1152 290.429 57.7886 290.675C58.0592 290.836 58.3014 291.083 58.3996 291.472C58.6307 292.392 57.8391 293.314 56.0476 294.215C55.6027 294.441 55.0036 294.741 54.1643 294.886C53.7689 294.954 53.413 294.971 53.1085 294.98C53.102 295.156 53.0608 295.346 52.9534 295.542C52.6388 296.12 51.9838 296.394 50.9968 296.329C49.9107 296.272 49.0163 296.065 48.2274 295.883C47.5385 295.726 46.945 295.592 46.479 295.623C45.6149 295.693 44.9489 296.384 44.1673 297.28L42.2162 299.558Z" fill="#0A645E"/>
<path d="M44.1908 276.959L40.6235 278.333L40.2955 278.218C38.7789 277.686 37.4043 277.573 36.2086 277.88C36.0185 277.929 35.8309 277.988 35.6398 278.047C34.8825 278.284 33.9411 278.578 32.6999 278.372C32.0075 278.256 30.3684 277.85 30.2373 276.628C30.1986 276.3 30.2813 276.023 30.404 275.796C30.3544 275.781 30.3046 275.765 30.2508 275.747C29.5957 275.528 29.28 275.301 28.976 275.082C28.7422 274.914 28.5013 274.74 27.977 274.506C27.7471 274.403 27.5491 274.328 27.3826 274.265C26.8787 274.072 26.2687 273.807 26.0938 273.105C25.9329 272.347 26.4494 271.793 26.7911 271.426C27.4006 270.771 27.8725 270.423 28.1856 270.192C28.3001 270.108 28.4287 270.013 28.4654 269.972C28.7571 269.638 27.9108 267.765 27.5963 267.058C26.8841 265.473 26.2678 264.1 27.1597 263.235C27.7973 262.615 28.8702 262.67 30.4348 263.407C30.9218 263.636 31.3186 263.912 31.6392 264.165C31.7268 263.863 31.9049 263.566 32.2562 263.373C33.0885 262.916 34.1819 263.447 35.5095 264.95C35.8406 265.322 36.2836 265.825 36.6367 266.599C36.8026 266.964 36.9089 267.304 36.995 267.596C37.167 267.557 37.362 267.549 37.5792 267.603C38.218 267.76 38.6503 268.324 38.8368 269.294C39.0573 270.358 39.0836 271.275 39.108 272.083C39.1301 272.789 39.1511 273.396 39.2995 273.838C39.5861 274.656 40.4241 275.124 41.4901 275.652L44.1908 276.959Z" fill="#0A645E"/>
<path d="M42.2162 265.778L41.7905 261.983L41.985 261.695C42.8849 260.365 43.3436 259.065 43.349 257.832C43.35 257.636 43.3408 257.44 43.3316 257.24C43.2949 256.448 43.2491 255.464 43.7628 254.317C44.0508 253.677 44.8599 252.196 46.0763 252.38C46.4037 252.425 46.6514 252.576 46.8395 252.752C46.867 252.708 46.8954 252.664 46.9257 252.616C47.3045 252.039 47.6045 251.791 47.8935 251.553C48.1155 251.37 48.3448 251.181 48.7044 250.734C48.8622 250.538 48.9851 250.365 49.0887 250.221C49.4034 249.783 49.8143 249.26 50.539 249.269C51.3132 249.306 51.7187 249.946 51.9875 250.369C52.4672 251.124 52.6846 251.668 52.8287 252.03C52.881 252.161 52.9406 252.31 52.9709 252.356C53.2204 252.722 55.2486 252.38 56.0127 252.255C57.729 251.969 59.2142 251.722 59.826 252.803C60.2645 253.576 59.9388 254.599 58.8289 255.924C58.483 256.336 58.1152 256.65 57.7886 256.895C58.0592 257.057 58.3014 257.304 58.3996 257.693C58.6307 258.613 57.8391 259.534 56.0476 260.436C55.6027 260.662 55.0036 260.962 54.1643 261.107C53.7689 261.175 53.413 261.191 53.1085 261.2C53.102 261.376 53.0608 261.567 52.9534 261.763C52.6388 262.34 51.9838 262.615 50.9968 262.549C49.9107 262.492 49.0163 262.285 48.2274 262.104C47.5385 261.946 46.945 261.812 46.479 261.844C45.6149 261.913 44.9489 262.604 44.1673 263.5L42.2162 265.778Z" fill="#0A645E"/>
<path d="M46.104 339.452L45.3077 338.953L44.3794 339.06C44.3647 338.973 44.3143 338.776 44.2381 338.466C43.8226 336.769 42.5558 331.604 41.499 323.471C40.7615 317.793 40.3441 311.956 40.2579 306.119C40.1716 300.272 40.4487 295.846 40.6707 292.289C40.8385 289.606 41.0422 287.051 41.2422 284.562C41.7742 277.913 42.276 271.633 41.9026 264.679C41.8201 263.127 41.6467 259.896 39.757 256.458C38.6608 254.464 37.1509 252.694 35.2686 251.198L36.4391 249.728C38.5168 251.381 40.1872 253.342 41.4045 255.556C43.4997 259.368 43.6887 262.889 43.7795 264.581C44.1592 271.657 43.652 277.998 43.1144 284.711C42.9163 287.191 42.7126 289.734 42.5457 292.406C42.3255 295.931 42.0512 300.318 42.1365 306.089C42.2209 311.857 42.6337 317.623 43.3612 323.229C44.4051 331.26 45.6536 336.347 46.0636 338.019C46.2819 338.911 46.3278 339.098 46.104 339.452Z" fill="#0A645E"/>
<path d="M31.8229 254.18C31.7458 254.18 31.6678 254.179 31.589 254.173C29.9892 254.087 28.5077 253.13 27.1849 251.331C26.5648 250.484 26.2474 249.518 25.6144 247.592C25.5163 247.295 25.0393 245.788 24.7494 243.716C24.5595 242.361 24.5834 241.795 24.8521 241.295C25.1503 240.737 25.6328 240.349 26.1758 240.087C26.152 239.907 26.1712 239.722 26.2492 239.533C26.5694 238.751 27.4207 238.853 27.8812 238.903C28.1142 238.932 28.4049 238.971 28.7187 238.954C29.2122 238.93 29.4773 238.784 29.8791 238.564C30.2634 238.353 30.7414 238.091 31.4505 237.946C32.8485 237.655 34.0199 238.051 34.4061 238.181C36.4379 238.857 37.4396 240.435 38.5991 242.262C38.8303 242.629 39.6238 243.963 40.1476 245.792C40.5255 247.112 40.4723 247.698 40.3585 248.134C40.1274 249.03 39.5816 249.544 38.1955 250.676C36.748 251.862 36.0215 252.456 35.3977 252.817C33.9456 253.654 33.0337 254.18 31.8229 254.18Z" fill="#0A645E"/>
<path d="M451.623 338.598C451.623 338.945 451.341 339.227 450.993 339.227H14.5239V337.969H450.993C451.341 337.969 451.623 338.25 451.623 338.598Z" fill="#E6E6E6"/>
<path d="M325.62 139.742C325.62 139.742 302.126 142.565 306.089 124.009C310.052 105.452 332.522 71.1776 332.522 71.1776L345.273 78.3209L330.633 112.888L336.936 117.855L325.62 139.742Z" fill="#F0BD9F"/>
<path d="M402.612 117.151L399.302 144.351L316.343 143.945L333.004 115.019L402.612 117.151Z" fill="#0A645E"/>
<path d="M353.312 72.6216C358.389 65.5388 358.796 57.1447 354.222 53.8728C349.647 50.6008 341.824 53.6902 336.747 60.773C331.67 67.8557 331.262 76.2499 335.837 79.5218C340.411 82.7937 348.235 79.7044 353.312 72.6216Z" fill="#F0BD9F"/>
<path d="M399.729 220.851H394.636V338.895H399.729V220.851Z" fill="#563D3D"/>
<path d="M375.281 220.851H370.187V338.895H375.281V220.851Z" fill="#563D3D"/>
<path d="M238.265 146.566H233.172V338.896H238.265V146.566Z" fill="#E6E6E6"/>
<path d="M320.271 220.851H315.177V338.895H320.271V220.851Z" fill="#563D3D"/>
<path d="M300.779 220.851H295.685V338.895H300.779V220.851Z" fill="#563D3D"/>
<path d="M390.051 218.308H291.691L272.822 245.044L370.696 250.872L390.051 218.308Z" fill="#563D3D"/>
<path d="M209.943 126.836L210.39 107.447L151.026 112.008L150.722 125.147L209.943 126.836Z" fill="#F0BD9F"/>
<path d="M169.766 109.691L166.926 116.515L162.849 116.645C162.849 116.645 167.623 118.106 168.949 126.772L165.031 127.945C165.031 127.945 161.269 131.452 154.235 131.112L135.377 129.536L135.304 122.969L148.338 121.464C148.338 121.464 151.242 119.555 136.865 111.708C136.865 111.708 132.103 108.799 136.386 94.4324C136.975 92.4578 138.753 91.0396 140.815 90.995C141.953 90.9704 143.019 91.3788 143.445 92.7907C144.529 96.3848 143.432 99.9678 146.41 102.211C149.388 104.455 169.766 109.691 169.766 109.691Z" fill="#2F2E41"/>
<path d="M382.69 200.96C382.69 200.96 362.208 235.761 315.859 229.489C304.83 227.996 295.126 221.446 289.597 211.796C278.912 193.144 262.686 160.485 267.947 141.992L189.558 127.047L183.381 108.03L268.218 97.0211C275.722 96.0473 283.073 99.6926 286.833 106.252L328.159 178.347L340.479 179.691L382.69 200.96Z" fill="#2F2E41"/>
<path d="M211.491 134.774L210.374 115.412L151.57 124.729L152.325 137.849L211.491 134.774Z" fill="#F0BD9F"/>
<path d="M170.062 120.915L167.782 127.945L163.728 128.402C163.728 128.402 168.604 129.474 170.624 138.006L166.814 139.49C166.814 139.49 163.346 143.288 156.307 143.514L137.383 143.459L136.782 136.918L149.653 134.371C149.653 134.371 152.394 132.235 137.431 125.569C137.431 125.569 132.45 123.052 135.562 108.388C135.99 106.372 137.648 104.816 139.7 104.606C140.832 104.49 141.928 104.811 142.466 106.184C143.836 109.679 143.031 113.339 146.18 115.336C149.329 117.333 170.062 120.915 170.062 120.915Z" fill="#2F2E41"/>
<path d="M389.647 194.775C389.647 194.775 372.034 231.109 325.33 228.582C314.216 227.981 304.016 222.231 297.729 213.057C285.576 195.324 266.772 164.075 270.526 145.22L191.188 136.623L183.5 118.163L267.175 100.372C274.576 98.7987 282.197 101.841 286.473 108.078L333.472 176.618L345.86 176.967L389.647 194.775Z" fill="#2F2E41"/>
<path d="M335.956 41.3455L331.881 44.3984L353.274 73.9094L357.349 72.8918L335.956 41.3455Z" fill="#563D3D"/>
<path d="M391.58 106.879L415.01 105.861L425.197 151.654C425.197 151.654 403.804 232.046 378.337 228.993C378.337 228.993 362.547 217.291 362.547 213.22C362.547 209.15 341.154 198.973 341.154 198.973L336.061 181.674L351.341 158.269C351.341 158.269 357.453 139.951 377.827 129.775L391.58 106.879Z" fill="#0A645E"/>
<path d="M257.62 142.496H49.2964V147.584H151.166V338.897H156.26V147.584H257.62V142.496Z" fill="#C7CAD1"/>
<path d="M403.804 102.809C418.994 102.809 431.309 90.5074 431.309 75.333C431.309 60.1586 418.994 47.8572 403.804 47.8572C388.613 47.8572 376.299 60.1586 376.299 75.333C376.299 90.5074 388.613 102.809 403.804 102.809Z" fill="#F0BD9F"/>
<path d="M307.902 110.439L288.691 118.071L326.383 167.935L339.626 157.759L307.902 110.439Z" fill="#E6E6E6"/>
<path d="M382.921 206.096C382.921 206.096 375.79 228.636 360.509 217.366C345.229 206.096 323.263 171.497 323.263 171.497L335.042 162.847L360.509 190.443L367.64 186.762L382.921 206.096Z" fill="#F0BD9F"/>
<path d="M394.126 126.722L417.556 140.969L382.921 216.273L360.509 185.744L394.126 126.722Z" fill="#0A645E"/>
<path d="M332.24 171.929C337.113 169.119 337.528 160.725 333.168 153.181C328.807 145.636 321.323 141.799 316.451 144.609C311.578 147.419 311.163 155.813 315.523 163.357C319.884 170.901 327.368 174.739 332.24 171.929Z" fill="#F0BD9F"/>
<path d="M406.812 158.52C413.871 135.402 421.446 128.087 429.411 132.667C435.473 136.153 437.297 144.089 433.745 150.108C424.689 165.451 406.029 200.605 409.916 223.904C409.916 223.904 416.028 256.468 367.131 256.468C318.233 256.468 271.373 245.274 271.373 245.274L296.841 241.203L354.757 245.336C367.989 246.28 379.141 234.97 377.374 221.836C377.315 221.402 377.246 220.964 377.165 220.521C374.262 204.569 406.812 158.52 406.812 158.52Z" fill="#563D3D"/>
<path d="M393.495 63.9413C391.248 70.2259 396.185 76.7516 402.85 76.3077L403.009 76.2972C407.49 81.8922 407.614 89.8069 403.31 95.539C402.957 102.927 404.115 110.31 406.715 117.235L414.02 136.693L425.265 131.451L430.602 145.68L462 129.522L442.971 86.7521L437.163 63.548C433.032 47.0394 416.174 37.1026 399.71 41.4712L387.079 44.8228C377.1 47.4707 371.356 57.9076 374.466 67.7431L393.495 63.9413Z" fill="#2F2E41"/>
</g>
<defs>
<clipPath id="clip0_1660_107559">
<rect width="462" height="340" fill="white"/>
</clipPath>
</defs>
</svg>
