<svg width="953" height="787" viewBox="0 0 953 787" fill="none" xmlns="http://www.w3.org/2000/svg">
<path d="M107.179 663.382C106.933 663.382 106.697 663.285 106.523 663.111C105.216 661.805 103.084 637.84 97.3439 566.488C94.9954 537.292 92.7767 509.716 91.1575 492.957C91.0424 491.76 90.5775 491.621 90.4253 491.575C88.2095 490.907 81.469 496.217 77.7063 500.866C77.5515 501.058 77.327 501.18 77.0821 501.206C76.8373 501.231 76.5922 501.159 76.4007 501.005C76.2093 500.85 76.0871 500.626 76.0612 500.381C76.0353 500.136 76.1077 499.891 76.2625 499.7C78.7511 496.626 86.8612 488.567 90.9589 489.799C91.7857 490.047 92.8148 490.765 93.0059 492.779C94.6261 509.552 96.8447 537.136 99.1942 566.339C102.682 609.699 106.634 658.821 107.932 661.914C108.032 662.053 108.091 662.216 108.104 662.386C108.117 662.556 108.082 662.726 108.004 662.878C107.926 663.03 107.808 663.157 107.663 663.246C107.517 663.335 107.35 663.382 107.179 663.382Z" fill="#494949"/>
<path d="M88.7762 523.714C104.174 511.382 109.277 492.189 100.175 480.844C91.0727 469.499 71.2115 470.298 55.8137 482.629C40.4159 494.961 35.3125 514.154 44.4148 525.499C53.5172 536.844 73.3785 536.045 88.7762 523.714Z" fill="#D15800"/>
<path opacity="0.2" d="M88.7762 523.714C104.174 511.382 109.277 492.189 100.175 480.844C91.0727 469.499 71.2115 470.298 55.8137 482.629C40.4159 494.961 35.3125 514.154 44.4148 525.499C53.5172 536.844 73.3785 536.045 88.7762 523.714Z" fill="white"/>
<path d="M48.7291 528.379C48.6411 528.379 48.555 528.354 48.4808 528.307C48.4066 528.26 48.3474 528.192 48.31 528.113C48.2726 528.033 48.2587 527.944 48.2698 527.857C48.281 527.77 48.3167 527.688 48.3728 527.62L92.2552 474.751C92.3346 474.659 92.447 474.602 92.5682 474.591C92.6894 474.581 92.8097 474.619 92.9032 474.697C92.9968 474.775 93.056 474.886 93.0683 475.007C93.0806 475.128 93.0448 475.248 92.9688 475.343L49.0864 528.213C49.0428 528.265 48.9881 528.307 48.9264 528.336C48.8646 528.365 48.7973 528.38 48.7291 528.379Z" fill="white"/>
<path d="M116.751 652.05C116.602 652.05 116.456 652.015 116.325 651.947C116.193 651.879 116.08 651.781 115.994 651.66C115.908 651.54 115.852 651.4 115.831 651.254C115.81 651.107 115.825 650.958 115.874 650.818L132.357 603.457C132.843 602.065 133.67 600.817 134.763 599.828C135.856 598.838 137.18 598.138 138.614 597.793C140.047 597.447 141.545 597.466 142.97 597.849C144.394 598.231 145.7 598.965 146.767 599.982L155.481 608.3C155.659 608.47 155.762 608.703 155.768 608.949C155.773 609.195 155.681 609.433 155.511 609.61C155.341 609.788 155.107 609.891 154.861 609.897C154.615 609.902 154.377 609.81 154.199 609.64L145.485 601.323C144.642 600.521 143.612 599.942 142.487 599.64C141.363 599.338 140.181 599.323 139.049 599.596C137.917 599.869 136.872 600.421 136.009 601.202C135.146 601.983 134.493 602.967 134.11 604.066L117.627 651.427C117.563 651.609 117.445 651.767 117.288 651.878C117.131 651.99 116.943 652.05 116.751 652.05Z" fill="#494949"/>
<path d="M179.827 634.518C191.238 625.494 190.56 605.646 178.313 590.187C166.065 574.728 146.885 569.511 135.474 578.535C124.063 587.559 124.741 607.407 136.989 622.866C149.237 638.326 168.416 643.542 179.827 634.518Z" fill="#D15800"/>
<path d="M99.6906 660.364C99.482 660.364 99.2796 660.293 99.116 660.164C98.9523 660.035 98.837 659.854 98.7887 659.652L71.1273 544.098C70.9381 543.311 70.5353 542.59 69.963 542.016C69.3907 541.443 68.6711 541.038 67.8834 540.846C67.0957 540.655 66.2704 540.684 65.4981 540.93C64.7259 541.177 64.0367 541.631 63.5063 542.244L54.9796 552.089C54.8998 552.181 54.8027 552.256 54.6937 552.311C54.5848 552.365 54.4661 552.398 54.3445 552.407C54.2229 552.416 54.1008 552.4 53.9851 552.362C53.8694 552.324 53.7625 552.263 53.6703 552.183C53.5781 552.103 53.5025 552.006 53.4479 551.898C53.3932 551.789 53.3606 551.67 53.3518 551.549C53.343 551.427 53.3582 551.305 53.3966 551.19C53.4351 551.074 53.4959 550.967 53.5756 550.875L62.1023 541.03C62.8564 540.16 63.8362 539.514 64.934 539.164C66.0317 538.814 67.2049 538.773 68.3244 539.046C69.444 539.319 70.4664 539.895 71.2794 540.711C72.0923 541.527 72.6642 542.551 72.9321 543.671L100.593 659.225C100.651 659.464 100.61 659.716 100.482 659.926C100.353 660.135 100.146 660.285 99.9068 660.342C99.8358 660.358 99.7633 660.365 99.6906 660.364Z" fill="#494949"/>
<path d="M89.4839 577.756C92.8466 558.329 83.9472 540.571 69.6067 538.093C55.2662 535.616 40.915 549.356 37.5523 568.784C34.1897 588.212 43.089 605.969 57.4295 608.447C71.77 610.925 86.1213 597.184 89.4839 577.756Z" fill="#D15800"/>
<path d="M107.181 663.384C107.142 663.384 107.104 663.382 107.066 663.377C106.945 663.362 106.828 663.324 106.722 663.264C106.616 663.204 106.522 663.124 106.447 663.028C106.372 662.932 106.317 662.822 106.284 662.704C106.252 662.587 106.243 662.464 106.258 662.343L123.922 519.057C124.115 517.496 124.754 516.024 125.764 514.818C126.774 513.611 128.111 512.722 129.614 512.256C131.118 511.791 132.724 511.769 134.24 512.194C135.755 512.619 137.116 513.472 138.158 514.651L158.347 537.497C158.428 537.588 158.49 537.694 158.53 537.81C158.569 537.925 158.586 538.047 158.578 538.168C158.571 538.29 158.539 538.409 158.486 538.518C158.432 538.628 158.358 538.726 158.266 538.806C158.175 538.887 158.068 538.949 157.953 538.988C157.838 539.028 157.716 539.044 157.594 539.037C157.472 539.029 157.353 538.998 157.244 538.945C157.134 538.891 157.036 538.816 156.956 538.725L136.768 515.879C135.963 514.968 134.911 514.309 133.74 513.98C132.568 513.652 131.327 513.668 130.165 514.028C129.003 514.388 127.97 515.075 127.189 516.007C126.408 516.939 125.914 518.077 125.765 519.283L108.1 662.571C108.073 662.795 107.964 663.001 107.795 663.151C107.625 663.3 107.407 663.383 107.181 663.384Z" fill="#494949"/>
<path d="M179.054 550.193C186.099 537.47 177.811 519.419 160.542 509.876C143.274 500.333 123.565 502.911 116.521 515.634C109.476 528.358 117.765 546.408 135.033 555.951C152.301 565.494 172.01 562.916 179.054 550.193Z" fill="#D15800"/>
<path opacity="0.2" d="M179.827 634.518C191.238 625.494 190.56 605.646 178.313 590.187C166.065 574.728 146.885 569.511 135.474 578.535C124.063 587.559 124.741 607.407 136.989 622.866C149.237 638.326 168.416 643.542 179.827 634.518Z" fill="white"/>
<path opacity="0.5" d="M89.4839 577.756C92.8466 558.329 83.9472 540.571 69.6067 538.093C55.2662 535.616 40.915 549.356 37.5523 568.784C34.1897 588.212 43.089 605.969 57.4295 608.447C71.77 610.925 86.1213 597.184 89.4839 577.756Z" fill="white"/>
<path opacity="0.5" d="M179.054 550.193C186.099 537.47 177.811 519.419 160.542 509.876C143.274 500.333 123.565 502.911 116.521 515.634C109.476 528.358 117.765 546.408 135.033 555.951C152.301 565.494 172.01 562.916 179.054 550.193Z" fill="white"/>
<path d="M129.772 784.962H84.586L77.0977 640.52H137.26L129.772 784.962Z" fill="#292A2E"/>
<path opacity="0.3" d="M129.772 784.962H84.586L77.0977 640.52H137.26L129.772 784.962Z" fill="white"/>
<path d="M179.83 634.98C179.76 634.98 179.69 634.965 179.627 634.934C179.564 634.904 179.509 634.859 179.465 634.804L135.11 578.822C135.073 578.774 135.045 578.719 135.028 578.661C135.011 578.602 135.006 578.541 135.013 578.481C135.02 578.42 135.039 578.362 135.069 578.308C135.098 578.255 135.138 578.208 135.186 578.171C135.234 578.133 135.289 578.105 135.347 578.088C135.406 578.071 135.467 578.066 135.528 578.073C135.588 578.08 135.647 578.099 135.7 578.129C135.753 578.159 135.8 578.198 135.838 578.246L180.193 634.229C180.247 634.297 180.281 634.379 180.29 634.465C180.3 634.552 180.285 634.64 180.247 634.718C180.209 634.797 180.15 634.863 180.076 634.909C180.002 634.956 179.917 634.98 179.83 634.98Z" fill="white"/>
<path d="M176.105 554.68C176.006 554.679 175.91 554.646 175.831 554.587L119.074 513.182C119.025 513.146 118.983 513.101 118.951 513.049C118.92 512.997 118.898 512.939 118.889 512.879C118.88 512.819 118.882 512.757 118.897 512.698C118.911 512.639 118.937 512.583 118.973 512.534C119.009 512.485 119.054 512.443 119.106 512.412C119.158 512.38 119.216 512.359 119.276 512.349C119.336 512.34 119.398 512.342 119.457 512.357C119.516 512.371 119.572 512.397 119.621 512.433L176.379 553.839C176.457 553.897 176.514 553.979 176.543 554.072C176.572 554.164 176.571 554.264 176.541 554.356C176.51 554.449 176.451 554.529 176.372 554.586C176.293 554.643 176.198 554.673 176.1 554.673L176.105 554.68Z" fill="white"/>
<path d="M55.1272 607.843C55.0868 607.843 55.0466 607.837 55.0075 607.827C54.8887 607.795 54.7873 607.718 54.7257 607.611C54.6641 607.505 54.6473 607.378 54.679 607.26L72.7475 539.627C72.7609 539.565 72.7865 539.508 72.8229 539.456C72.8593 539.405 72.9057 539.362 72.9593 539.33C73.0129 539.297 73.0726 539.275 73.1347 539.266C73.1968 539.258 73.2601 539.261 73.3207 539.277C73.3814 539.294 73.4381 539.322 73.4874 539.361C73.5368 539.399 73.5778 539.448 73.6079 539.503C73.638 539.558 73.6567 539.618 73.6627 539.681C73.6687 539.743 73.662 539.806 73.643 539.866L55.5745 607.499C55.5481 607.597 55.4901 607.684 55.4092 607.747C55.3284 607.809 55.2292 607.843 55.1272 607.843Z" fill="white"/>
<path d="M929.656 787.001H1.34376C1.17149 787.001 1.00627 786.933 0.884461 786.811C0.762648 786.689 0.694214 786.524 0.694214 786.352C0.694214 786.18 0.762648 786.015 0.884461 785.893C1.00627 785.771 1.17149 785.703 1.34376 785.703H929.656C929.828 785.703 929.994 785.771 930.116 785.893C930.237 786.015 930.306 786.18 930.306 786.352C930.306 786.524 930.237 786.689 930.116 786.811C929.994 786.933 929.828 787.001 929.656 787.001Z" fill="#292A2E"/>
<g opacity="0.65">
<path d="M929.656 787.001H1.34376C1.17149 787.001 1.00627 786.933 0.884461 786.811C0.762648 786.689 0.694214 786.524 0.694214 786.352C0.694214 786.18 0.762648 786.015 0.884461 785.893C1.00627 785.771 1.17149 785.703 1.34376 785.703H929.656C929.828 785.703 929.994 785.771 930.116 785.893C930.237 786.015 930.306 786.18 930.306 786.352C930.306 786.524 930.237 786.689 930.116 786.811C929.994 786.933 929.828 787.001 929.656 787.001Z" fill="#292A2E"/>
</g>
<path d="M798.117 399.367C751.913 399.367 714.458 411.961 714.458 427.496V460.983H881.776V427.496C881.776 411.961 844.321 399.367 798.117 399.367Z" fill="#0760BA"/>
<path opacity="0.49" d="M798.117 399.367C751.913 399.367 714.458 411.961 714.458 427.496V460.983H881.776V427.496C881.776 411.961 844.321 399.367 798.117 399.367Z" fill="white"/>
<path opacity="0.49" d="M858.986 427.497V460.978H714.456V427.497C714.456 413.257 745.913 401.493 786.721 399.633C827.533 401.491 858.986 413.257 858.986 427.497Z" fill="white"/>
<path d="M881.775 786.362L884.559 783.556L881.775 458.012L878.992 460.816L880.977 690.179L781.863 691.861L779.863 460.793L777.08 460.816L779.079 691.908L719.248 692.925L717.24 460.793L714.456 458.035L717.24 783.581L720.024 786.338L719.272 695.707L779.104 694.691L779.863 786.362L782.647 786.338L781.887 694.643L881.001 692.96L881.775 786.362Z" fill="#292A2E"/>
<path d="M626.183 737.188C626.183 737.188 621.208 762.955 597.061 764.391C572.913 765.827 578.15 785.046 578.15 785.046H670.427V738.985L626.183 737.188Z" fill="#0760BA"/>
<path d="M678.831 659.691C678.831 659.691 685.751 685.006 664.718 696.944C643.684 708.882 656.875 723.817 656.875 723.817L739.675 683.118L719.325 641.789L678.831 659.691Z" fill="#0760BA"/>
<path d="M670.071 676.423L607.679 441.234C602.947 415.251 610.072 403.989 621.05 393.049C640.338 373.828 720.261 332.917 720.261 332.917L816.142 332.656C841.568 332.656 866.56 357.703 866.56 383.103C866.56 408.503 840.714 430.046 815.291 430.046L697.22 441.819L729.225 657.167L670.071 676.423Z" fill="#262626"/>
<path d="M729.225 657.162L716.626 572.383L652.792 611.287L670.071 676.421L729.225 657.162Z" fill="#0C0C0C"/>
<path d="M743.695 380.508C743.695 380.508 703.389 389.483 663.469 429.365C639.266 453.546 641.25 497.305 644.881 581.467L684.529 522.96L728.015 444.598L743.695 380.508Z" fill="#0C0C0C"/>
<path d="M883.252 332.627L818.137 332.32L818.111 333.177H798.395C798.395 333.177 749.007 378.584 709.242 407.197C680.319 428.008 662.674 447.849 661.147 469.474C657.425 522.188 615.449 747.013 615.449 747.013L678.622 756.571L734.059 487.893C734.059 487.893 820.75 447.967 840.802 434.071C859.683 420.986 873.02 415.929 879.268 401.65C890.06 376.984 883.252 332.627 883.252 332.627Z" fill="#262626"/>
<path d="M760.244 47.8774C760.244 47.8774 750.015 36.8016 750.806 15.7078C751.417 -0.624465 764.249 12.349 764.249 12.349C764.249 12.349 764.806 0.592786 772.966 3.24515C781.126 5.89752 783.637 18.8061 783.637 18.8061" fill="#0C0C0C"/>
<path d="M815.998 12.4102C815.998 12.4102 856.734 24.3694 831.527 77.8951L827.806 77.4761L820.255 76.6269" fill="#0C0C0C"/>
<path d="M758.269 133.417C758.454 133.393 760.513 167.533 800.216 164.56C827.701 162.503 837.5 133.369 838.131 133.369C835.168 132.739 831.505 131.784 830.049 131.457C826.877 130.721 824.005 129.038 821.814 126.632C819.623 124.225 818.217 121.209 817.783 117.985C816.978 113.145 818.34 88.3851 817.923 83.4883L775.735 92.8963C776.324 103.238 780.451 127.214 765.992 131.457C763.579 132.159 760.99 132.804 758.269 133.417Z" fill="#E98862"/>
<path opacity="0.52" d="M775.142 121.656C775.803 119.528 776.228 117.334 776.411 115.114C776.874 110.047 776.78 104.944 776.132 99.8976C784.707 98.7411 792.786 95.2051 799.45 89.6914C800.233 92.582 804.542 105.212 803.347 107.955C801.097 113.152 790.501 121.656 775.142 121.656Z" fill="#0C0C0C"/>
<path d="M782.029 110.787C798.673 112.282 820.149 105.487 824.456 83.3263L828.342 63.3302C832.649 41.173 824.49 20.9452 803.605 16.8938C782.721 12.8425 763.619 27.7786 759.313 49.9395L757.592 58.7921C757.055 61.8419 756.726 64.9248 756.607 68.0193C756.236 76.1952 755.7 88.6319 759.637 97.823C763.352 106.497 771.395 109.834 782.029 110.787Z" fill="#E98862"/>
<path d="M769.655 86.97C775.852 87.6849 782.111 86.3165 787.442 83.081C787.627 82.9696 787.839 82.9132 788.055 82.9183C788.271 82.9234 788.481 82.9898 788.66 83.1097C788.839 83.2297 788.981 83.3982 789.068 83.5955C789.155 83.7929 789.184 84.0109 789.151 84.224C788.557 87.873 786.413 94.5313 778.666 95.0152C773.665 95.3276 770.247 91.3356 768.551 88.7111C768.433 88.529 768.37 88.3169 768.369 88.1001C768.368 87.8832 768.429 87.6706 768.545 87.4874C768.662 87.3042 768.828 87.1581 769.025 87.0664C769.221 86.9747 769.44 86.9413 769.655 86.97Z" fill="white"/>
<path d="M764.311 64.3729C765.758 64.3729 766.931 63.2007 766.931 61.7548C766.931 60.3089 765.758 59.1367 764.311 59.1367C762.863 59.1367 761.69 60.3089 761.69 61.7548C761.69 63.2007 762.863 64.3729 764.311 64.3729Z" fill="#0C0C0C"/>
<path d="M789.788 67.3494C791.235 67.3494 792.408 66.1773 792.408 64.7313C792.408 63.2854 791.235 62.1133 789.788 62.1133C788.34 62.1133 787.167 63.2854 787.167 64.7313C787.167 66.1773 788.34 67.3494 789.788 67.3494Z" fill="#0C0C0C"/>
<path d="M821.846 89.826C828.193 91.0572 834.657 85.2722 835.89 78.931C837.122 72.5898 832.656 68.0954 826.31 66.8633L822.213 70.4789L816.39 88.7692L821.846 89.826Z" fill="#E98862"/>
<path d="M817.368 78.4687C817.368 78.4687 820.914 46.6496 811.726 42.9839C805.608 40.5429 788.57 46.7599 774.795 41.4607C768.764 39.143 762.561 39.614 761.425 42.4509C760.975 43.5745 760.126 26.1074 772.203 15.1522C781.823 6.43023 807.814 8.17592 818.801 13.5938C849.224 28.5938 827.373 68.485 827.373 68.485L823.979 79.062L817.368 78.4687Z" fill="#0C0C0C"/>
<g opacity="0.52">
<path d="M775.607 81.0017L775.565 80.9952C773.524 80.604 770.13 79.7196 770.422 78.1899C770.666 76.9226 776.759 63.9074 777.454 62.4296C777.482 62.3644 777.523 62.3054 777.574 62.2563C777.626 62.2072 777.686 62.169 777.753 62.1438C777.819 62.1186 777.89 62.107 777.961 62.1098C778.032 62.1125 778.102 62.1295 778.167 62.1597C778.231 62.1899 778.289 62.2327 778.336 62.2856C778.384 62.3385 778.42 62.4004 778.443 62.4676C778.466 62.5348 778.475 62.6059 778.47 62.6768C778.466 62.7477 778.446 62.8168 778.414 62.8802C775.711 68.6429 771.63 77.528 771.465 78.3911C771.597 78.7906 773.646 79.5499 775.765 79.956C775.899 79.9826 776.017 80.0597 776.095 80.1712C776.174 80.2827 776.206 80.4202 776.186 80.5549C776.166 80.6897 776.094 80.8115 775.986 80.895C775.879 80.9786 775.743 81.0174 775.607 81.0036V81.0017Z" fill="#0C0C0C"/>
</g>
<path d="M774.158 49.1093C772.11 48.1289 769.836 47.7186 767.574 47.9217C766.464 48.0151 765.375 48.2741 764.342 48.6903C763.322 49.0967 762.357 49.6303 761.471 50.2784C761.299 50.389 761.178 50.5635 761.134 50.7634C761.091 50.9634 761.128 51.1724 761.239 51.3445C761.35 51.5166 761.525 51.6377 761.725 51.6812C761.925 51.7246 762.134 51.6869 762.306 51.5763L762.36 51.5438C763.164 51.0315 764.029 50.6219 764.935 50.3247C765.826 50.0274 766.757 49.8668 767.697 49.8482C769.548 49.7975 771.38 50.2356 773.008 51.1183L773.077 51.1572C773.209 51.2328 773.355 51.2815 773.506 51.3007C773.658 51.3199 773.811 51.3091 773.958 51.269C774.105 51.2288 774.243 51.1602 774.364 51.0669C774.484 50.9736 774.585 50.8575 774.661 50.7252C774.736 50.5929 774.785 50.4471 774.804 50.296C774.823 50.1448 774.813 49.9914 774.772 49.8445C774.732 49.6975 774.664 49.5599 774.57 49.4395C774.477 49.3191 774.361 49.2182 774.228 49.1427C774.205 49.1343 774.181 49.1214 774.158 49.1093Z" fill="#0C0C0C"/>
<path d="M789.182 53.165C790.965 52.6659 792.849 52.6461 794.642 53.1075C795.554 53.3345 796.426 53.698 797.229 54.1857C798.046 54.6767 798.798 55.2685 799.468 55.9472L799.511 55.988C799.655 56.1314 799.85 56.2124 800.053 56.2133C800.257 56.2142 800.452 56.1349 800.597 55.9927C800.742 55.8505 800.825 55.6568 800.829 55.4537C800.832 55.2506 800.754 55.0545 800.614 54.9079C799.894 54.0794 799.072 53.3447 798.169 52.721C797.254 52.086 796.249 51.5913 795.188 51.2534C793.029 50.5531 790.721 50.4471 788.507 50.9465C788.207 51.0166 787.947 51.2028 787.785 51.4642C787.623 51.7256 787.571 52.0408 787.641 52.3404C787.711 52.64 787.897 52.8995 788.159 53.0618C788.421 53.2241 788.736 53.2759 789.036 53.2058C789.059 53.2003 789.082 53.1947 789.106 53.1873L789.182 53.165Z" fill="#0C0C0C"/>
<path d="M794.244 19.2869C796.946 12.6246 795.464 5.73662 790.934 3.9022C786.403 2.06777 780.54 5.98152 777.837 12.6438C775.135 19.3061 776.617 26.1941 781.147 28.0285C785.678 29.863 791.541 25.9492 794.244 19.2869Z" fill="#0C0C0C"/>
<path d="M708.941 208.587C710.192 223.264 719.056 314.839 720.262 332.918H883.181C884.117 316.612 888.32 245.309 891.87 213.423C895.258 182.995 900.008 169.148 896.105 159.692C889.22 143.015 867.312 135.568 852.474 133.561C843.414 132.335 829.788 131.457 829.788 131.457C829.788 131.457 828.634 154.776 801.123 156.073C763.672 157.834 766.173 131.457 765.987 131.457C759.921 131.457 726.896 135.864 718.638 141.242C706.975 148.837 703.528 159.188 703.392 168.697C703.236 179.644 707.521 191.939 708.941 208.587Z" fill="#0760BA"/>
<path d="M565.441 130.076C565.173 129.55 564.801 129.084 564.347 128.706C563.894 128.329 563.367 128.047 562.801 127.88C562.235 127.712 561.641 127.661 561.054 127.73C560.468 127.8 559.901 127.988 559.39 128.283C558.42 128.889 557.717 129.84 557.422 130.944C557.127 132.048 557.263 133.223 557.801 134.231L560.462 139.46L544.486 126.809C542.734 125.372 539.66 124.727 538.176 126.797C537.553 127.556 537.206 128.503 537.192 129.484C537.178 130.465 537.497 131.422 538.098 132.199C538.079 132.212 538.061 132.228 538.046 132.246C538.037 132.261 538.029 132.276 538.023 132.291L535.321 130.075C534.823 129.667 534.241 129.374 533.616 129.218C532.991 129.062 532.34 129.046 531.709 129.172C531.077 129.298 530.482 129.563 529.965 129.946C529.448 130.33 529.023 130.824 528.72 131.391C528.256 132.306 528.123 133.353 528.343 134.355C528.562 135.357 529.122 136.253 529.927 136.89L531.076 137.834C531.064 137.881 531.06 137.93 531.065 137.978C530.15 137.524 529.104 137.407 528.111 137.648C527.118 137.888 526.242 138.47 525.636 139.292C524.991 140.236 524.729 141.389 524.902 142.519C525.076 143.648 525.672 144.67 526.57 145.377L529.396 147.695C529.332 147.69 529.268 147.7 529.21 147.725C529.151 147.75 529.099 147.789 529.058 147.838C529.012 147.898 528.985 147.971 528.98 148.047C528.068 147.873 527.125 147.995 526.288 148.396C525.45 148.796 524.764 149.454 524.327 150.272C523.863 151.187 523.73 152.234 523.95 153.236C524.17 154.238 524.729 155.133 525.534 155.771L549.624 175.538C552.995 178.303 557.115 179.999 561.457 180.41C565.798 180.821 570.164 179.927 573.994 177.843L586.325 171.132L565.441 130.076Z" fill="#E98862"/>
<g opacity="0.2">
<path d="M553.849 144.803C553.782 144.883 553.687 144.934 553.583 144.944C553.479 144.955 553.375 144.925 553.293 144.86L538.115 132.808C538.073 132.776 538.039 132.735 538.013 132.689C537.988 132.643 537.972 132.592 537.966 132.54C537.96 132.488 537.964 132.435 537.978 132.384C537.993 132.334 538.017 132.286 538.05 132.245C538.083 132.204 538.123 132.17 538.169 132.144C538.216 132.119 538.266 132.102 538.319 132.096C538.371 132.09 538.424 132.095 538.475 132.109C538.525 132.124 538.572 132.148 538.614 132.181L553.792 144.233C553.833 144.265 553.867 144.306 553.893 144.352C553.919 144.398 553.935 144.448 553.941 144.501C553.947 144.553 553.943 144.606 553.928 144.656C553.914 144.707 553.889 144.754 553.857 144.795L553.849 144.803Z" fill="#0C0C0C"/>
</g>
<g opacity="0.2">
<path d="M548.715 151.635C548.648 151.715 548.552 151.766 548.448 151.776C548.345 151.787 548.24 151.757 548.158 151.692L531.218 138.244C531.177 138.212 531.143 138.171 531.117 138.125C531.091 138.079 531.075 138.028 531.069 137.976C531.063 137.924 531.068 137.871 531.082 137.82C531.097 137.77 531.121 137.723 531.154 137.681C531.222 137.601 531.318 137.55 531.423 137.538C531.528 137.526 531.633 137.554 531.718 137.617L548.657 151.065C548.698 151.097 548.732 151.138 548.758 151.184C548.784 151.23 548.8 151.281 548.806 151.333C548.812 151.385 548.807 151.438 548.793 151.489C548.778 151.539 548.754 151.586 548.721 151.628L548.715 151.635Z" fill="#0C0C0C"/>
</g>
<g opacity="0.2">
<path d="M543.198 159.072C543.13 159.152 543.035 159.202 542.931 159.213C542.827 159.223 542.723 159.193 542.641 159.128L529.127 148.398C529.043 148.332 528.99 148.236 528.978 148.13C528.966 148.024 528.996 147.918 529.062 147.835C529.128 147.752 529.225 147.698 529.331 147.686C529.436 147.674 529.543 147.704 529.626 147.771L543.138 158.497C543.222 158.563 543.275 158.66 543.287 158.765C543.299 158.871 543.269 158.977 543.202 159.061L543.198 159.072Z" fill="#0C0C0C"/>
</g>
<path d="M796.174 366.982C795.599 367.117 795.057 367.367 794.583 367.718C794.108 368.069 793.71 368.513 793.412 369.023C793.115 369.532 792.924 370.097 792.853 370.683C792.781 371.269 792.83 371.863 792.995 372.429C793.354 373.514 794.112 374.423 795.115 374.971C796.119 375.519 797.294 375.666 798.402 375.382L804.117 374.04L788.026 386.546C786.212 387.905 784.858 390.732 786.518 392.665C787.108 393.449 787.947 394.01 788.898 394.257C789.848 394.503 790.855 394.42 791.752 394.022C791.761 394.044 791.772 394.065 791.785 394.084C791.797 394.096 791.81 394.107 791.824 394.117L789.028 396.213C788.513 396.6 788.09 397.095 787.79 397.664C787.49 398.234 787.32 398.862 787.293 399.505C787.266 400.148 787.381 400.789 787.632 401.381C787.883 401.974 788.262 402.503 788.742 402.932C789.521 403.599 790.508 403.977 791.534 404.001C792.561 404.026 793.564 403.695 794.374 403.065L795.565 402.174C795.608 402.196 795.654 402.211 795.702 402.218C795.044 402.999 794.682 403.986 794.681 405.007C794.679 406.028 795.037 407.016 795.693 407.799C796.457 408.649 797.517 409.177 798.656 409.277C799.796 409.377 800.93 409.04 801.831 408.336L804.756 406.143C804.736 406.204 804.731 406.269 804.741 406.332C804.751 406.395 804.776 406.454 804.814 406.506C804.863 406.565 804.927 406.608 805 406.631C804.615 407.474 804.51 408.419 804.7 409.326C804.89 410.233 805.365 411.056 806.057 411.674C806.837 412.342 807.823 412.719 808.85 412.743C809.876 412.767 810.879 412.437 811.689 411.807L836.625 393.114C840.114 390.499 842.741 386.903 844.171 382.787C845.6 378.67 845.767 374.221 844.648 370.01L841.049 356.449L796.174 366.982Z" fill="#E98862"/>
<g opacity="0.2">
<path d="M807.743 381.725C807.805 381.81 807.832 381.915 807.818 382.019C807.804 382.123 807.749 382.217 807.666 382.282L792.345 394.153C792.303 394.185 792.256 394.209 792.205 394.223C792.154 394.237 792.101 394.24 792.049 394.234C791.997 394.227 791.946 394.21 791.9 394.184C791.855 394.158 791.815 394.124 791.782 394.082C791.75 394.04 791.726 393.993 791.712 393.942C791.698 393.891 791.695 393.838 791.701 393.786C791.708 393.734 791.725 393.684 791.751 393.638C791.777 393.592 791.812 393.552 791.853 393.52L807.174 381.65C807.258 381.585 807.365 381.556 807.471 381.57C807.576 381.583 807.672 381.638 807.737 381.722L807.743 381.725Z" fill="#0C0C0C"/>
</g>
<g opacity="0.2">
<path d="M813.17 388.331C813.233 388.415 813.26 388.521 813.246 388.625C813.231 388.729 813.177 388.823 813.093 388.887L795.999 402.139C795.915 402.204 795.809 402.233 795.703 402.22C795.597 402.206 795.502 402.152 795.436 402.068C795.374 401.983 795.348 401.877 795.361 401.773C795.374 401.668 795.426 401.573 795.507 401.506L812.602 388.256C812.686 388.191 812.792 388.162 812.898 388.175C813.003 388.188 813.099 388.243 813.165 388.326L813.17 388.331Z" fill="#0C0C0C"/>
</g>
<g opacity="0.2">
<path d="M819.09 395.452C819.152 395.536 819.18 395.642 819.165 395.746C819.151 395.85 819.097 395.944 819.014 396.008L805.373 406.577C805.289 406.637 805.184 406.662 805.081 406.647C804.979 406.632 804.886 406.578 804.822 406.496C804.759 406.414 804.729 406.311 804.74 406.208C804.751 406.104 804.802 406.01 804.881 405.943L818.522 395.373C818.606 395.308 818.712 395.279 818.817 395.292C818.923 395.305 819.019 395.36 819.084 395.444L819.09 395.452Z" fill="#0C0C0C"/>
</g>
<path d="M950.092 271.937L949.786 271.305L895.595 159.379L841.298 185.62L886.174 278.306L808.73 355.933L846.113 394.963L943.486 306.192C948.127 301.95 951.276 296.328 952.466 290.157C953.656 283.987 952.823 277.598 950.092 271.937Z" fill="#0760BA"/>
<path d="M831.689 333.378C831.597 333.378 831.507 333.351 831.431 333.3C831.355 333.248 831.296 333.176 831.261 333.091C831.226 333.006 831.217 332.913 831.235 332.823C831.253 332.733 831.298 332.65 831.363 332.586L886.529 278.211L845.515 196.027C845.484 195.973 845.464 195.912 845.458 195.85C845.451 195.787 845.457 195.724 845.475 195.664C845.494 195.604 845.524 195.548 845.565 195.5C845.606 195.452 845.656 195.413 845.712 195.385C845.769 195.356 845.83 195.34 845.893 195.337C845.956 195.333 846.019 195.342 846.078 195.364C846.137 195.386 846.191 195.419 846.237 195.462C846.283 195.505 846.319 195.557 846.345 195.615L887.514 278.096C887.557 278.184 887.571 278.283 887.554 278.379C887.538 278.475 887.491 278.564 887.421 278.632L832.011 333.242C831.926 333.328 831.81 333.377 831.689 333.378Z" fill="#0C0C0C"/>
<path d="M714.557 144.051L638.753 213.935L582.956 144.258L545.747 181.647L608.06 267.915C613.664 279.106 625.733 285.88 638.132 284.104C642.934 283.416 647.489 281.546 651.387 278.661L652.794 277.623L754.486 192.601L714.557 144.051Z" fill="#0760BA"/>
<path d="M711.131 228.877C711.018 228.878 710.909 228.838 710.823 228.764C710.738 228.69 710.682 228.587 710.667 228.475L707.141 202.053C707.127 201.933 707.161 201.811 707.235 201.715C707.31 201.618 707.42 201.555 707.54 201.539C707.661 201.523 707.783 201.555 707.881 201.628C707.978 201.701 708.043 201.81 708.061 201.93L711.587 228.352C711.595 228.412 711.591 228.474 711.576 228.533C711.56 228.592 711.533 228.647 711.496 228.696C711.459 228.744 711.413 228.785 711.36 228.815C711.307 228.846 711.248 228.866 711.188 228.874C711.169 228.876 711.15 228.877 711.131 228.877Z" fill="#0C0C0C"/>
<path d="M648.112 227.995C648.029 227.995 647.947 227.973 647.876 227.931C647.804 227.888 647.745 227.828 647.705 227.755L638.347 214.16C638.287 214.053 638.273 213.926 638.307 213.808C638.342 213.689 638.421 213.59 638.529 213.53C638.637 213.471 638.764 213.457 638.882 213.491C639 213.525 639.1 213.605 639.16 213.712L648.517 227.308C648.556 227.379 648.576 227.458 648.574 227.538C648.573 227.619 648.551 227.698 648.51 227.767C648.469 227.836 648.411 227.894 648.341 227.934C648.271 227.974 648.193 227.995 648.112 227.995Z" fill="#0C0C0C"/>
</svg>
