<svg width="22" height="21" viewBox="0 0 22 21" fill="none" xmlns="http://www.w3.org/2000/svg">
<path d="M20.75 18.5586H18.875V2.43359C18.875 1.93631 18.6775 1.4594 18.3258 1.10777C17.9742 0.756138 17.4973 0.558594 17 0.558594H5C4.50272 0.558594 4.02581 0.756138 3.67417 1.10777C3.32254 1.4594 3.125 1.93631 3.125 2.43359V18.5586H1.25C0.951631 18.5586 0.665483 18.6771 0.454505 18.8881C0.243526 19.0991 0.125 19.3852 0.125 19.6836C0.125 19.982 0.243526 20.2681 0.454505 20.4791C0.665483 20.6901 0.951631 20.8086 1.25 20.8086H20.75C21.0484 20.8086 21.3345 20.6901 21.5455 20.4791C21.7565 20.2681 21.875 19.982 21.875 19.6836C21.875 19.3852 21.7565 19.0991 21.5455 18.8881C21.3345 18.6771 21.0484 18.5586 20.75 18.5586ZM16.625 18.5586H15.125V2.80859H16.625V18.5586ZM5.375 2.80859H12.875V18.5586H5.375V2.80859ZM11.75 11.0586C11.75 11.2811 11.684 11.4986 11.5604 11.6836C11.4368 11.8686 11.2611 12.0128 11.0555 12.098C10.85 12.1831 10.6238 12.2054 10.4055 12.162C10.1873 12.1186 9.98684 12.0114 9.8295 11.8541C9.67217 11.6968 9.56502 11.4963 9.52162 11.2781C9.47821 11.0598 9.50049 10.8336 9.58564 10.6281C9.67078 10.4225 9.81498 10.2468 9.99998 10.1232C10.185 9.99957 10.4025 9.93359 10.625 9.93359C10.9234 9.93359 11.2095 10.0521 11.4205 10.2631C11.6315 10.4741 11.75 10.7602 11.75 11.0586Z" fill="#FDFDFD"/>
</svg>
