<svg width="333" height="200" viewBox="0 0 333 200" fill="none" xmlns="http://www.w3.org/2000/svg">
<g clip-path="url(#clip0_2907_55207)">
<path d="M55.8446 190.378C55.578 190.39 55.314 190.32 55.0885 190.177C54.863 190.034 54.6868 189.825 54.5838 189.579C54.4808 189.332 54.456 189.06 54.5128 188.799C54.5696 188.538 54.7051 188.3 54.9011 188.119L54.9904 187.764C54.9786 187.735 54.9668 187.707 54.9549 187.678C54.6863 187.043 54.2362 186.501 53.6611 186.121C53.086 185.741 52.4116 185.54 51.7226 185.543C51.0336 185.545 50.3607 185.752 49.7884 186.136C49.2162 186.52 48.7701 187.065 48.5062 187.702C47.4514 190.246 46.1086 192.794 45.7779 195.483C45.6323 196.672 45.6937 197.877 45.9595 199.045C43.4822 193.634 42.1959 187.753 42.1876 181.801C42.1871 180.307 42.27 178.815 42.4358 177.33C42.5729 176.113 42.7631 174.905 43.0065 173.706C44.3342 167.197 47.185 161.096 51.3246 155.905C53.3282 154.81 54.9485 153.127 55.9672 151.082C56.3363 150.347 56.5971 149.562 56.7416 148.752C56.5156 148.782 55.8894 145.335 56.0599 145.124C55.7449 144.645 55.1812 144.407 54.8372 143.94C53.1263 141.618 50.7692 142.023 49.5387 145.179C46.9101 146.508 46.8846 148.711 48.4976 150.83C49.5237 152.178 49.6647 154.002 50.5651 155.445C50.4724 155.564 50.3761 155.679 50.2835 155.797C48.5902 157.978 47.1143 160.319 45.8771 162.787C46.178 160.022 45.8189 157.224 44.8294 154.625C43.8265 152.203 41.9468 150.162 40.2915 148.068C38.3032 145.553 34.226 146.651 33.8757 149.839C33.8723 149.87 33.869 149.901 33.8657 149.932C34.1116 150.071 34.3523 150.218 34.5878 150.374C34.8836 150.572 35.1128 150.855 35.2454 151.185C35.378 151.516 35.4078 151.879 35.3308 152.227C35.2539 152.575 35.0738 152.891 34.8142 153.135C34.5545 153.378 34.2275 153.538 33.8758 153.592L33.8398 153.597C33.9274 154.485 34.0822 155.364 34.303 156.228C32.1794 164.451 36.764 167.446 43.3103 167.58C43.4548 167.655 43.5956 167.729 43.7401 167.799C42.4971 171.326 41.7174 175 41.4207 178.729C41.2527 180.929 41.2626 183.138 41.4503 185.336L41.4392 185.258C40.9649 182.814 39.6627 180.609 37.7525 179.015C34.9154 176.681 30.9071 175.822 27.8464 173.946C27.5211 173.737 27.1429 173.625 26.7563 173.624C26.3698 173.623 25.991 173.733 25.6647 173.941C25.3384 174.148 25.0782 174.445 24.9147 174.795C24.7513 175.146 24.6914 175.536 24.7422 175.92C24.7463 175.947 24.7505 175.975 24.7547 176.002C25.211 176.188 25.6552 176.402 26.0848 176.644C26.3307 176.783 26.5714 176.93 26.8069 177.086C27.1027 177.284 27.3319 177.567 27.4645 177.897C27.5971 178.228 27.6269 178.591 27.5499 178.939C27.473 179.287 27.2929 179.603 27.0332 179.847C26.7736 180.09 26.4465 180.25 26.0949 180.304L26.0589 180.309C26.0329 180.313 26.0107 180.317 25.9848 180.32C26.7644 182.184 27.8586 183.9 29.2194 185.392C30.5472 192.57 36.2502 193.251 42.3507 191.161H42.3544C43.0237 194.073 43.9935 196.908 45.2481 199.62H55.5856C55.6227 199.505 55.656 199.386 55.6894 199.271C54.7325 199.331 53.7719 199.274 52.8289 199.1C53.5959 198.158 54.3629 197.208 55.1299 196.266C55.147 196.248 55.1631 196.23 55.1781 196.21C55.5671 195.728 55.9599 195.249 56.3489 194.767L56.3491 194.767C56.3699 193.288 56.2001 191.813 55.8446 190.378Z" fill="#F2F2F2"/>
<path d="M271.76 190.378C272.027 190.39 272.291 190.32 272.516 190.177C272.742 190.034 272.918 189.825 273.021 189.579C273.124 189.332 273.149 189.06 273.092 188.799C273.035 188.538 272.9 188.3 272.704 188.119L272.615 187.764C272.626 187.735 272.638 187.707 272.65 187.678C272.919 187.043 273.369 186.501 273.944 186.121C274.519 185.741 275.193 185.54 275.882 185.543C276.571 185.545 277.244 185.752 277.816 186.136C278.389 186.52 278.835 187.065 279.099 187.702C280.153 190.246 281.496 192.794 281.827 195.483C281.973 196.672 281.911 197.877 281.645 199.045C284.123 193.634 285.409 187.753 285.417 181.801C285.418 180.307 285.335 178.815 285.169 177.33C285.032 176.113 284.842 174.905 284.598 173.706C283.271 167.197 280.42 161.096 276.28 155.905C274.277 154.81 272.656 153.127 271.638 151.082C271.269 150.347 271.008 149.562 270.863 148.752C271.089 148.782 271.715 145.335 271.545 145.124C271.86 144.645 272.424 144.407 272.768 143.94C274.479 141.618 276.836 142.023 278.066 145.179C280.695 146.508 280.72 148.711 279.107 150.83C278.081 152.178 277.94 154.002 277.04 155.445C277.132 155.564 277.229 155.679 277.321 155.797C279.015 157.978 280.491 160.319 281.728 162.787C281.427 160.022 281.786 157.224 282.775 154.625C283.778 152.203 285.658 150.162 287.313 148.068C289.302 145.553 293.379 146.651 293.729 149.839C293.733 149.87 293.736 149.901 293.739 149.932C293.493 150.071 293.253 150.218 293.017 150.374C292.721 150.572 292.492 150.855 292.359 151.185C292.227 151.516 292.197 151.879 292.274 152.227C292.351 152.575 292.531 152.891 292.791 153.135C293.05 153.378 293.377 153.538 293.729 153.592L293.765 153.597C293.678 154.485 293.523 155.364 293.302 156.228C295.426 164.451 290.841 167.446 284.295 167.58C284.15 167.655 284.009 167.729 283.865 167.799C285.108 171.326 285.887 175 286.184 178.729C286.352 180.929 286.342 183.138 286.155 185.336L286.166 185.258C286.64 182.814 287.942 180.609 289.852 179.015C292.69 176.681 296.698 175.822 299.759 173.946C300.084 173.737 300.462 173.625 300.849 173.624C301.235 173.623 301.614 173.733 301.94 173.941C302.267 174.148 302.527 174.445 302.69 174.795C302.854 175.146 302.914 175.536 302.863 175.92C302.859 175.947 302.854 175.975 302.85 176.002C302.394 176.188 301.95 176.402 301.52 176.644C301.274 176.783 301.034 176.93 300.798 177.086C300.502 177.284 300.273 177.567 300.14 177.897C300.008 178.228 299.978 178.591 300.055 178.939C300.132 179.287 300.312 179.603 300.572 179.847C300.831 180.09 301.158 180.25 301.51 180.304L301.546 180.309C301.572 180.313 301.594 180.317 301.62 180.32C300.841 182.184 299.746 183.9 298.386 185.392C297.058 192.57 291.355 193.251 285.254 191.161H285.251C284.581 194.073 283.611 196.908 282.357 199.62H272.019C271.982 199.505 271.949 199.386 271.916 199.271C272.872 199.331 273.833 199.274 274.776 199.1C274.009 198.158 273.242 197.208 272.475 196.266C272.458 196.248 272.442 196.23 272.427 196.21C272.038 195.728 271.645 195.249 271.256 194.767L271.256 194.767C271.235 193.288 271.405 191.813 271.76 190.378Z" fill="#F2F2F2"/>
<path d="M67.7344 199.388H84.4158C87.2688 189.769 84.431 167.037 88.1916 157.745C95.4064 139.93 104.623 121.133 121.827 112.434C129.172 108.72 137.181 107.269 145.36 107.348C156.659 107.455 168.275 110.492 178.91 114.517C183.26 116.16 187.571 117.966 191.865 119.812C208.042 126.772 224.042 134.353 241.439 136.402C263.452 138.993 289.333 129.132 295.345 107.89C299.934 91.6271 291.67 74.7434 283.003 60.2192C274.336 45.695 264.648 30.1547 266.231 13.3387C266.237 13.2822 266.242 13.2201 266.254 13.1637C266.849 7.12368 270.451 2.78291 275.482 0H253.577C253.287 15.687 262.351 29.5337 270.508 43.2056C279.174 57.7241 287.439 74.6135 282.85 90.8763C276.838 112.112 227.053 87.2194 205.039 84.6227C198.823 83.8945 208.698 86.4855 202.771 84.6227C193.474 81.7043 192.443 108.471 183.397 104.543C177.764 102.093 172.126 99.6597 166.415 97.4978C164.049 96.6002 161.633 95.7591 159.188 94.9802C159.183 94.9802 159.183 94.9801 159.177 94.9745C142.762 89.77 124.81 87.7434 109.643 95.268C109.541 95.3188 109.433 95.3697 109.331 95.4204C92.128 104.114 82.911 122.911 75.6961 140.726C69.7348 155.453 70.6725 183.853 67.7344 199.388Z" fill="#F2F2F2"/>
<path d="M160.544 198.895C202.858 198.895 237.16 164.549 237.16 122.18C237.16 79.8111 202.858 45.4644 160.544 45.4644C118.23 45.4644 83.9277 79.8111 83.9277 122.18C83.9277 164.549 118.23 198.895 160.544 198.895Z" fill="white"/>
<path d="M160.324 199.388C84.5196 201.132 82.8574 165.071 82.8574 122.18C82.8574 79.289 117.707 44.3944 160.543 44.3944C203.378 44.3944 238.228 79.289 238.228 122.18C238.228 165.071 203.159 199.388 160.324 199.388ZM160.543 46.5348C118.885 46.5348 85.6965 80.4749 84.995 122.18C84.3425 160.97 125.498 209.376 160.543 197.826C179.336 177.101 232.47 154.779 236.09 122.18C240.693 80.7244 202.2 46.5348 160.543 46.5348Z" fill="#3F3D56"/>
<path d="M150.092 162.107C148.769 162.107 147.464 161.798 146.281 161.206C145.098 160.613 144.068 159.753 143.275 158.693L122.373 130.787C121.701 129.89 121.211 128.87 120.933 127.784C120.655 126.698 120.593 125.568 120.751 124.459C120.91 123.349 121.284 122.281 121.855 121.317C122.425 120.352 123.18 119.509 124.075 118.837C124.971 118.164 125.99 117.675 127.074 117.397C128.159 117.119 129.288 117.058 130.396 117.216C131.504 117.375 132.57 117.751 133.533 118.323C134.496 118.894 135.337 119.65 136.009 120.547L149.684 138.802L184.806 86.0517C186.06 84.1698 188.009 82.8637 190.225 82.4206C192.441 81.9774 194.742 82.4335 196.622 83.6885C198.502 84.9435 199.808 86.8948 200.251 89.1132C200.695 91.3317 200.241 93.6358 198.988 95.519L157.184 158.306C156.428 159.442 155.411 160.379 154.218 161.04C153.025 161.701 151.692 162.066 150.329 162.104C150.25 162.105 150.171 162.107 150.092 162.107Z" fill="#F2F2F2"/>
<path d="M2.4425e-06 199.448C-0.000213683 199.52 0.0139152 199.592 0.0415722 199.659C0.0692293 199.726 0.109871 199.787 0.161159 199.839C0.212447 199.89 0.273364 199.931 0.340415 199.958C0.407466 199.986 0.479329 200 0.551858 200H332.242C332.388 200 332.528 199.942 332.632 199.838C332.735 199.735 332.794 199.594 332.794 199.448C332.794 199.301 332.735 199.16 332.632 199.057C332.528 198.953 332.388 198.895 332.242 198.895H0.551858C0.47933 198.895 0.407472 198.909 0.340422 198.937C0.273372 198.964 0.212453 199.005 0.161166 199.056C0.109879 199.108 0.0692372 199.169 0.0415793 199.236C0.0139214 199.303 -0.000211221 199.375 2.4425e-06 199.448Z" fill="#CCCCCC"/>
<path d="M209.47 194.031H204.984L202.85 176.704L209.471 176.705L209.47 194.031Z" fill="#FFB6B6"/>
<path d="M209.628 198.717L195.832 198.717V198.542C195.832 197.116 196.398 195.749 197.405 194.74C198.412 193.732 199.778 193.166 201.202 193.165L203.722 191.251L208.424 193.166L209.628 193.166L209.628 198.717Z" fill="#2F2E41"/>
<path d="M189.965 172.557L185.821 174.278L177.221 159.092L183.337 156.552L189.965 172.557Z" fill="#FFB6B6"/>
<path d="M191.903 176.825L179.16 182.116L179.093 181.955C178.548 180.638 178.547 179.158 179.092 177.84C179.636 176.522 180.681 175.475 181.996 174.929L183.592 172.194L188.667 172.159L189.78 171.697L191.903 176.825Z" fill="#2F2E41"/>
<path d="M214.599 95.4674L182.762 98.798L178.503 113.161L163.754 136.893C163.754 136.893 174.045 154.237 173.079 154.048C172.113 153.859 174.044 158.587 175.397 158.313C176.75 158.038 178.157 161.121 177.221 161.669C176.286 162.217 180.039 166.851 180.039 166.851L185.773 161.697C186.993 152.484 185.52 144.284 180.269 137.506L196.699 119.744L199.815 118.45L202.288 184.358L211.436 184.508C213.96 171.507 215.228 159.805 213.255 151.458C213.255 151.458 213.538 126.381 214.62 126.655C215.702 126.929 214.785 123.662 214.785 123.662C214.785 123.662 213.837 120.88 215.002 119.726C216.166 118.572 215.439 111.783 215.439 111.783C217.362 105.358 216.783 100.054 214.599 95.4674Z" fill="#2F2E41"/>
<path d="M190.118 42.4654L198.92 40.1817L203.028 34.5078L212.785 35.7088L214.862 43.4481L221.808 47.4854C221.808 47.4854 217.969 88.1461 218.882 90.3787C219.796 92.6114 223.07 92.4271 220.274 95.3051C217.477 98.1832 217.107 97.0239 217.756 100.157C218.405 103.291 223.135 106.607 217.756 106.574C212.376 106.541 179.916 106.076 180.844 102.362C181.771 98.6475 181.757 99.5907 183.155 97.2618C184.553 94.9329 185.495 96.2344 185.024 92.7978C184.553 89.3612 185.017 87.0396 185.017 85.1824C185.017 83.3251 186.571 66.4479 186.571 66.4479L190.118 42.4654Z" fill="#E6E6E6"/>
<path d="M207.883 33.459C213.593 33.459 218.222 28.8238 218.222 23.1059C218.222 17.388 213.593 12.7528 207.883 12.7528C202.172 12.7528 197.543 17.388 197.543 23.1059C197.543 28.8238 202.172 33.459 207.883 33.459Z" fill="#FFB6B6"/>
<path d="M197.049 16.8402C197.957 17.5749 197.749 21.1476 198.761 20.5652C199.772 19.9829 199.983 18.9401 201.148 18.9291C202.097 18.9817 202.993 19.3876 203.659 20.0673C203.783 20.1795 203.901 20.2971 204.016 20.4134C204.121 20.3766 204.224 20.3433 204.333 20.316C205.15 20.1162 206.012 20.2378 206.742 20.6557C206.068 20.7039 205.426 20.9631 204.907 21.3967C205.129 21.6462 205.355 21.8971 205.592 22.129C207.573 24.0721 211.633 22.0028 214.363 21.5359C212.089 24.0218 212.537 25.4096 213.103 28.7323L213.105 28.9139C213.222 28.1476 215.673 28.1858 215.269 29.2025C214.761 30.207 214.126 31.1416 213.379 31.9831C216.719 29.6666 219.415 26.4734 220.011 22.6161C220.133 21.8051 220.372 20.9776 220.141 20.1869C220.043 19.7871 219.815 19.431 219.494 19.1744C219.172 18.9178 218.775 18.775 218.364 18.7684C218.736 17.5852 218.781 16.3231 218.494 15.1164C218.207 13.9097 217.598 12.8035 216.734 11.9153C215.869 11.0271 214.78 10.3902 213.582 10.0722C212.385 9.75426 211.124 9.76717 209.933 10.1096C208.847 10.4961 207.787 10.954 206.761 11.4802C205.726 12.0085 204.554 12.2073 203.402 12.0499C202.685 11.9015 201.959 11.5296 201.255 11.7402C200.441 11.9848 200.09 12.8464 199.764 13.6781C200.377 13.9023 200.909 14.3043 201.293 14.8329C200.659 14.5987 199.968 14.5706 199.317 14.7525C199.305 14.7546 199.294 14.7578 199.282 14.7621C198.544 16.0856 198.502 16.4102 197.049 16.8402Z" fill="#2F2E41"/>
<path d="M200.458 37.4083C195.162 36.9814 190.327 41.0369 188.122 45.8772C185.917 50.7175 185.773 56.2085 185.666 61.5274L185.333 78.061C185.284 80.5075 185.235 82.9546 185.113 85.3986C185.05 87.7768 184.752 90.1429 184.221 92.4619C183.141 96.7173 180.766 100.509 178.426 104.222C184.418 106.036 190.512 107.493 196.676 108.586C199.754 98.6169 202.868 88.361 202.111 77.9534C201.711 72.4461 200.231 67.0692 199.669 61.5761C198.873 53.7964 199.928 45.9594 200.982 38.2104" fill="#3F3D56"/>
<path d="M213.314 38.3383C218.56 39.1828 222.295 44.2721 223.289 49.4982C224.283 54.7242 223.121 60.0925 221.963 65.2847C220.764 70.6646 219.565 76.0445 218.365 81.4244C217.833 83.8127 217.3 86.2014 216.839 88.6045C216.391 90.939 218.268 93.9331 218.289 96.3102C218.329 100.701 217.478 104.317 218.871 108.48C212.62 108.817 206.354 108.783 200.107 108.38C199.482 97.9633 198.889 87.2604 202.093 77.3305C203.788 72.076 206.5 67.2046 208.349 62.0023C210.968 54.6345 211.801 46.7707 212.615 38.9928" fill="#3F3D56"/>
<path d="M216.811 113.395C216.421 112.716 216.312 111.91 216.506 111.151C216.7 110.392 217.183 109.738 217.851 109.33C217.988 109.249 218.132 109.18 218.28 109.123L217.611 86.3174L224.857 84.4706L222.094 111.04C222.283 111.675 222.257 112.354 222.02 112.973C221.782 113.592 221.347 114.114 220.782 114.459C220.459 114.652 220.1 114.78 219.728 114.834C219.355 114.889 218.975 114.869 218.61 114.777C218.245 114.684 217.902 114.521 217.6 114.295C217.298 114.07 217.043 113.787 216.85 113.464C216.837 113.441 216.824 113.418 216.811 113.395Z" fill="#FFB6B6"/>
<path d="M216.282 47.4489C216.282 47.4489 221.34 43.166 225.596 51.7296C229.852 60.2931 227.474 79.8567 226.875 80.9008C226.275 81.9449 225.91 80.4904 226.238 83.2736C226.505 85.5371 224.918 85.254 225.487 85.737C226.988 87.0107 222.785 87.1557 224.944 88.278C227.102 89.4003 217.442 89.6105 217.442 89.6105C217.442 89.6105 216.273 88.7749 217.085 85.624C217.541 83.8543 218.682 83.2069 217.465 82.388C216.247 81.5691 218.722 79.0374 218.724 78.4819C218.725 77.9264 214.865 65.7767 214.865 65.7767L216.282 47.4489Z" fill="#3F3D56"/>
<path d="M174.426 152.945C173.103 152.945 171.798 152.636 170.615 152.044C169.432 151.451 168.402 150.591 167.609 149.531L146.707 121.625C146.035 120.728 145.545 119.708 145.267 118.622C144.989 117.536 144.927 116.406 145.085 115.297C145.244 114.187 145.618 113.119 146.189 112.155C146.759 111.19 147.514 110.347 148.409 109.675C149.305 109.002 150.324 108.513 151.408 108.235C152.493 107.957 153.622 107.896 154.73 108.054C155.838 108.213 156.904 108.589 157.867 109.161C158.83 109.732 159.671 110.488 160.343 111.385L174.018 129.64L209.14 76.8897C209.761 75.9572 210.559 75.1563 211.489 74.5328C212.419 73.9092 213.462 73.4751 214.56 73.2553C215.657 73.0355 216.787 73.0344 217.885 73.2518C218.983 73.4693 220.027 73.9012 220.959 74.5228C221.89 75.1445 222.69 75.9437 223.312 76.8748C223.935 77.806 224.369 78.8508 224.588 79.9497C224.808 81.0486 224.809 82.18 224.592 83.2794C224.374 84.3788 223.943 85.4245 223.322 86.357L181.518 149.144C180.762 150.28 179.745 151.217 178.552 151.878C177.359 152.539 176.026 152.904 174.663 152.942C174.584 152.943 174.505 152.945 174.426 152.945Z" fill="#52B4AD"/>
<path d="M174.426 152.945C173.103 152.945 171.798 152.636 170.615 152.044C169.432 151.451 168.402 150.591 167.609 149.531L146.707 121.625C146.035 120.728 145.545 119.708 145.267 118.622C144.989 117.536 144.927 116.406 145.085 115.297C145.244 114.187 145.618 113.119 146.189 112.155C146.759 111.19 147.514 110.347 148.409 109.675C149.305 109.002 150.324 108.513 151.408 108.235C152.493 107.957 153.622 107.896 154.73 108.054C155.838 108.213 156.904 108.589 157.867 109.161C158.83 109.732 159.671 110.488 160.343 111.385L174.018 129.64L209.14 76.8897C209.761 75.9572 210.559 75.1563 211.489 74.5328C212.419 73.9092 213.462 73.4751 214.56 73.2553C215.657 73.0355 216.787 73.0344 217.885 73.2518C218.983 73.4693 220.027 73.9012 220.959 74.5228C221.89 75.1445 222.69 75.9437 223.312 76.8748C223.935 77.806 224.369 78.8508 224.588 79.9497C224.808 81.0486 224.809 82.18 224.592 83.2794C224.374 84.3788 223.943 85.4245 223.322 86.357L181.518 149.144C180.762 150.28 179.745 151.217 178.552 151.878C177.359 152.539 176.026 152.904 174.663 152.942C174.584 152.943 174.505 152.945 174.426 152.945Z" fill="black" fill-opacity="0.2"/>
<path d="M190.36 109.434C190.786 108.777 190.94 107.979 190.788 107.21C190.636 106.441 190.19 105.762 189.545 105.317C189.413 105.229 189.274 105.152 189.128 105.086L191.055 82.3531L183.922 80.1082L185.214 106.789C184.99 107.413 184.979 108.093 185.182 108.724C185.385 109.355 185.791 109.901 186.336 110.276C186.648 110.487 186.999 110.634 187.368 110.709C187.737 110.784 188.117 110.786 188.487 110.714C188.856 110.642 189.208 110.497 189.522 110.289C189.836 110.081 190.106 109.813 190.317 109.5C190.331 109.478 190.346 109.456 190.36 109.434Z" fill="#FFB6B6"/>
<path d="M194.535 43.6645C194.535 43.6645 189.721 39.1083 184.999 47.4232C180.276 55.7382 181.571 75.4034 182.112 76.4791C182.653 77.5548 183.098 76.1227 182.617 78.8835C182.225 81.1288 183.825 80.9339 183.23 81.3847C181.661 82.5734 185.85 82.9508 183.633 83.9519C181.415 84.953 191.05 85.6974 191.05 85.6974C191.05 85.6974 192.262 84.9278 191.626 81.7368C191.269 79.9446 190.165 79.2351 191.425 78.4847C192.686 77.7344 190.355 75.0697 190.384 74.5149C190.413 73.9602 194.938 62.0427 194.938 62.0427L194.535 43.6645Z" fill="#3F3D56"/>
</g>
<defs>
<clipPath id="clip0_2907_55207">
<rect width="332.794" height="200" fill="white"/>
</clipPath>
</defs>
</svg>
