<svg width="466" height="380" viewBox="0 0 466 380" fill="none" xmlns="http://www.w3.org/2000/svg">
<g clip-path="url(#clip0_1660_109525)">
<path d="M0 37.9745V341.103C0 362.057 19.0375 379.039 42.5284 379.039H423.472C446.962 379.039 466 362.057 466 341.103V37.9745C466 17.0203 446.962 0.0385742 423.472 0.0385742H42.5284C19.0375 0.0385742 0 17.0203 0 37.9745Z" fill="#F2F2F2"/>
<path d="M310.596 378.037L283.331 372.128L251.739 365.273C251.739 365.273 250.028 370.506 247.628 378.037H310.596Z" fill="#2F2E41"/>
<path d="M241.578 374.644C241.578 374.644 241.833 376.01 242.356 378.039H369.644C371.048 373.763 371.673 369.359 370.001 365.721C369.72 365.086 369.364 364.486 368.942 363.934C368.629 363.501 368.279 363.095 367.895 362.722C365.393 360.246 363.862 354.91 362.943 348.834C361.839 340.526 361.383 332.144 361.577 323.765C361.564 323.752 361.564 323.752 361.577 323.752C361.602 321.773 361.653 320.586 361.653 320.586C361.653 320.586 362.138 313.272 362.687 302.218C362.674 302.218 362.687 302.205 362.687 302.205C364.193 272.375 366.236 215.266 360.939 200.128C360.601 198.851 359.916 197.694 358.96 196.783C351.829 191.636 344.24 187.154 336.29 183.393C335.831 183.189 335.588 183.074 335.588 183.074L318.114 182.742L296.414 178.913L281.339 176.156C281.339 176.156 280.229 176.232 278.493 176.475C272.723 177.266 260.035 179.858 258.248 187.363C258.248 187.376 258.235 187.389 258.235 187.401C258.009 188.385 257.97 189.403 258.12 190.401C259.831 202.91 247.756 279.74 244.079 283.582C240.403 287.424 241.373 301.465 250.462 310.387C252.063 312.038 253.23 314.06 253.857 316.272C257.291 327.313 251.904 345.349 246.632 353.787C242.802 360.037 241.034 367.333 241.578 374.644Z" fill="#3F3D56"/>
<path d="M172.065 129.022L172.431 115.665L172.921 97.7533L187.201 97.0933L189.199 114.89L191.062 131.428L172.065 129.022Z" fill="#A0616A"/>
<path d="M318.33 185.581L298.297 207.08C298.297 207.08 213.416 220.79 212.848 213.591C212.28 206.393 217.871 204.308 208.706 204.948C199.541 205.587 197.338 212.099 195.941 205.871C194.545 199.644 202.229 199.491 193.332 198.608C184.434 197.725 165 120.039 165 120.039L196 125.039C196 125.039 202.025 162.6 205.804 167.401C209.582 172.201 213.373 175.645 215.704 175.853C218.035 176.061 318.33 185.581 318.33 185.581Z" fill="#3F3D56"/>
<path d="M306.842 157.788C290.589 157.788 277.413 144.612 277.413 128.359C277.413 112.105 290.589 98.9292 306.842 98.9292C323.095 98.9292 336.271 112.105 336.271 128.359C336.271 144.612 323.095 157.788 306.842 157.788Z" fill="#A0616A"/>
<path d="M329.776 153.704L318.109 155.938C318.109 155.938 328.959 138.425 328.32 130.409C327.682 122.393 318.951 119.521 318.951 119.521C318.951 119.521 314.114 120.567 309.021 121.155C308.411 119.437 307.619 117.79 306.659 116.24C306.47 118.24 305.585 120.111 304.157 121.525C302.291 121.685 300.411 121.468 298.63 120.887C296.613 119.968 296.652 118.372 297.316 116.878C287.602 117.351 278.399 122.074 278.399 122.074C278.105 118.155 278.255 114.215 278.845 110.33C279.126 110.254 279.407 110.164 279.688 110.075C281.427 109.525 283.104 108.793 284.691 107.892C282.925 107.658 281.275 106.882 279.969 105.671C281.041 102.531 282.751 99.8123 285.444 98.4848C288.043 97.214 290.884 96.5164 293.776 96.4394C296.667 96.3623 299.542 96.9075 302.204 98.0381C302.204 98.0381 295.962 93.4812 298.26 91.6175C298.413 91.7707 298.566 91.9111 298.732 92.0516C298.949 92.2302 299.192 92.4217 299.422 92.6004C300.838 93.7492 302.957 92.1281 303.238 90.3921C303.268 90.1729 303.311 89.9555 303.366 89.7412C303.404 89.5624 303.455 89.3837 303.506 89.2178C303.55 89.0705 303.601 88.9256 303.66 88.7838C307.91 87.7626 320.764 91.911 325.704 101.05C325.704 101.05 360.232 117.644 329.776 153.704Z" fill="#3F3D56"/>
<path d="M343.885 378.037H360.377L360.939 377.105L368.942 363.932L373.359 356.656L362.943 348.832L358.041 345.156L347.23 370.263L343.885 378.037Z" fill="#A0616A"/>
<path d="M336.285 183.392L295.132 278.474L278.488 176.473C280.224 176.231 281.334 176.154 281.334 176.154L288.418 162.394L328.997 164.5L335.583 183.073C335.583 183.073 335.826 183.187 336.285 183.392Z" fill="#C5DBF2"/>
<path d="M282.144 378.037H314.553L293.861 319.32L283.331 372.127L282.144 378.037Z" fill="#C5DBF2"/>
<path opacity="0.5" d="M85.0965 197.855H178.256C193.026 197.855 205 209.829 205 224.599V258.279C205 273.049 193.026 285.023 178.256 285.023H85.0965C70.3262 285.023 58.3524 273.049 58.3524 258.279V224.599C58.3524 209.829 70.3262 197.855 85.0965 197.855Z" fill="white"/>
<path d="M85.0967 286.023H178.256C185.611 286.015 192.663 283.089 197.865 277.888C203.066 272.686 205.992 265.634 206 258.279V224.599C205.992 217.244 203.066 210.192 197.865 204.99C192.663 199.789 185.611 196.863 178.256 196.855H85.0967C77.7411 196.863 70.6891 199.789 65.4879 204.99C60.2867 210.192 57.361 217.244 57.3525 224.599V258.279C57.361 265.634 60.2867 272.686 65.4879 277.888C70.6891 283.089 77.7411 286.015 85.0967 286.023ZM178.256 198.855C185.081 198.863 191.625 201.577 196.451 206.404C201.277 211.23 203.992 217.774 204 224.599V258.279C203.992 265.104 201.277 271.648 196.451 276.474C191.625 281.3 185.081 284.015 178.256 284.023H85.0967C78.2713 284.015 71.7277 281.3 66.9014 276.474C62.0751 271.648 59.3603 265.104 59.3525 258.279V224.599C59.3603 217.774 62.0751 211.23 66.9014 206.404C71.7277 201.578 78.2713 198.863 85.0967 198.855L178.256 198.855Z" fill="white"/>
<path d="M131.797 266.133C120 266.133 110.437 256.57 110.437 244.773C110.437 232.977 120 223.414 131.797 223.414C143.593 223.414 153.156 232.977 153.156 244.773C153.156 256.57 143.593 266.133 131.797 266.133Z" fill="#A0616A"/>
<path d="M127.112 266.011C129.735 260.163 115.526 248.032 124.63 247.417C124.63 247.417 130.615 236.924 134.415 239.737C138.815 242.994 145.226 237.079 148.993 233.121C148.191 232.474 147.472 231.731 146.851 230.909C148.049 231.129 149.261 231.256 150.478 231.289C150.929 230.621 151.245 229.871 151.407 229.081C151.584 228.333 151.527 227.55 151.246 226.835C150.964 226.12 150.47 225.509 149.831 225.083C148.451 224.314 146.687 224.784 145.212 224.232C145.028 224.142 144.868 224.009 144.747 223.844C144.625 223.679 144.546 223.487 144.515 223.284C144.404 222.807 144.19 222.36 143.887 221.976C143.584 221.591 143.2 221.278 142.762 221.059C142.324 220.84 141.844 220.72 141.354 220.708C140.865 220.696 140.379 220.792 139.931 220.989C139.76 221.086 139.568 221.14 139.371 221.145C138.343 221.08 137.326 220.892 136.342 220.586C137.446 220.07 138.509 219.47 139.522 218.792C139.731 218.651 139.939 218.509 140.143 218.36C139.226 217.614 138.158 217.076 137.014 216.782C135.869 216.487 134.675 216.444 133.512 216.653C131.073 217.128 128.722 217.977 126.543 219.169C125.251 219.799 123.963 220.427 122.677 221.053C119.9 222.275 117.261 223.788 114.803 225.566C112.239 227.581 110.151 230.138 108.689 233.054C107.228 235.969 106.428 239.172 106.348 242.432C106.23 248.937 111.795 266.763 127.112 266.011Z" fill="#2F2E41"/>
<path opacity="0.5" d="M258.744 282.87H351.903C366.674 282.87 378.647 294.844 378.647 309.614V343.294C378.647 358.065 366.674 370.039 351.903 370.039H258.744C243.974 370.039 232 358.065 232 343.294V309.614C232 294.844 243.974 282.87 258.744 282.87Z" fill="white"/>
<path d="M258.744 371.039H351.903C359.259 371.03 366.311 368.105 371.512 362.903C376.713 357.702 379.639 350.65 379.647 343.294V309.615C379.639 302.259 376.713 295.207 371.512 290.006C366.311 284.805 359.259 281.879 351.903 281.871H258.744C251.388 281.879 244.336 284.805 239.135 290.006C233.934 295.207 231.008 302.259 231 309.615V343.294C231.008 350.65 233.934 357.702 239.135 362.903C244.337 368.105 251.389 371.03 258.744 371.039ZM351.903 283.871C358.729 283.878 365.272 286.593 370.099 291.419C374.925 296.246 377.64 302.789 377.647 309.615V343.294C377.64 350.12 374.925 356.664 370.099 361.49C365.272 366.316 358.729 369.031 351.903 369.039H258.744C251.919 369.031 245.375 366.316 240.549 361.49C235.723 356.664 233.008 350.12 233 343.294V309.615C233.008 302.789 235.723 296.246 240.549 291.419C245.375 286.593 251.919 283.878 258.744 283.871H351.903Z" fill="white"/>
<path d="M303.893 354.252C291.907 354.252 282.191 344.536 282.191 332.55C282.191 320.564 291.907 310.847 303.893 310.847C315.879 310.847 325.596 320.564 325.596 332.55C325.596 344.536 315.879 354.252 303.893 354.252Z" fill="#FFB6B6"/>
<path d="M318.031 338.129C318.301 338.038 318.587 338.006 318.87 338.036C319.154 338.065 319.427 338.155 319.673 338.299C319.918 338.443 320.13 338.638 320.294 338.871C320.458 339.105 320.569 339.37 320.622 339.65C320.693 340.225 320.647 340.808 320.485 341.364C320.323 341.92 320.049 342.437 319.681 342.884C318.94 343.771 318.276 344.72 317.696 345.721C317.413 346.226 317.28 346.803 317.313 347.381C317.347 347.96 317.545 348.517 317.884 348.987C318.254 349.347 318.718 349.595 319.223 349.701C319.728 349.808 320.253 349.769 320.736 349.589C321.699 349.213 322.551 348.598 323.21 347.802C327.359 343.3 331.687 335.827 329.566 330.084C329.39 329.471 329.32 328.831 329.359 328.194C329.319 327.463 329.183 326.362 329.872 326.114C331.792 325.421 326.403 314.194 318.085 311.751C318.491 307.918 298.48 302.404 299.572 307.217C299.768 308.081 297.836 307.611 296.951 307.659C290.162 308.027 282.494 309.733 283.112 317.602C283.352 320.649 282.091 319.946 281.079 322.83C282.656 323.77 283.173 325.831 284.388 324.456C285.604 323.081 286.642 321.358 288.384 320.78C290.239 320.165 292.252 321.085 293.834 322.232C295.416 323.38 296.868 324.805 298.728 325.406C300.814 326.08 303.088 325.611 305.263 325.884C308.366 326.417 311.168 328.063 313.144 330.514C315.091 332.951 316.735 335.615 318.039 338.449" fill="#2F2E41"/>
<path d="M330.235 196.546L359.594 197.823C359.594 197.823 402.993 271.857 397.887 276.963C392.781 282.069 387.565 279.17 394.003 285.725C400.44 292.28 406.822 289.727 402.993 294.833C399.164 299.939 394.058 294.193 399.164 301.534C404.269 308.874 362.785 378.038 362.785 378.038L344.914 369.103C344.914 369.103 362.304 323.407 363.502 317.417C364.699 311.427 364.857 306.307 363.502 304.399C362.146 302.492 330.235 196.546 330.235 196.546Z" fill="#3F3D56"/>
<path d="M179.883 219.812C176.081 219.812 173 216.731 173 212.929C173 209.128 176.081 206.046 179.883 206.046C183.684 206.046 186.766 209.128 186.766 212.929C186.766 216.731 183.684 219.812 179.883 219.812Z" fill="#C5DBF2"/>
<path d="M180.822 216.516C180.941 216.516 181.058 216.488 181.165 216.435C181.271 216.382 181.363 216.305 181.435 216.209L183.313 213.706C183.374 213.625 183.418 213.534 183.444 213.436C183.469 213.338 183.475 213.237 183.461 213.137C183.447 213.037 183.414 212.94 183.363 212.853C183.311 212.766 183.243 212.69 183.162 212.63C183.082 212.569 182.99 212.525 182.892 212.5C182.794 212.475 182.692 212.47 182.592 212.485C182.492 212.499 182.396 212.534 182.31 212.585C182.223 212.637 182.148 212.706 182.088 212.787L180.859 214.425L177.704 209.692C177.591 209.523 177.416 209.406 177.217 209.366C177.018 209.326 176.811 209.367 176.642 209.48C176.473 209.592 176.356 209.767 176.316 209.967C176.276 210.166 176.317 210.372 176.43 210.541L180.185 216.175C180.253 216.277 180.344 216.361 180.452 216.42C180.559 216.479 180.679 216.512 180.801 216.516L180.822 216.516Z" fill="white"/>
<path d="M347.883 305.812C344.081 305.812 341 302.731 341 298.929C341 295.128 344.081 292.046 347.883 292.046C351.684 292.046 354.766 295.128 354.766 298.929C354.766 302.731 351.684 305.812 347.883 305.812Z" fill="#C5DBF2"/>
<path d="M348.822 302.516C348.941 302.516 349.058 302.488 349.165 302.435C349.271 302.382 349.363 302.305 349.435 302.21L351.313 299.706C351.374 299.625 351.418 299.534 351.444 299.436C351.469 299.338 351.475 299.237 351.461 299.137C351.447 299.037 351.414 298.94 351.363 298.853C351.311 298.766 351.243 298.69 351.162 298.63C351.082 298.569 350.99 298.525 350.892 298.5C350.794 298.475 350.692 298.47 350.592 298.485C350.492 298.499 350.396 298.534 350.31 298.585C350.223 298.637 350.148 298.706 350.088 298.787L348.859 300.425L345.704 295.692C345.648 295.608 345.576 295.537 345.493 295.481C345.409 295.425 345.315 295.386 345.217 295.366C345.118 295.346 345.017 295.346 344.918 295.366C344.819 295.385 344.726 295.424 344.642 295.48C344.558 295.535 344.486 295.607 344.431 295.691C344.375 295.774 344.336 295.868 344.316 295.967C344.296 296.065 344.296 296.167 344.316 296.265C344.335 296.364 344.374 296.458 344.43 296.541L348.185 302.175C348.253 302.277 348.345 302.361 348.452 302.42C348.559 302.479 348.679 302.512 348.801 302.516L348.822 302.516Z" fill="white"/>
<path d="M80.8831 223.489C82.2271 223.489 83.541 223.091 84.6585 222.344C85.7761 221.597 86.6471 220.536 87.1614 219.294C87.6758 218.052 87.8103 216.686 87.5481 215.368C87.2859 214.05 86.6387 212.839 85.6883 211.888C84.7379 210.938 83.5271 210.291 82.2088 210.029C80.8906 209.766 79.5242 209.901 78.2825 210.415C77.0408 210.93 75.9795 211.801 75.2328 212.918C74.4861 214.036 74.0875 215.35 74.0875 216.694C74.0875 218.496 74.8034 220.224 76.0779 221.499C77.3523 222.773 79.0808 223.489 80.8831 223.489Z" fill="#E6E6E6"/>
<path d="M78.5129 218.116L79.9349 216.694L78.5129 215.272C78.45 215.21 78.4 215.136 78.3658 215.054C78.3316 214.973 78.3139 214.885 78.3136 214.797C78.3133 214.709 78.3306 214.621 78.3643 214.539C78.3979 214.458 78.4475 214.383 78.5099 214.321C78.5724 214.258 78.6467 214.209 78.7284 214.175C78.8101 214.141 78.8976 214.124 78.986 214.125C79.0744 214.125 79.1618 214.143 79.2433 214.177C79.3248 214.211 79.3988 214.261 79.4609 214.324L80.8829 215.746L82.3049 214.324C82.4307 214.199 82.601 214.129 82.7785 214.129C82.956 214.129 83.126 214.2 83.2515 214.325C83.377 214.451 83.4476 214.621 83.4479 214.798C83.4481 214.976 83.378 215.146 83.2529 215.272L81.8309 216.694L83.2529 218.116C83.3157 218.178 83.3657 218.252 83.3999 218.333C83.4341 218.415 83.4519 218.502 83.4521 218.591C83.4524 218.679 83.4352 218.767 83.4015 218.848C83.3679 218.93 83.3183 219.004 83.2558 219.067C83.1933 219.129 83.1191 219.179 83.0374 219.212C82.9556 219.246 82.8681 219.263 82.7797 219.263C82.6913 219.263 82.6039 219.245 82.5224 219.211C82.4409 219.177 82.367 219.127 82.3049 219.064L80.8829 217.642L79.4609 219.064C79.3987 219.126 79.3248 219.176 79.2434 219.21C79.162 219.244 79.0746 219.261 78.9864 219.262C78.8983 219.262 78.8109 219.244 78.7294 219.211C78.6479 219.177 78.5739 219.128 78.5115 219.065C78.4492 219.003 78.3997 218.929 78.366 218.847C78.3323 218.766 78.3151 218.678 78.3152 218.59C78.3153 218.502 78.3328 218.415 78.3668 218.333C78.4007 218.252 78.4503 218.178 78.5129 218.116Z" fill="white"/>
<path d="M256.883 305.489C258.227 305.489 259.541 305.091 260.659 304.344C261.776 303.597 262.647 302.536 263.161 301.294C263.676 300.052 263.81 298.686 263.548 297.368C263.286 296.05 262.639 294.839 261.688 293.888C260.738 292.938 259.527 292.291 258.209 292.029C256.891 291.766 255.524 291.901 254.283 292.415C253.041 292.93 251.979 293.801 251.233 294.918C250.486 296.036 250.087 297.35 250.088 298.694C250.088 300.496 250.803 302.224 252.078 303.499C253.352 304.773 255.081 305.489 256.883 305.489Z" fill="#E6E6E6"/>
<path d="M254.513 300.115L255.935 298.693L254.513 297.271C254.388 297.145 254.319 296.975 254.319 296.798C254.32 296.621 254.391 296.452 254.516 296.326C254.641 296.201 254.811 296.13 254.988 296.13C255.165 296.129 255.335 296.199 255.461 296.323L256.883 297.745L258.305 296.323C258.431 296.198 258.601 296.128 258.779 296.128C258.956 296.129 259.126 296.199 259.252 296.325C259.377 296.45 259.448 296.62 259.448 296.798C259.448 296.975 259.378 297.146 259.253 297.271L257.831 298.693L259.253 300.115C259.316 300.177 259.366 300.251 259.4 300.333C259.434 300.414 259.452 300.502 259.452 300.59C259.452 300.679 259.435 300.766 259.402 300.848C259.368 300.93 259.318 301.004 259.256 301.066C259.193 301.129 259.119 301.178 259.037 301.212C258.956 301.246 258.868 301.263 258.78 301.263C258.691 301.262 258.604 301.245 258.522 301.21C258.441 301.176 258.367 301.126 258.305 301.063L256.883 299.641L255.461 301.063C255.335 301.188 255.165 301.259 254.987 301.258C254.81 301.258 254.64 301.187 254.514 301.062C254.389 300.937 254.318 300.766 254.318 300.589C254.318 300.412 254.388 300.241 254.513 300.115Z" fill="white"/>
<path d="M180 103.039C173.373 103.039 168 97.666 168 91.0386C168 84.4112 173.373 79.0386 180 79.0386C186.627 79.0386 192 84.4112 192 91.0386C192 97.666 186.627 103.039 180 103.039Z" fill="#A0616A"/>
<path opacity="0.5" d="M85.4207 87.8354H178.58C193.35 87.8354 205.324 99.8092 205.324 114.58V148.259C205.324 163.03 193.35 175.004 178.58 175.004H85.4207C70.6504 175.004 58.6766 163.03 58.6766 148.259V114.58C58.6766 99.8092 70.6504 87.8354 85.4207 87.8354Z" fill="white"/>
<path d="M85.4199 176.004H178.58C185.936 175.996 192.988 173.07 198.189 167.869C203.39 162.667 206.316 155.615 206.324 148.26V114.58C206.316 107.224 203.39 100.172 198.189 94.9707C192.988 89.7695 185.936 86.8438 178.58 86.8354H85.4199C78.0643 86.8438 71.0123 89.7695 65.811 94.9707C60.6098 100.172 57.6841 107.224 57.6758 114.58V148.26C57.6841 155.615 60.6098 162.667 65.811 167.869C71.0123 173.07 78.0643 175.996 85.4199 176.004ZM178.58 88.8354C185.405 88.8432 191.949 91.558 196.775 96.3843C201.602 101.211 204.316 107.754 204.324 114.58V148.26C204.316 155.085 201.602 161.629 196.775 166.455C191.949 171.281 185.405 173.996 178.58 174.004H85.4199C78.5945 173.996 72.0509 171.281 67.2246 166.455C62.3983 161.629 59.6835 155.085 59.6758 148.26V114.58C59.6835 107.754 62.3983 101.211 67.2246 96.3843C72.0509 91.558 78.5945 88.8432 85.4199 88.8354H178.58Z" fill="white"/>
<path d="M104.167 133.923C104.105 139.52 102.324 151.173 103.601 156.656L103.807 156.197C104.869 157.038 105.996 157.793 107.179 158.453C108.032 156.377 109.308 154.502 110.926 152.947C110.713 155.52 111.017 158.11 111.821 160.563C116.6 162.283 124.988 156.862 130.187 156.748C138.552 156.556 146.703 154.476 154.694 152.274C157.53 151.494 160.65 150.477 161.934 148.122C163.219 145.767 160.92 143.225 161.071 140.568C162.142 121.639 153.126 118.466 144.547 113.408C142.659 112.295 141.733 109.898 139.6 108.966C136.64 107.673 133.116 108.293 129.896 108.943C130.696 108.679 131.414 108.215 131.982 107.593C132.55 106.972 132.948 106.215 133.138 105.395C133.273 104.591 133.182 103.766 132.877 103.01C132.573 102.255 132.065 101.598 131.41 101.113C130.434 100.474 129.33 100.057 128.175 99.8923C127.02 99.7271 125.843 99.8175 124.727 100.157C122.541 100.841 120.473 101.857 118.595 103.17C117.32 103.869 116.181 104.791 115.231 105.892C114.783 106.413 114.505 107.058 114.434 107.741C114.363 108.424 114.502 109.113 114.833 109.715C115.241 110.231 115.761 110.648 116.352 110.935C116.944 111.223 117.593 111.373 118.251 111.374C119.265 111.404 120.278 111.298 121.264 111.061C116.745 112.175 112.672 114.64 109.588 118.126C105.757 122.584 104.235 128.326 104.167 133.923Z" fill="#2F2E41"/>
<path d="M134.173 152.149C123.935 152.149 115.635 143.85 115.635 133.612C115.635 123.373 123.935 115.074 134.173 115.074C144.411 115.074 152.711 123.373 152.711 133.612C152.711 143.85 144.411 152.149 134.173 152.149Z" fill="#FFB6B6"/>
<path d="M113.946 130.812C116.125 133.45 119.367 133.312 122.25 132.892C123.16 132.762 124.07 132.616 124.979 132.448C125.14 131.936 125.324 131.424 125.53 130.927C126.383 128.851 127.659 126.976 129.277 125.421C129.106 127.454 129.264 129.502 129.743 131.485C131.433 131.095 133.115 130.659 134.79 130.177C136.271 129.936 137.604 129.135 138.512 127.94C139.42 126.745 139.834 125.246 139.668 123.754C142.077 125.589 144.699 127.18 147.452 127.21C149.004 127.17 150.502 126.634 151.726 125.68C152.951 124.727 153.838 123.406 154.257 121.912C154.896 119.491 155.008 116.962 154.586 114.495C154.219 111.551 153.393 108.316 151.405 107.131C149.807 106.168 147.964 106.856 146.32 107.636C142.699 109.374 139.265 111.48 136.074 113.921L136.036 114.724C135.21 110.771 132.481 107.72 129.506 107.414C127.503 107.215 125.545 108.141 123.657 109.073C121.188 110.162 118.893 111.608 116.844 113.363C114.529 115.469 112.921 118.238 112.241 121.292C111.53 124.603 112.065 128.533 113.946 130.812Z" fill="#2F2E41"/>
<path d="M132.296 105.086C132.106 105.102 132.573 104.995 132.422 105.059C132.496 105.025 132.567 104.985 132.635 104.939C132.647 104.932 132.798 104.81 132.699 104.895C132.926 104.718 133.097 104.48 133.191 104.208C133.402 103.549 133.5 102.858 133.481 102.166C133.443 101.256 133.598 100.349 133.936 99.5029C134.036 99.2739 134.189 99.0718 134.382 98.9129C134.575 98.754 134.803 98.6428 135.046 98.5884C135.29 98.534 135.544 98.5379 135.786 98.5998C136.028 98.6616 136.252 98.7797 136.44 98.9445C136.969 99.6565 137.224 100.535 137.16 101.419C137.207 102.275 137.117 103.133 136.891 103.96C136.503 105.32 135.728 106.537 134.66 107.464C133.427 108.544 131.878 109.198 130.244 109.329C130.019 109.324 129.801 109.253 129.616 109.126C129.431 109 129.286 108.821 129.2 108.614C129.114 108.406 129.09 108.178 129.132 107.958C129.173 107.737 129.278 107.533 129.433 107.371L131.485 105.422C131.701 105.209 131.992 105.09 132.295 105.091C132.598 105.092 132.888 105.213 133.102 105.427C133.316 105.641 133.437 105.932 133.438 106.235C133.439 106.538 133.32 106.829 133.107 107.044L131.055 108.993L130.244 107.035C130.583 107.004 130.917 106.936 131.241 106.831C131.591 106.733 131.926 106.587 132.236 106.395C132.539 106.229 132.823 106.03 133.084 105.802C133.25 105.656 133.409 105.501 133.56 105.339C133.615 105.28 133.668 105.22 133.721 105.159C133.717 105.163 133.937 104.887 133.842 105.013C134.079 104.689 134.286 104.343 134.459 103.98C134.52 103.852 134.57 103.718 134.61 103.581C134.682 103.357 134.741 103.128 134.787 102.896C134.875 102.409 134.901 101.913 134.866 101.419C134.856 101.21 134.835 101.001 134.803 100.794C134.774 100.684 134.753 100.573 134.739 100.461C134.735 100.183 134.777 100.61 134.923 100.675L135.501 100.831C135.596 100.824 135.687 100.795 135.769 100.747C135.85 100.699 135.92 100.634 135.973 100.555C135.997 100.459 135.99 100.476 135.953 100.606C135.909 100.758 135.875 100.913 135.852 101.07C135.807 101.434 135.782 101.799 135.775 102.166C135.767 102.942 135.677 103.715 135.506 104.472C135.345 105.233 134.948 105.924 134.372 106.446C133.796 106.968 133.069 107.295 132.296 107.38C131.993 107.378 131.703 107.256 131.488 107.041C131.273 106.827 131.152 106.537 131.149 106.233C131.155 105.931 131.278 105.643 131.492 105.429C131.706 105.215 131.994 105.092 132.296 105.086Z" fill="#2F2E41"/>
<path d="M177.883 109.812C174.081 109.812 171 106.731 171 102.929C171 99.128 174.081 96.0464 177.883 96.0464C181.684 96.0464 184.766 99.128 184.766 102.929C184.766 106.731 181.684 109.812 177.883 109.812Z" fill="#C5DBF2"/>
<path d="M178.822 106.516C178.941 106.516 179.058 106.488 179.165 106.435C179.271 106.382 179.363 106.305 179.435 106.209L181.313 103.706C181.374 103.625 181.418 103.534 181.444 103.436C181.469 103.338 181.475 103.237 181.461 103.137C181.447 103.037 181.414 102.94 181.363 102.853C181.311 102.766 181.243 102.69 181.162 102.63C181.082 102.569 180.99 102.525 180.892 102.5C180.794 102.475 180.692 102.47 180.592 102.485C180.492 102.499 180.396 102.534 180.31 102.585C180.223 102.637 180.148 102.706 180.088 102.787L178.859 104.425L175.704 99.692C175.591 99.5231 175.416 99.4058 175.217 99.3659C175.018 99.3261 174.811 99.367 174.642 99.4797C174.473 99.5923 174.356 99.7674 174.316 99.9666C174.276 100.166 174.317 100.372 174.43 100.541L178.185 106.175C178.253 106.277 178.344 106.361 178.452 106.42C178.559 106.479 178.679 106.512 178.801 106.516L178.822 106.516Z" fill="white"/>
<path d="M83.8831 110.489C85.2271 110.489 86.541 110.091 87.6585 109.344C88.7761 108.597 89.6471 107.536 90.1614 106.294C90.6758 105.052 90.8103 103.686 90.5481 102.368C90.2859 101.05 89.6387 99.8387 88.6883 98.8883C87.7379 97.938 86.5271 97.2907 85.2088 97.0285C83.8906 96.7663 82.5242 96.9009 81.2825 97.4152C80.0408 97.9296 78.9795 98.8006 78.2328 99.9181C77.4861 101.036 77.0875 102.35 77.0875 103.694C77.0875 105.496 77.8034 107.224 79.0779 108.499C80.3523 109.773 82.0808 110.489 83.8831 110.489Z" fill="#E6E6E6"/>
<path d="M81.5129 105.116L82.9349 103.694L81.5129 102.272C81.45 102.21 81.4 102.136 81.3658 102.054C81.3316 101.973 81.3139 101.885 81.3136 101.797C81.3133 101.709 81.3306 101.621 81.3643 101.539C81.3979 101.458 81.4475 101.383 81.5099 101.321C81.5724 101.258 81.6467 101.209 81.7284 101.175C81.8101 101.141 81.8976 101.124 81.986 101.125C82.0744 101.125 82.1618 101.143 82.2433 101.177C82.3248 101.211 82.3988 101.261 82.4609 101.324L83.8829 102.746L85.3049 101.324C85.4307 101.199 85.601 101.129 85.7785 101.129C85.956 101.129 86.126 101.2 86.2515 101.325C86.377 101.451 86.4476 101.621 86.4479 101.798C86.4481 101.976 86.378 102.146 86.2529 102.272L84.8309 103.694L86.2529 105.116C86.3157 105.178 86.3657 105.252 86.3999 105.333C86.4341 105.415 86.4519 105.502 86.4521 105.591C86.4524 105.679 86.4352 105.767 86.4015 105.848C86.3679 105.93 86.3183 106.004 86.2558 106.067C86.1933 106.129 86.1191 106.179 86.0374 106.212C85.9556 106.246 85.8681 106.263 85.7797 106.263C85.6913 106.263 85.6039 106.245 85.5224 106.211C85.4409 106.177 85.367 106.127 85.3049 106.064L83.8829 104.642L82.4609 106.064C82.3987 106.126 82.3248 106.176 82.2434 106.21C82.162 106.244 82.0746 106.261 81.9864 106.262C81.8983 106.262 81.8109 106.244 81.7294 106.211C81.6479 106.177 81.5739 106.128 81.5115 106.065C81.4492 106.003 81.3997 105.929 81.366 105.847C81.3323 105.766 81.3151 105.678 81.3152 105.59C81.3153 105.502 81.3328 105.415 81.3668 105.333C81.4007 105.252 81.4503 105.178 81.5129 105.116Z" fill="white"/>
<path d="M37.6348 46.0386H439.365C439.63 46.0386 439.885 45.9332 440.072 45.7457C440.26 45.5581 440.365 45.3038 440.365 45.0386C440.365 44.7734 440.26 44.519 440.072 44.3315C439.885 44.1439 439.63 44.0386 439.365 44.0386H37.6348C37.3695 44.0386 37.1152 44.1439 36.9277 44.3315C36.7401 44.519 36.6348 44.7734 36.6348 45.0386C36.6348 45.3038 36.7401 45.5581 36.9277 45.7457C37.1152 45.9332 37.3695 46.0386 37.6348 46.0386Z" fill="white"/>
<path d="M394.345 30.0381C390.077 30.0381 386.617 26.5011 386.617 22.138C386.617 17.7748 390.077 14.2378 394.345 14.2378C398.613 14.2378 402.073 17.7748 402.073 22.138C402.073 26.5011 398.613 30.0381 394.345 30.0381Z" fill="white"/>
<path d="M367.649 30.0381C363.381 30.0381 359.921 26.5011 359.921 22.138C359.921 17.7748 363.381 14.2378 367.649 14.2378C371.917 14.2378 375.377 17.7748 375.377 22.138C375.377 26.5011 371.917 30.0381 367.649 30.0381Z" fill="white"/>
<path d="M340.952 30.0381C336.684 30.0381 333.225 26.5011 333.225 22.138C333.225 17.7748 336.684 14.2378 340.952 14.2378C345.221 14.2378 348.68 17.7748 348.68 22.138C348.68 26.5011 345.221 30.0381 340.952 30.0381Z" fill="white"/>
<path d="M310.511 28.3821C310.633 28.3822 310.754 28.358 310.866 28.3108C310.978 28.2636 311.08 28.1943 311.165 28.1072L316.379 22.7768C316.546 22.6061 316.64 22.3767 316.64 22.1378C316.64 21.899 316.546 21.6696 316.379 21.4989L311.165 16.1689C311.081 16.0831 310.981 16.0147 310.87 15.9675C310.76 15.9204 310.641 15.8954 310.521 15.8941C310.401 15.8928 310.282 15.9151 310.171 15.9598C310.06 16.0045 309.958 16.0707 309.872 16.1546C309.787 16.2385 309.718 16.3385 309.671 16.4488C309.624 16.5592 309.599 16.6778 309.598 16.7978C309.596 16.9177 309.619 17.0368 309.663 17.1482C309.708 17.2596 309.774 17.361 309.858 17.4468L314.447 22.1378L309.858 26.8292C309.732 26.9578 309.647 27.1207 309.614 27.2974C309.58 27.4741 309.599 27.6568 309.669 27.8226C309.739 27.9884 309.856 28.1299 310.006 28.2294C310.156 28.3289 310.331 28.3821 310.511 28.3821Z" fill="white"/>
<path d="M301.749 28.382C301.929 28.382 302.105 28.3289 302.255 28.2294C302.405 28.1299 302.522 27.9884 302.592 27.8226C302.661 27.6568 302.681 27.4741 302.647 27.2974C302.613 27.1207 302.528 26.9578 302.403 26.8292L297.814 22.1378L302.403 17.4468C302.572 17.2736 302.666 17.0401 302.663 16.7978C302.66 16.5554 302.562 16.3241 302.388 16.1546C302.215 15.9851 301.982 15.8914 301.739 15.8941C301.497 15.8968 301.266 15.9956 301.096 16.1689L295.882 21.4989C295.715 21.6696 295.621 21.899 295.621 22.1378C295.621 22.3767 295.715 22.6061 295.882 22.7768L301.096 28.1072C301.181 28.1943 301.283 28.2636 301.395 28.3108C301.507 28.358 301.628 28.3822 301.749 28.382Z" fill="white"/>
<path d="M99.3264 15.1519H109.022C109.285 15.1518 109.545 15.2035 109.788 15.304C110.031 15.4046 110.252 15.552 110.437 15.7379C110.623 15.9237 110.771 16.1444 110.871 16.3872C110.972 16.6301 111.024 16.8903 111.023 17.1532V26.8581C111.024 27.1209 110.972 27.3812 110.871 27.624C110.771 27.8669 110.623 28.0875 110.437 28.2734C110.252 28.4592 110.031 28.6066 109.788 28.7072C109.545 28.8077 109.285 28.8595 109.022 28.8594H99.3264C98.7946 28.8599 98.2844 28.6495 97.9075 28.2743C97.5306 27.8992 97.3178 27.3898 97.3159 26.8581V17.1532C97.3178 16.6214 97.5306 16.1121 97.9075 15.7369C98.2844 15.3617 98.7946 15.1513 99.3264 15.1519Z" fill="white"/>
<path d="M123.085 15.1519H132.781C133.044 15.1518 133.304 15.2035 133.547 15.304C133.79 15.4046 134.01 15.552 134.196 15.7379C134.382 15.9237 134.53 16.1444 134.63 16.3872C134.731 16.6301 134.782 16.8903 134.782 17.1532V26.8581C134.782 27.1209 134.731 27.3812 134.63 27.624C134.53 27.8669 134.382 28.0875 134.196 28.2734C134.01 28.4592 133.79 28.6066 133.547 28.7072C133.304 28.8077 133.044 28.8595 132.781 28.8594H123.085C122.553 28.8599 122.043 28.6495 121.666 28.2743C121.289 27.8992 121.077 27.3898 121.075 26.8581V17.1532C121.077 16.6214 121.289 16.1121 121.666 15.7369C122.043 15.3617 122.553 15.1513 123.085 15.1519Z" fill="white"/>
<path d="M76.9367 15.6089H86.6324C86.8953 15.6088 87.1556 15.6605 87.3984 15.7611C87.6413 15.8616 87.8619 16.009 88.0478 16.1949C88.2336 16.3807 88.381 16.6014 88.4816 16.8442C88.5821 17.0871 88.6339 17.3474 88.6338 17.6102V27.3151C88.6339 27.578 88.5821 27.8382 88.4816 28.0811C88.381 28.3239 88.2336 28.5446 88.0478 28.7304C87.8619 28.9163 87.6413 29.0637 87.3984 29.1642C87.1556 29.2648 86.8953 29.3165 86.6324 29.3164H76.9367C76.4049 29.3169 75.8946 29.1066 75.5178 28.7314C75.1409 28.3562 74.9282 27.8469 74.9263 27.3151V17.6102C74.9282 17.0784 75.1409 16.5691 75.5178 16.1939C75.8946 15.8188 76.4049 15.6084 76.9367 15.6089Z" fill="white"/>
<path d="M182.87 19.3042H260.372C260.694 19.3022 261.013 19.3638 261.311 19.4855C261.609 19.6072 261.88 19.7866 262.108 20.0133C262.336 20.2401 262.517 20.5098 262.641 20.8068C262.765 21.1039 262.828 21.4225 262.828 21.7442C262.828 22.0659 262.765 22.3845 262.641 22.6815C262.517 22.9786 262.336 23.2483 262.108 23.4751C261.88 23.7018 261.609 23.8812 261.311 24.0029C261.013 24.1246 260.694 24.1862 260.372 24.1841H182.87C182.226 24.18 181.609 23.9211 181.155 23.464C180.701 23.0069 180.446 22.3886 180.446 21.7442C180.446 21.0998 180.701 20.4815 181.155 20.0244C181.609 19.5672 182.226 19.3084 182.87 19.3042Z" fill="white"/>
</g>
<defs>
<clipPath id="clip0_1660_109525">
<rect width="466" height="379" fill="white" transform="matrix(-1 0 0 1 466 0.0385742)"/>
</clipPath>
</defs>
</svg>
