<svg width="370" height="386" viewBox="0 0 370 386" fill="none" xmlns="http://www.w3.org/2000/svg">
<g clip-path="url(#clip0_3542_158639)">
<path d="M328.722 293.757L328.715 293.931L337.401 386H274.013L265.797 329.454L262.181 384.55L197.086 383.825L204 311.489L209.881 277.96V277.953L210.763 272.907H326.993L327.145 274.734L328.722 293.757Z" fill="#2F2E41"/>
<path d="M161.206 347.13C167.919 348.356 174.919 340.778 176.841 330.204C177.683 325.575 177.411 321.14 176.277 317.513L177.307 311.417L194.581 229.419C194.581 229.419 226.391 165.641 226.39 154.568C226.389 143.496 217.188 138.066 217.188 138.066L204.737 138.183L165.693 233.766L158.661 304.398L157.524 314.088C155.186 317.082 153.372 321.136 152.531 325.764C150.609 336.338 154.493 345.904 161.206 347.13Z" fill="#FFB6B6"/>
<path d="M287.855 98.5567L276.282 71.7334L238.672 78.258L236.141 109.816L287.855 98.5567Z" fill="#FFB6B6"/>
<path opacity="0.1" d="M287.855 98.5567L276.282 71.7334L238.672 78.258L236.141 109.816L287.855 98.5567Z" fill="black"/>
<path d="M369.588 154.378C369.588 154.378 342.827 104.356 337.764 99.2812C335.51 97.0221 331.967 96.9906 328.728 97.6491L291.475 84.7821L278.848 77.6709L278.016 91.2L236.561 98.6579C236.791 90.4073 237.952 87.2691 237.952 87.2691L222.764 105.081L193.109 119.58L193.126 119.71C190.949 120.472 188.886 121.775 187.323 123.93C181.537 131.904 165.625 229.048 165.625 229.048L199.619 236.297L204.245 207.198L207.575 233.397L210.106 282.332C210.106 282.332 256.396 322.204 278.817 307.705C301.239 293.206 328.723 293.931 328.723 293.931L329.409 271.249C329.897 270.467 330.17 270.008 330.17 270.008L329.447 189.549V168.14C334.957 175.834 341.606 182.451 349.337 185.551C374.651 195.7 369.588 154.378 369.588 154.378Z" fill="#E6E6E6"/>
<path d="M253.55 82.9765C272.659 82.9765 288.15 67.4495 288.15 48.2959C288.15 29.1423 272.659 13.6152 253.55 13.6152C234.44 13.6152 218.949 29.1423 218.949 48.2959C218.949 67.4495 234.44 82.9765 253.55 82.9765Z" fill="#FFB6B6"/>
<path d="M278.369 58.0974C278.369 58.0974 281.377 47.5424 288.147 48.2963C294.917 49.0502 296.421 43.0188 294.917 40.0031C293.412 36.9874 290.404 21.9089 290.404 21.9089C290.404 21.9089 291.908 11.3539 282.882 9.84602C273.856 8.33817 270.847 6.83031 269.342 3.8146C267.838 0.798894 245.273 -2.21682 237.751 2.30675C230.229 6.83031 224.212 15.5094 218.946 17.9552C213.681 20.401 209.168 24.9246 212.177 32.4638C215.185 40.0031 219.549 54.7483 219.549 54.7483C219.549 54.7483 227.22 52.0659 228.725 56.5895C230.229 61.1131 224.212 55.0816 231.733 43.0188C239.255 30.956 239.255 18.8931 251.29 23.4167C263.325 27.9403 276.864 26.4324 275.36 35.4795C273.856 44.5267 278.369 58.0974 278.369 58.0974Z" fill="#2F2E41"/>
<path d="M276.254 333.032H13.4769C6.0456 333.032 0 326.972 0 319.524V179.613C0 172.165 6.0456 166.104 13.4769 166.104H276.254C283.685 166.104 289.731 172.165 289.731 179.613V319.524C289.731 326.972 283.685 333.032 276.254 333.032Z" fill="white"/>
<path d="M276.254 333.032H13.4769C6.0456 333.032 0 326.972 0 319.524V179.613C0 172.165 6.0456 166.104 13.4769 166.104H276.254C283.685 166.104 289.731 172.165 289.731 179.613V319.524C289.731 326.972 283.685 333.032 276.254 333.032ZM13.4769 168.36C7.28681 168.36 2.25055 173.408 2.25055 179.613V319.524C2.25055 325.728 7.28681 330.776 13.4769 330.776H276.254C282.444 330.776 287.48 325.728 287.48 319.524V179.613C287.48 173.408 282.444 168.36 276.254 168.36H13.4769Z" fill="#3F3D56"/>
<path d="M255.973 183.023C257.838 183.023 259.349 181.508 259.349 179.64C259.349 177.771 257.838 176.256 255.973 176.256C254.109 176.256 252.598 177.771 252.598 179.64C252.598 181.508 254.109 183.023 255.973 183.023Z" fill="#3F3D56"/>
<path d="M264.973 183.023C266.838 183.023 268.349 181.508 268.349 179.64C268.349 177.771 266.838 176.256 264.973 176.256C263.109 176.256 261.598 177.771 261.598 179.64C261.598 181.508 263.109 183.023 264.973 183.023Z" fill="#3F3D56"/>
<path d="M273.977 183.023C275.842 183.023 277.353 181.508 277.353 179.64C277.353 177.771 275.842 176.256 273.977 176.256C272.113 176.256 270.602 177.771 270.602 179.64C270.602 181.508 272.113 183.023 273.977 183.023Z" fill="#3F3D56"/>
<path d="M19.1293 234.342C18.1986 234.342 17.4414 235.101 17.4414 236.034C17.4414 236.489 17.6167 236.909 17.9348 237.22C18.2557 237.549 18.676 237.725 19.1293 237.725H271.726C272.657 237.725 273.414 236.967 273.414 236.034C273.414 235.579 273.239 235.158 272.921 234.847C272.6 234.518 272.18 234.342 271.726 234.342H19.1293Z" fill="#E6E6E6"/>
<path d="M147.792 233.777V238.289H18.1981C17.8353 238.289 17.5055 238.041 17.2681 237.623C17.024 237.217 16.8789 236.653 16.8789 236.033C16.8789 234.792 17.4726 233.777 18.1981 233.777H147.792Z" fill="#5D9BDA"/>
<path d="M268.913 225.319H246.407C243.925 225.319 241.906 223.296 241.906 220.807C241.906 218.319 243.925 216.296 246.407 216.296H268.913C271.395 216.296 273.414 218.319 273.414 220.807C273.414 223.296 271.395 225.319 268.913 225.319Z" fill="#E6E6E6"/>
<path d="M38.6941 198.637C41.69 198.637 44.1186 196.365 44.1186 193.562C44.1186 190.759 41.69 188.487 38.6941 188.487C35.6982 188.487 33.2695 190.759 33.2695 193.562C33.2695 196.365 35.6982 198.637 38.6941 198.637Z" fill="#5D9BDA"/>
<path d="M52.0751 206.463C50.7929 208.342 49.0969 209.914 47.1129 211.06C45.129 212.206 42.908 212.898 40.615 213.084C38.322 213.27 36.0159 212.946 33.8678 212.135C31.7198 211.324 29.7849 210.048 28.207 208.4C29.449 206.471 31.1289 204.852 33.1146 203.669C35.1002 202.487 37.3376 201.774 39.6507 201.586C41.9638 201.398 44.2897 201.741 46.4455 202.587C48.6012 203.433 50.5281 204.76 52.0746 206.463H52.0751Z" fill="#5D9BDA"/>
<path d="M39.0738 182.837C42.9543 182.841 46.683 184.348 49.4806 187.043C52.2782 189.739 53.9282 193.413 54.0856 197.299C54.2431 201.185 52.8959 204.982 50.3255 207.896C47.7552 210.81 44.1607 212.615 40.2933 212.935C39.8769 212.969 39.4553 212.986 39.0397 212.986C35.1592 212.982 31.4305 211.475 28.6329 208.78C25.8353 206.084 24.1853 202.41 24.0279 198.524C23.8704 194.638 25.2176 190.841 27.788 187.927C30.3583 185.013 33.9528 183.208 37.8202 182.888C38.2366 182.854 38.6578 182.837 39.0738 182.837ZM39.0739 182.688C38.6554 182.688 38.2328 182.705 37.8083 182.74C35.8204 182.904 33.8841 183.459 32.1102 184.373C30.3363 185.288 28.7594 186.543 27.4696 188.068C26.1798 189.593 25.2024 191.358 24.5931 193.262C23.9838 195.165 23.7546 197.171 23.9186 199.163C24.2317 202.968 25.9599 206.516 28.7604 209.104C31.5609 211.692 35.2294 213.131 39.0387 213.136C39.4573 213.136 39.8792 213.118 40.3044 213.083C42.2923 212.919 44.2285 212.364 46.0023 211.449C47.7761 210.535 49.3529 209.28 50.6426 207.754C51.9323 206.229 52.9096 204.465 53.5189 202.561C54.1281 200.658 54.3573 198.652 54.1933 196.66C53.8801 192.855 52.152 189.307 49.3514 186.719C46.5509 184.131 42.8823 182.692 39.073 182.688H39.0739Z" fill="#5D9BDA"/>
<path d="M19.1293 285.097C18.1986 285.097 17.4414 285.856 17.4414 286.789C17.4414 287.243 17.6167 287.664 17.9348 287.975C18.2557 288.304 18.676 288.48 19.1293 288.48H271.726C272.657 288.48 273.414 287.721 273.414 286.789C273.414 286.334 273.239 285.913 272.921 285.602C272.6 285.273 272.18 285.097 271.726 285.097H19.1293Z" fill="#E6E6E6"/>
<path d="M103.672 284.532V289.044H18.3079C17.9149 289.044 17.5577 288.796 17.3005 288.378C17.0361 287.972 16.8789 287.408 16.8789 286.788C16.8789 285.547 17.522 284.532 18.3079 284.532H103.672Z" fill="#5D9BDA"/>
<path d="M268.913 276.074H246.407C243.925 276.074 241.906 274.051 241.906 271.562C241.906 269.074 243.925 267.051 246.407 267.051H268.913C271.395 267.051 273.414 269.074 273.414 271.562C273.414 274.051 271.395 276.074 268.913 276.074Z" fill="#E6E6E6"/>
<path d="M308.313 85.6465C327.777 85.6465 343.555 70.1644 343.555 51.0664C343.555 31.9684 327.777 16.4863 308.313 16.4863C288.849 16.4863 273.07 31.9684 273.07 51.0664C273.07 70.1644 288.849 85.6465 308.313 85.6465Z" fill="#5D9BDA"/>
<path d="M320.276 33.6238C315.584 42.1871 310.892 50.7504 306.201 59.3137C303.21 54.0179 300.236 48.7128 297.239 43.4212C296.203 41.5937 293.387 43.2374 294.425 45.0695C297.9 51.2037 301.339 57.3583 304.814 63.4924C305.408 64.5413 307.039 64.5656 307.627 63.4924C312.781 54.0857 317.936 44.6789 323.09 35.2721C324.1 33.4289 321.287 31.7792 320.276 33.6238Z" fill="white"/>
<path d="M356.965 142.215L321.852 125.379C321.852 125.379 320.442 114.111 313.857 110.092C312.738 107.415 311.45 104.474 310.28 102.144C307.387 96.3811 311.727 85.5068 308.11 85.5068C304.494 85.5068 299.148 96.9433 299.431 100.006C299.648 102.357 301.587 106.461 301.987 110.054C297.577 111.721 294.02 114.579 291.681 116.854C289.657 118.823 288.905 121.76 289.696 124.474C291.988 132.337 297.718 148.578 305.94 148.578C316.79 148.578 319.683 146.403 319.683 146.403C319.683 146.403 342.104 174.676 358.739 176.851C375.375 179.026 356.965 142.215 356.965 142.215Z" fill="#FFB6B6"/>
</g>
<path d="M370 384H0V388H370V384Z" fill="#8C919D" mask="url(#path-1-inside-1_3542_158639)"/>
<defs>
<clipPath id="clip0_3542_158639">
<path d="M0 0H370V386H0V0Z" fill="white"/>
</clipPath>
</defs>
</svg>
