<svg width="24" height="24" viewBox="0 0 24 24" fill="none" xmlns="http://www.w3.org/2000/svg">
<path d="M19.8759 7.49979V15.7498C19.8759 17.4405 19.2043 19.0621 18.0087 20.2576C16.8132 21.4531 15.1917 22.1248 13.5009 22.1248C11.8102 22.1248 10.1887 21.4531 8.99313 20.2576C7.79759 19.0621 7.12594 17.4405 7.12594 15.7498V5.71854L4.54687 8.29573C4.33553 8.50708 4.04888 8.62581 3.75 8.62581C3.45111 8.62581 3.16447 8.50708 2.95312 8.29573C2.74178 8.08439 2.62305 7.79774 2.62305 7.49886C2.62305 7.19997 2.74178 6.91333 2.95312 6.70198L7.45312 2.20198C7.55764 2.0971 7.68183 2.01388 7.81858 1.9571C7.95532 1.90032 8.10193 1.87109 8.25 1.87109C8.39806 1.87109 8.54467 1.90032 8.68142 1.9571C8.81816 2.01388 8.94236 2.0971 9.04687 2.20198L13.5469 6.70198C13.7582 6.91333 13.877 7.19997 13.877 7.49886C13.877 7.79774 13.7582 8.08439 13.5469 8.29573C13.3355 8.50708 13.0489 8.62581 12.75 8.62581C12.4511 8.62581 12.1645 8.50708 11.9531 8.29573L9.37594 5.71854V15.7498C9.37594 16.8438 9.81053 17.893 10.5841 18.6666C11.3577 19.4402 12.4069 19.8748 13.5009 19.8748C14.595 19.8748 15.6442 19.4402 16.4178 18.6666C17.1913 17.893 17.6259 16.8438 17.6259 15.7498V7.49979C17.6259 7.20143 17.7445 6.91528 17.9554 6.7043C18.1664 6.49332 18.4526 6.37479 18.7509 6.37479C19.0493 6.37479 19.3355 6.49332 19.5464 6.7043C19.7574 6.91528 19.8759 7.20143 19.8759 7.49979Z" fill="#3D3F45"/>
</svg>
