<svg width="305" height="176" viewBox="0 0 305 176" fill="none" xmlns="http://www.w3.org/2000/svg">
<g clip-path="url(#clip0_3544_156352)">
<path d="M290.946 175.399H13.8964C6.06146 175.399 -0.3125 169.013 -0.3125 161.165V13.7342C-0.3125 5.8859 6.06146 -0.5 13.8964 -0.5H290.946C298.781 -0.5 305.155 5.8859 305.155 13.7342V161.165C305.155 169.013 298.781 175.399 290.946 175.399Z" fill="white"/>
<path d="M290.946 175.399H13.8964C6.06146 175.399 -0.3125 169.013 -0.3125 161.165V13.7342C-0.3125 5.8859 6.06146 -0.5 13.8964 -0.5H290.946C298.781 -0.5 305.155 5.8859 305.155 13.7342V161.165C305.155 169.013 298.781 175.399 290.946 175.399ZM13.8964 1.87701C7.37009 1.87701 2.06028 7.19628 2.06028 13.7342V161.165C2.06028 167.703 7.37009 173.022 13.8964 173.022H290.946C297.473 173.022 302.782 167.703 302.782 161.165V13.7342C302.782 7.19628 297.473 1.87701 290.946 1.87701H13.8964Z" fill="#3F3D56"/>
<path d="M269.563 17.3283C271.529 17.3283 273.122 15.732 273.122 13.7628C273.122 11.7936 271.529 10.1973 269.563 10.1973C267.597 10.1973 266.004 11.7936 266.004 13.7628C266.004 15.732 267.597 17.3283 269.563 17.3283Z" fill="#3F3D56"/>
<path d="M279.055 17.3283C281.021 17.3283 282.614 15.732 282.614 13.7628C282.614 11.7936 281.021 10.1973 279.055 10.1973C277.09 10.1973 275.496 11.7936 275.496 13.7628C275.496 15.732 277.09 17.3283 279.055 17.3283Z" fill="#3F3D56"/>
<path d="M288.547 17.3283C290.513 17.3283 292.107 15.732 292.107 13.7628C292.107 11.7936 290.513 10.1973 288.547 10.1973C286.582 10.1973 284.988 11.7936 284.988 13.7628C284.988 15.732 286.582 17.3283 288.547 17.3283Z" fill="#3F3D56"/>
<path d="M19.8577 71.4043C18.8764 71.4043 18.0781 72.204 18.0781 73.1871C18.0781 73.6664 18.2629 74.1098 18.5983 74.4371C18.9366 74.7841 19.3798 74.9698 19.8577 74.9698H286.174C287.156 74.9698 287.954 74.1701 287.954 73.1871C287.954 72.7077 287.769 72.2643 287.434 71.937C287.095 71.59 286.652 71.4043 286.174 71.4043H19.8577Z" fill="#E6E6E6"/>
<path d="M155.507 70.8105V75.5646H18.8752C18.4927 75.5646 18.145 75.3031 17.8947 74.8633C17.6373 74.4355 17.4844 73.8412 17.4844 73.1876C17.4844 71.8802 18.1103 70.8105 18.8752 70.8105H155.507Z" fill="#5D9BDA"/>
<path d="M283.208 61.8948H259.48C256.863 61.8948 254.734 59.7627 254.734 57.1408C254.734 54.5188 256.863 52.3867 259.48 52.3867H283.208C285.825 52.3867 287.953 54.5188 287.953 57.1408C287.953 59.7627 285.825 61.8948 283.208 61.8948Z" fill="#E6E6E6"/>
<path d="M40.4848 33.7808C43.6434 33.7808 46.204 31.3867 46.204 28.4334C46.204 25.4801 43.6434 23.0859 40.4848 23.0859C37.3262 23.0859 34.7656 25.4801 34.7656 28.4334C34.7656 31.3867 37.3262 33.7808 40.4848 33.7808Z" fill="#5D9BDA"/>
<path d="M54.5902 42.0274C53.2384 44.008 51.4502 45.6638 49.3585 46.8717C47.2668 48.0796 44.9252 48.8087 42.5077 49.0049C40.0902 49.201 37.6588 48.8591 35.394 48.0045C33.1293 47.15 31.0894 45.8048 29.4258 44.0688C30.7352 42.036 32.5064 40.3296 34.5999 39.0837C36.6934 37.8379 39.0522 37.0865 41.491 36.8886C43.9298 36.6908 46.382 37.0519 48.6548 37.9436C50.9277 38.8352 52.9592 40.2331 54.5897 42.0274H54.5902Z" fill="#5D9BDA"/>
<path d="M40.8841 17.1317C44.9754 17.1361 48.9066 18.7244 51.8562 21.5645C54.8057 24.4047 56.5453 28.2769 56.7113 32.3719C56.8773 36.4668 55.4569 40.4676 52.747 43.538C50.037 46.6083 46.2473 48.5107 42.1698 48.8474C41.7308 48.8837 41.2863 48.9021 40.8482 48.9021C36.7569 48.8976 32.8257 47.3094 29.8761 44.4692C26.9265 41.6291 25.187 37.7568 25.021 33.6619C24.855 29.5669 26.2754 25.5662 28.9853 22.4958C31.6953 19.4254 35.485 17.5231 39.5624 17.1863C40.0015 17.1501 40.4455 17.1317 40.8841 17.1317ZM40.8843 16.9746C40.443 16.9746 39.9974 16.9928 39.5499 17.0297C37.454 17.2028 35.4126 17.7877 33.5423 18.7511C31.672 19.7144 30.0095 21.0374 28.6497 22.6444C27.2898 24.2514 26.2593 26.111 25.6169 28.117C24.9745 30.123 24.7329 32.2361 24.9058 34.3356C25.2359 38.3451 27.0579 42.0839 30.0105 44.811C32.9632 47.5381 36.8309 49.0543 40.8471 49.0592C41.2884 49.0592 41.7333 49.0407 42.1816 49.0039C44.2775 48.8307 46.3187 48.2457 48.1889 47.2823C50.0591 46.3189 51.7215 44.9959 53.0812 43.3889C54.441 41.7819 55.4714 39.9223 56.1138 37.9164C56.7561 35.9105 56.9977 33.7974 56.8248 31.698C56.4946 27.6885 54.6726 23.9497 51.72 21.2226C48.7673 18.4955 44.8995 16.9793 40.8833 16.9746H40.8843Z" fill="#5D9BDA"/>
<path d="M19.8577 124.887C18.8764 124.887 18.0781 125.686 18.0781 126.669C18.0781 127.149 18.2629 127.592 18.5983 127.919C18.9366 128.267 19.3798 128.452 19.8577 128.452H286.174C287.156 128.452 287.954 127.653 287.954 126.669C287.954 126.19 287.769 125.747 287.434 125.419C287.095 125.072 286.652 124.887 286.174 124.887H19.8577Z" fill="#E6E6E6"/>
<path d="M108.991 124.293V129.047H18.991C18.5767 129.047 18.2 128.785 17.9288 128.346C17.6501 127.918 17.4844 127.324 17.4844 126.67C17.4844 125.363 18.1624 124.293 18.991 124.293H108.991Z" fill="#5D9BDA"/>
<path d="M283.208 115.379H259.48C256.863 115.379 254.734 113.247 254.734 110.625C254.734 108.003 256.863 105.871 259.48 105.871H283.208C285.825 105.871 287.953 108.003 287.953 110.625C287.953 113.247 285.825 115.379 283.208 115.379Z" fill="#E6E6E6"/>
</g>
<defs>
<clipPath id="clip0_3544_156352">
<rect width="305" height="176" fill="white"/>
</clipPath>
</defs>
</svg>
