<svg width="32" height="32" viewBox="0 0 32 32" fill="none" xmlns="http://www.w3.org/2000/svg">
<g id="MagnifyingGlass" clip-path="url(#clip0_878_119614)">
<g id="Vector">
<path d="M14 24C19.5228 24 24 19.5228 24 14C24 8.47715 19.5228 4 14 4C8.47715 4 4 8.47715 4 14C4 19.5228 8.47715 24 14 24Z" stroke="#52B4AD" stroke-width="2" stroke-linecap="round" stroke-linejoin="round"/>
<path d="M14 24C19.5228 24 24 19.5228 24 14C24 8.47715 19.5228 4 14 4C8.47715 4 4 8.47715 4 14C4 19.5228 8.47715 24 14 24Z" stroke="black" stroke-opacity="0.2" stroke-width="2" stroke-linecap="round" stroke-linejoin="round"/>
</g>
<g id="Vector_2">
<path d="M21.0703 21.0703L27.9991 27.9991" stroke="#52B4AD" stroke-width="2" stroke-linecap="round" stroke-linejoin="round"/>
<path d="M21.0703 21.0703L27.9991 27.9991" stroke="black" stroke-opacity="0.2" stroke-width="2" stroke-linecap="round" stroke-linejoin="round"/>
</g>
</g>
<defs>
<clipPath id="clip0_878_119614">
<rect width="32" height="32" fill="white"/>
</clipPath>
</defs>
</svg>
