<svg width="176" height="23" viewBox="0 0 176 23" fill="none" xmlns="http://www.w3.org/2000/svg">
<g clip-path="url(#clip0_3288_161772)">
<path d="M152.083 1.63863C150.862 1.12657 149.428 0.819336 147.729 0.819336H145.181H143.429H140.721V21.6601H145.128V14.0817H147.676C149.375 14.0817 150.862 13.8256 152.03 13.2624C153.251 12.7503 154.154 11.9822 154.791 10.9581C155.428 9.93399 155.747 8.75625 155.747 7.4249C155.747 6.04234 155.428 4.8646 154.791 3.89169C154.207 2.91878 153.304 2.15069 152.083 1.63863ZM150.49 9.72917C149.8 10.2412 148.897 10.4973 147.729 10.4973H145.181V4.40375H147.729C148.897 4.40375 149.853 4.65978 150.49 5.17184C151.181 5.6839 151.499 6.40078 151.499 7.4249C151.499 8.44902 151.181 9.21711 150.49 9.72917Z" fill="#0760BA"/>
<path d="M174.277 13.1092C173.852 12.3923 173.268 11.7778 172.472 11.317C171.888 10.9585 171.197 10.6513 170.454 10.4465C171.41 10.0368 172.206 9.52478 172.737 8.80789C173.374 8.0398 173.64 7.16929 173.64 6.09397C173.64 4.91623 173.321 3.94333 172.737 3.12403C172.1 2.35594 171.25 1.79268 170.189 1.38303C169.073 0.973385 167.852 0.768555 166.366 0.768555H159.145V21.6094H166.79C168.383 21.6094 169.817 21.4045 171.038 20.9949C172.259 20.5853 173.215 19.9196 173.852 19.0491C174.542 18.1786 174.861 17.052 174.861 15.6695C174.967 14.6966 174.702 13.8261 174.277 13.1092ZM166.047 4.19936C167.003 4.19936 167.799 4.40417 168.33 4.81382C168.914 5.22347 169.18 5.83794 169.18 6.60603C169.18 7.11809 169.02 7.57894 168.755 7.93739C168.489 8.29583 168.171 8.60307 167.693 8.80789C167.215 9.01272 166.684 9.11512 166.047 9.11512H163.658V4.14815H166.047V4.19936ZM169.87 16.9496C169.551 17.4105 169.074 17.7689 168.489 17.9738C167.905 18.1786 167.215 18.281 166.472 18.281H163.605V12.2387H166.472C167.003 12.2387 167.534 12.2899 168.012 12.3923C168.489 12.4947 168.914 12.6483 169.233 12.9044C169.604 13.1604 169.87 13.4676 170.082 13.8261C170.295 14.1845 170.401 14.6454 170.401 15.1574C170.401 15.9255 170.242 16.4888 169.87 16.9496Z" fill="#0760BA"/>
<path d="M50.0332 21.6606H55.0242L57.3074 16.8984H64.7408L67.0239 21.6606H72.015L61.0241 -0.40918L50.0332 21.6606ZM63.6789 13.57H58.3162L61.0241 7.57894L63.6789 13.57Z" fill="#0760BA"/>
<path d="M23.3253 0.819336H18.8652V21.6601H23.3253V0.819336Z" fill="#0760BA"/>
<path d="M79.8733 14.3889L74.0328 0.819336H68.9355L79.8733 22.8891L90.8642 0.819336H85.7139L79.8733 14.3889Z" fill="#0760BA"/>
<path d="M43.3959 13.7234L27.998 -0.255859V21.6603H32.2457V8.75639L47.6436 22.6844V0.819468H43.3959V13.7234Z" fill="#0760BA"/>
<path d="M13.5554 11.6755C13.0245 11.1634 12.4404 10.7026 11.8032 10.3441C11.1661 9.98568 10.4758 9.67844 9.7856 9.47361C8.67058 9.11517 7.76794 8.75673 7.07769 8.4495C6.33435 8.09105 5.80339 7.73261 5.48481 7.32296C5.11314 6.91331 4.95385 6.45247 4.95385 5.94041C4.95385 5.42835 5.16624 4.96749 5.59101 4.60905C6.01578 4.1994 6.65293 3.99457 7.55556 3.99457C8.19272 3.99457 8.77677 4.1482 9.30774 4.40423C9.8387 4.66026 10.2635 4.96749 10.6882 5.37714C11.113 5.78679 11.4316 6.19644 11.7501 6.7085L15.2014 4.86508C14.8297 4.1482 14.2988 3.43131 13.6085 2.76563C12.9714 2.04875 12.1218 1.48549 11.113 1.07584C10.1042 0.614989 8.93606 0.410156 7.55556 0.410156C6.22816 0.410156 5.00695 0.666198 3.89193 1.12705C2.83001 1.58791 1.98048 2.25358 1.34332 3.12408C0.70617 3.99458 0.440683 5.0187 0.440683 6.19644C0.440683 7.16935 0.653071 8.03985 1.02474 8.75673C1.39642 9.47362 1.92738 10.0369 2.51144 10.5489C3.09549 11.0098 3.73265 11.4194 4.3698 11.7267C5.06005 12.0339 5.6441 12.2387 6.17506 12.4436C7.13079 12.802 7.98033 13.1604 8.61748 13.4677C9.30773 13.7749 9.78559 14.1333 10.1573 14.4918C10.5289 14.9014 10.6882 15.4135 10.6882 16.0792C10.6882 16.8473 10.4228 17.4105 9.8387 17.8714C9.30774 18.3322 8.56439 18.5371 7.66175 18.5371C6.91841 18.5371 6.17506 18.3834 5.53791 18.0762C4.90076 17.769 4.26361 17.3081 3.73265 16.7449C3.20169 16.1816 2.72382 15.5159 2.24595 14.6966L-0.886719 16.8473C-0.408854 17.8202 0.228305 18.7419 1.07784 19.5612C1.92738 20.3805 2.9362 21.0462 4.05122 21.5582C5.21933 22.0191 6.44054 22.2751 7.76794 22.2751C8.77677 22.2751 9.6794 22.1215 10.582 21.8142C11.4847 21.5582 12.2811 21.1486 13.0245 20.5853C13.7678 20.022 14.2988 19.3564 14.7235 18.5371C15.1483 17.7178 15.3607 16.8473 15.3607 15.8231C15.3607 14.9526 15.2014 14.1333 14.8828 13.4677C14.5112 12.802 14.0864 12.1875 13.5554 11.6755Z" fill="#0760BA"/>
<path d="M96.0133 0.819336H93.1992V21.6601H96.0133H97.4469H106.951V18.0757H97.4469V12.3919H106.314V8.80747H97.4469V4.40375H106.951V0.819336H97.4469H96.0133Z" fill="#0760BA"/>
<path d="M110.508 0.819336V4.65978H119.747L109.287 21.6601H125.959V17.9221H116.296L126.915 0.819336H110.508Z" fill="#0760BA"/>
<path d="M136.154 12.9043H129.676V16.2839H136.154V12.9043Z" fill="#0760BA"/>
</g>
<defs>
<clipPath id="clip0_3288_161772">
<rect width="176" height="23" fill="white"/>
</clipPath>
</defs>
</svg>
