<svg width="228" height="67" viewBox="0 0 228 67" fill="none" xmlns="http://www.w3.org/2000/svg">
<path d="M207.35 24.1322C206.251 23.6516 204.96 23.3633 203.431 23.3633H201.136H199.559H197.121V42.9236H201.088V35.8108H203.383C204.912 35.8108 206.251 35.5705 207.302 35.0418C208.402 34.5612 209.214 33.8403 209.788 32.8791C210.361 31.9179 210.648 30.8125 210.648 29.563C210.648 28.2654 210.361 27.16 209.788 26.2469C209.262 25.3337 208.449 24.6128 207.35 24.1322ZM205.916 31.7257C205.295 32.2063 204.482 32.4466 203.431 32.4466H201.136V26.7275H203.431C204.482 26.7275 205.342 26.9678 205.916 27.4484C206.537 27.929 206.824 28.6018 206.824 29.563C206.824 30.5242 206.537 31.2451 205.916 31.7257Z" fill="#0760BA"/>
<path d="M227.33 34.8978C226.947 34.225 226.422 33.6483 225.705 33.2157C225.179 32.8793 224.557 32.591 223.888 32.3987C224.749 32.0142 225.466 31.5337 225.944 30.8608C226.517 30.1399 226.756 29.3229 226.756 28.3136C226.756 27.2083 226.469 26.2951 225.944 25.5262C225.37 24.8053 224.605 24.2766 223.649 23.8922C222.645 23.5077 221.546 23.3154 220.208 23.3154H213.707V42.8758H220.59C222.024 42.8758 223.315 42.6835 224.414 42.299C225.513 41.9146 226.374 41.2898 226.947 40.4728C227.569 39.6558 227.855 38.5984 227.855 37.3008C227.951 36.3877 227.712 35.5707 227.33 34.8978ZM219.921 26.5354C220.781 26.5354 221.498 26.7277 221.976 27.1122C222.502 27.4966 222.741 28.0733 222.741 28.7942C222.741 29.2748 222.598 29.7074 222.359 30.0438C222.12 30.3802 221.833 30.6686 221.403 30.8608C220.972 31.0531 220.494 31.1492 219.921 31.1492H217.77V26.4874H219.921V26.5354ZM223.362 38.5023C223.076 38.9349 222.645 39.2713 222.12 39.4635C221.594 39.6558 220.972 39.7519 220.303 39.7519H217.722V34.0808H220.303C220.781 34.0808 221.259 34.1289 221.689 34.225C222.12 34.3211 222.502 34.4653 222.789 34.7056C223.123 34.9459 223.362 35.2343 223.554 35.5707C223.745 35.9071 223.84 36.3396 223.84 36.8202C223.84 37.5411 223.697 38.0698 223.362 38.5023Z" fill="#0760BA"/>
<path d="M115.482 42.9237H119.976L122.031 38.4542H128.723L130.778 42.9237H135.271L125.377 22.21L115.482 42.9237ZM127.767 35.3303H122.939L125.377 29.7073L127.767 35.3303Z" fill="#0760BA"/>
<path d="M91.4389 23.3633H87.4238V42.9236H91.4389V23.3633Z" fill="#0760BA"/>
<path d="M142.345 36.0991L137.087 23.3633H132.498L142.345 44.0771L152.239 23.3633H147.602L142.345 36.0991Z" fill="#0760BA"/>
<path d="M109.506 35.4748L95.6445 22.3545V42.9241H99.4684V30.813L113.33 43.8853V23.3638H109.506V35.4748Z" fill="#0760BA"/>
<path d="M82.6438 33.5517C82.1659 33.0711 81.6401 32.6385 81.0665 32.3021C80.4929 31.9657 79.8715 31.6773 79.2501 31.4851C78.2464 31.1487 77.4338 30.8123 76.8124 30.5239C76.1432 30.1875 75.6652 29.8511 75.3784 29.4666C75.0438 29.0821 74.9004 28.6496 74.9004 28.169C74.9004 27.6884 75.0916 27.2558 75.474 26.9194C75.8564 26.5349 76.43 26.3427 77.2426 26.3427C77.8162 26.3427 78.342 26.4869 78.8199 26.7272C79.2979 26.9675 79.6803 27.2558 80.0627 27.6403C80.4451 28.0248 80.7319 28.4093 81.0187 28.8899L84.1256 27.1597C83.791 26.4869 83.313 25.814 82.6916 25.1893C82.1181 24.5164 81.3533 23.9878 80.4451 23.6033C79.5369 23.1708 78.4853 22.9785 77.2426 22.9785C76.0476 22.9785 74.9482 23.2188 73.9445 23.6514C72.9885 24.0839 72.2237 24.7087 71.6501 25.5257C71.0765 26.3427 70.8375 27.3039 70.8375 28.4093C70.8375 29.3224 71.0287 30.1394 71.3633 30.8123C71.6979 31.4851 72.1759 32.0138 72.7017 32.4944C73.2275 32.9269 73.8011 33.3114 74.3747 33.5997C74.996 33.8881 75.5218 34.0803 75.9998 34.2726C76.8602 34.609 77.625 34.9454 78.1986 35.2338C78.8199 35.5221 79.2501 35.8585 79.5847 36.195C79.9193 36.5794 80.0627 37.06 80.0627 37.6848C80.0627 38.4057 79.8237 38.9344 79.2979 39.3669C78.8199 39.7994 78.1508 39.9917 77.3382 39.9917C76.669 39.9917 75.9998 39.8475 75.4262 39.5591C74.8526 39.2708 74.2791 38.8383 73.8011 38.3096C73.3231 37.7809 72.8929 37.1562 72.4627 36.3872L69.6426 38.4057C70.0728 39.3188 70.6464 40.1839 71.4111 40.9529C72.1759 41.7218 73.0841 42.3466 74.0879 42.8272C75.1394 43.2598 76.2388 43.5001 77.4338 43.5001C78.3419 43.5001 79.1545 43.3559 79.9671 43.0675C80.7797 42.8272 81.4967 42.4427 82.1659 41.9141C82.835 41.3854 83.313 40.7606 83.6954 39.9917C84.0778 39.2227 84.269 38.4057 84.269 37.4445C84.269 36.6275 84.1256 35.8585 83.8388 35.2338C83.5042 34.609 83.1218 34.0323 82.6438 33.5517Z" fill="#0760BA"/>
<path d="M156.875 23.3633H154.342V42.9236H156.875H158.166H166.722V39.5594H158.166V34.2248H166.148V30.8606H158.166V26.7275H166.722V23.3633H158.166H156.875Z" fill="#0760BA"/>
<path d="M169.924 23.3633V26.9678H178.241L168.824 42.9236H183.833V39.4152H175.134L184.693 23.3633H169.924Z" fill="#0760BA"/>
<path d="M193.011 34.7051H187.18V37.877H193.011V34.7051Z" fill="#0760BA"/>
<path d="M28.5359 0.00585938L0 16.5865V49.6997L28.5359 66.2803L57.0717 49.6997V16.5865L28.5359 0.00585938ZM53.8214 18.4608V21.6808H44.1182L49.6151 16.0578L53.8214 18.4608ZM47.7031 33.2152L46.078 35.8104V30.6199L47.7031 33.2152ZM46.1258 30.6199V24.9489H53.8214V30.1393L49.5195 32.5904L46.1258 30.6199ZM3.25031 18.4608L7.4566 16.0098L12.9535 21.6328H3.25031V18.4608ZM3.25031 24.9008H10.9459V30.6199L7.5522 32.5904L3.25031 30.1393V24.9008ZM3.25031 36.3871L7.5522 33.9361L10.9459 35.9065V41.6256H3.25031V36.3871ZM9.32075 33.2632L10.9459 30.668V35.8585L9.32075 33.2632ZM3.25031 47.8253V44.8937H12.7623L7.4566 50.2764L3.25031 47.8253ZM44.2616 53.3522L28.4881 62.4836L12.7145 53.3522L24.234 52.0065L11.5673 50.6609L27.5799 34.3686V32.1098L12.2843 16.4904H18.6415H24.7597V15.3369L20.6491 11.2038H18.7371V13.2704H12.3321L28.5359 3.85064L44.7396 13.2704H38.3824V11.2038H36.4704L32.3597 15.3369V16.4904H38.4302H44.7874L29.4918 32.1579V34.4167L45.5044 50.7089L32.8377 52.0546L44.2616 53.3522ZM14.1962 43.4519V22.9304L24.234 33.2152L14.1962 43.4519ZM21.0314 14.0393V12.7417L22.4176 14.0393H21.0314ZM36.0403 12.7417V14.0393H34.6541L36.0403 12.7417ZM42.8755 22.9304V43.4519L32.8377 33.2152L42.8755 22.9304ZM53.8214 47.8253L49.6151 50.2764L44.3094 44.8937H53.8214V47.8253ZM53.8214 41.6256H46.1258V35.8585L49.5195 33.888L53.8214 36.3391V41.6256Z" fill="#0760BA"/>
<path d="M32.8391 43.4517H30.9271L31.9309 42.106L30.8793 40.8564V41.9618L29.78 43.4036H28.5372H28.4894H27.2466L26.0994 41.9618V40.8564L25.0957 42.106L26.0994 43.4517H24.1875L24.7133 44.1245H25.4781L24.4743 45.1338L27.9158 48.8824H28.4894H28.5372H29.063L32.5523 45.1338L31.5007 44.1245H32.3133L32.8391 43.4517Z" fill="#0760BA"/>
<path d="M28.5359 27.1594H28.6315H30.4956L29.0617 22.786L31.1648 24.7564L32.2642 23.651V22.0651V20.4791L31.2126 19.4218L30.1132 18.3164H28.5359H26.9585L25.8591 19.4218L24.7598 20.4791V22.0651V23.651L25.8591 24.7564L27.9623 22.786L26.5761 27.1594H28.3447H28.5359Z" fill="#0760BA"/>
</svg>
