<svg width="233" height="78" viewBox="0 0 233 78" fill="none" xmlns="http://www.w3.org/2000/svg">
<g clip-path="url(#clip0_876_90637)">
<path d="M39 68.25C32.5353 68.25 26.3355 65.6819 21.7643 61.1107C17.1931 56.5395 14.625 50.3397 14.625 43.875V36.5625C21.0897 36.5625 27.2895 39.1306 31.8607 43.7018C36.4319 48.273 39 54.4728 39 60.9375V68.25Z" stroke="#0760BA" stroke-width="2.88889" stroke-linecap="round" stroke-linejoin="round"/>
<path d="M39 68.25V60.9375C39 57.7365 39.6305 54.5669 40.8554 51.6096C42.0804 48.6523 43.8758 45.9652 46.1393 43.7018C48.4027 41.4383 51.0898 39.6429 54.0471 38.4179C57.0044 37.193 60.174 36.5625 63.375 36.5625L63.375 43.875C63.375 50.3397 60.8069 56.5395 56.2357 61.1107C51.6645 65.6819 45.4647 68.25 39 68.25Z" stroke="#0760BA" stroke-width="2.88889" stroke-linecap="round" stroke-linejoin="round"/>
<path d="M63.375 36.5625V19.5C56.9103 19.5 50.7105 22.0681 46.1393 26.6393C41.5681 31.2105 39 37.4103 39 43.875V60.9375" stroke="#0760BA" stroke-width="2.88889" stroke-linecap="round" stroke-linejoin="round"/>
<path d="M14.625 36.5625V19.5C21.0897 19.5 27.2895 22.0681 31.8607 26.6393C36.4319 31.2105 39 37.4103 39 43.875V60.9375" stroke="#0760BA" stroke-width="2.88889" stroke-linecap="round" stroke-linejoin="round"/>
<path d="M25.6094 22.1112C29.1346 12.2454 39.0004 7.3125 39.0004 7.3125C39.0004 7.3125 48.8662 12.2454 52.4066 22.1142" stroke="#0760BA" stroke-width="2.88889" stroke-linecap="round" stroke-linejoin="round"/>
</g>
<path d="M98.832 42.128C99.28 42.9387 99.7813 43.6427 100.336 44.24C100.912 44.8373 101.531 45.296 102.192 45.616C102.875 45.936 103.589 46.096 104.336 46.096C105.125 46.096 105.776 45.904 106.288 45.52C106.8 45.1147 107.056 44.5707 107.056 43.888C107.056 43.312 106.907 42.8533 106.608 42.512C106.309 42.1493 105.829 41.808 105.168 41.488C104.507 41.168 103.632 40.8053 102.544 40.4C102.011 40.208 101.392 39.9413 100.688 39.6C100.005 39.2587 99.3547 38.8213 98.736 38.288C98.1173 37.7333 97.6053 37.072 97.2 36.304C96.7947 35.5147 96.592 34.5653 96.592 33.456C96.592 32.1333 96.9333 30.992 97.616 30.032C98.32 29.072 99.2587 28.3467 100.432 27.856C101.627 27.344 102.949 27.088 104.4 27.088C105.893 27.088 107.184 27.3333 108.272 27.824C109.381 28.3147 110.299 28.9333 111.024 29.68C111.749 30.4267 112.304 31.184 112.688 31.952L108.56 34.256C108.24 33.7227 107.867 33.264 107.44 32.88C107.035 32.4747 106.576 32.1653 106.064 31.952C105.573 31.7173 105.04 31.6 104.464 31.6C103.696 31.6 103.109 31.7707 102.704 32.112C102.299 32.432 102.096 32.8373 102.096 33.328C102.096 33.84 102.288 34.288 102.672 34.672C103.077 35.056 103.643 35.408 104.368 35.728C105.115 36.048 106.011 36.3893 107.056 36.752C107.845 37.0507 108.581 37.4027 109.264 37.808C109.947 38.192 110.544 38.6613 111.056 39.216C111.589 39.7707 112.005 40.4107 112.304 41.136C112.603 41.8613 112.752 42.6933 112.752 43.632C112.752 44.7627 112.517 45.776 112.048 46.672C111.6 47.5467 110.981 48.2827 110.192 48.88C109.424 49.4773 108.539 49.9253 107.536 50.224C106.555 50.544 105.541 50.704 104.496 50.704C103.045 50.704 101.691 50.448 100.432 49.936C99.1947 49.4027 98.1173 48.688 97.2 47.792C96.2827 46.896 95.568 45.9147 95.056 44.848L98.832 42.128ZM116.368 27.6H121.872V50H116.368V27.6ZM142.074 27.6H147.29V51.12L131.802 37.392V50H126.618V26.48L142.074 40.208V27.6ZM155.544 45.68L155.928 41.552H167.032L167.384 45.68H155.544ZM161.4 35.824L158.264 43.056L158.52 44.24L155.736 50H149.624L161.4 26.192L173.208 50H167.064L164.376 44.464L164.568 43.088L161.4 35.824ZM181.744 40.976L187.216 27.6H193.552L181.744 51.408L169.968 27.6H176.272L181.744 40.976ZM199.483 50V45.552H210.779V50H199.483ZM199.483 32.048V27.6H210.779V32.048H199.483ZM199.483 40.4V36.048H210.139V40.4H199.483ZM195.899 27.6H201.083V50H195.899V27.6ZM214.637 32.432V27.6H232.205L221.613 45.36H231.053V50H213.101L223.533 32.432H214.637Z" fill="#0760BA"/>
<defs>
<clipPath id="clip0_876_90637">
<rect width="78" height="78" fill="white"/>
</clipPath>
</defs>
</svg>
