<svg width="101" height="19" viewBox="0 0 101 19" fill="none" xmlns="http://www.w3.org/2000/svg">
<path d="M3.288 12.36C3.64 12.984 4.024 13.528 4.44 13.992C4.872 14.456 5.344 14.816 5.856 15.072C6.368 15.328 6.92 15.456 7.512 15.456C8.2 15.456 8.76 15.28 9.192 14.928C9.624 14.576 9.84 14.096 9.84 13.488C9.84 12.96 9.704 12.536 9.432 12.216C9.176 11.896 8.784 11.616 8.256 11.376C7.744 11.12 7.112 10.848 6.36 10.56C5.96 10.416 5.496 10.224 4.968 9.984C4.456 9.728 3.968 9.408 3.504 9.024C3.04 8.624 2.656 8.144 2.352 7.584C2.048 7.008 1.896 6.32 1.896 5.52C1.896 4.56 2.136 3.736 2.616 3.048C3.112 2.344 3.776 1.808 4.608 1.44C5.456 1.056 6.4 0.863999 7.44 0.863999C8.512 0.863999 9.432 1.048 10.2 1.416C10.984 1.768 11.632 2.224 12.144 2.784C12.672 3.328 13.08 3.896 13.368 4.488L10.68 5.976C10.456 5.576 10.184 5.216 9.864 4.896C9.56 4.56 9.208 4.296 8.808 4.104C8.408 3.896 7.952 3.792 7.44 3.792C6.768 3.792 6.264 3.952 5.928 4.272C5.592 4.576 5.424 4.936 5.424 5.352C5.424 5.768 5.56 6.136 5.832 6.456C6.104 6.76 6.52 7.056 7.08 7.344C7.64 7.616 8.344 7.896 9.192 8.184C9.736 8.376 10.256 8.616 10.752 8.904C11.264 9.192 11.72 9.544 12.12 9.96C12.536 10.36 12.856 10.84 13.08 11.4C13.32 11.944 13.44 12.576 13.44 13.296C13.44 14.112 13.28 14.84 12.96 15.48C12.64 16.12 12.2 16.664 11.64 17.112C11.08 17.544 10.448 17.872 9.744 18.096C9.056 18.336 8.328 18.456 7.56 18.456C6.536 18.456 5.576 18.264 4.68 17.88C3.8 17.48 3.032 16.944 2.376 16.272C1.72 15.6 1.208 14.872 0.84 14.088L3.288 12.36ZM16.2381 1.2H19.7181V18H16.2381V1.2ZM35.2916 1.2H38.6036V18.84L26.6516 7.584V18H23.3396V0.36L35.2916 11.616V1.2ZM44.5817 14.184L44.9897 11.472H53.0537L53.4617 14.184H44.5817ZM48.9737 6.648L46.4537 12.432L46.5257 13.2L44.3177 18H40.4537L48.9737 0.215999L57.4937 18H53.6057L51.4457 13.344L51.4937 12.48L48.9737 6.648ZM63.6456 12.144L68.1816 1.2H72.1656L63.6456 18.984L55.1256 1.2H59.0856L63.6456 12.144ZM76.1961 18V15.096H84.6681V18H76.1961ZM76.1961 4.104V1.2H84.6681V4.104H76.1961ZM76.1961 10.512V7.656H84.1881V10.512H76.1961ZM73.9881 1.2H77.3001V18H73.9881V1.2ZM87.4266 4.296V1.2H100.171L91.9386 15H99.4266V18H86.4906L94.6266 4.296H87.4266Z" fill="#0760BA"/>
</svg>
