<svg width="64" height="77" viewBox="0 0 64 77" fill="none" xmlns="http://www.w3.org/2000/svg">
<g clip-path="url(#clip0_3288_161138)">
<path d="M31.6117 1.04785L0.105469 19.1193V55.2098L31.6117 73.2812L63.118 55.2098V19.1193L31.6117 1.04785ZM59.5293 21.1621V24.6717H48.8161L54.8852 18.5431L59.5293 21.1621ZM52.7742 37.2431L50.9799 40.0717V34.4145L52.7742 37.2431ZM51.0327 34.4145V28.2336H59.5293V33.8907L54.7796 36.5621L51.0327 34.4145ZM3.69412 21.1621L8.33826 18.4907L14.4073 24.6193H3.69412V21.1621ZM3.69412 28.1812H12.1908V34.4145L8.44381 36.5621L3.69412 33.8907V28.1812ZM3.69412 40.7002L8.44381 38.0288L12.1908 40.1764V46.4098H3.69412V40.7002ZM10.3965 37.2955L12.1908 34.4669V40.124L10.3965 37.2955ZM3.69412 53.1669V49.9717H14.1962L8.33826 55.8383L3.69412 53.1669ZM48.9745 59.1907L31.5589 69.1431L14.1434 59.1907L26.862 57.724L12.8768 56.2574L30.5562 38.5002V36.0383L13.6685 19.0145H20.6874H27.4425V17.7574L22.904 13.2526H20.793V15.505H13.7212L31.6117 5.23833L49.5022 15.505H42.4832V13.2526H40.3722L35.8337 17.7574V19.0145H42.536H49.555L32.6672 36.0907V38.5526L50.3466 56.3098L36.3614 57.7764L48.9745 59.1907ZM15.7794 48.4002V26.0336L26.862 37.2431L15.7794 48.4002ZM23.3262 16.3431V14.9288L24.8566 16.3431H23.3262ZM39.8973 14.9288V16.3431H38.3668L39.8973 14.9288ZM47.444 26.0336V48.4002L36.3614 37.2431L47.444 26.0336ZM59.5293 53.1669L54.8852 55.8383L49.0272 49.9717H59.5293V53.1669ZM59.5293 46.4098H51.0327V40.124L54.7796 37.9764L59.5293 40.6479V46.4098Z" fill="#FDFDFD"/>
<path d="M36.3614 48.3999H34.2504L35.3586 46.9332L34.1976 45.5713V46.776L32.9838 48.3475H31.6117H31.5589H30.1868L28.9202 46.776V45.5713L27.8119 46.9332L28.9202 48.3999H26.8092L27.3897 49.1332H28.2341L27.1258 50.2332L30.9256 54.3189H31.5589H31.6117H32.1922L36.0447 50.2332L34.8837 49.1332H35.7808L36.3614 48.3999Z" fill="#FDFDFD"/>
<path d="M31.6117 30.643H31.7172H33.7754L32.1922 25.8763L34.5143 28.0239L35.7281 26.8192V25.0906V23.362L34.567 22.2096L33.3532 21.0049H31.6117H29.8701L28.6563 22.2096L27.4425 23.362V25.0906V26.8192L28.6563 28.0239L30.9784 25.8763L29.4479 30.643H31.4006H31.6117Z" fill="#FDFDFD"/>
</g>
<defs>
<clipPath id="clip0_3288_161138">
<rect width="64" height="77" fill="white"/>
</clipPath>
</defs>
</svg>
