<svg width="333" height="200" viewBox="0 0 333 200" fill="none" xmlns="http://www.w3.org/2000/svg">
<g clip-path="url(#clip0_2695_47343)">
<path d="M55.8448 190.378C55.5781 190.39 55.3141 190.32 55.0886 190.177C54.8631 190.034 54.6869 189.825 54.5839 189.579C54.4809 189.332 54.4562 189.06 54.5129 188.799C54.5697 188.538 54.7053 188.3 54.9013 188.119L54.9905 187.764C54.9787 187.735 54.9669 187.707 54.955 187.678C54.6864 187.043 54.2363 186.501 53.6612 186.121C53.0861 185.741 52.4117 185.54 51.7227 185.543C51.0337 185.545 50.3608 185.752 49.7885 186.136C49.2163 186.52 48.7702 187.065 48.5063 187.702C47.4516 190.246 46.1087 192.794 45.7781 195.483C45.6324 196.672 45.6939 197.877 45.9596 199.045C43.4824 193.634 42.196 187.753 42.1877 181.801C42.1872 180.307 42.2701 178.815 42.436 177.33C42.5731 176.113 42.7633 174.905 43.0066 173.706C44.3343 167.197 47.1851 161.096 51.3247 155.905C53.3283 154.81 54.9486 153.127 55.9673 151.082C56.3364 150.347 56.5972 149.562 56.7418 148.752C56.5157 148.782 55.8895 145.335 56.06 145.124C55.745 144.645 55.1813 144.407 54.8373 143.94C53.1265 141.618 50.7693 142.023 49.5388 145.179C46.9102 146.508 46.8847 148.711 48.4977 150.83C49.5238 152.178 49.6648 154.002 50.5652 155.445C50.4725 155.564 50.3762 155.679 50.2836 155.797C48.5903 157.978 47.1145 160.319 45.8773 162.787C46.1781 160.022 45.819 157.224 44.8295 154.625C43.8267 152.203 41.9469 150.162 40.2916 148.068C38.3033 145.553 34.2261 146.651 33.8758 149.839C33.8724 149.87 33.8691 149.901 33.8659 149.932C34.1117 150.071 34.3524 150.218 34.5879 150.374C34.8837 150.572 35.113 150.855 35.2456 151.185C35.3782 151.516 35.4079 151.879 35.331 152.227C35.254 152.575 35.0739 152.891 34.8143 153.135C34.5546 153.378 34.2276 153.538 33.8759 153.592L33.8399 153.597C33.9275 154.485 34.0824 155.364 34.3031 156.228C32.1795 164.451 36.7641 167.446 43.3104 167.58C43.4549 167.655 43.5957 167.729 43.7403 167.799C42.4972 171.326 41.7176 175 41.4208 178.729C41.2528 180.929 41.2627 183.138 41.4504 185.336L41.4393 185.258C40.965 182.814 39.6628 180.609 37.7526 179.015C34.9155 176.681 30.9072 175.822 27.8465 173.946C27.5212 173.737 27.143 173.625 26.7564 173.624C26.3699 173.623 25.9911 173.733 25.6648 173.941C25.3385 174.148 25.0783 174.445 24.9149 174.795C24.7514 175.146 24.6915 175.536 24.7423 175.92C24.7464 175.947 24.7506 175.975 24.7548 176.002C25.2111 176.188 25.6553 176.402 26.085 176.644C26.3308 176.783 26.5715 176.93 26.807 177.086C27.1028 177.284 27.3321 177.567 27.4646 177.897C27.5972 178.228 27.627 178.591 27.55 178.939C27.4731 179.287 27.293 179.603 27.0334 179.847C26.7737 180.09 26.4467 180.25 26.095 180.304L26.059 180.309C26.0331 180.313 26.0108 180.317 25.9849 180.32C26.7645 182.184 27.8587 183.9 29.2195 185.392C30.5474 192.57 36.2504 193.251 42.3508 191.161H42.3545C43.0238 194.073 43.9936 196.908 45.2483 199.62H55.5857C55.6228 199.505 55.6562 199.386 55.6895 199.271C54.7327 199.331 53.772 199.274 52.8291 199.1C53.5961 198.158 54.363 197.208 55.13 196.266C55.1471 196.248 55.1632 196.23 55.1782 196.21C55.5672 195.728 55.96 195.249 56.349 194.767L56.3492 194.767C56.37 193.288 56.2002 191.813 55.8448 190.378Z" fill="#F2F2F2"/>
<path d="M271.76 190.378C272.027 190.39 272.291 190.32 272.516 190.177C272.742 190.034 272.918 189.825 273.021 189.579C273.124 189.332 273.149 189.06 273.092 188.799C273.035 188.538 272.9 188.3 272.704 188.119L272.615 187.764C272.626 187.735 272.638 187.707 272.65 187.678C272.919 187.043 273.369 186.501 273.944 186.121C274.519 185.741 275.193 185.54 275.882 185.543C276.571 185.545 277.244 185.752 277.816 186.136C278.389 186.52 278.835 187.065 279.099 187.702C280.153 190.246 281.496 192.794 281.827 195.483C281.973 196.672 281.911 197.877 281.645 199.045C284.123 193.634 285.409 187.753 285.417 181.801C285.418 180.307 285.335 178.815 285.169 177.33C285.032 176.113 284.842 174.905 284.598 173.706C283.271 167.197 280.42 161.096 276.28 155.905C274.277 154.81 272.656 153.127 271.638 151.082C271.269 150.347 271.008 149.562 270.863 148.752C271.089 148.782 271.715 145.335 271.545 145.124C271.86 144.645 272.424 144.407 272.768 143.94C274.479 141.618 276.836 142.023 278.066 145.179C280.695 146.508 280.72 148.711 279.107 150.83C278.081 152.178 277.94 154.002 277.04 155.445C277.132 155.564 277.229 155.679 277.321 155.797C279.015 157.978 280.491 160.319 281.728 162.787C281.427 160.022 281.786 157.224 282.775 154.625C283.778 152.203 285.658 150.162 287.313 148.068C289.302 145.553 293.379 146.651 293.729 149.839C293.733 149.87 293.736 149.901 293.739 149.932C293.493 150.071 293.253 150.218 293.017 150.374C292.721 150.572 292.492 150.855 292.359 151.185C292.227 151.516 292.197 151.879 292.274 152.227C292.351 152.575 292.531 152.891 292.791 153.135C293.05 153.378 293.377 153.538 293.729 153.592L293.765 153.597C293.678 154.485 293.523 155.364 293.302 156.228C295.426 164.451 290.841 167.446 284.295 167.58C284.15 167.655 284.009 167.729 283.865 167.799C285.108 171.326 285.887 175 286.184 178.729C286.352 180.929 286.342 183.138 286.155 185.336L286.166 185.258C286.64 182.814 287.942 180.609 289.852 179.015C292.69 176.681 296.698 175.822 299.759 173.946C300.084 173.737 300.462 173.625 300.849 173.624C301.235 173.623 301.614 173.733 301.94 173.941C302.267 174.148 302.527 174.445 302.69 174.795C302.854 175.146 302.914 175.536 302.863 175.92C302.859 175.947 302.854 175.975 302.85 176.002C302.394 176.188 301.95 176.402 301.52 176.644C301.274 176.783 301.034 176.93 300.798 177.086C300.502 177.284 300.273 177.567 300.14 177.897C300.008 178.228 299.978 178.591 300.055 178.939C300.132 179.287 300.312 179.603 300.572 179.847C300.831 180.09 301.158 180.25 301.51 180.304L301.546 180.309C301.572 180.313 301.594 180.317 301.62 180.32C300.841 182.184 299.746 183.9 298.386 185.392C297.058 192.57 291.355 193.251 285.254 191.161H285.251C284.581 194.073 283.611 196.908 282.357 199.62H272.019C271.982 199.505 271.949 199.386 271.916 199.271C272.872 199.331 273.833 199.274 274.776 199.1C274.009 198.158 273.242 197.208 272.475 196.266C272.458 196.248 272.442 196.23 272.427 196.21C272.038 195.728 271.645 195.249 271.256 194.767L271.256 194.767C271.235 193.288 271.405 191.813 271.76 190.378Z" fill="#F2F2F2"/>
<path d="M67.7347 199.388H84.4162C87.2692 189.769 84.4314 167.037 88.192 157.745C95.4068 139.93 104.624 121.133 121.827 112.434C129.172 108.72 137.181 107.269 145.36 107.348C156.659 107.455 168.275 110.492 178.91 114.517C183.261 116.16 187.572 117.966 191.865 119.812C208.042 126.772 224.043 134.353 241.439 136.402C263.452 138.993 289.333 129.132 295.346 107.89C299.935 91.6271 291.67 74.7434 283.003 60.2192C274.337 45.695 264.649 30.1547 266.231 13.3387C266.237 13.2822 266.243 13.2201 266.254 13.1637C266.85 7.12368 270.451 2.78291 275.482 0H253.577C253.288 15.687 262.352 29.5337 270.508 43.2056C279.175 57.7241 287.439 74.6135 282.85 90.8763C276.838 112.112 227.053 87.2194 205.04 84.6227C198.823 83.8945 208.698 86.4855 202.771 84.6227C193.475 81.7043 192.444 108.471 183.397 104.543C177.765 102.093 172.127 99.6597 166.415 97.4978C164.05 96.6002 161.633 95.7591 159.189 94.9802C159.183 94.9802 159.183 94.9801 159.177 94.9745C142.763 89.77 124.811 87.7434 109.644 95.268C109.542 95.3188 109.434 95.3697 109.332 95.4204C92.1284 104.114 82.9113 122.911 75.6965 140.726C69.7352 155.453 70.6728 183.853 67.7347 199.388Z" fill="#F2F2F2"/>
<path d="M160.543 198.895C202.857 198.895 237.16 164.549 237.16 122.18C237.16 79.8111 202.857 45.4644 160.543 45.4644C118.229 45.4644 83.9271 79.8111 83.9271 122.18C83.9271 164.549 118.229 198.895 160.543 198.895Z" fill="white"/>
<path d="M160.325 199.388C84.5206 201.132 82.8584 165.071 82.8584 122.18C82.8584 79.2891 117.708 44.3945 160.544 44.3945C203.379 44.3945 238.229 79.2892 238.229 122.18C238.229 165.071 203.16 199.388 160.325 199.388ZM160.543 46.5349C118.886 46.5349 85.6975 80.475 84.996 122.18C84.3435 160.97 125.499 209.376 160.543 197.826C179.337 177.101 232.471 154.779 236.091 122.18C240.694 80.7245 202.201 46.5349 160.543 46.5349Z" fill="#3F3D56"/>
<path d="M150.091 162.107C148.768 162.107 147.463 161.798 146.28 161.206C145.097 160.613 144.068 159.753 143.274 158.693L122.372 130.787C121.7 129.89 121.211 128.87 120.933 127.784C120.654 126.698 120.593 125.568 120.751 124.459C120.909 123.349 121.284 122.281 121.854 121.317C122.424 120.352 123.179 119.509 124.074 118.837C124.97 118.164 125.989 117.675 127.074 117.397C128.158 117.119 129.287 117.058 130.395 117.217C131.503 117.375 132.569 117.751 133.532 118.323C134.496 118.894 135.337 119.65 136.008 120.547L149.683 138.803L184.805 86.0518C186.059 84.1699 188.009 82.8638 190.225 82.4207C192.44 81.9775 194.741 82.4336 196.621 83.6886C198.501 84.9437 199.807 86.8949 200.251 89.1134C200.694 91.3318 200.24 93.6359 198.988 95.5191L157.183 158.307C156.427 159.442 155.41 160.38 154.217 161.04C153.025 161.701 151.691 162.066 150.329 162.104C150.25 162.105 150.17 162.107 150.091 162.107Z" fill="#F2F2F2"/>
<path d="M2.4425e-06 199.448C-0.000213683 199.52 0.0139152 199.592 0.0415722 199.659C0.0692293 199.726 0.109871 199.787 0.161159 199.839C0.212447 199.89 0.273364 199.931 0.340415 199.958C0.407466 199.986 0.479329 200 0.551858 200H332.242C332.388 200 332.528 199.942 332.632 199.838C332.735 199.735 332.794 199.594 332.794 199.448C332.794 199.301 332.735 199.16 332.632 199.057C332.528 198.953 332.388 198.895 332.242 198.895H0.551858C0.47933 198.895 0.407472 198.909 0.340422 198.937C0.273372 198.964 0.212453 199.005 0.161166 199.056C0.109879 199.108 0.0692372 199.169 0.0415793 199.236C0.0139214 199.303 -0.000211221 199.375 2.4425e-06 199.448Z" fill="#CCCCCC"/>
<path d="M209.469 194.031H204.983L202.849 176.704L209.47 176.705L209.469 194.031Z" fill="#FFB6B6"/>
<path d="M209.627 198.717L195.831 198.716V198.542C195.832 197.116 196.397 195.748 197.404 194.74C198.411 193.732 199.777 193.165 201.201 193.165L203.721 191.251L208.423 193.166L209.627 193.166L209.627 198.717Z" fill="#2F2E41"/>
<path d="M189.965 172.557L185.821 174.278L177.221 159.092L183.337 156.552L189.965 172.557Z" fill="#FFB6B6"/>
<path d="M191.904 176.825L179.16 182.116L179.094 181.955C178.548 180.638 178.548 179.158 179.092 177.84C179.636 176.522 180.681 175.475 181.997 174.929L183.592 172.194L188.668 172.159L189.78 171.697L191.904 176.825Z" fill="#2F2E41"/>
<path d="M214.598 95.4673L182.761 98.7979L178.502 113.16L163.753 136.893C163.753 136.893 174.045 154.237 173.078 154.048C172.112 153.859 174.044 158.587 175.396 158.313C176.749 158.038 178.156 161.121 177.221 161.669C176.285 162.217 180.038 166.851 180.038 166.851L185.773 161.697C186.993 152.484 185.519 144.284 180.268 137.506L196.699 119.744L199.814 118.45L202.287 184.358L211.435 184.508C213.959 171.507 215.227 159.805 213.254 151.458C213.254 151.458 213.538 126.381 214.619 126.655C215.701 126.929 214.784 123.662 214.784 123.662C214.784 123.662 213.837 120.88 215.001 119.726C216.165 118.571 215.438 111.783 215.438 111.783C217.361 105.358 216.782 100.054 214.598 95.4673Z" fill="#2F2E41"/>
<path d="M190.119 42.4654L198.92 40.1817L203.029 34.5078L212.786 35.7088L214.863 43.4481L221.809 47.4854C221.809 47.4854 217.97 88.1461 218.883 90.3787C219.797 92.6114 223.071 92.4271 220.274 95.3051C217.478 98.1832 217.108 97.0239 217.756 100.157C218.405 103.291 223.136 106.607 217.756 106.574C212.377 106.541 179.917 106.076 180.845 102.362C181.772 98.6475 181.757 99.5907 183.156 97.2618C184.554 94.9329 185.495 96.2344 185.025 92.7978C184.554 89.3612 185.018 87.0396 185.018 85.1824C185.018 83.3251 186.572 66.4479 186.572 66.4479L190.119 42.4654Z" fill="#E6E6E6"/>
<path d="M207.883 33.4591C213.594 33.4591 218.223 28.8239 218.223 23.106C218.223 17.3882 213.594 12.7529 207.883 12.7529C202.173 12.7529 197.543 17.3882 197.543 23.106C197.543 28.8239 202.173 33.4591 207.883 33.4591Z" fill="#FFB6B6"/>
<path d="M197.049 16.8401C197.957 17.5747 197.749 21.1475 198.761 20.5651C199.772 19.9828 199.983 18.94 201.148 18.929C202.097 18.9815 202.993 19.3875 203.659 20.0672C203.783 20.1794 203.901 20.297 204.016 20.4133C204.121 20.3765 204.224 20.3432 204.333 20.3158C205.15 20.1161 206.012 20.2377 206.742 20.6556C206.068 20.7038 205.426 20.963 204.907 21.3965C205.129 21.6461 205.355 21.897 205.592 22.1289C207.573 24.072 211.633 22.0027 214.363 21.5358C212.089 24.0217 212.537 25.4095 213.103 28.7322L213.105 28.9137C213.222 28.1475 215.673 28.1857 215.269 29.2024C214.761 30.2069 214.126 31.1415 213.379 31.983C216.719 29.6665 219.415 26.4733 220.011 22.616C220.133 21.805 220.372 20.9775 220.141 20.1868C220.043 19.787 219.815 19.4309 219.494 19.1743C219.172 18.9177 218.775 18.7749 218.364 18.7683C218.736 17.585 218.781 16.323 218.494 15.1163C218.207 13.9096 217.598 12.8033 216.734 11.9152C215.869 11.027 214.78 10.39 213.582 10.0721C212.385 9.75413 211.124 9.76704 209.933 10.1094C208.847 10.496 207.787 10.9539 206.761 11.4801C205.726 12.0084 204.554 12.2071 203.402 12.0498C202.685 11.9014 201.959 11.5295 201.255 11.7401C200.441 11.9847 200.09 12.8463 199.764 13.678C200.377 13.9021 200.909 14.3042 201.293 14.8328C200.659 14.5986 199.968 14.5705 199.317 14.7524C199.305 14.7545 199.294 14.7577 199.282 14.762C198.544 16.0855 198.502 16.4101 197.049 16.8401Z" fill="#2F2E41"/>
<path d="M200.458 37.4083C195.162 36.9814 190.327 41.0369 188.122 45.8772C185.917 50.7175 185.773 56.2085 185.666 61.5274L185.333 78.061C185.284 80.5075 185.235 82.9546 185.113 85.3986C185.05 87.7768 184.752 90.1429 184.221 92.4619C183.141 96.7173 180.766 100.509 178.426 104.222C184.418 106.036 190.512 107.493 196.676 108.586C199.754 98.6169 202.868 88.361 202.111 77.9534C201.711 72.4461 200.231 67.0692 199.669 61.5761C198.873 53.7964 199.928 45.9594 200.982 38.2104" fill="#3F3D56"/>
<path d="M213.314 38.3384C218.559 39.1829 222.295 44.2722 223.288 49.4983C224.282 54.7244 223.12 60.0926 221.963 65.2848C220.763 70.6647 219.564 76.0446 218.365 81.4245C217.832 83.8128 217.3 86.2016 216.838 88.6046C216.39 90.9391 218.267 93.9332 218.289 96.3103C218.329 100.701 217.477 104.317 218.87 108.48C212.619 108.817 206.354 108.783 200.107 108.38C199.481 97.9634 198.889 87.2605 202.092 77.3306C203.787 72.0761 206.5 67.2047 208.349 62.0025C210.967 54.6347 211.801 46.7708 212.615 38.993" fill="#3F3D56"/>
<path d="M216.81 113.395C216.421 112.716 216.312 111.91 216.506 111.151C216.7 110.392 217.183 109.739 217.851 109.33C217.988 109.249 218.131 109.18 218.28 109.123L217.611 86.3175L224.857 84.4707L222.094 111.04C222.283 111.675 222.257 112.355 222.019 112.973C221.782 113.592 221.347 114.114 220.782 114.459C220.458 114.652 220.1 114.78 219.727 114.834C219.355 114.889 218.975 114.869 218.61 114.777C218.245 114.684 217.902 114.521 217.6 114.296C217.298 114.07 217.043 113.788 216.85 113.464C216.836 113.441 216.823 113.418 216.81 113.395Z" fill="#FFB6B6"/>
<path d="M216.281 47.4489C216.281 47.4489 221.339 43.166 225.596 51.7296C229.852 60.2931 227.473 79.8567 226.874 80.9008C226.275 81.9449 225.909 80.4904 226.237 83.2736C226.504 85.5371 224.918 85.254 225.487 85.737C226.988 87.0107 222.785 87.1557 224.943 88.278C227.102 89.4003 217.441 89.6105 217.441 89.6105C217.441 89.6105 216.273 88.7749 217.084 85.624C217.54 83.8543 218.681 83.2069 217.464 82.388C216.247 81.5691 218.721 79.0374 218.723 78.4819C218.725 77.9264 214.865 65.7767 214.865 65.7767L216.281 47.4489Z" fill="#3F3D56"/>
<path d="M174.427 152.945C173.104 152.945 171.799 152.636 170.616 152.044C169.432 151.451 168.403 150.591 167.61 149.531L146.707 121.625C146.035 120.728 145.546 119.708 145.268 118.622C144.99 117.537 144.928 116.407 145.086 115.297C145.244 114.187 145.619 113.119 146.189 112.155C146.76 111.19 147.514 110.348 148.41 109.675C149.306 109.003 150.325 108.513 151.409 108.235C152.494 107.957 153.622 107.896 154.731 108.055C155.839 108.213 156.905 108.589 157.868 109.161C158.831 109.732 159.672 110.488 160.343 111.385L174.018 129.641L209.14 76.8899C209.761 75.9575 210.559 75.1566 211.489 74.533C212.419 73.9094 213.463 73.4753 214.56 73.2556C215.658 73.0358 216.788 73.0346 217.886 73.2521C218.984 73.4696 220.028 73.9014 220.959 74.5231C221.891 75.1447 222.69 75.9439 223.313 76.8751C223.936 77.8062 224.369 78.8511 224.589 79.95C224.808 81.0489 224.81 82.1803 224.592 83.2796C224.375 84.379 223.944 85.4248 223.323 86.3572L181.519 149.145C180.763 150.28 179.746 151.218 178.553 151.878C177.36 152.539 176.027 152.904 174.664 152.942C174.585 152.944 174.506 152.945 174.427 152.945Z" fill="#52B4AD"/>
<path d="M174.427 152.945C173.104 152.945 171.799 152.636 170.616 152.044C169.432 151.451 168.403 150.591 167.61 149.531L146.707 121.625C146.035 120.728 145.546 119.708 145.268 118.622C144.99 117.537 144.928 116.407 145.086 115.297C145.244 114.187 145.619 113.119 146.189 112.155C146.76 111.19 147.514 110.348 148.41 109.675C149.306 109.003 150.325 108.513 151.409 108.235C152.494 107.957 153.622 107.896 154.731 108.055C155.839 108.213 156.905 108.589 157.868 109.161C158.831 109.732 159.672 110.488 160.343 111.385L174.018 129.641L209.14 76.8899C209.761 75.9575 210.559 75.1566 211.489 74.533C212.419 73.9094 213.463 73.4753 214.56 73.2556C215.658 73.0358 216.788 73.0346 217.886 73.2521C218.984 73.4696 220.028 73.9014 220.959 74.5231C221.891 75.1447 222.69 75.9439 223.313 76.8751C223.936 77.8062 224.369 78.8511 224.589 79.95C224.808 81.0489 224.81 82.1803 224.592 83.2796C224.375 84.379 223.944 85.4248 223.323 86.3572L181.519 149.145C180.763 150.28 179.746 151.218 178.553 151.878C177.36 152.539 176.027 152.904 174.664 152.942C174.585 152.944 174.506 152.945 174.427 152.945Z" fill="black" fill-opacity="0.2"/>
<path d="M190.36 109.434C190.787 108.777 190.94 107.979 190.788 107.21C190.636 106.441 190.19 105.762 189.546 105.318C189.414 105.229 189.274 105.152 189.129 105.087L191.055 82.3533L183.922 80.1084L185.215 106.79C184.991 107.413 184.98 108.094 185.182 108.724C185.385 109.355 185.791 109.901 186.336 110.276C186.649 110.487 186.999 110.634 187.368 110.709C187.737 110.784 188.118 110.786 188.487 110.714C188.857 110.642 189.209 110.497 189.523 110.289C189.837 110.081 190.107 109.813 190.317 109.5C190.332 109.478 190.346 109.456 190.36 109.434Z" fill="#FFB6B6"/>
<path d="M194.535 43.6647C194.535 43.6647 189.721 39.1084 184.998 47.4233C180.276 55.7383 181.571 75.4035 182.112 76.4792C182.652 77.5549 183.098 76.1228 182.616 78.8836C182.225 81.1289 183.825 80.934 183.23 81.3848C181.661 82.5735 185.849 82.9509 183.632 83.952C181.415 84.9531 191.049 85.6976 191.049 85.6976C191.049 85.6976 192.262 84.9279 191.626 81.737C191.268 79.9447 190.165 79.2352 191.425 78.4849C192.686 77.7346 190.355 75.0698 190.384 74.5151C190.413 73.9603 194.937 62.0428 194.937 62.0428L194.535 43.6647Z" fill="#3F3D56"/>
</g>
<defs>
<clipPath id="clip0_2695_47343">
<rect width="332.794" height="200" fill="white"/>
</clipPath>
</defs>
</svg>
