<svg width="411" height="247" viewBox="0 0 411 247" fill="none" xmlns="http://www.w3.org/2000/svg">
<g clip-path="url(#clip0_535_50867)">
<path d="M68.9683 235.117C68.639 235.132 68.313 235.045 68.0344 234.869C67.7559 234.692 67.5383 234.434 67.4111 234.129C67.284 233.825 67.2533 233.489 67.3235 233.166C67.3936 232.844 67.561 232.55 67.8031 232.326L67.9132 231.888C67.8987 231.853 67.8841 231.818 67.8694 231.783C67.5377 230.998 66.9818 230.329 66.2716 229.86C65.5613 229.39 64.7284 229.142 63.8775 229.145C63.0266 229.148 62.1956 229.403 61.4888 229.877C60.7821 230.352 60.2312 231.025 59.9052 231.812C58.6027 234.953 56.9443 238.1 56.5359 241.422C56.3561 242.89 56.4319 244.378 56.7601 245.82C53.7007 239.138 52.112 231.875 52.1018 224.524C52.1012 222.679 52.2035 220.836 52.4084 219.002C52.5777 217.5 52.8126 216.007 53.1131 214.526C54.7529 206.488 58.2736 198.954 63.386 192.542C65.8605 191.19 67.8616 189.112 69.1197 186.586C69.5755 185.678 69.8976 184.709 70.0761 183.709C69.7969 183.745 69.0236 179.489 69.2341 179.227C68.8451 178.636 68.1489 178.343 67.7241 177.766C65.6112 174.898 62.7001 175.398 61.1805 179.296C57.9341 180.937 57.9027 183.658 59.8946 186.274C61.1619 187.939 61.3361 190.192 62.448 191.974C62.3336 192.121 62.2146 192.263 62.1002 192.409C60.009 195.102 58.1864 197.993 56.6584 201.042C57.03 197.626 56.5865 194.172 55.3645 190.962C54.1259 187.97 51.8044 185.45 49.7601 182.864C47.3046 179.757 42.2692 181.113 41.8366 185.051C41.8324 185.089 41.8283 185.127 41.8243 185.166C42.128 185.337 42.4252 185.519 42.7161 185.712C43.0814 185.956 43.3645 186.305 43.5283 186.714C43.692 187.122 43.7288 187.57 43.6337 188C43.5387 188.429 43.3163 188.82 42.9956 189.121C42.675 189.422 42.2711 189.619 41.8368 189.686L41.7923 189.692C41.9005 190.788 42.0917 191.874 42.3643 192.941C39.7417 203.096 45.4037 206.795 53.4883 206.961C53.6668 207.053 53.8407 207.145 54.0192 207.232C52.4841 211.588 51.5212 216.125 51.1547 220.73C50.9472 223.446 50.9594 226.175 51.1913 228.89L51.1775 228.794C50.5918 225.775 48.9836 223.052 46.6245 221.083C43.1207 218.201 38.1704 217.139 34.3904 214.823C33.9887 214.565 33.5216 214.427 33.0442 214.426C32.5668 214.424 32.099 214.56 31.696 214.816C31.2931 215.073 30.9717 215.439 30.7698 215.872C30.568 216.305 30.494 216.787 30.5567 217.261C30.5618 217.295 30.5669 217.328 30.5722 217.362C31.1357 217.592 31.6843 217.857 32.2149 218.155C32.5186 218.326 32.8158 218.508 33.1066 218.701C33.472 218.945 33.7551 219.295 33.9188 219.703C34.0826 220.111 34.1193 220.559 34.0243 220.989C33.9292 221.419 33.7068 221.809 33.3862 222.11C33.0656 222.411 32.6616 222.608 32.2274 222.675L32.1829 222.682C32.1508 222.686 32.1234 222.691 32.0914 222.695C33.0542 224.997 34.4055 227.116 36.0861 228.959C37.726 237.824 44.7692 238.665 52.3032 236.084H52.3078C53.1344 239.68 54.3321 243.181 55.8816 246.53H68.6484C68.6942 246.388 68.7353 246.242 68.7765 246.099C67.5948 246.174 66.4084 246.103 65.2439 245.889C66.1911 244.725 67.1383 243.552 68.0856 242.388C68.1067 242.366 68.1266 242.344 68.1451 242.319C68.6255 241.724 69.1106 241.133 69.591 240.537L69.5913 240.536C69.6169 238.711 69.4072 236.889 68.9683 235.117Z" fill="#F2F2F2"/>
<path d="M335.624 235.117C335.953 235.132 336.279 235.045 336.558 234.869C336.836 234.692 337.054 234.434 337.181 234.129C337.308 233.825 337.339 233.489 337.269 233.166C337.199 232.844 337.031 232.55 336.789 232.326L336.679 231.888C336.693 231.853 336.708 231.818 336.723 231.783C337.054 230.998 337.61 230.329 338.321 229.86C339.031 229.39 339.864 229.142 340.715 229.145C341.566 229.148 342.397 229.403 343.103 229.877C343.81 230.352 344.361 231.025 344.687 231.812C345.99 234.953 347.648 238.1 348.056 241.422C348.236 242.89 348.16 244.378 347.832 245.82C350.891 239.138 352.48 231.875 352.49 224.524C352.491 222.679 352.389 220.836 352.184 219.002C352.014 217.5 351.78 216.007 351.479 214.526C349.839 206.488 346.319 198.954 341.206 192.542C338.732 191.19 336.731 189.112 335.472 186.586C335.017 185.678 334.695 184.709 334.516 183.709C334.795 183.745 335.569 179.489 335.358 179.227C335.747 178.636 336.443 178.343 336.868 177.766C338.981 174.898 341.892 175.398 343.412 179.296C346.658 180.937 346.69 183.658 344.698 186.274C343.43 187.939 343.256 190.192 342.144 191.974C342.259 192.121 342.378 192.263 342.492 192.409C344.583 195.102 346.406 197.993 347.934 201.042C347.562 197.626 348.006 194.172 349.228 190.962C350.466 187.97 352.788 185.45 354.832 182.864C357.288 179.757 362.323 181.113 362.756 185.051C362.76 185.089 362.764 185.127 362.768 185.166C362.464 185.337 362.167 185.519 361.876 185.712C361.511 185.956 361.228 186.305 361.064 186.714C360.9 187.122 360.863 187.57 360.958 188C361.053 188.429 361.276 188.82 361.597 189.121C361.917 189.422 362.321 189.619 362.755 189.686L362.8 189.692C362.692 190.788 362.5 191.874 362.228 192.941C364.85 203.096 359.188 206.795 351.104 206.961C350.925 207.053 350.751 207.145 350.573 207.232C352.108 211.588 353.071 216.125 353.438 220.73C353.645 223.446 353.633 226.175 353.401 228.89L353.415 228.794C354 225.775 355.609 223.052 357.968 221.083C361.472 218.201 366.422 217.139 370.202 214.823C370.604 214.565 371.071 214.427 371.548 214.426C372.025 214.424 372.493 214.56 372.896 214.816C373.299 215.073 373.62 215.439 373.822 215.872C374.024 216.305 374.098 216.787 374.035 217.261C374.03 217.295 374.025 217.328 374.02 217.362C373.457 217.592 372.908 217.857 372.377 218.155C372.074 218.326 371.776 218.508 371.486 218.701C371.12 218.945 370.837 219.295 370.673 219.703C370.51 220.111 370.473 220.559 370.568 220.989C370.663 221.419 370.885 221.809 371.206 222.11C371.527 222.411 371.931 222.608 372.365 222.675L372.409 222.682C372.441 222.686 372.469 222.691 372.501 222.695C371.538 224.997 370.187 227.116 368.506 228.959C366.866 237.824 359.823 238.665 352.289 236.084H352.284C351.458 239.68 350.26 243.181 348.711 246.53H335.944C335.898 246.388 335.857 246.242 335.816 246.099C336.997 246.174 338.184 246.103 339.348 245.889C338.401 244.725 337.454 243.552 336.507 242.388C336.486 242.366 336.466 242.344 336.447 242.319C335.967 241.724 335.482 241.133 335.001 240.537L335.001 240.536C334.975 238.711 335.185 236.889 335.624 235.117Z" fill="#F2F2F2"/>
<path d="M83.6525 246.244H104.254C107.778 234.365 104.273 206.29 108.917 194.815C117.827 172.814 129.21 149.599 150.457 138.856C159.528 134.269 169.419 132.477 179.52 132.575C193.474 132.707 207.82 136.458 220.954 141.428C226.327 143.457 231.651 145.688 236.954 147.968C256.932 156.563 276.693 165.926 298.177 168.457C325.363 171.656 357.327 159.477 364.752 133.244C370.419 113.159 360.213 92.3081 349.509 74.3707C338.806 56.4333 326.841 37.241 328.796 16.4733C328.803 16.4036 328.81 16.3268 328.824 16.2571C329.559 8.79775 334.007 3.43689 340.221 0H313.168C312.81 19.3735 324.004 36.4742 334.077 53.3589C344.781 71.2893 354.987 92.1477 349.32 112.232C341.895 138.459 280.41 107.716 253.224 104.509C245.547 103.61 257.742 106.81 250.422 104.509C238.941 100.905 237.668 133.962 226.495 129.11C219.539 126.084 212.577 123.08 205.523 120.41C202.601 119.301 199.617 118.263 196.598 117.3C196.591 117.3 196.591 117.3 196.584 117.294C176.312 110.866 154.141 108.363 135.41 117.656C135.284 117.719 135.151 117.782 135.025 117.844C113.779 128.58 102.396 151.795 93.4852 173.797C86.123 191.985 87.281 227.059 83.6525 246.244Z" fill="#F2F2F2"/>
<path d="M198.271 245.636C250.529 245.636 292.892 203.218 292.892 150.892C292.892 98.5666 250.529 56.1484 198.271 56.1484C146.013 56.1484 103.65 98.5666 103.65 150.892C103.65 203.218 146.013 245.636 198.271 245.636Z" fill="white"/>
<path d="M198.001 246.244C104.383 248.398 102.33 203.863 102.33 150.892C102.33 97.922 145.369 54.8271 198.271 54.8271C251.173 54.8271 294.212 97.922 294.212 150.892C294.212 203.863 250.903 246.244 198.001 246.244ZM198.271 57.4705C146.824 57.4705 105.836 99.3865 104.97 150.892C104.164 198.798 154.991 258.579 198.271 244.315C221.481 218.72 287.102 191.153 291.572 150.892C297.257 99.6947 249.718 57.4705 198.271 57.4705Z" fill="#3F3D56"/>
<path d="M185.363 200.202C183.729 200.202 182.117 199.821 180.656 199.089C179.195 198.357 177.924 197.295 176.944 195.986L151.129 161.522C150.299 160.415 149.695 159.155 149.352 157.814C149.008 156.473 148.932 155.077 149.127 153.707C149.322 152.336 149.785 151.017 150.49 149.826C151.194 148.635 152.126 147.594 153.232 146.764C154.338 145.933 155.597 145.329 156.936 144.985C158.276 144.642 159.669 144.566 161.038 144.762C162.407 144.959 163.723 145.423 164.913 146.129C166.102 146.834 167.141 147.768 167.97 148.876L184.858 171.421L228.234 106.274C229.783 103.95 232.191 102.337 234.927 101.79C237.664 101.242 240.506 101.806 242.827 103.356C245.149 104.905 246.762 107.315 247.31 110.055C247.858 112.795 247.297 115.64 245.75 117.966L194.122 195.509C193.188 196.911 191.931 198.069 190.459 198.885C188.986 199.701 187.339 200.151 185.656 200.199C185.558 200.2 185.461 200.202 185.363 200.202Z" fill="#F2F2F2"/>
<path d="M3.01649e-06 246.317C-0.000263899 246.407 0.0171853 246.496 0.0513417 246.579C0.0854981 246.662 0.135691 246.737 0.199031 246.8C0.262371 246.864 0.337604 246.914 0.420412 246.948C0.503221 246.982 0.591971 247 0.681545 247H410.318C410.499 247 410.673 246.928 410.8 246.8C410.928 246.672 411 246.498 411 246.317C411 246.136 410.928 245.963 410.8 245.835C410.673 245.707 410.499 245.635 410.318 245.635H0.681545C0.591972 245.634 0.503228 245.652 0.420421 245.686C0.337614 245.72 0.26238 245.771 0.19904 245.834C0.1357 245.897 0.0855079 245.973 0.0513505 246.056C0.017193 246.139 -0.000260859 246.227 3.01649e-06 246.317Z" fill="#CCCCCC"/>
<path d="M258.694 239.628H253.154L250.518 218.229L258.696 218.23L258.694 239.628Z" fill="#FFB6B6"/>
<path d="M258.89 245.416L241.852 245.415V245.199C241.852 243.438 242.551 241.75 243.794 240.504C245.038 239.259 246.725 238.56 248.483 238.559L251.596 236.195L257.402 238.56L258.89 238.56L258.89 245.416Z" fill="#2F2E41"/>
<path d="M234.607 213.108L229.489 215.233L218.868 196.478L226.421 193.342L234.607 213.108Z" fill="#FFB6B6"/>
<path d="M237.001 218.379L221.263 224.914L221.181 224.714C220.507 223.088 220.506 221.26 221.179 219.632C221.851 218.005 223.141 216.712 224.766 216.037L226.737 212.659L233.005 212.616L234.379 212.046L237.001 218.379Z" fill="#2F2E41"/>
<path d="M265.029 117.902L225.71 122.016L220.45 139.753L202.235 169.063C202.235 169.063 214.945 190.483 213.752 190.25C212.558 190.017 214.944 195.855 216.615 195.516C218.285 195.177 220.023 198.984 218.868 199.661C217.713 200.338 222.347 206.062 222.347 206.062L229.429 199.696C230.936 188.318 229.116 178.191 222.631 169.82L242.923 147.884L246.771 146.286L249.825 227.682L261.122 227.868C264.24 211.811 265.806 197.36 263.369 187.051C263.369 187.051 263.719 156.08 265.055 156.419C266.391 156.758 265.258 152.723 265.258 152.723C265.258 152.723 264.088 149.287 265.526 147.862C266.964 146.436 266.066 138.052 266.066 138.052C268.441 130.118 267.726 123.566 265.029 117.902Z" fill="#2F2E41"/>
<path d="M234.797 52.4449L245.667 49.6245L250.741 42.6172L262.791 44.1005L265.356 53.6585L273.935 58.6445C273.935 58.6445 269.193 108.86 270.321 111.618C271.449 114.375 275.493 114.147 272.039 117.702C268.585 121.256 268.128 119.825 268.929 123.694C269.731 127.564 275.573 131.659 268.929 131.619C262.286 131.578 222.198 131.005 223.343 126.417C224.488 121.83 224.47 122.995 226.197 120.118C227.925 117.242 229.087 118.849 228.506 114.605C227.925 110.361 228.497 107.494 228.497 105.2C228.497 102.907 230.416 82.0632 230.416 82.0632L234.797 52.4449Z" fill="#E6E6E6"/>
<path d="M256.735 41.3216C263.788 41.3216 269.505 35.5971 269.505 28.5356C269.505 21.474 263.788 15.7495 256.735 15.7495C249.683 15.7495 243.966 21.474 243.966 28.5356C243.966 35.5971 249.683 41.3216 256.735 41.3216Z" fill="#FFB6B6"/>
<path d="M243.355 20.7975C244.476 21.7047 244.22 26.117 245.469 25.3979C246.719 24.6787 246.978 23.3908 248.417 23.3773C249.59 23.4421 250.696 23.9434 251.519 24.7829C251.672 24.9214 251.818 25.0667 251.959 25.2103C252.089 25.1649 252.217 25.1238 252.351 25.09C253.36 24.8433 254.425 24.9935 255.327 25.5096C254.494 25.5691 253.701 25.8892 253.06 26.4247C253.335 26.7328 253.614 27.0427 253.907 27.3291C256.352 29.7288 261.367 27.1733 264.738 26.5966C261.93 29.6668 262.484 31.3807 263.182 35.4842L263.185 35.7084C263.329 34.762 266.356 34.8092 265.857 36.0649C265.23 37.3054 264.446 38.4596 263.524 39.4989C267.648 36.638 270.978 32.6944 271.713 27.9307C271.864 26.9291 272.159 25.9072 271.874 24.9306C271.753 24.4368 271.472 23.9971 271.075 23.6802C270.678 23.3632 270.187 23.1869 269.68 23.1787C270.139 21.7175 270.194 20.1588 269.84 18.6686C269.485 17.1783 268.734 15.8121 267.666 14.7151C266.598 13.6182 265.253 12.8316 263.774 12.439C262.295 12.0463 260.738 12.0622 259.267 12.4851C257.926 12.9625 256.617 13.5279 255.35 14.1779C254.071 14.8303 252.624 15.0758 251.202 14.8814C250.316 14.6982 249.419 14.2389 248.55 14.4989C247.544 14.8011 247.112 15.8651 246.708 16.8922C247.465 17.1691 248.123 17.6656 248.597 18.3184C247.814 18.0292 246.96 17.9945 246.157 18.2192C246.142 18.2218 246.127 18.2257 246.113 18.2309C245.202 19.8656 245.15 20.2664 243.355 20.7975Z" fill="#2F2E41"/>
<path d="M247.566 46.1993C241.025 45.6721 235.053 50.6805 232.331 56.6583C229.608 62.6361 229.429 69.4175 229.297 75.9864L228.886 96.4053C228.826 99.4268 228.765 102.449 228.614 105.467C228.537 108.404 228.168 111.326 227.513 114.19C226.18 119.446 223.246 124.129 220.356 128.714C227.756 130.954 235.282 132.754 242.895 134.104C246.697 121.792 250.542 109.126 249.607 96.2725C249.113 89.471 247.286 82.8304 246.591 76.0465C245.608 66.4386 246.911 56.7598 248.212 47.1898" fill="#3F3D56"/>
<path d="M263.442 47.3477C269.921 48.3907 274.534 54.6759 275.761 61.1301C276.988 67.5844 275.553 74.2142 274.124 80.6265C272.643 87.2707 271.162 93.9149 269.68 100.559C269.023 103.509 268.365 106.459 267.795 109.426C267.242 112.31 269.56 116.007 269.587 118.943C269.636 124.365 268.584 128.831 270.305 133.972C262.585 134.388 254.847 134.347 247.132 133.849C246.359 120.985 245.628 107.767 249.584 95.5031C251.677 89.0137 255.027 82.9976 257.31 76.5728C260.545 67.4736 261.574 57.7617 262.579 48.1561" fill="#3F3D56"/>
<path d="M267.761 140.043C267.28 139.204 267.145 138.209 267.385 137.272C267.625 136.334 268.221 135.527 269.046 135.023C269.215 134.923 269.392 134.837 269.576 134.766L268.75 106.602L277.699 104.321L274.286 137.134C274.52 137.918 274.487 138.758 274.194 139.522C273.901 140.286 273.364 140.931 272.666 141.357C272.266 141.595 271.824 141.753 271.364 141.82C270.903 141.888 270.434 141.863 269.983 141.749C269.533 141.635 269.108 141.433 268.736 141.155C268.363 140.877 268.048 140.528 267.81 140.128C267.793 140.1 267.777 140.072 267.761 140.043Z" fill="#FFB6B6"/>
<path d="M267.108 58.5996C267.108 58.5996 273.354 53.3102 278.611 63.8862C283.867 74.4622 280.93 98.6231 280.19 99.9126C279.45 101.202 278.998 99.4058 279.403 102.843C279.733 105.638 277.773 105.289 278.476 105.885C280.33 107.458 275.14 107.637 277.805 109.023C280.471 110.409 268.54 110.669 268.54 110.669C268.54 110.669 267.097 109.637 268.099 105.746C268.662 103.56 270.072 102.761 268.568 101.749C267.065 100.738 270.121 97.6113 270.123 96.9252C270.125 96.2392 265.358 81.2343 265.358 81.2343L267.108 58.5996Z" fill="#3F3D56"/>
<path d="M215.417 188.887C213.783 188.887 212.172 188.506 210.71 187.774C209.249 187.042 207.978 185.979 206.998 184.67L181.184 150.206C180.354 149.099 179.75 147.839 179.406 146.498C179.063 145.157 178.986 143.762 179.181 142.391C179.377 141.021 179.84 139.702 180.544 138.511C181.248 137.32 182.18 136.279 183.286 135.448C184.392 134.618 185.651 134.014 186.99 133.67C188.33 133.327 189.724 133.251 191.092 133.447C192.461 133.643 193.777 134.107 194.967 134.813C196.156 135.519 197.195 136.453 198.024 137.56L214.913 160.106L258.289 94.9587C259.055 93.8071 260.041 92.818 261.189 92.0479C262.338 91.2778 263.627 90.7417 264.982 90.4703C266.337 90.1989 267.733 90.1974 269.089 90.466C270.445 90.7346 271.735 91.268 272.885 92.0357C274.035 92.8034 275.023 93.7904 275.792 94.9404C276.561 96.0903 277.096 97.3807 277.367 98.7379C277.638 100.095 277.64 101.492 277.372 102.85C277.103 104.208 276.571 105.499 275.804 106.651L224.176 184.193C223.242 185.596 221.986 186.754 220.513 187.57C219.04 188.386 217.393 188.836 215.71 188.883C215.612 188.885 215.515 188.887 215.417 188.887Z" fill="#0A645E"/>
<path d="M235.095 135.151C235.621 134.339 235.811 133.354 235.623 132.404C235.435 131.455 234.885 130.616 234.089 130.067C233.926 129.958 233.753 129.862 233.574 129.782L235.953 101.706L227.144 98.9336L228.74 131.885C228.464 132.655 228.45 133.495 228.7 134.274C228.951 135.053 229.452 135.727 230.125 136.191C230.511 136.451 230.944 136.633 231.4 136.726C231.856 136.818 232.325 136.82 232.782 136.731C233.238 136.642 233.673 136.464 234.06 136.207C234.448 135.95 234.782 135.619 235.041 135.232C235.06 135.206 235.077 135.178 235.095 135.151Z" fill="#FFB6B6"/>
<path d="M240.25 53.9257C240.25 53.9257 234.305 48.2987 228.473 58.5676C222.641 68.8366 224.24 93.1232 224.908 94.4516C225.576 95.7801 226.126 94.0115 225.531 97.421C225.048 100.194 227.024 99.9533 226.289 100.51C224.352 101.978 229.524 102.444 226.786 103.681C224.048 104.917 235.946 105.836 235.946 105.836C235.946 105.836 237.444 104.886 236.658 100.945C236.216 98.7316 234.853 97.8553 236.41 96.9286C237.967 96.002 235.088 92.711 235.124 92.0259C235.16 91.3408 240.748 76.6227 240.748 76.6227L240.25 53.9257Z" fill="#3F3D56"/>
</g>
<defs>
<clipPath id="clip0_535_50867">
<rect width="411" height="247" fill="white"/>
</clipPath>
</defs>
</svg>
