<svg width="176" height="23" viewBox="0 0 176 23" fill="none" xmlns="http://www.w3.org/2000/svg">
<g clip-path="url(#clip0_3288_161166)">
<path d="M152.083 1.63863C150.861 1.12657 149.428 0.819336 147.729 0.819336H145.18H143.428H140.72V21.6601H145.127V14.0817H147.676C149.375 14.0817 150.861 13.8256 152.029 13.2624C153.251 12.7503 154.153 11.9822 154.79 10.9581C155.428 9.93399 155.746 8.75625 155.746 7.4249C155.746 6.04234 155.428 4.8646 154.79 3.89169C154.206 2.91878 153.304 2.15069 152.083 1.63863ZM150.49 9.72917C149.799 10.2412 148.897 10.4973 147.729 10.4973H145.18V4.40375H147.729C148.897 4.40375 149.852 4.65978 150.49 5.17184C151.18 5.6839 151.498 6.40078 151.498 7.4249C151.498 8.44902 151.18 9.21711 150.49 9.72917Z" fill="#FDFDFD"/>
<path d="M174.277 13.1092C173.852 12.3923 173.268 11.7778 172.471 11.317C171.887 10.9585 171.197 10.6513 170.454 10.4465C171.409 10.0368 172.206 9.52478 172.737 8.80789C173.374 8.0398 173.64 7.16929 173.64 6.09397C173.64 4.91623 173.321 3.94333 172.737 3.12403C172.1 2.35594 171.25 1.79268 170.188 1.38303C169.073 0.973385 167.852 0.768555 166.365 0.768555H159.144V21.6094H166.79C168.383 21.6094 169.817 21.4045 171.038 20.9949C172.259 20.5853 173.215 19.9196 173.852 19.0491C174.542 18.1786 174.861 17.052 174.861 15.6695C174.967 14.6966 174.701 13.8261 174.277 13.1092ZM166.047 4.19936C167.003 4.19936 167.799 4.40417 168.33 4.81382C168.914 5.22347 169.179 5.83794 169.179 6.60603C169.179 7.11809 169.02 7.57894 168.755 7.93739C168.489 8.29583 168.171 8.60307 167.693 8.80789C167.215 9.01272 166.684 9.11512 166.047 9.11512H163.657V4.14815H166.047V4.19936ZM169.87 16.9496C169.551 17.4105 169.073 17.7689 168.489 17.9738C167.905 18.1786 167.215 18.281 166.472 18.281H163.604V12.2387H166.472C167.003 12.2387 167.533 12.2899 168.011 12.3923C168.489 12.4947 168.914 12.6483 169.233 12.9044C169.604 13.1604 169.87 13.4676 170.082 13.8261C170.294 14.1845 170.401 14.6454 170.401 15.1574C170.401 15.9255 170.241 16.4888 169.87 16.9496Z" fill="#FDFDFD"/>
<path d="M50.0317 21.6606H55.0228L57.3059 16.8984H64.7394L67.0225 21.6606H72.0135L61.0226 -0.40918L50.0317 21.6606ZM63.6774 13.57H58.3147L61.0226 7.57894L63.6774 13.57Z" fill="#FDFDFD"/>
<path d="M23.3244 0.819336H18.8644V21.6601H23.3244V0.819336Z" fill="#FDFDFD"/>
<path d="M79.8718 14.3889L74.0312 0.819336H68.934L79.8718 22.8891L90.8626 0.819336H85.7123L79.8718 14.3889Z" fill="#FDFDFD"/>
<path d="M43.3948 13.7234L27.9969 -0.255859V21.6603H32.2446V8.75639L47.6425 22.6844V0.819468H43.3948V13.7234Z" fill="#FDFDFD"/>
<path d="M13.5548 11.6755C13.0239 11.1634 12.4398 10.7026 11.8026 10.3441C11.1655 9.98568 10.4752 9.67844 9.78499 9.47361C8.66997 9.11517 7.76733 8.75673 7.07708 8.4495C6.33374 8.09105 5.80278 7.73261 5.4842 7.32296C5.11253 6.91331 4.95324 6.45247 4.95324 5.94041C4.95324 5.42835 5.16563 4.96749 5.5904 4.60905C6.01517 4.1994 6.65232 3.99457 7.55495 3.99457C8.19211 3.99457 8.77616 4.1482 9.30713 4.40423C9.83809 4.66026 10.2628 4.96749 10.6876 5.37714C11.1124 5.78679 11.431 6.19644 11.7495 6.7085L15.2008 4.86508C14.8291 4.1482 14.2982 3.43131 13.6079 2.76563C12.9707 2.04875 12.1212 1.48549 11.1124 1.07584C10.1036 0.614989 8.93545 0.410156 7.55495 0.410156C6.22755 0.410156 5.00634 0.666198 3.89132 1.12705C2.8294 1.58791 1.97987 2.25358 1.34271 3.12408C0.70556 3.99458 0.440073 5.0187 0.440073 6.19644C0.440073 7.16935 0.65246 8.03985 1.02413 8.75673C1.39581 9.47362 1.92677 10.0369 2.51082 10.5489C3.09488 11.0098 3.73203 11.4194 4.36919 11.7267C5.05944 12.0339 5.64349 12.2387 6.17445 12.4436C7.13018 12.802 7.97972 13.1604 8.61687 13.4677C9.30712 13.7749 9.78498 14.1333 10.1567 14.4918C10.5283 14.9014 10.6876 15.4135 10.6876 16.0792C10.6876 16.8473 10.4221 17.4105 9.83809 17.8714C9.30713 18.3322 8.56378 18.5371 7.66114 18.5371C6.9178 18.5371 6.17445 18.3834 5.5373 18.0762C4.90015 17.769 4.263 17.3081 3.73204 16.7449C3.20108 16.1816 2.72321 15.5159 2.24534 14.6966L-0.887329 16.8473C-0.409464 17.8202 0.227695 18.7419 1.07723 19.5612C1.92677 20.3805 2.93559 21.0462 4.05061 21.5582C5.21872 22.0191 6.43993 22.2751 7.76733 22.2751C8.77616 22.2751 9.67879 22.1215 10.5814 21.8142C11.4841 21.5582 12.2805 21.1486 13.0239 20.5853C13.7672 20.022 14.2982 19.3564 14.7229 18.5371C15.1477 17.7178 15.3601 16.8473 15.3601 15.8231C15.3601 14.9526 15.2008 14.1333 14.8822 13.4677C14.5105 12.802 14.0858 12.1875 13.5548 11.6755Z" fill="#FDFDFD"/>
<path d="M96.0129 0.819336H93.1989V21.6601H96.0129H97.4465H106.951V18.0757H97.4465V12.3919H106.314V8.80747H97.4465V4.40375H106.951V0.819336H97.4465H96.0129Z" fill="#FDFDFD"/>
<path d="M110.508 0.819336V4.65978H119.747L109.287 21.6601H125.959V17.9221H116.296L126.915 0.819336H110.508Z" fill="#FDFDFD"/>
<path d="M136.154 12.9043H129.676V16.2839H136.154V12.9043Z" fill="#FDFDFD"/>
</g>
<defs>
<clipPath id="clip0_3288_161166">
<rect width="176" height="23" fill="white"/>
</clipPath>
</defs>
</svg>
