<svg width="138" height="26" viewBox="0 0 138 26" fill="none" xmlns="http://www.w3.org/2000/svg">
<path d="M4.332 16.128C4.78 16.9387 5.28133 17.6427 5.836 18.24C6.412 18.8373 7.03067 19.296 7.692 19.616C8.37467 19.936 9.08933 20.096 9.836 20.096C10.6253 20.096 11.276 19.904 11.788 19.52C12.3 19.1147 12.556 18.5707 12.556 17.888C12.556 17.312 12.4067 16.8533 12.108 16.512C11.8093 16.1493 11.3293 15.808 10.668 15.488C10.0067 15.168 9.132 14.8053 8.044 14.4C7.51067 14.208 6.892 13.9413 6.188 13.6C5.50533 13.2587 4.85467 12.8213 4.236 12.288C3.61733 11.7333 3.10533 11.072 2.7 10.304C2.29467 9.51467 2.092 8.56533 2.092 7.456C2.092 6.13333 2.43333 4.992 3.116 4.032C3.82 3.072 4.75867 2.34667 5.932 1.856C7.12667 1.344 8.44933 1.088 9.9 1.088C11.3933 1.088 12.684 1.33333 13.772 1.824C14.8813 2.31467 15.7987 2.93333 16.524 3.68C17.2493 4.42667 17.804 5.184 18.188 5.952L14.06 8.256C13.74 7.72267 13.3667 7.264 12.94 6.88C12.5347 6.47467 12.076 6.16533 11.564 5.952C11.0733 5.71733 10.54 5.6 9.964 5.6C9.196 5.6 8.60933 5.77067 8.204 6.112C7.79867 6.432 7.596 6.83733 7.596 7.328C7.596 7.84 7.788 8.288 8.172 8.672C8.57733 9.056 9.14267 9.408 9.868 9.728C10.6147 10.048 11.5107 10.3893 12.556 10.752C13.3453 11.0507 14.0813 11.4027 14.764 11.808C15.4467 12.192 16.044 12.6613 16.556 13.216C17.0893 13.7707 17.5053 14.4107 17.804 15.136C18.1027 15.8613 18.252 16.6933 18.252 17.632C18.252 18.7627 18.0173 19.776 17.548 20.672C17.1 21.5467 16.4813 22.2827 15.692 22.88C14.924 23.4773 14.0387 23.9253 13.036 24.224C12.0547 24.544 11.0413 24.704 9.996 24.704C8.54533 24.704 7.19067 24.448 5.932 23.936C4.69467 23.4027 3.61733 22.688 2.7 21.792C1.78267 20.896 1.068 19.9147 0.556 18.848L4.332 16.128ZM21.868 1.6H27.372V24H21.868V1.6ZM47.574 1.6H52.79V25.12L37.302 11.392V24H32.118V0.48L47.574 14.208V1.6ZM61.0443 19.68L61.4283 15.552H72.5323L72.8843 19.68H61.0443ZM66.9003 9.824L63.7643 17.056L64.0203 18.24L61.2363 24H55.1242L66.9003 0.191999L78.7083 24H72.5643L69.8763 18.464L70.0683 17.088L66.9003 9.824ZM87.244 14.976L92.716 1.6H99.052L87.244 25.408L75.468 1.6H81.772L87.244 14.976ZM104.983 24V19.552H116.279V24H104.983ZM104.983 6.048V1.6H116.279V6.048H104.983ZM104.983 14.4V10.048H115.639V14.4H104.983ZM101.399 1.6H106.583V24H101.399V1.6ZM120.137 6.432V1.6H137.705L127.113 19.36H136.553V24H118.601L129.033 6.432H120.137Z" fill="#0760BA"/>
</svg>
