<svg width="327" height="183" viewBox="0 0 327 183" fill="none" xmlns="http://www.w3.org/2000/svg">
<g clip-path="url(#clip0_535_50815)">
<path d="M68.8175 182.304H18.8599C18.8599 182.304 17.8473 167.453 23.8386 167.284C29.83 167.115 29.1549 173.866 36.6656 164.584C44.1763 155.302 53.2898 155.809 54.4712 161.293C55.6527 166.778 52.1929 171.166 58.5219 169.816C64.8508 168.465 73.965 172.009 68.8175 182.304Z" fill="#E6E6E6"/>
<path d="M42.9956 182.307L42.8268 182.3C43.2201 172.523 45.2678 166.242 46.9168 162.692C48.7069 158.84 50.432 157.28 50.4494 157.265L50.5617 157.391C50.5446 157.406 48.8398 158.95 47.0639 162.777C45.4242 166.31 43.3875 172.566 42.9956 182.307Z" fill="white"/>
<path d="M61.0762 182.327L60.9142 182.279C62.1706 178.136 64.4354 174.368 67.5057 171.314L67.619 171.44C64.5715 174.472 62.3235 178.213 61.0762 182.327Z" fill="white"/>
<path d="M26.7287 182.315L26.5614 182.292C27.1061 178.626 26.5298 174.882 24.9081 171.549C24.2433 170.152 23.3632 168.867 22.3 167.742L22.417 167.62C23.4945 168.759 24.3867 170.059 25.0609 171.474C26.6972 174.837 27.2785 178.616 26.7287 182.315Z" fill="white"/>
<path d="M75.5973 182.529H13.4718L13.4576 182.319C13.4221 181.796 12.6293 169.448 16.6306 165.042C17.0275 164.577 17.5176 164.199 18.0691 163.935C18.6207 163.67 19.2216 163.524 19.833 163.505C22.4411 163.431 24.0802 164.408 25.4023 165.192C27.8941 166.67 29.54 167.647 35.5253 160.25C42.0088 152.237 49.0046 150.513 53.0261 151.472C55.6245 152.091 57.4153 153.842 57.9394 156.275C58.4369 158.579 58.2777 160.744 58.1505 162.484C58.0144 164.345 57.9071 165.815 58.6717 166.481C59.3113 167.037 60.5837 167.088 62.68 166.64C66.9439 165.731 72.8947 166.509 75.8812 170.368C77.4879 172.444 78.7539 176.217 75.6598 182.405L75.5973 182.529ZM13.8957 182.078H75.3176C77.6233 177.4 77.6954 173.449 75.5241 170.644C72.7842 167.104 67.0362 166.173 62.7742 167.082C60.4963 167.568 59.1393 167.488 58.375 166.822C57.4402 166.008 57.555 164.438 57.6999 162.452C57.825 160.741 57.9803 158.612 57.4977 156.371C57.0117 154.115 55.3435 152.49 52.9209 151.912C49.0277 150.984 42.2259 152.686 35.876 160.535C29.6458 168.235 27.7687 167.122 25.1717 165.58C23.8332 164.786 22.3139 163.886 19.8455 163.956C19.2949 163.974 18.7542 164.107 18.2581 164.346C17.7619 164.585 17.3213 164.925 16.9646 165.345C13.3695 169.305 13.8079 180.408 13.8961 182.078H13.8957Z" fill="#2F2E41"/>
<path d="M278.59 182.779H217.399L217.387 182.437L214.465 98.8818H281.523L278.59 182.779ZM218.085 182.069H277.904L280.788 99.5924H215.201L218.085 182.069Z" fill="#3F3D56"/>
<path d="M231.996 114.363H227.341V171.953H231.996V114.363Z" fill="#3F3D56"/>
<path d="M250.321 114.363H245.667V171.953H250.321V114.363Z" fill="#3F3D56"/>
<path d="M268.647 114.363H263.993V171.953H268.647V114.363Z" fill="#3F3D56"/>
<path d="M320.407 123.418L320.107 123.228L244.099 75.2002L250.692 64.7686L250.993 64.9583L327 112.986L320.407 123.418ZM245.08 74.9792L320.186 122.437L326.019 113.207L250.914 65.7487L245.08 74.9792Z" fill="#3F3D56"/>
<path d="M302.056 71.3298C299.847 69.9318 297.282 69.1968 294.668 69.2121C292.053 69.2275 289.498 69.9925 287.305 71.4164C285.113 72.8403 283.374 74.8634 282.297 77.2454C281.22 79.6275 280.848 82.2686 281.227 84.8554L284.851 87.1455C283.941 85.0309 283.731 82.6802 284.253 80.4378C284.775 78.1953 286.001 76.1788 287.752 74.6835C289.503 73.1882 291.686 72.2927 293.983 72.1282C296.28 71.9636 298.569 72.5385 300.515 73.7688C302.462 74.9991 303.963 76.8202 304.799 78.9653C305.636 81.1105 305.763 83.467 305.163 85.6899C304.563 87.9127 303.268 89.8852 301.465 91.3184C299.663 92.7516 297.45 93.5703 295.149 93.6546L298.773 95.9447C301.272 95.1775 303.499 93.7094 305.189 91.7146C306.879 89.7197 307.961 87.282 308.307 84.6907C308.653 82.0993 308.249 79.4631 307.141 77.0949C306.034 74.7266 304.27 72.7258 302.059 71.3298H302.056Z" fill="#3F3D56"/>
<path d="M322.983 182.289H0V183H322.983V182.289Z" fill="#3F3D56"/>
<path d="M141.074 177.441H135.899L133.436 157.483H141.076L141.074 177.441Z" fill="#FEB8B8"/>
<path d="M125.92 182.245H142.183V175.962H132.116C130.473 175.962 128.896 176.615 127.734 177.777C126.572 178.939 125.92 180.514 125.92 182.158V182.245Z" fill="#2F2E41"/>
<path d="M139.255 146.515L142.825 150.262L158.975 138.279L153.707 132.75L139.255 146.515Z" fill="#FEB8B8"/>
<path d="M146.502 151.978L139.556 144.69L135.007 149.026L146.228 160.799L146.291 160.739C146.881 160.177 147.353 159.506 147.683 158.761C148.012 158.017 148.192 157.216 148.211 156.402C148.231 155.589 148.09 154.779 147.797 154.02C147.504 153.261 147.064 152.567 146.502 151.978Z" fill="#2F2E41"/>
<path d="M103.237 91.8386C102.909 91.3117 102.701 90.7195 102.627 90.1036C102.553 89.4877 102.616 88.8631 102.809 88.2738C103.003 87.6844 103.323 87.1447 103.748 86.6925C104.173 86.2404 104.691 85.8868 105.267 85.6567L125.584 33.8828L133.503 38.624L110.934 88.2922C111.257 89.2859 111.204 90.3633 110.785 91.3203C110.366 92.2774 109.61 93.0474 108.661 93.4846C107.712 93.9218 106.636 93.9957 105.636 93.6923C104.636 93.389 103.783 92.7294 103.237 91.8386Z" fill="#FEB8B8"/>
<path d="M180.352 95.55C179.733 95.5057 179.131 95.3263 178.589 95.0243C178.047 94.7223 177.578 94.305 177.214 93.802C176.851 93.299 176.602 92.7223 176.486 92.1128C176.369 91.5033 176.388 90.8756 176.541 90.2741L146.568 43.4237L155.057 39.7998L182.003 87.2379C182.998 87.5595 183.84 88.2353 184.37 89.1369C184.9 90.0385 185.08 91.1033 184.876 92.1289C184.672 93.1545 184.099 94.0697 183.265 94.7006C182.431 95.3315 181.395 95.6343 180.352 95.5514V95.55Z" fill="#FEB8B8"/>
<path d="M125.784 86.6544L131.089 165.496L143.768 164.377L146.378 106.21L153.463 131.191L168.752 132.31L162.7 82.9258L125.784 86.6544Z" fill="#2F2E41"/>
<path d="M155.7 127.463L153.462 131.192L137.802 142.004L148.989 147.97C148.989 147.97 170.617 136.039 168.752 132.31L155.7 127.463Z" fill="#2F2E41"/>
<path d="M114.682 54.7561L119.095 42.3213C120.077 39.5546 121.598 37.01 123.57 34.8348C125.542 32.6596 127.926 30.8971 130.583 29.6492C136.557 27.4488 143.054 27.0932 149.232 28.6285L150.838 29.0271C155.121 30.065 159.133 32.0028 162.609 34.7116C165.328 36.8554 167.775 39.5697 167.993 42.4894C167.994 42.4956 167.996 42.5017 167.998 42.5075C168.752 45.8088 169.124 62.9599 169.124 62.9599H162.48L163.531 86.0769L163.446 85.9096C163.446 85.9096 125.123 93.1612 125.123 89.4325V65.5691L124.337 56.9287L114.682 54.7561Z" fill="#CCCCCC"/>
<path d="M150.453 25.3961C156.318 25.3961 161.073 20.6419 161.073 14.7772C161.073 8.91248 156.318 4.1582 150.453 4.1582C144.587 4.1582 139.833 8.91248 139.833 14.7772C139.833 20.6419 144.587 25.3961 150.453 25.3961Z" fill="#FEB8B8"/>
<path d="M152.044 10.0148L160.29 10.3452C161.327 10.342 162.46 10.3055 163.25 9.63469C164.441 8.62249 164.241 6.71251 163.604 5.2857C161.827 1.31296 157.864 -0.110288 153.513 0.00659913C149.161 0.123486 144.601 1.59825 142.258 5.26474C139.915 8.93123 139.282 13.5612 140.164 17.8218C141.185 15.6553 142.755 13.7944 144.72 12.4248C146.684 11.0551 148.974 10.2247 151.36 10.0163L152.044 10.0148Z" fill="#2F2E41"/>
<path d="M201.011 113.883L171.164 92.9666C170.887 92.7715 170.698 92.4745 170.639 92.1405C170.581 91.8066 170.657 91.463 170.851 91.185L194.277 57.7628C194.472 57.4855 194.769 57.2969 195.103 57.2381C195.437 57.1794 195.781 57.2554 196.059 57.4494L225.906 78.3658C226.184 78.5609 226.372 78.858 226.431 79.1919C226.49 79.5258 226.414 79.8694 226.22 80.1475L202.794 113.569C202.599 113.846 202.302 114.035 201.967 114.094C201.633 114.153 201.29 114.077 201.011 113.883Z" fill="#CB4242"/>
<path d="M207.724 91.187L190.21 78.9136C190.007 78.7717 189.835 78.5913 189.702 78.3826C189.569 78.174 189.479 77.9413 189.436 77.6977C189.393 77.4541 189.399 77.2045 189.452 76.9631C189.506 76.7217 189.606 76.4932 189.748 76.2906C189.89 76.0881 190.071 75.9156 190.279 75.7828C190.488 75.65 190.721 75.5596 190.965 75.5167C191.208 75.4739 191.458 75.4795 191.699 75.5331C191.941 75.5867 192.169 75.6874 192.372 75.8293L209.886 88.1027C210.295 88.3893 210.573 88.8267 210.66 89.3186C210.746 89.8106 210.634 90.3167 210.347 90.7257C210.06 91.1347 209.623 91.4131 209.131 91.4996C208.639 91.5861 208.133 91.4737 207.724 91.187Z" fill="white"/>
<path d="M203.704 96.9223L186.19 84.649C185.987 84.5071 185.815 84.3267 185.682 84.1181C185.549 83.9094 185.458 83.6766 185.415 83.4329C185.372 83.1892 185.378 82.9394 185.431 82.6979C185.485 82.4563 185.586 82.2277 185.728 82.025C185.87 81.8224 186.05 81.6497 186.259 81.5169C186.468 81.3841 186.701 81.2937 186.944 81.251C187.188 81.2082 187.438 81.2139 187.68 81.2677C187.921 81.3216 188.15 81.4225 188.352 81.5646L205.866 93.838C206.275 94.1248 206.553 94.5622 206.639 95.0538C206.725 95.5455 206.613 96.0513 206.326 96.4601C206.04 96.8688 205.602 97.1471 205.111 97.2338C204.619 97.3205 204.113 97.2085 203.704 96.9223Z" fill="white"/>
<path d="M199.641 102.718L182.128 90.4449C181.925 90.303 181.752 90.1225 181.62 89.9139C181.487 89.7053 181.396 89.4725 181.354 89.229C181.311 88.9854 181.316 88.7358 181.37 88.4943C181.424 88.2529 181.524 88.0244 181.666 87.8219C181.808 87.6194 181.989 87.4468 182.197 87.314C182.406 87.1812 182.639 87.0908 182.882 87.048C183.126 87.0052 183.375 87.0107 183.617 87.0643C183.858 87.118 184.087 87.2186 184.289 87.3606L201.803 99.6339C202.212 99.9206 202.491 100.358 202.577 100.85C202.664 101.342 202.551 101.848 202.265 102.257C201.978 102.666 201.541 102.944 201.049 103.031C200.557 103.117 200.05 103.005 199.641 102.718Z" fill="white"/>
<path d="M207.674 79.8432L200.891 75.0894C200.688 74.9476 200.515 74.7672 200.382 74.5585C200.249 74.3498 200.159 74.117 200.116 73.8733C200.073 73.6296 200.078 73.3799 200.132 73.1383C200.185 72.8967 200.286 72.6681 200.428 72.4655C200.57 72.2628 200.751 72.0902 200.959 71.9574C201.168 71.8245 201.401 71.7342 201.645 71.6914C201.889 71.6487 202.138 71.6544 202.38 71.7082C202.622 71.762 202.85 71.8629 203.053 72.0051L209.836 76.7589C210.245 77.0456 210.524 77.4829 210.61 77.9749C210.697 78.4668 210.584 78.9729 210.298 79.3819C210.011 79.7909 209.573 80.0693 209.082 80.1558C208.59 80.2423 208.083 80.1299 207.674 79.8432Z" fill="white"/>
</g>
<defs>
<clipPath id="clip0_535_50815">
<rect width="327" height="183" fill="white"/>
</clipPath>
</defs>
</svg>
