<svg width="251" height="200" viewBox="0 0 251 200" fill="none" xmlns="http://www.w3.org/2000/svg">
<g clip-path="url(#clip0_2703_15367)">
<path d="M211.458 191.492C212.446 191.553 212.991 190.326 212.244 189.61L212.169 189.315C212.179 189.291 212.189 189.268 212.199 189.244C212.788 187.838 214.411 187.173 215.819 187.755C220.274 189.596 215.571 193.828 215.924 196.691C216.048 197.679 219.92 197.733 219.701 198.703C221.759 194.203 222.842 189.289 222.84 184.347C222.84 183.106 222.771 181.864 222.632 180.626C222.517 179.613 222.359 178.606 222.155 177.609C221.051 172.217 218.661 167.082 215.216 162.793C213.56 161.889 214.57 160.474 213.735 158.779C213.435 158.168 210.762 158.154 210.65 157.484C210.77 157.499 212.498 155.704 211.927 154.817C211.552 154.233 211.669 153.49 212.151 152.99C212.199 152.942 212.243 152.89 212.284 152.834C213.71 150.9 215.675 151.237 216.702 153.864C218.893 154.969 218.915 156.803 217.571 158.568C216.716 159.69 216.599 161.208 215.849 162.41C215.926 162.509 216.006 162.605 216.084 162.703C217.5 164.519 218.726 166.47 219.759 168.521C219.466 166.242 219.896 163.496 220.63 161.726C221.471 159.695 223.054 157.986 224.441 156.229C226.097 154.13 229.467 155.083 229.76 157.739C229.763 157.765 229.766 157.79 229.768 157.816C229.563 157.932 229.362 158.055 229.166 158.185C228.048 158.925 228.435 160.659 229.761 160.863L229.791 160.867C229.717 161.605 227.097 163.931 226.912 164.65C228.684 171.492 227.358 172.395 221.907 172.51L221.621 172.917C222.138 174.402 222.553 175.923 222.866 177.463C223.16 178.893 223.364 180.339 223.479 181.79C223.621 183.621 223.61 185.462 223.456 187.29L223.465 187.226C223.857 185.212 224.949 183.331 226.537 182.027C228.901 180.083 232.242 179.367 234.793 177.805C236.021 177.052 237.595 178.023 237.382 179.447L237.371 179.515C236.991 179.67 236.621 179.849 236.263 180.05C236.057 180.166 235.856 180.289 235.66 180.419C234.541 181.159 234.929 182.894 236.255 183.097L236.285 183.101C236.307 183.104 236.325 183.107 236.347 183.111C235.696 184.658 229.491 186.841 228.355 188.08C227.25 194.056 227.793 193.878 222.707 192.139H222.704C222.149 194.561 221.337 196.927 220.294 199.182L211.676 199.185C211.645 199.089 211.618 198.99 211.59 198.894C212.387 198.944 213.19 198.897 213.974 198.752C213.335 197.967 212.695 197.177 212.055 196.393C212.04 196.377 212.027 196.362 212.015 196.346L212.005 196.334L211.118 193.414C211.188 192.766 211.303 192.124 211.458 191.492Z" fill="#F2F2F2"/>
<path d="M120.39 199.115L44.134 199.142C40.3031 199.143 36.8715 197.164 34.9548 193.847C33.9964 192.189 33.5171 190.369 33.5165 188.55C33.5158 186.73 33.9941 184.91 34.9512 183.251L73.0549 113.895C74.9695 110.577 78.3997 108.595 82.2306 108.594C86.0616 108.592 89.4932 110.572 91.41 113.888L129.567 183.227C130.522 184.881 131.001 186.698 131.001 188.517C131.001 190.336 130.523 192.155 129.565 193.814C127.651 197.132 124.221 199.114 120.39 199.115ZM34.475 188.548C34.4749 190.205 42.8895 186.636 43.7612 188.144C45.5049 191.161 40.6483 198.187 44.1336 198.185C44.1336 198.185 126.995 196.355 128.737 193.336C129.608 191.827 130.043 190.171 130.042 188.516C130.042 186.861 129.605 185.206 128.733 183.697L90.5768 114.358C88.838 111.35 85.7163 109.549 82.231 109.55C78.7473 109.551 34.4752 186.892 34.475 188.548Z" fill="#3F3D56"/>
<path d="M121.237 198.158C120.281 200.071 165.048 199.483 165.578 199.483C165.578 199.483 178.161 199.205 178.425 198.747C178.557 198.518 178.623 198.266 178.623 198.015C178.623 197.763 178.557 197.512 178.425 197.283L172.63 186.754C172.366 186.297 171.892 186.023 171.363 186.023C171.341 186.023 171.309 186.043 171.267 186.08C163.537 192.987 154.011 197.553 143.646 197.707C132.624 197.871 121.297 198.037 121.237 198.158Z" fill="#3F3D56"/>
<path d="M3.57956e-08 199.431C0.000110027 199.747 0.253668 200 0.56931 200L250.34 199.913C250.656 199.913 250.909 199.66 250.909 199.344C250.909 199.029 250.655 198.775 250.34 198.775L0.568918 198.862C0.253276 198.862 -0.000109955 199.115 3.57956e-08 199.431Z" fill="#CCCCCC"/>
<path d="M193.143 196.669L188.818 196.67L186.755 179.99L193.139 179.988L193.143 196.669Z" fill="#A0616A"/>
<path d="M178.324 196.576C178.189 196.803 178.119 197.535 178.119 197.799C178.119 198.61 178.777 199.266 179.587 199.266L192.983 199.262C193.536 199.261 193.984 198.813 193.984 198.26L193.984 197.702C193.984 197.702 194.646 196.026 193.281 193.961C193.281 193.961 191.586 195.579 189.051 193.046L188.303 191.693L182.896 195.65L179.899 196.02C179.243 196.101 178.661 196.008 178.324 196.576Z" fill="#2F2E41"/>
<path d="M176.558 182.402L172.461 183.788L165.163 168.647L171.21 166.601L176.558 182.402Z" fill="#A0616A"/>
<path d="M162.49 187.06C162.435 187.318 162.602 188.034 162.687 188.284C162.947 189.051 163.78 189.463 164.548 189.203L177.236 184.909C177.76 184.732 178.041 184.164 177.864 183.64L177.685 183.112C177.685 183.112 177.775 181.312 175.821 179.793C175.821 179.793 174.733 181.868 171.521 180.281L170.379 179.238L166.525 184.718L163.803 186.029C163.208 186.315 162.627 186.413 162.49 187.06Z" fill="#2F2E41"/>
<path d="M169.877 85.6337L161.487 113.415L151.583 138.404L167.263 174.091L173.077 171.505L166.121 138.722L180.71 116.477L187.518 185.921L193.333 185.596L201.218 101.773L202.343 83.5229L169.877 85.6337Z" fill="#2F2E41"/>
<path d="M195.215 24.0918L182.94 26.3571L181.973 31.8485L174.544 35.4042L170.681 75.7812C170.681 75.7812 164.223 84.1816 169.393 86.7639L202.343 83.5224C202.343 83.5224 203.956 77.5501 202.341 76.9835C200.725 76.4168 200.72 62.1512 200.72 62.1512L208.14 32.8085L197.155 28.9362L195.215 24.0918Z" fill="#E6E6E6"/>
<path d="M187.975 23.9857C193.449 23.9857 197.887 19.5484 197.887 14.0747C197.887 8.60092 193.449 4.16357 187.975 4.16357C182.5 4.16357 178.063 8.60092 178.063 14.0747C178.063 19.5484 182.5 23.9857 187.975 23.9857Z" fill="#A0616A"/>
<path d="M194.539 15.546C193.748 15.979 194.499 18.0462 194.004 18.2249C193.433 18.4315 191.349 16.0602 191.324 13.4042C191.316 12.6003 191.501 12.2144 191.323 11.2613C191.09 10.0146 190.376 8.54412 189.714 8.58315C189.322 8.60629 188.94 9.1604 188.911 9.6549C188.871 10.3479 189.544 10.6207 189.447 10.9941C189.263 11.7051 186.435 12.196 185.429 10.9954C184.64 10.0542 185.245 8.40157 184.892 8.31695C184.632 8.25458 184.353 9.16445 183.285 10.1926C182.883 10.5799 182.285 11.156 181.946 10.9966C181.456 10.7663 181.812 9.14319 181.678 9.12167C181.566 9.10385 181.496 10.2447 180.875 11.2649C180.076 12.5755 178.429 13.5857 177.66 13.1411C177.189 12.8686 177.152 12.1101 177.124 11.5341C177.064 10.3204 175.3 7.52879 175.757 6.23048C176.686 3.58803 178.277 5.45071 178.997 4.56886C179.971 3.37504 180.846 4.0169 182.479 2.69258C184.075 1.39885 184.089 0.0985495 185.157 0.0129782C186.119 -0.0640819 186.462 0.962258 187.568 0.815745C188.506 0.691629 188.71 -0.104405 189.444 0.0114911C190.115 0.117595 190.159 0.818858 191.051 1.0824C191.621 1.25066 191.746 1.00713 192.391 1.08194C193.733 1.23761 194.634 2.45943 194.803 2.68831C195.453 3.57064 195.201 3.94272 195.875 4.83087C196.456 5.59679 197.744 5.27155 198.229 5.65408C199.811 6.90403 200.491 9.20918 200.505 11.8365C200.515 13.6741 200.275 14.6026 199.74 16.922C199.334 18.6833 197.453 20.9593 196.417 21.9742C196.138 22.2466 195.358 23.0104 194.809 22.7784C194.29 22.5585 194.274 21.5697 194.273 21.4392C194.271 20.9902 194.39 20.4346 195.344 19.028C196.346 17.5505 196.743 17.3819 196.683 16.8846C196.575 16.0057 195.17 15.2009 194.539 15.546Z" fill="#2F2E41"/>
<path d="M159.963 107.95C159.654 110.533 160.737 112.786 162.381 112.983C164.025 113.179 165.608 111.244 165.917 108.661C166.052 107.53 165.92 106.462 165.592 105.603L166.762 94.6401L161.605 94.2007L160.999 105.054C160.477 105.812 160.098 106.819 159.963 107.95Z" fill="#A0616A"/>
<path d="M174.786 35.144C174.786 35.144 172.114 35.182 170.345 38.6364C169.405 40.4721 164.376 74.7985 164.376 74.7985L159.743 102.918L167.635 102.958L173.785 76.3279L178.958 60.883L174.786 35.144Z" fill="#E6E6E6"/>
<path d="M196.994 103.823C196.238 106.312 196.91 108.72 198.495 109.201C200.079 109.682 201.976 108.053 202.732 105.564C203.063 104.474 203.12 103.4 202.947 102.496L206.017 91.9073L201.016 90.5728L198.521 101.153C197.874 101.808 197.325 102.733 196.994 103.823Z" fill="#A0616A"/>
<path d="M202.487 33.2958C202.487 33.2958 206.363 30.3874 209.595 34.9084C212.827 39.4293 214.132 76.5746 214.132 76.5746L205.094 99.5111L198.309 97.2524L204.761 69.1487L193.447 47.8342L202.487 33.2958Z" fill="#E6E6E6"/>
<path d="M104.482 183.82C123.762 183.82 139.392 168.192 139.392 148.914C139.392 129.636 123.762 114.008 104.482 114.008C85.2015 114.008 69.5717 129.636 69.5717 148.914C69.5717 168.192 85.2015 183.82 104.482 183.82Z" fill="#FF730E"/>
<path d="M104.488 170.311C106.258 170.311 107.694 168.876 107.694 167.106C107.694 165.336 106.258 163.901 104.488 163.901C102.718 163.901 101.283 165.336 101.283 167.106C101.283 168.876 102.718 170.311 104.488 170.311Z" fill="white"/>
<path d="M104.474 127.516C104.18 129.472 104.708 129.882 104.71 138.315C104.713 146.749 106.464 158.057 104.485 158.057C102.506 158.058 101.783 134.722 94.9125 132.656C86.8349 130.228 105.428 121.183 104.474 127.516Z" fill="white"/>
<path d="M57.6273 166.735L54.4733 173.399C58.2863 170.665 64.242 168.308 68.9814 167.046C64.5655 164.913 59.162 161.474 55.9338 158.07L57.7479 165.11C36.4795 160.779 21.2062 144.465 21.1998 125.777L20.4315 125.513C20.4383 145.033 35.5002 162.313 57.6273 166.735Z" fill="#3F3D56"/>
</g>
<defs>
<clipPath id="clip0_2703_15367">
<rect width="250.909" height="200" fill="white"/>
</clipPath>
</defs>
</svg>
