<svg width="69" height="68" viewBox="0 0 69 68" fill="none" xmlns="http://www.w3.org/2000/svg">
<g clip-path="url(#clip0_2995_45602)">
<path d="M26.3913 55.25H20.0163C17.9071 55.2474 15.8226 54.7963 13.9011 53.9266C11.9796 53.0569 10.265 51.7885 8.8711 50.2056C7.47719 48.6227 6.43585 46.7614 5.81617 44.7453C5.19648 42.7293 5.01263 40.6044 5.27681 38.5119C5.54099 36.4193 6.24716 34.4069 7.34846 32.608C8.44977 30.8092 9.92102 29.2652 11.6646 28.0784C13.4082 26.8916 15.3842 26.0891 17.4616 25.7243C19.539 25.3594 21.6702 25.4405 23.7138 25.9622" stroke="black" stroke-width="1.5" stroke-linecap="round" stroke-linejoin="round"/>
<path d="M22.1414 34C22.1414 30.6329 22.9415 27.314 24.4758 24.3168C26.0101 21.3196 28.2347 18.7299 30.9663 16.7611C33.6978 14.7923 36.8581 13.5008 40.1867 12.993C43.5153 12.4853 46.9169 12.7757 50.1112 13.8405C53.3055 14.9053 56.2011 16.7139 58.5593 19.1172C60.9175 21.5206 62.6708 24.45 63.6748 27.6639C64.6787 30.8779 64.9046 34.2844 64.3337 37.6028C63.7629 40.9211 62.4116 44.0563 60.3914 46.75" stroke="black" stroke-width="1.5" stroke-linecap="round" stroke-linejoin="round"/>
<path d="M32.7664 42.5L41.2664 34L49.7664 42.5" stroke="black" stroke-width="1.5" stroke-linecap="round" stroke-linejoin="round"/>
<path d="M41.2664 55.25V34" stroke="black" stroke-width="1.5" stroke-linecap="round" stroke-linejoin="round"/>
</g>
<defs>
<clipPath id="clip0_2995_45602">
<rect width="68" height="68" fill="white" transform="translate(0.891357)"/>
</clipPath>
</defs>
</svg>
