<svg width="426" height="476" viewBox="0 0 426 476" fill="none" xmlns="http://www.w3.org/2000/svg">
<path d="M192.15 0H391.154V199.004H192.15V0Z" fill="#F4F4F4"/>
<path d="M391.154 0H393.434V199.004H391.154V0Z" fill="#F4F4F4"/>
<path opacity="0.05" d="M391.154 0H393.434V199.004H391.154V0Z" fill="#FF730E"/>
<path opacity="0.05" d="M342.945 137.129V85.0625H300.295V115.312H234.23V168.872H206.152V199.003H234.23H239.639H381.581V137.129H342.945Z" fill="#FF730E"/>
<path opacity="0.34" d="M305.769 90.7188H336.827V96.3721H305.769V90.7188Z" fill="#FFFFFA"/>
<path opacity="0.34" d="M305.769 102.434H336.827V108.087H305.769V102.434Z" fill="#FFFFFA"/>
<path opacity="0.34" d="M305.769 114.148H336.827V119.802H305.769V114.148Z" fill="#FFFFFA"/>
<path opacity="0.34" d="M370.349 142.617H376.073V148.27H370.349V142.617Z" fill="#FFFFFA"/>
<path opacity="0.34" d="M370.349 154.332H376.073V159.985H370.349V154.332Z" fill="#FFFFFA"/>
<path opacity="0.34" d="M370.349 166.047H376.073V171.7H370.349V166.047Z" fill="#FFFFFA"/>
<path opacity="0.34" d="M359.758 142.617H365.483V148.27H359.758V142.617Z" fill="#FFFFFA"/>
<path opacity="0.34" d="M359.758 154.332H365.483V159.985H359.758V154.332Z" fill="#FFFFFA"/>
<path opacity="0.34" d="M359.758 166.047H365.483V171.7H359.758V166.047Z" fill="#FFFFFA"/>
<path opacity="0.34" d="M349.454 142.617H355.179V148.27H349.454V142.617Z" fill="#FFFFFA"/>
<path opacity="0.34" d="M349.454 154.332H355.179V159.985H349.454V154.332Z" fill="#FFFFFA"/>
<path opacity="0.34" d="M349.454 166.047H355.179V171.7H349.454V166.047Z" fill="#FFFFFA"/>
<path d="M391.154 98.3859H351.111V0H347.799V98.3859H239.639V0H236.327V98.3859H192.15V101.697H236.327V199.004H239.639V101.697H347.799V199.004H351.111V101.697H391.154V98.3859Z" fill="white"/>
<path d="M184.222 198.766H399.081V205.384H184.222V198.766Z" fill="#F4F4F4"/>
<path opacity="0.1" d="M184.222 198.766H399.081V205.384H184.222V198.766Z" fill="#FF730E"/>
<path opacity="0.1" d="M399.081 198.766H402.184V205.384H399.081V198.766Z" fill="#FF730E"/>
<path opacity="0.1" d="M399.081 198.766H402.184V205.384H399.081V198.766Z" fill="#FF730E"/>
<path d="M393.435 8.47266L192.15 8.47266V3.55214L393.435 3.55214V8.47266Z" fill="white"/>
<path d="M393.435 17.6641L192.15 17.6641V12.7436L393.435 12.7436V17.6641Z" fill="white"/>
<path d="M393.435 26.8516L192.15 26.8516V21.9311L393.435 21.9311V26.8516Z" fill="white"/>
<path d="M393.435 36.043L192.15 36.043V31.1225L393.435 31.1225V36.043Z" fill="white"/>
<path d="M393.435 45.2344L192.15 45.2344V40.3139L393.435 40.3139V45.2344Z" fill="white"/>
<path d="M372.056 50.7852H369.04V-0.000244141H372.056V50.7852Z" fill="white"/>
<path d="M370.803 58.0775C368.514 58.0775 366.659 56.2221 366.659 53.9333C366.659 51.6445 368.514 49.7891 370.803 49.7891C373.092 49.7891 374.947 51.6445 374.947 53.9333C374.947 56.2221 373.092 58.0775 370.803 58.0775Z" fill="white"/>
<path d="M391.678 475.616L392.787 475.402L375.444 303.062L374.335 303.276L391.678 475.616Z" fill="#494949"/>
<path d="M327.1 475.616L328.21 475.402L310.867 303.062L309.758 303.276L327.1 475.616Z" fill="#494949"/>
<path d="M184.357 475.616L183.247 475.402L200.59 303.062L201.7 303.276L184.357 475.616Z" fill="#494949"/>
<path d="M248.934 475.616L247.824 475.402L265.167 303.062L266.277 303.276L248.934 475.616Z" fill="#494949"/>
<path d="M271.933 227.218L273.053 227.367L262.922 303.248L261.802 303.098L271.933 227.218Z" fill="#494949"/>
<path d="M388.222 227.218L389.342 227.367L379.21 303.248L378.09 303.098L388.222 227.218Z" fill="#494949"/>
<path d="M261.899 297.617H375.643C378.712 297.617 381.2 300.105 381.2 303.174V303.174C381.2 306.243 378.712 308.731 375.643 308.731H261.899C258.83 308.731 256.343 306.243 256.343 303.174V303.174C256.343 300.105 258.83 297.617 261.899 297.617Z" fill="#FF730E"/>
<path opacity="0.8" d="M261.899 297.617H375.643C378.712 297.617 381.2 300.105 381.2 303.174V303.174C381.2 306.243 378.712 308.731 375.643 308.731H261.899C258.83 308.731 256.343 306.243 256.343 303.174V303.174C256.343 300.105 258.83 297.617 261.899 297.617Z" fill="white"/>
<path d="M261.899 309.294H375.642C376.446 309.294 377.242 309.136 377.985 308.828C378.728 308.521 379.403 308.07 379.971 307.501C380.54 306.933 380.991 306.258 381.298 305.515C381.606 304.772 381.764 303.976 381.764 303.172C381.764 302.369 381.606 301.573 381.298 300.83C380.991 300.087 380.54 299.412 379.971 298.844C379.403 298.275 378.728 297.824 377.985 297.517C377.242 297.209 376.446 297.051 375.642 297.051H261.899C261.095 297.051 260.299 297.209 259.556 297.517C258.814 297.824 258.139 298.275 257.57 298.844C257.002 299.412 256.551 300.087 256.243 300.83C255.936 301.573 255.777 302.369 255.777 303.172C255.777 303.976 255.936 304.772 256.243 305.515C256.551 306.258 257.002 306.933 257.57 307.501C258.139 308.07 258.814 308.521 259.556 308.828C260.299 309.136 261.095 309.294 261.899 309.294ZM375.642 298.181C376.298 298.181 376.947 298.31 377.553 298.561C378.158 298.812 378.709 299.179 379.172 299.643C379.636 300.106 380.003 300.657 380.254 301.262C380.505 301.868 380.634 302.517 380.634 303.172C380.634 303.828 380.505 304.477 380.254 305.083C380.003 305.688 379.636 306.239 379.172 306.702C378.709 307.166 378.158 307.533 377.553 307.784C376.947 308.035 376.298 308.164 375.642 308.164H261.899C261.243 308.164 260.594 308.035 259.989 307.784C259.383 307.533 258.833 307.166 258.369 306.702C257.906 306.239 257.538 305.688 257.287 305.083C257.036 304.477 256.907 303.828 256.907 303.172C256.907 302.517 257.036 301.868 257.287 301.262C257.538 300.657 257.906 300.106 258.369 299.643C258.833 299.179 259.383 298.812 259.989 298.561C260.594 298.31 261.243 298.181 261.899 298.181H375.642Z" fill="#FF730E"/>
<path d="M199.469 297.617H313.214C316.282 297.617 318.77 300.105 318.77 303.174V303.174C318.77 306.243 316.282 308.731 313.214 308.731H199.469C196.401 308.731 193.913 306.243 193.913 303.174V303.174C193.913 300.105 196.401 297.617 199.469 297.617Z" fill="white"/>
<path d="M199.469 309.294H313.214C314.017 309.294 314.813 309.136 315.556 308.828C316.299 308.521 316.974 308.07 317.542 307.501C318.111 306.933 318.562 306.258 318.869 305.515C319.177 304.772 319.335 303.976 319.335 303.172C319.335 302.369 319.177 301.573 318.869 300.83C318.562 300.087 318.111 299.412 317.542 298.844C316.974 298.275 316.299 297.824 315.556 297.517C314.813 297.209 314.017 297.051 313.214 297.051H199.469C198.666 297.051 197.869 297.209 197.127 297.517C196.384 297.824 195.709 298.275 195.141 298.844C194.572 299.412 194.121 300.087 193.814 300.83C193.506 301.573 193.348 302.369 193.348 303.172C193.348 303.976 193.506 304.772 193.814 305.515C194.121 306.258 194.572 306.933 195.141 307.501C195.709 308.07 196.384 308.521 197.127 308.828C197.869 309.136 198.666 309.294 199.469 309.294ZM313.214 298.181C313.869 298.181 314.518 298.31 315.124 298.561C315.729 298.812 316.28 299.179 316.743 299.643C317.207 300.106 317.574 300.657 317.825 301.262C318.076 301.868 318.205 302.517 318.205 303.172C318.205 303.828 318.076 304.477 317.825 305.083C317.574 305.688 317.207 306.239 316.743 306.702C316.28 307.166 315.729 307.533 315.124 307.784C314.518 308.035 313.869 308.164 313.214 308.164H199.469C198.814 308.164 198.165 308.035 197.559 307.784C196.954 307.533 196.403 307.166 195.94 306.702C195.476 306.239 195.109 305.688 194.858 305.083C194.607 304.477 194.478 303.828 194.478 303.172C194.478 302.517 194.607 301.868 194.858 301.262C195.109 300.657 195.476 300.106 195.94 299.643C196.403 299.179 196.954 298.812 197.559 298.561C198.165 298.31 198.814 298.181 199.469 298.181H313.214Z" fill="#FF730E"/>
<path d="M278.164 227.291H388.477C390.28 227.291 392.022 226.635 393.378 225.445C394.733 224.254 395.609 222.612 395.842 220.823L403.138 164.788C403.275 163.74 403.186 162.676 402.878 161.665C402.571 160.655 402.051 159.722 401.354 158.928C400.656 158.134 399.798 157.498 398.836 157.063C397.873 156.627 396.829 156.402 395.773 156.402H285.461C283.657 156.402 281.915 157.059 280.56 158.249C279.205 159.439 278.329 161.081 278.096 162.87L270.8 218.906C270.663 219.953 270.752 221.018 271.06 222.028C271.367 223.038 271.887 223.972 272.584 224.765C273.281 225.559 274.139 226.195 275.101 226.63C276.064 227.066 277.108 227.291 278.164 227.291Z" fill="#FF730E"/>
<path opacity="0.8" d="M278.164 227.291H388.477C390.28 227.291 392.022 226.635 393.378 225.445C394.733 224.254 395.609 222.612 395.842 220.823L403.138 164.788C403.275 163.74 403.186 162.676 402.878 161.665C402.571 160.655 402.051 159.722 401.354 158.928C400.656 158.134 399.798 157.498 398.836 157.063C397.873 156.627 396.829 156.402 395.773 156.402H285.461C283.657 156.402 281.915 157.059 280.56 158.249C279.205 159.439 278.329 161.081 278.096 162.87L270.8 218.906C270.663 219.953 270.752 221.018 271.06 222.028C271.367 223.038 271.887 223.972 272.584 224.765C273.281 225.559 274.139 226.195 275.101 226.63C276.064 227.066 277.108 227.291 278.164 227.291Z" fill="white"/>
<path d="M278.164 227.855H388.477C390.417 227.851 392.289 227.143 393.747 225.863C395.204 224.583 396.148 222.818 396.402 220.895L403.699 164.86C403.846 163.733 403.75 162.587 403.419 161.5C403.088 160.412 402.529 159.408 401.779 158.554C401.029 157.7 400.105 157.015 399.069 156.547C398.034 156.078 396.91 155.836 395.773 155.836H285.461C283.522 155.84 281.649 156.548 280.192 157.828C278.735 159.108 277.791 160.873 277.537 162.796L270.24 218.832C270.093 219.959 270.188 221.104 270.519 222.192C270.85 223.279 271.41 224.283 272.16 225.137C272.91 225.991 273.833 226.676 274.869 227.144C275.904 227.613 277.028 227.855 278.164 227.855ZM395.773 156.966C396.749 156.966 397.714 157.174 398.603 157.577C399.492 157.979 400.285 158.567 400.929 159.3C401.573 160.033 402.053 160.895 402.337 161.829C402.621 162.762 402.703 163.746 402.577 164.714L395.28 220.75C395.062 222.401 394.252 223.916 393 225.015C391.749 226.114 390.142 226.722 388.476 226.725H278.164C277.189 226.725 276.224 226.517 275.335 226.114C274.446 225.712 273.654 225.124 273.01 224.391C272.366 223.658 271.886 222.796 271.602 221.862C271.318 220.929 271.236 219.945 271.362 218.978L278.657 162.942C278.876 161.291 279.686 159.776 280.937 158.677C282.188 157.578 283.796 156.97 285.461 156.966L395.773 156.966Z" fill="#FF730E"/>
<path d="M271.926 227.291H382.239C384.043 227.291 385.785 226.635 387.14 225.445C388.495 224.254 389.371 222.612 389.603 220.823L396.903 164.788C397.039 163.741 396.95 162.676 396.643 161.666C396.335 160.655 395.815 159.722 395.118 158.928C394.421 158.135 393.563 157.499 392.601 157.063C391.638 156.628 390.594 156.402 389.538 156.402H279.223C277.419 156.402 275.677 157.059 274.322 158.249C272.967 159.439 272.091 161.081 271.859 162.87L264.562 218.906C264.425 219.953 264.514 221.018 264.822 222.028C265.129 223.038 265.649 223.972 266.346 224.765C267.043 225.559 267.901 226.195 268.864 226.63C269.826 227.066 270.87 227.291 271.926 227.291Z" fill="white"/>
<path d="M271.926 227.855H382.239C384.179 227.851 386.051 227.143 387.508 225.863C388.966 224.583 389.909 222.818 390.164 220.895L397.461 164.86C397.608 163.733 397.512 162.587 397.181 161.5C396.85 160.413 396.291 159.408 395.541 158.554C394.79 157.7 393.867 157.016 392.831 156.547C391.796 156.078 390.672 155.836 389.536 155.836H279.223C277.284 155.84 275.411 156.548 273.954 157.828C272.497 159.108 271.553 160.873 271.298 162.796L264.001 218.832C263.855 219.959 263.95 221.104 264.281 222.192C264.612 223.279 265.172 224.283 265.922 225.137C266.672 225.991 267.595 226.675 268.631 227.144C269.666 227.613 270.79 227.855 271.926 227.855ZM389.536 156.966C390.511 156.966 391.476 157.175 392.365 157.578C393.253 157.98 394.046 158.568 394.69 159.301C395.333 160.034 395.813 160.896 396.098 161.83C396.382 162.763 396.464 163.747 396.338 164.714L389.044 220.75C388.825 222.4 388.015 223.916 386.763 225.015C385.512 226.114 383.905 226.722 382.239 226.725H271.926C270.951 226.725 269.986 226.517 269.097 226.115C268.208 225.712 267.415 225.125 266.771 224.392C266.127 223.658 265.647 222.796 265.362 221.863C265.078 220.929 264.996 219.945 265.122 218.978L272.419 162.942C272.638 161.291 273.448 159.776 274.699 158.677C275.95 157.578 277.558 156.97 279.223 156.966L389.536 156.966Z" fill="#FF730E"/>
<path d="M186.178 240.086L187.302 240.199L163.483 475.998L162.359 475.884L186.178 240.086Z" fill="#494949"/>
<path d="M283.815 70.3751C283.815 70.3751 276.485 64.8422 274.669 52.1061C273.262 42.2453 282.359 48.6337 282.359 48.6337C282.359 48.6337 281.415 41.5233 286.596 42.2289C291.777 42.9346 294.675 50.4038 294.675 50.4038" fill="#0C0C0C"/>
<path d="M313.371 43.0625C313.371 43.0625 339.075 45.8202 329.783 80.6486L327.508 80.8011L322.891 81.1107" fill="#0C0C0C"/>
<path d="M288.121 117.022C288.234 117.007 289.488 137.814 313.662 136.002C330.397 134.748 336.364 116.993 336.747 116.993C334.943 116.609 332.713 116.027 331.827 115.828C329.895 115.379 328.146 114.353 326.812 112.887C325.478 111.42 324.622 109.582 324.359 107.617C323.869 104.668 324.698 89.578 324.444 86.5938L298.755 92.3273C299.114 98.6303 301.627 113.242 292.823 115.828C291.356 116.255 289.778 116.648 288.121 117.022Z" fill="#E98862"/>
<path opacity="0.52" d="M298.395 109.855C298.797 108.558 299.056 107.221 299.168 105.868C299.45 102.78 299.393 99.6706 298.998 96.595C304.219 95.8904 309.138 93.7355 313.196 90.375C313.673 92.1366 316.296 99.8341 315.569 101.508C314.199 104.673 307.748 109.855 298.395 109.855Z" fill="#0C0C0C"/>
<path d="M303.697 105.739C313.831 104.83 325.961 98.4268 326.136 84.6698L326.294 72.2569C326.469 58.5005 319.385 47.2566 306.432 47.0917C293.48 46.9272 283.656 57.9559 283.482 71.7129L283.412 77.208C283.421 79.0953 283.558 80.9797 283.824 82.8483C284.488 87.792 285.519 95.308 288.873 100.392C292.041 105.193 297.222 106.319 303.697 105.739Z" fill="#E98862"/>
<path d="M298.995 93.1644C296.903 93.2592 294.819 92.8611 292.91 92.0022C292.87 91.9853 292.835 91.9609 292.805 91.9302C292.775 91.8995 292.751 91.8633 292.735 91.8234C292.719 91.7836 292.711 91.741 292.711 91.6981C292.712 91.6552 292.721 91.6128 292.738 91.5733C292.754 91.5339 292.779 91.4981 292.81 91.4681C292.84 91.4381 292.876 91.4144 292.916 91.3984C292.956 91.3824 292.999 91.3744 293.042 91.3748C293.084 91.3753 293.127 91.3842 293.166 91.401C297.28 93.1553 301.015 92.8982 303.967 90.6581C304.027 90.6108 304.089 90.5668 304.153 90.5264C304.227 90.492 304.312 90.4867 304.39 90.5114C304.468 90.5362 304.534 90.5893 304.574 90.6602C304.615 90.7311 304.628 90.8147 304.61 90.8945C304.592 90.9743 304.545 91.0446 304.478 91.0914C304.454 91.1061 304.416 91.136 304.365 91.1773C302.813 92.3594 300.943 93.0512 298.995 93.1644Z" fill="#0C0C0C"/>
<path d="M299.092 96.2626C298.714 96.2859 298.335 96.2768 297.958 96.2355C297.872 96.2263 297.793 96.1833 297.739 96.1159C297.684 96.0485 297.659 95.9623 297.668 95.8761C297.677 95.79 297.72 95.711 297.788 95.6565C297.855 95.602 297.941 95.5766 298.027 95.5857C300.291 95.8264 301.372 94.7891 301.417 94.7444C301.479 94.6831 301.562 94.6485 301.648 94.6484C301.735 94.6483 301.818 94.6827 301.879 94.7439C301.941 94.8051 301.975 94.8882 301.975 94.9748C301.976 95.0615 301.941 95.1447 301.88 95.206C301.101 95.8698 300.115 96.2431 299.092 96.2626Z" fill="#0C0C0C"/>
<path d="M287.759 79.8551C286.878 79.8551 286.164 79.1408 286.164 78.2596C286.164 77.3784 286.878 76.6641 287.759 76.6641C288.64 76.6641 289.355 77.3784 289.355 78.2596C289.355 79.1408 288.64 79.8551 287.759 79.8551Z" fill="#0C0C0C"/>
<path d="M303.346 78.8747C302.465 78.8747 301.751 78.1603 301.751 77.2791C301.751 76.3979 302.465 75.6836 303.346 75.6836C304.227 75.6836 304.942 76.3979 304.942 77.2791C304.942 78.1603 304.227 78.8747 303.346 78.8747Z" fill="#0C0C0C"/>
<path d="M325.278 88.8518C329.215 88.9021 332.459 84.7314 332.51 80.7951C332.562 76.8588 329.397 74.6474 325.461 74.5977L323.399 77.2091L321.895 88.8089L325.278 88.8518Z" fill="#E98862"/>
<path d="M321.364 82.5252C321.364 82.5252 320.034 63.0595 314.132 61.8572C310.201 61.0566 300.668 66.6331 291.838 64.9489C287.975 64.2144 284.307 65.1681 283.934 66.993C283.787 67.7156 281.38 57.3316 287.429 49.4534C292.246 43.1792 308.008 41.4079 315.179 43.4645C335.034 49.1607 326.272 75.4526 326.272 75.4526L325.387 82.1636L321.364 82.5252Z" fill="#0C0C0C"/>
<path d="M296.617 88.5719H296.592C295.323 88.5589 293.197 88.3962 293.206 87.447C293.214 86.6605 295.451 78.1953 295.707 77.2325C295.732 77.1526 295.786 77.0852 295.859 77.0446C295.932 77.004 296.018 76.9933 296.099 77.0147C296.18 77.0361 296.249 77.088 296.293 77.1595C296.336 77.231 296.35 77.3165 296.332 77.3981C295.338 81.1474 293.858 86.9193 293.851 87.4549C293.974 87.6809 295.284 87.9137 296.598 87.9273C296.681 87.929 296.76 87.9625 296.818 88.0209C296.877 88.0792 296.911 88.1579 296.914 88.2407C296.916 88.3236 296.887 88.4042 296.832 88.4659C296.776 88.5276 296.7 88.5658 296.617 88.5725V88.5719Z" fill="#0C0C0C"/>
<path d="M292.287 69.6033C290.954 69.2364 289.547 69.2364 288.213 69.6033C287.559 69.7793 286.934 70.0528 286.36 70.4147C285.793 70.7689 285.273 71.1933 284.813 71.678C284.724 71.7635 284.673 71.8801 284.67 72.003C284.667 72.1258 284.712 72.2451 284.795 72.3352C284.879 72.4253 284.994 72.4791 285.117 72.4851C285.24 72.4911 285.36 72.4488 285.452 72.3673L285.481 72.3424C285.907 71.9477 286.382 71.6081 286.893 71.3316C287.395 71.0569 287.935 70.8595 288.496 70.7463C289.6 70.5148 290.745 70.5789 291.816 70.9322L291.862 70.948C292.038 71.0105 292.233 71.0002 292.402 70.9194C292.571 70.8386 292.701 70.6939 292.764 70.5172C292.826 70.3405 292.816 70.1461 292.735 69.977C292.654 69.8078 292.51 69.6777 292.333 69.6152L292.287 69.6033Z" fill="#0C0C0C"/>
<path d="M301.727 70.4067C302.741 69.9137 303.868 69.6975 304.992 69.7801C305.563 69.8172 306.125 69.9406 306.659 70.1462C307.202 70.3523 307.717 70.6256 308.191 70.9598L308.222 70.9801C308.324 71.0454 308.447 71.069 308.566 71.0459C308.685 71.0227 308.79 70.9547 308.86 70.8559C308.93 70.7572 308.959 70.6352 308.941 70.5155C308.924 70.3957 308.861 70.2873 308.765 70.2129C308.244 69.7938 307.672 69.4422 307.063 69.1665C306.446 68.8848 305.791 68.697 305.118 68.6094C303.748 68.4226 302.353 68.6096 301.08 69.1507C300.908 69.2256 300.773 69.3659 300.704 69.5407C300.635 69.7156 300.638 69.9106 300.713 70.0829C300.788 70.2552 300.928 70.3907 301.103 70.4596C301.278 70.5285 301.473 70.5251 301.645 70.4502L301.684 70.4315L301.727 70.4067Z" fill="#0C0C0C"/>
<path d="M294.185 56.2048C291.271 55.596 289.635 51.6261 290.531 47.3377C291.427 43.0493 294.516 40.0664 297.429 40.6751C300.343 41.2839 301.979 45.2538 301.083 49.5422C300.187 53.8306 297.098 56.8135 294.185 56.2048Z" fill="#0C0C0C"/>
<path d="M131.686 446.195C131.686 446.195 128.656 461.898 113.954 462.773C99.2517 463.648 102.439 475.361 102.439 475.361H158.624V447.29L131.686 446.195Z" fill="#367CFF"/>
<path d="M238.575 436.278C238.575 436.278 242.788 451.706 229.982 458.981C217.175 466.256 225.206 475.359 225.206 475.359L275.622 450.556L263.231 425.367L238.575 436.278Z" fill="#367CFF"/>
<path d="M269.8 431.921L227.285 297.797H304.35C319.831 297.797 326.284 284.67 326.284 269.19C326.284 253.711 311.066 240.141 295.586 240.141H191.577C182.135 240.141 171.548 245.915 166.366 253.808C161.184 261.701 162.585 273.931 166.34 282.595L234.421 447.948" fill="#262626"/>
<path opacity="0.8" d="M269.8 431.921L227.285 297.797H304.35C319.831 297.797 326.284 284.67 326.284 269.19C326.284 253.711 311.066 240.141 295.586 240.141H191.577C182.135 240.141 171.548 245.915 166.366 253.808C161.184 261.701 162.585 273.931 166.34 282.595L234.421 447.948" fill="#0A0A0A"/>
<path d="M161.855 460.777L232.944 297.799L326.285 297.792C348.157 296.078 358.174 284.091 357.855 268.615C357.541 253.335 349.804 238.242 334.592 238.242H208.785C197.53 238.473 188.675 250.911 184.5 261.364L125.402 450.799" fill="#262626"/>
<path d="M364.221 238.429C364.221 238.429 368.367 265.462 361.796 280.491C353.593 299.254 322.841 297.792 322.841 297.792L324.574 238.242L364.221 238.429Z" fill="#262626"/>
<path d="M181.825 237.896L247.76 224.234C250.507 223.664 253.067 222.411 255.201 220.59C257.336 218.77 258.977 216.44 259.973 213.816L285.906 145.479C286.695 143.428 287.072 141.241 287.014 139.044C286.956 136.847 286.465 134.684 285.568 132.677C284.671 130.671 283.387 128.861 281.789 127.353C280.191 125.844 278.31 124.666 276.256 123.886C274.201 123.106 272.012 122.74 269.816 122.809C267.619 122.877 265.458 123.379 263.456 124.286C261.454 125.192 259.65 126.485 258.149 128.09C256.648 129.696 255.48 131.582 254.71 133.64L232.024 193.416L175.053 205.221C175.053 205.221 180.682 238.133 181.825 237.896Z" fill="#367CFF"/>
<path d="M258.085 162.834C258.846 171.779 264.243 227.587 264.978 238.606H364.177C364.747 228.668 366.597 186.476 368.759 167.043C370.822 148.499 371.57 137.917 369.194 132.155C365.003 121.99 354.515 118.333 345.481 117.11C339.965 116.364 331.668 115.828 331.668 115.828C331.668 115.828 330.965 130.039 314.214 130.83C291.412 131.904 292.934 115.828 292.821 115.828C289.127 115.828 269.019 118.515 263.991 121.792C256.889 126.421 254.791 132.728 254.708 138.523C254.613 145.196 257.222 152.689 258.085 162.834Z" fill="#367CFF"/>
<path d="M261.983 208.434H262.007C262.044 208.431 262.08 208.421 262.113 208.404C262.146 208.387 262.176 208.363 262.199 208.335C262.223 208.307 262.242 208.274 262.253 208.239C262.264 208.203 262.268 208.166 262.265 208.129L259.69 177.193C259.688 177.156 259.678 177.12 259.662 177.086C259.645 177.053 259.622 177.023 259.593 176.999C259.565 176.975 259.532 176.957 259.496 176.946C259.46 176.935 259.423 176.931 259.386 176.935C259.349 176.938 259.313 176.949 259.28 176.966C259.247 176.983 259.217 177.006 259.193 177.034C259.169 177.063 259.151 177.095 259.14 177.131C259.129 177.166 259.124 177.203 259.127 177.24L261.703 208.176C261.709 208.246 261.741 208.312 261.793 208.36C261.845 208.407 261.913 208.434 261.983 208.434Z" fill="#0C0C0C"/>
<path d="M214.739 227.004L192.973 160.096C192.591 158.92 191.846 157.895 190.846 157.169C189.845 156.442 188.641 156.051 187.404 156.051H93.0777C92.1533 156.051 91.242 156.269 90.4184 156.689C89.5948 157.109 88.8822 157.718 88.339 158.466C87.7958 159.214 87.4374 160.079 87.293 160.993C87.1487 161.906 87.2225 162.84 87.5085 163.719L114.924 230.63C115.307 231.805 116.051 232.83 117.052 233.556C118.052 234.283 119.257 234.674 120.493 234.674H209.17C210.095 234.675 211.006 234.456 211.83 234.036C212.654 233.616 213.367 233.007 213.91 232.259C214.453 231.511 214.811 230.644 214.956 229.731C215.1 228.818 215.025 227.883 214.739 227.004Z" fill="#FF730E"/>
<path d="M214.739 227.004L192.973 160.096C192.591 158.92 191.846 157.895 190.846 157.169C189.845 156.442 188.641 156.051 187.404 156.051H93.0777C92.1533 156.051 91.242 156.269 90.4184 156.689C89.5948 157.109 88.8822 157.718 88.339 158.466C87.7958 159.214 87.4374 160.079 87.293 160.993C87.1487 161.906 87.2225 162.84 87.5085 163.719L114.924 230.63C115.307 231.805 116.051 232.83 117.052 233.556C118.052 234.283 119.257 234.674 120.493 234.674H209.17C210.095 234.675 211.006 234.456 211.83 234.036C212.654 233.616 213.367 233.007 213.91 232.259C214.453 231.511 214.811 230.644 214.956 229.731C215.1 228.818 215.025 227.883 214.739 227.004Z" fill="#FF730E"/>
<path d="M196.983 229.246H256.344C257.823 229.246 259.022 230.445 259.022 231.924V231.993C259.022 233.472 257.823 234.671 256.344 234.671H196.983C195.504 234.671 194.305 233.472 194.305 231.993V231.924C194.305 230.445 195.504 229.246 196.983 229.246Z" fill="#FF730E"/>
<path d="M196.983 229.246H256.344C257.823 229.246 259.022 230.445 259.022 231.924V231.993C259.022 233.472 257.823 234.671 256.344 234.671H196.983C195.504 234.671 194.305 233.472 194.305 231.993V231.924C194.305 230.445 195.504 229.246 196.983 229.246Z" fill="#FF730E"/>
<path d="M153.949 207.925C148.813 207.925 144.649 203.761 144.649 198.625C144.649 193.488 148.813 189.324 153.949 189.324C159.085 189.324 163.249 193.488 163.249 198.625C163.249 203.761 159.085 207.925 153.949 207.925Z" fill="white"/>
<path d="M219.7 211.331L234.515 206.138L232.388 205.991C231.703 205.93 231.066 205.611 230.606 205.098C230.147 204.586 229.899 203.918 229.914 203.229C229.933 202.875 230.025 202.527 230.184 202.209C230.342 201.891 230.563 201.608 230.834 201.378C231.105 201.149 231.421 200.976 231.76 200.872C232.1 200.768 232.458 200.735 232.811 200.773L259.022 203.559L258.344 211.982C258.132 214.598 257.144 217.091 255.506 219.142C253.869 221.193 251.656 222.708 249.151 223.493L237.801 227.029C237.214 227.224 236.579 227.21 236.001 226.991C235.424 226.771 234.94 226.359 234.631 225.823C234.363 225.334 234.259 224.772 234.333 224.219C234.407 223.666 234.656 223.151 235.043 222.749C235.018 222.731 234.996 222.709 234.98 222.682C234.964 222.656 234.954 222.627 234.95 222.596C234.945 222.566 234.947 222.535 234.956 222.505C234.964 222.476 234.978 222.448 234.997 222.424L232.907 223.08C232.254 223.299 231.543 223.262 230.916 222.977C230.29 222.692 229.795 222.179 229.532 221.543C229.317 220.966 229.313 220.332 229.52 219.752C229.726 219.172 230.131 218.684 230.662 218.373C230.638 218.36 230.616 218.342 230.598 218.321L229.738 218.59C229.152 218.786 228.516 218.772 227.939 218.553C227.361 218.333 226.877 217.92 226.569 217.385C226.244 216.791 226.161 216.095 226.338 215.442C226.515 214.789 226.938 214.23 227.518 213.882C227.513 213.864 227.511 213.847 227.51 213.829L221.341 215.991C221.034 216.102 220.708 216.151 220.382 216.135C220.057 216.12 219.737 216.04 219.442 215.9C219.148 215.76 218.884 215.563 218.666 215.32C218.448 215.078 218.28 214.794 218.172 214.486C218.064 214.179 218.018 213.852 218.037 213.527C218.056 213.201 218.139 212.882 218.282 212.589C218.425 212.296 218.625 212.034 218.87 211.818C219.114 211.603 219.399 211.438 219.708 211.333L219.7 211.331Z" fill="#E98862"/>
<path opacity="0.2" d="M227.745 214.068C227.774 214.068 227.802 214.063 227.829 214.054L233.797 211.883C233.858 211.861 233.908 211.815 233.935 211.756C233.963 211.697 233.965 211.629 233.943 211.568C233.92 211.506 233.874 211.457 233.815 211.429C233.756 211.402 233.688 211.399 233.627 211.421L227.659 213.591C227.605 213.611 227.559 213.649 227.53 213.699C227.501 213.75 227.491 213.808 227.501 213.865C227.511 213.922 227.541 213.974 227.585 214.011C227.629 214.048 227.685 214.068 227.743 214.068H227.745Z" fill="#0A0A0A"/>
<path opacity="0.2" d="M230.762 218.405C230.79 218.405 230.818 218.4 230.845 218.39L235.548 216.721C235.579 216.711 235.608 216.695 235.633 216.673C235.657 216.652 235.678 216.626 235.692 216.596C235.707 216.567 235.715 216.535 235.717 216.502C235.719 216.47 235.714 216.437 235.703 216.406C235.692 216.375 235.675 216.347 235.653 216.323C235.631 216.298 235.605 216.279 235.575 216.265C235.545 216.251 235.513 216.244 235.48 216.242C235.448 216.241 235.415 216.247 235.384 216.258L230.68 217.927C230.626 217.947 230.58 217.985 230.55 218.035C230.521 218.085 230.51 218.143 230.52 218.2C230.53 218.258 230.559 218.309 230.604 218.347C230.648 218.384 230.704 218.405 230.762 218.405Z" fill="#0A0A0A"/>
<path opacity="0.2" d="M235.192 222.809C235.222 222.808 235.251 222.803 235.279 222.792L237.483 221.952C237.544 221.929 237.593 221.882 237.62 221.823C237.646 221.763 237.648 221.696 237.625 221.635C237.601 221.574 237.555 221.525 237.495 221.498C237.436 221.471 237.368 221.469 237.307 221.493L235.104 222.333C235.05 222.353 235.005 222.392 234.977 222.442C234.948 222.492 234.938 222.551 234.949 222.607C234.959 222.664 234.989 222.715 235.034 222.752C235.078 222.789 235.134 222.809 235.191 222.809H235.192Z" fill="#0A0A0A"/>
<path d="M247.421 198.571L309.57 198.529L333.082 141.176L368.155 155.922L338.822 223.992L338.536 224.67C337.1 227.978 334.683 230.766 331.611 232.655C328.539 234.544 324.96 235.443 321.36 235.23L246.483 230.807L247.421 198.571Z" fill="#367CFF"/>
<path d="M322.389 235.542C325.873 235.536 329.28 234.515 332.193 232.604C335.106 230.693 337.4 227.975 338.793 224.782L339.08 224.104L364.077 166.105L363.559 165.879L338.275 224.56C336.856 227.81 334.477 230.547 331.455 232.405C328.434 234.262 324.917 235.149 321.376 234.948L246.773 230.541L247.697 198.855L309.761 198.813L327.84 154.714L327.317 154.5L309.383 198.248L247.149 198.29L246.192 231.073L246.466 231.089L321.341 235.511C321.691 235.532 322.042 235.542 322.389 235.542Z" fill="#0C0C0C"/>
<path d="M391.516 240.086L415.351 475.883L414.227 475.996L390.392 240.199L391.516 240.086Z" fill="#494949"/>
<path d="M293.039 240.086L316.874 475.883L315.75 475.996L291.915 240.199L293.039 240.086Z" fill="#494949"/>
<path d="M87.7014 240.082L88.8256 240.195L65.0071 475.994L63.8828 475.881L87.7014 240.082Z" fill="#494949"/>
<path d="M66.2232 235.512H411.435C413.992 235.512 416.064 237.584 416.064 240.141C416.064 242.698 413.992 244.77 411.435 244.77H66.2232C63.6664 244.77 61.5937 242.698 61.5937 240.141C61.5937 237.584 63.6664 235.512 66.2232 235.512Z" fill="#FF730E"/>
<path opacity="0.8" d="M66.2232 235.512H411.435C413.992 235.512 416.064 237.584 416.064 240.141C416.064 242.698 413.992 244.77 411.435 244.77H66.2232C63.6664 244.77 61.5937 242.698 61.5937 240.141C61.5937 237.584 63.6664 235.512 66.2232 235.512Z" fill="white"/>
<path d="M66.2224 245.334H411.432C412.119 245.341 412.8 245.212 413.437 244.954C414.073 244.697 414.652 244.315 415.14 243.832C415.628 243.349 416.016 242.774 416.28 242.14C416.545 241.506 416.681 240.827 416.681 240.14C416.681 239.453 416.545 238.773 416.28 238.139C416.016 237.506 415.628 236.931 415.14 236.448C414.652 235.965 414.073 235.583 413.437 235.325C412.8 235.067 412.119 234.938 411.432 234.946H66.2224C65.5357 234.938 64.8545 235.067 64.218 235.325C63.5815 235.583 63.0025 235.965 62.5143 236.448C62.0262 236.931 61.6387 237.506 61.3743 238.139C61.1098 238.773 60.9737 239.453 60.9737 240.14C60.9737 240.827 61.1098 241.506 61.3743 242.14C61.6387 242.774 62.0262 243.349 62.5143 243.832C63.0025 244.315 63.5815 244.697 64.218 244.954C64.8545 245.212 65.5357 245.341 66.2224 245.334ZM411.432 236.076C411.97 236.069 412.504 236.17 413.002 236.371C413.501 236.572 413.955 236.871 414.337 237.249C414.72 237.627 415.023 238.077 415.231 238.573C415.438 239.07 415.545 239.602 415.545 240.14C415.545 240.678 415.438 241.21 415.231 241.706C415.023 242.203 414.72 242.653 414.337 243.031C413.955 243.409 413.501 243.707 413.002 243.909C412.504 244.11 411.97 244.21 411.432 244.204H66.2224C65.6847 244.21 65.151 244.11 64.6523 243.909C64.1536 243.707 63.6999 243.409 63.3174 243.031C62.9349 242.653 62.6312 242.203 62.4239 241.706C62.2167 241.21 62.1099 240.678 62.1099 240.14C62.1099 239.602 62.2167 239.07 62.4239 238.573C62.6312 238.077 62.9349 237.627 63.3174 237.249C63.6999 236.871 64.1536 236.572 64.6523 236.371C65.151 236.17 65.6847 236.069 66.2224 236.076H411.432Z" fill="#FF730E"/>
<path d="M66.2229 235.512H309.193C311.75 235.512 313.823 237.584 313.823 240.141C313.823 242.698 311.75 244.77 309.193 244.77H66.2229C63.666 244.77 61.5933 242.698 61.5933 240.141C61.5933 237.584 63.666 235.512 66.2229 235.512Z" fill="white"/>
<path d="M66.2219 245.334H309.193C310.561 245.32 311.868 244.766 312.831 243.794C313.793 242.821 314.333 241.508 314.333 240.14C314.333 238.772 313.793 237.459 312.831 236.486C311.868 235.513 310.561 234.96 309.193 234.946H66.2219C65.5352 234.938 64.8539 235.067 64.2174 235.325C63.581 235.583 63.0019 235.965 62.5138 236.448C62.0257 236.931 61.6382 237.506 61.3737 238.139C61.1093 238.773 60.9731 239.453 60.9731 240.14C60.9731 240.827 61.1093 241.506 61.3737 242.14C61.6382 242.774 62.0257 243.349 62.5138 243.832C63.0019 244.315 63.581 244.697 64.2174 244.954C64.8539 245.212 65.5352 245.341 66.2219 245.334ZM309.193 236.076C310.262 236.088 311.284 236.522 312.036 237.283C312.787 238.044 313.209 239.07 313.209 240.14C313.209 241.21 312.787 242.236 312.036 242.997C311.284 243.758 310.262 244.191 309.193 244.204H66.2219C65.6841 244.21 65.1504 244.11 64.6518 243.909C64.1531 243.707 63.6993 243.409 63.3168 243.031C62.9343 242.653 62.6306 242.203 62.4234 241.706C62.2161 241.21 62.1094 240.678 62.1094 240.14C62.1094 239.602 62.2161 239.07 62.4234 238.573C62.6306 238.077 62.9343 237.627 63.3168 237.249C63.6993 236.871 64.1531 236.572 64.6518 236.371C65.1504 236.17 65.6841 236.069 66.2219 236.076H309.193Z" fill="#FF730E"/>
<path d="M56.9107 400.83C56.9849 400.83 57.0584 400.815 57.127 400.787C57.1956 400.758 57.2578 400.717 57.3102 400.664C58.1062 399.869 59.404 385.264 62.899 341.779C64.329 323.986 65.6799 307.18 66.6658 296.967C66.7359 296.237 67.019 296.152 67.1116 296.125C68.4614 295.717 72.5649 298.953 74.856 301.787C74.9502 301.904 75.0869 301.978 75.236 301.994C75.3851 302.01 75.5343 301.966 75.6509 301.871C75.7675 301.777 75.8418 301.64 75.8576 301.491C75.8734 301.342 75.8293 301.193 75.7351 301.076C74.2198 299.203 69.2818 294.291 66.7868 295.042C66.2839 295.194 65.6568 295.631 65.541 296.858C64.5539 307.081 63.203 323.891 61.7725 341.689C59.6487 368.113 57.2429 398.05 56.4519 399.935C56.3913 400.02 56.3552 400.119 56.3475 400.223C56.3398 400.326 56.3608 400.43 56.4083 400.522C56.4557 400.615 56.5277 400.692 56.6163 400.747C56.7049 400.801 56.8068 400.83 56.9107 400.83Z" fill="#494949"/>
<path d="M68.1172 315.708C58.7418 308.193 55.6345 296.496 61.1767 289.582C66.7189 282.668 78.812 283.155 88.1873 290.67C97.5627 298.185 100.67 309.882 95.1278 316.796C89.5856 323.711 77.4925 323.223 68.1172 315.708Z" fill="#0A645E"/>
<path opacity="0.2" d="M68.1172 315.708C58.7418 308.193 55.6345 296.496 61.1767 289.582C66.7189 282.668 78.812 283.155 88.1873 290.67C97.5627 298.185 100.67 309.882 95.1278 316.796C89.5856 323.711 77.4925 323.223 68.1172 315.708Z" fill="white"/>
<path d="M92.4988 318.555C92.5524 318.555 92.605 318.54 92.6502 318.511C92.6955 318.483 92.7317 318.442 92.7545 318.393C92.7773 318.344 92.7858 318.29 92.7791 318.237C92.7723 318.184 92.7505 318.134 92.7163 318.093L65.9973 285.872C65.9494 285.814 65.8806 285.778 65.806 285.771C65.7313 285.764 65.657 285.787 65.5993 285.835C65.5416 285.883 65.5053 285.951 65.4984 286.026C65.4914 286.101 65.5144 286.175 65.5623 286.233L92.2813 318.454C92.3079 318.485 92.3411 318.511 92.3787 318.529C92.4163 318.546 92.4573 318.555 92.4988 318.555Z" fill="white"/>
<path d="M51.0833 393.922C51.1734 393.922 51.2623 393.901 51.3424 393.859C51.4225 393.818 51.4915 393.758 51.5437 393.684C51.5959 393.611 51.6298 393.526 51.6424 393.437C51.6551 393.347 51.6463 393.256 51.6166 393.171L41.5795 364.308C41.284 363.46 40.7805 362.7 40.115 362.097C39.4495 361.494 38.6434 361.068 37.7704 360.857C36.8975 360.646 35.9856 360.658 35.1184 360.891C34.2511 361.124 33.4562 361.571 32.8064 362.191L27.5 367.259C27.3915 367.363 27.3287 367.505 27.3253 367.655C27.3218 367.805 27.3781 367.95 27.4816 368.058C27.5852 368.167 27.7275 368.23 27.8774 368.233C28.0273 368.236 28.1724 368.18 28.2808 368.077L33.5866 363.008C34.0996 362.518 34.7272 362.165 35.4119 361.981C36.0966 361.797 36.8165 361.788 37.5057 361.955C38.1948 362.121 38.8313 362.458 39.3566 362.934C39.882 363.41 40.2795 364.01 40.5128 364.679L50.5488 393.543C50.5874 393.654 50.6597 393.75 50.7554 393.818C50.8512 393.886 50.9658 393.922 51.0833 393.922Z" fill="#494949"/>
<path d="M12.6767 383.238C5.72865 377.738 6.14156 365.642 13.5989 356.221C21.0563 346.8 32.7342 343.621 39.6822 349.12C46.6302 354.62 46.2173 366.716 38.7599 376.137C31.3026 385.558 19.6247 388.738 12.6767 383.238Z" fill="#0A645E"/>
<path d="M61.4668 398.989C61.5937 398.989 61.717 398.947 61.8166 398.868C61.9162 398.789 61.9864 398.679 62.016 398.556L78.8618 328.133C78.977 327.653 79.2223 327.214 79.5707 326.864C79.9192 326.515 80.3572 326.268 80.8367 326.151C81.3163 326.035 81.8187 326.052 82.2888 326.202C82.7589 326.353 83.1785 326.63 83.5015 327.003L88.6938 333.003C88.7421 333.06 88.8012 333.107 88.8677 333.14C88.9342 333.174 89.0068 333.195 89.0812 333.201C89.1557 333.206 89.2305 333.197 89.3014 333.174C89.3723 333.15 89.4379 333.113 89.4943 333.064C89.5508 333.016 89.597 332.956 89.6302 332.889C89.6635 332.822 89.6833 332.75 89.6882 332.675C89.6932 332.601 89.6834 332.526 89.6594 332.455C89.6353 332.384 89.5975 332.319 89.5481 332.263L84.3563 326.264C83.8972 325.733 83.3006 325.339 82.6322 325.126C81.9638 324.913 81.2495 324.888 80.5678 325.054C79.8862 325.22 79.2636 325.572 78.7686 326.069C78.2737 326.566 77.9255 327.19 77.7624 327.873L60.9199 398.296C60.8859 398.441 60.9109 398.594 60.9892 398.721C61.0675 398.848 61.1929 398.939 61.338 398.974C61.3802 398.984 61.4234 398.989 61.4668 398.989Z" fill="#494949"/>
<path d="M67.6825 348.647C65.635 336.807 71.0536 325.985 79.7852 324.475C88.5168 322.965 97.255 331.339 99.3024 343.179C101.35 355.019 95.9313 365.841 87.1997 367.351C78.468 368.861 69.7299 360.487 67.6825 348.647Z" fill="#0A645E"/>
<path d="M56.9097 400.829C56.933 400.829 56.9562 400.827 56.9792 400.825C57.0529 400.816 57.1241 400.792 57.1887 400.756C57.2533 400.719 57.3101 400.67 57.3558 400.612C57.4015 400.553 57.4352 400.486 57.4551 400.415C57.4749 400.343 57.4804 400.268 57.4713 400.195L46.7162 312.871C46.5989 311.92 46.2095 311.023 45.5946 310.288C44.9798 309.552 44.1656 309.01 43.2501 308.727C42.3346 308.443 41.3566 308.43 40.4338 308.689C39.511 308.948 38.6825 309.468 38.048 310.186L25.7549 324.109C25.6557 324.221 25.6053 324.369 25.6146 324.518C25.6239 324.668 25.6923 324.808 25.8047 324.907C25.9171 325.006 26.0643 325.056 26.2139 325.047C26.3635 325.038 26.5032 324.969 26.6024 324.857L38.8955 310.934C39.3858 310.379 40.0261 309.977 40.7393 309.777C41.4525 309.577 42.2083 309.587 42.9159 309.806C43.6235 310.025 44.2528 310.444 44.728 311.012C45.2032 311.581 45.5041 312.274 45.5946 313.009L56.3493 400.333C56.3661 400.469 56.4323 400.595 56.5356 400.687C56.6388 400.778 56.7719 400.829 56.9097 400.829Z" fill="#494949"/>
<path d="M13.1463 331.846C8.85725 324.092 13.9037 313.091 24.418 307.275C34.9322 301.459 46.9327 303.03 51.2218 310.784C55.5109 318.538 50.4644 329.539 39.9502 335.355C29.4359 341.171 17.4354 339.6 13.1463 331.846Z" fill="#0A645E"/>
<path opacity="0.2" d="M12.6767 383.238C5.72865 377.738 6.14156 365.642 13.5989 356.221C21.0563 346.8 32.7342 343.621 39.6822 349.12C46.6302 354.62 46.2173 366.716 38.7599 376.137C31.3026 385.558 19.6247 388.738 12.6767 383.238Z" fill="white"/>
<path opacity="0.5" d="M67.6825 348.647C65.635 336.807 71.0536 325.985 79.7852 324.475C88.5168 322.965 97.255 331.339 99.3024 343.179C101.35 355.019 95.9313 365.841 87.1997 367.351C78.468 368.861 69.7299 360.487 67.6825 348.647Z" fill="white"/>
<path opacity="0.5" d="M13.1463 331.846C8.85725 324.092 13.9037 313.091 24.418 307.275C34.9322 301.459 46.9327 303.03 51.2218 310.784C55.5109 318.538 50.4644 329.539 39.9502 335.355C29.4359 341.171 17.4354 339.6 13.1463 331.846Z" fill="white"/>
<path d="M43.1544 474.922H70.6672L75.2267 386.895H38.5954L43.1544 474.922Z" fill="#FF730E"/>
<path opacity="0.3" d="M43.1544 474.922H70.6672L75.2267 386.895H38.5954L43.1544 474.922Z" fill="white"/>
<path d="M12.6756 383.519C12.7183 383.519 12.7603 383.509 12.7987 383.491C12.837 383.472 12.8707 383.445 12.8971 383.411L39.9037 349.294C39.9502 349.235 39.9715 349.16 39.9629 349.086C39.9543 349.012 39.9164 348.944 39.8577 348.897C39.7989 348.85 39.7241 348.829 39.6497 348.838C39.5752 348.846 39.5073 348.884 39.4607 348.943L12.4541 383.061C12.4211 383.102 12.4005 383.152 12.3946 383.205C12.3887 383.258 12.3979 383.311 12.421 383.359C12.4441 383.407 12.4803 383.448 12.5254 383.476C12.5704 383.504 12.6225 383.519 12.6756 383.519Z" fill="white"/>
<path d="M14.9428 334.582C15.0029 334.582 15.0613 334.562 15.1094 334.526L49.6677 309.292C49.7283 309.248 49.7688 309.181 49.7803 309.107C49.7919 309.033 49.7735 308.958 49.7293 308.897C49.6851 308.837 49.6186 308.796 49.5446 308.785C49.4705 308.773 49.3949 308.791 49.3344 308.836L14.7761 334.07C14.7286 334.105 14.6936 334.155 14.6759 334.212C14.6583 334.268 14.6588 334.329 14.6776 334.385C14.6963 334.441 14.7323 334.49 14.7804 334.525C14.8285 334.56 14.8863 334.578 14.9456 334.578L14.9428 334.582Z" fill="white"/>
<path d="M88.6039 366.982C88.6286 366.982 88.6531 366.979 88.6768 366.972C88.7491 366.953 88.8107 366.906 88.8482 366.841C88.8857 366.776 88.896 366.699 88.8768 366.627L77.8759 325.409C77.855 325.339 77.8074 325.279 77.7433 325.243C77.6791 325.207 77.6035 325.198 77.5324 325.217C77.4613 325.235 77.4004 325.281 77.3627 325.344C77.3249 325.408 77.3132 325.483 77.3301 325.554L88.331 366.772C88.347 366.832 88.3824 366.886 88.4318 366.924C88.4811 366.962 88.5416 366.982 88.6039 366.982Z" fill="white"/>
<path d="M29.872 475.717H425.605C425.709 475.717 425.81 475.675 425.884 475.601C425.958 475.527 426 475.426 426 475.321C426 475.216 425.958 475.116 425.884 475.042C425.81 474.967 425.709 474.926 425.605 474.926H29.8731C29.7682 474.926 29.6676 474.967 29.5934 475.042C29.5193 475.116 29.4776 475.216 29.4776 475.321C29.4776 475.426 29.5193 475.527 29.5934 475.601C29.6676 475.675 29.7682 475.717 29.8731 475.717H29.872Z" fill="#FF730E"/>
<g opacity="0.65">
<path d="M29.872 475.717H425.605C425.709 475.717 425.81 475.675 425.884 475.601C425.958 475.527 426 475.426 426 475.321C426 475.216 425.958 475.116 425.884 475.042C425.81 474.967 425.709 474.926 425.605 474.926H29.8731C29.7682 474.926 29.6676 474.967 29.5934 475.042C29.5193 475.116 29.4776 475.216 29.4776 475.321C29.4776 475.426 29.5193 475.527 29.5934 475.601C29.6676 475.675 29.7682 475.717 29.8731 475.717H29.872Z" fill="#FF730E"/>
</g>
</svg>
