<svg width="112" height="85" viewBox="0 0 112 85" fill="none" xmlns="http://www.w3.org/2000/svg">
<path d="M112 49.9044C112 51.374 111.42 52.7834 110.387 53.8226C109.354 54.8618 107.953 55.4456 106.492 55.4456H102.82V59.1398C102.82 60.6094 102.239 62.0188 101.206 63.058C100.173 64.0972 98.7725 64.681 97.3116 64.681C95.8508 64.681 94.4497 64.0972 93.4168 63.058C92.3838 62.0188 91.8035 60.6094 91.8035 59.1398V55.4456H88.1314C86.6705 55.4456 85.2695 54.8618 84.2365 53.8226C83.2036 52.7834 82.6232 51.374 82.6232 49.9044C82.6232 48.4347 83.2036 47.0253 84.2365 45.9861C85.2695 44.9469 86.6705 44.3631 88.1314 44.3631H91.8035V40.6689C91.8035 39.1993 92.3838 37.7899 93.4168 36.7507C94.4497 35.7115 95.8508 35.1277 97.3116 35.1277C98.7725 35.1277 100.173 35.7115 101.206 36.7507C102.239 37.7899 102.82 39.1993 102.82 40.6689V44.3631H106.492C107.953 44.3631 109.354 44.9469 110.387 45.9861C111.42 47.0253 112 48.4347 112 49.9044ZM86.8416 75.8928C87.7814 77.0183 88.2383 78.4733 88.1117 79.9377C87.9852 81.4021 87.2856 82.7559 86.1668 83.7014C85.048 84.6468 83.6017 85.1065 82.1461 84.9792C80.6905 84.8519 79.3447 84.1481 78.4049 83.0226C72.121 75.4957 61.0497 66.5281 44.0662 66.5281C30.8054 66.5281 18.6094 72.3834 9.72752 83.0226C8.78771 84.1481 7.44196 84.8519 5.98632 84.9792C4.53068 85.1065 3.0844 84.6468 1.96563 83.7014C0.84686 82.7559 0.147254 81.4021 0.0207138 79.9377C-0.105826 78.4733 0.351067 77.0183 1.29088 75.8928C7.27514 68.622 14.9524 62.9512 23.6402 59.3845C18.2378 55.1116 14.2937 49.2508 12.357 42.6176C10.4202 35.9843 10.5871 28.9087 12.8343 22.3754C15.0815 15.842 19.2974 10.1759 24.8951 6.16552C30.4929 2.15514 37.1941 0 44.0662 0C50.9384 0 57.6396 2.15514 63.2373 6.16552C68.8351 10.1759 73.0509 15.842 75.2981 22.3754C77.5454 28.9087 77.7122 35.9843 75.7755 42.6176C73.8387 49.2508 69.8947 55.1116 64.4922 59.3845C73.1808 62.9498 80.8583 68.6208 86.8416 75.8928ZM44.0662 55.4456C48.4238 55.4456 52.6836 54.1457 56.3069 51.7101C59.9301 49.2746 62.7541 45.8129 64.4217 41.7628C66.0893 37.7127 66.5256 33.256 65.6754 28.9564C64.8253 24.6568 62.7269 20.7074 59.6456 17.6076C56.5643 14.5077 52.6385 12.3967 48.3646 11.5415C44.0907 10.6863 39.6606 11.1252 35.6347 12.8028C31.6088 14.4804 28.1678 17.3214 25.7468 20.9664C23.3258 24.6114 22.0336 28.8968 22.0336 33.2806C22.0397 39.1573 24.3629 44.7915 28.4935 48.9469C32.6241 53.1023 38.2247 55.4395 44.0662 55.4456Z" fill="#FDFDFD"/>
</svg>
