<svg width="131" height="120" viewBox="0 0 131 120" fill="none" xmlns="http://www.w3.org/2000/svg">
<path id="Vector" d="M120 65.4545H10.9091C8.01582 65.4545 5.24105 66.6039 3.1952 68.6497C1.14935 70.6956 0 73.4704 0 76.3636V109.091C0 111.984 1.14935 114.759 3.1952 116.805C5.24105 118.851 8.01582 120 10.9091 120H120C122.893 120 125.668 118.851 127.714 116.805C129.76 114.759 130.909 111.984 130.909 109.091V76.3636C130.909 73.4704 129.76 70.6956 127.714 68.6497C125.668 66.6039 122.893 65.4545 120 65.4545ZM120 109.091H10.9091V76.3636H120V109.091ZM120 0H10.9091C8.01582 0 5.24105 1.14935 3.1952 3.1952C1.14935 5.24105 0 8.01582 0 10.9091V43.6364C0 46.5296 1.14935 49.3044 3.1952 51.3503C5.24105 53.3961 8.01582 54.5455 10.9091 54.5455H120C122.893 54.5455 125.668 53.3961 127.714 51.3503C129.76 49.3044 130.909 46.5296 130.909 43.6364V10.9091C130.909 8.01582 129.76 5.24105 127.714 3.1952C125.668 1.14935 122.893 0 120 0ZM120 43.6364H10.9091V10.9091H120V43.6364ZM109.091 27.2727C109.091 28.8909 108.611 30.4728 107.712 31.8183C106.813 33.1638 105.535 34.2125 104.04 34.8317C102.545 35.451 100.9 35.613 99.3129 35.2973C97.7258 34.9816 96.2679 34.2024 95.1237 33.0581C93.9794 31.9139 93.2002 30.456 92.8845 28.8689C92.5688 27.2818 92.7308 25.6367 93.3501 24.1417C93.9693 22.6466 95.018 21.3688 96.3635 20.4698C97.709 19.5708 99.2909 19.0909 100.909 19.0909C103.079 19.0909 105.16 19.9529 106.695 21.4873C108.229 23.0217 109.091 25.1028 109.091 27.2727ZM109.091 92.7273C109.091 94.3455 108.611 95.9274 107.712 97.2728C106.813 98.6183 105.535 99.667 104.04 100.286C102.545 100.906 100.9 101.068 99.3129 100.752C97.7258 100.436 96.2679 99.6569 95.1237 98.5127C93.9794 97.3684 93.2002 95.9106 92.8845 94.3235C92.5688 92.7364 92.7308 91.0913 93.3501 89.5962C93.9693 88.1012 95.018 86.8234 96.3635 85.9243C97.709 85.0253 99.2909 84.5455 100.909 84.5455C103.079 84.5455 105.16 85.4075 106.695 86.9418C108.229 88.4762 109.091 90.5573 109.091 92.7273Z" fill="#FDFDFD"/>
</svg>
