<svg width="120" height="120" viewBox="0 0 120 120" fill="none" xmlns="http://www.w3.org/2000/svg">
<path id="Vector" d="M60 0C48.1331 0 36.5328 3.51894 26.6658 10.1118C16.7989 16.7047 9.10851 26.0754 4.56725 37.039C0.0259972 48.0025 -1.1622 60.0665 1.15291 71.7054C3.46802 83.3443 9.18247 94.0352 17.5736 102.426C25.9648 110.818 36.6557 116.532 48.2946 118.847C59.9335 121.162 71.9975 119.974 82.961 115.433C93.9246 110.891 103.295 103.201 109.888 93.3342C116.481 83.4672 120 71.8669 120 60C119.983 44.0922 113.656 28.8407 102.408 17.5921C91.1593 6.3436 75.9078 0.016799 60 0ZM28.8923 100.096C32.2312 94.8743 36.8308 90.577 42.2673 87.6003C47.7037 84.6236 53.802 83.0634 60 83.0634C66.198 83.0634 72.2963 84.6236 77.7328 87.6003C83.1692 90.577 87.7688 94.8743 91.1077 100.096C82.2135 107.013 71.2675 110.769 60 110.769C48.7326 110.769 37.7865 107.013 28.8923 100.096ZM41.5385 55.3846C41.5385 51.7333 42.6212 48.1639 44.6498 45.1279C46.6784 42.0919 49.5617 39.7257 52.9351 38.3284C56.3085 36.9311 60.0205 36.5655 63.6017 37.2778C67.1829 37.9901 70.4724 39.7484 73.0543 42.3303C75.6362 44.9122 77.3945 48.2017 78.1068 51.7829C78.8192 55.3641 78.4536 59.0761 77.0563 62.4495C75.6589 65.8229 73.2927 68.7062 70.2567 70.7348C67.2207 72.7634 63.6514 73.8461 60 73.8461C55.1037 73.8461 50.4079 71.9011 46.9457 68.4389C43.4835 64.9767 41.5385 60.2809 41.5385 55.3846ZM97.9385 93.6981C92.791 86.2389 85.553 80.4682 77.1346 77.1115C81.6566 73.5499 84.9564 68.6676 86.575 63.1436C88.1936 57.6197 88.0506 51.7286 86.1658 46.2897C84.2811 40.8508 80.7484 36.1343 76.0589 32.7963C71.3694 29.4582 65.7562 27.6645 60 27.6645C54.2438 27.6645 48.6306 29.4582 43.9411 32.7963C39.2516 36.1343 35.7189 40.8508 33.8342 46.2897C31.9495 51.7286 31.8064 57.6197 33.425 63.1436C35.0436 68.6676 38.3434 73.5499 42.8654 77.1115C34.447 80.4682 27.209 86.2389 22.0616 93.6981C15.5571 86.3836 11.3058 77.3449 9.81952 67.6702C8.33321 57.9955 9.67529 48.0974 13.6842 39.1679C17.693 30.2383 24.1977 22.6579 32.415 17.3396C40.6323 12.0213 50.2118 9.1918 60 9.1918C69.7882 9.1918 79.3677 12.0213 87.585 17.3396C95.8023 22.6579 102.307 30.2383 106.316 39.1679C110.325 48.0974 111.667 57.9955 110.181 67.6702C108.694 77.3449 104.443 86.3836 97.9385 93.6981Z" fill="#FDFDFD"/>
</svg>
