<svg width="139" height="120" viewBox="0 0 139 120" fill="none" xmlns="http://www.w3.org/2000/svg">
<path id="Vector" d="M133.839 110.77H124.609V46.1575C124.609 43.7095 123.637 41.3617 121.906 39.6307C120.175 37.8997 117.827 36.9272 115.379 36.9272H78.4576V9.23631C78.4587 7.56483 78.0059 5.92444 77.1475 4.4902C76.2892 3.05596 75.0575 1.88172 73.5839 1.09281C72.1103 0.303901 70.4501 -0.0700699 68.7806 0.010816C67.1111 0.0917019 65.4949 0.624408 64.1045 1.55208L17.9529 32.3121C16.6869 33.1568 15.6494 34.3014 14.9327 35.6441C14.2161 36.9868 13.8426 38.4859 13.8455 40.0078V110.77H4.61515C3.39114 110.77 2.21726 111.256 1.35175 112.121C0.486238 112.987 0 114.161 0 115.385C0 116.609 0.486238 117.783 1.35175 118.648C2.21726 119.514 3.39114 120 4.61515 120H133.839C135.063 120 136.237 119.514 137.103 118.648C137.968 117.783 138.455 116.609 138.455 115.385C138.455 114.161 137.968 112.987 137.103 112.121C136.237 111.256 135.063 110.77 133.839 110.77ZM115.379 46.1575V110.77H78.4576V46.1575H115.379ZM23.0758 40.0078L69.2273 9.23631V110.77H23.0758V40.0078ZM59.997 55.3878V64.6181C59.997 65.8422 59.5108 67.0161 58.6453 67.8816C57.7797 68.7471 56.6059 69.2333 55.3818 69.2333C54.1578 69.2333 52.9839 68.7471 52.1184 67.8816C51.2529 67.0161 50.7667 65.8422 50.7667 64.6181V55.3878C50.7667 54.1638 51.2529 52.9899 52.1184 52.1244C52.9839 51.2589 54.1578 50.7727 55.3818 50.7727C56.6059 50.7727 57.7797 51.2589 58.6453 52.1244C59.5108 52.9899 59.997 54.1638 59.997 55.3878ZM41.5364 55.3878V64.6181C41.5364 65.8422 41.0501 67.0161 40.1846 67.8816C39.3191 68.7471 38.1452 69.2333 36.9212 69.2333C35.6972 69.2333 34.5233 68.7471 33.6578 67.8816C32.7923 67.0161 32.3061 65.8422 32.3061 64.6181V55.3878C32.3061 54.1638 32.7923 52.9899 33.6578 52.1244C34.5233 51.2589 35.6972 50.7727 36.9212 50.7727C38.1452 50.7727 39.3191 51.2589 40.1846 52.1244C41.0501 52.9899 41.5364 54.1638 41.5364 55.3878ZM41.5364 87.6939V96.9242C41.5364 98.1482 41.0501 99.3221 40.1846 100.188C39.3191 101.053 38.1452 101.539 36.9212 101.539C35.6972 101.539 34.5233 101.053 33.6578 100.188C32.7923 99.3221 32.3061 98.1482 32.3061 96.9242V87.6939C32.3061 86.4699 32.7923 85.296 33.6578 84.4305C34.5233 83.565 35.6972 83.0788 36.9212 83.0788C38.1452 83.0788 39.3191 83.565 40.1846 84.4305C41.0501 85.296 41.5364 86.4699 41.5364 87.6939ZM59.997 87.6939V96.9242C59.997 98.1482 59.5108 99.3221 58.6453 100.188C57.7797 101.053 56.6059 101.539 55.3818 101.539C54.1578 101.539 52.9839 101.053 52.1184 100.188C51.2529 99.3221 50.7667 98.1482 50.7667 96.9242V87.6939C50.7667 86.4699 51.2529 85.296 52.1184 84.4305C52.9839 83.565 54.1578 83.0788 55.3818 83.0788C56.6059 83.0788 57.7797 83.565 58.6453 84.4305C59.5108 85.296 59.997 86.4699 59.997 87.6939Z" fill="#FAFBFF"/>
</svg>
