<svg width="130" height="120" viewBox="0 0 130 120" fill="none" xmlns="http://www.w3.org/2000/svg">
<path id="Vector" d="M64.6121 32.3129C59.1363 32.3129 53.7833 33.9367 49.2303 36.979C44.6773 40.0212 41.1286 44.3453 39.0331 49.4043C36.9375 54.4634 36.3893 60.0302 37.4576 65.4009C38.5258 70.7716 41.1627 75.7049 45.0348 79.5769C48.9068 83.4489 53.8401 86.0858 59.2108 87.1541C64.5814 88.2224 70.1483 87.6741 75.2074 85.5786C80.2664 83.4831 84.5905 79.9344 87.6327 75.3814C90.6749 70.8283 92.2987 65.4754 92.2987 59.9995C92.2911 52.6589 89.3717 45.6212 84.1811 40.4306C78.9905 35.24 71.9527 32.3206 64.6121 32.3129ZM64.6121 78.4573C60.9616 78.4573 57.3929 77.3747 54.3576 75.3466C51.3222 73.3184 48.9565 70.4357 47.5594 67.063C46.1624 63.6903 45.7969 59.979 46.5091 56.3986C47.2213 52.8181 48.9792 49.5293 51.5606 46.9479C54.1419 44.3666 57.4308 42.6087 61.0112 41.8965C64.5917 41.1843 68.3029 41.5498 71.6756 42.9468C75.0483 44.3438 77.931 46.7096 79.9592 49.745C81.9874 52.7803 83.0699 56.3489 83.0699 59.9995C83.0699 64.8948 81.1252 69.5896 77.6637 73.0511C74.2022 76.5126 69.5074 78.4573 64.6121 78.4573ZM128.026 48.0078C127.897 47.358 127.631 46.7435 127.243 46.206C126.856 45.6685 126.358 45.2207 125.782 44.893L108.576 35.0874L108.507 15.6952C108.505 15.0273 108.358 14.3679 108.076 13.7624C107.794 13.1569 107.384 12.6198 106.875 12.1882C100.633 6.90874 93.4457 2.86285 85.6943 0.2657C85.0839 0.0590882 84.437 -0.0173735 83.7952 0.04124C83.1535 0.0998535 82.5311 0.292242 81.9682 0.606015L64.6121 10.3079L47.2388 0.58871C46.6756 0.273171 46.0524 0.0793292 45.4096 0.0197152C44.7667 -0.0398987 44.1185 0.0360417 43.5069 0.242628C35.7613 2.85877 28.582 6.92008 22.3497 12.2113C21.8408 12.6423 21.4313 13.1784 21.1495 13.7829C20.8677 14.3873 20.7203 15.0456 20.7174 15.7125L20.6308 35.122L3.42479 44.9276C2.84915 45.2553 2.35081 45.7032 1.96364 46.2406C1.57647 46.7781 1.30955 47.3926 1.18102 48.0424C-0.393674 55.9555 -0.393674 64.1013 1.18102 72.0144C1.30955 72.6641 1.57647 73.2787 1.96364 73.8161C2.35081 74.3536 2.84915 74.8014 3.42479 75.1291L20.6308 84.9348L20.7001 104.327C20.7022 104.995 20.8492 105.654 21.131 106.26C21.4129 106.865 21.8228 107.402 22.3324 107.834C28.5739 113.113 35.7613 117.159 43.5127 119.756C44.1231 119.963 44.77 120.039 45.4118 119.981C46.0535 119.922 46.6759 119.73 47.2388 119.416L64.6121 109.691L81.9855 119.41C82.673 119.793 83.448 119.992 84.235 119.987C84.739 119.987 85.2396 119.905 85.7174 119.745C93.4622 117.132 100.641 113.075 106.875 107.788C107.384 107.357 107.793 106.821 108.075 106.216C108.357 105.612 108.504 104.953 108.507 104.287L108.593 84.8771L125.8 75.0714C126.375 74.7437 126.873 74.2959 127.261 73.7584C127.648 73.221 127.915 72.6065 128.043 71.9567C129.609 64.0499 129.603 55.9122 128.026 48.0078ZM119.374 68.144L102.895 77.5171C102.173 77.9276 101.575 78.5254 101.164 79.2475C100.83 79.8243 100.478 80.4357 100.12 81.0125C99.6624 81.7399 99.4186 82.5814 99.4165 83.4408L99.33 102.043C94.9005 105.521 89.9658 108.303 84.6965 110.291L68.073 101.028C67.3829 100.646 66.6064 100.447 65.8177 100.451H65.7081C65.0101 100.451 64.3064 100.451 63.6085 100.451C62.783 100.43 61.9669 100.629 61.2436 101.028L44.6086 110.314C39.328 108.341 34.3797 105.573 29.9347 102.106L29.8712 83.5331C29.8684 82.672 29.6246 81.8288 29.1676 81.099C28.8099 80.5222 28.4581 79.9454 28.1293 79.334C27.7216 78.6008 27.1239 77.9911 26.3989 77.569L9.9023 68.1728C9.04862 62.7729 9.04862 57.2723 9.9023 51.8724L26.3527 42.482C27.0748 42.0714 27.6726 41.4736 28.0832 40.7516C28.4177 40.1748 28.7696 39.5634 29.1272 38.9866C29.5849 38.2592 29.8288 37.4176 29.8309 36.5582L29.9174 17.9563C34.3468 14.4778 39.2816 11.6963 44.5509 9.70798L61.1513 18.9715C61.8738 19.3719 62.6905 19.5711 63.5162 19.5483C64.2141 19.5483 64.9179 19.5483 65.6158 19.5483C66.4413 19.5689 67.2574 19.3698 67.9807 18.9715L84.6157 9.68491C89.8963 11.658 94.8446 14.4259 99.2896 17.8928L99.3531 36.4659C99.3559 37.3271 99.5997 38.1702 100.057 38.9C100.414 39.4768 100.766 40.0536 101.095 40.6651C101.503 41.3982 102.1 42.008 102.825 42.4301L119.322 51.8262C120.187 57.2303 120.197 62.7369 119.351 68.144H119.374Z" fill="#FDFDFD"/>
</svg>
