<svg width="32" height="32" viewBox="0 0 32 32" fill="none" xmlns="http://www.w3.org/2000/svg">
<g clip-path="url(#clip0_2572_61683)">
<path d="M16 24C16.4238 25.1437 17.7088 26 19 26C19.7956 26 20.5587 25.6839 21.1213 25.1213C21.6839 24.5587 22 23.7956 22 23C22 22.2044 21.6839 21.4413 21.1213 20.8787C20.5587 20.3161 19.7956 20 19 20H5" stroke="#FF730E" stroke-width="2" stroke-linecap="round" stroke-linejoin="round"/>
<path d="M12 8C12.4238 6.85625 13.7088 6 15 6C15.7956 6 16.5587 6.31607 17.1213 6.87868C17.6839 7.44129 18 8.20435 18 9C18 9.79565 17.6839 10.5587 17.1213 11.1213C16.5587 11.6839 15.7956 12 15 12H3" stroke="#FF730E" stroke-width="2" stroke-linecap="round" stroke-linejoin="round"/>
<path d="M23 12C23.4238 10.8563 24.7088 10 26 10C26.7956 10 27.5587 10.3161 28.1213 10.8787C28.6839 11.4413 29 12.2044 29 13C29 13.7956 28.6839 14.5587 28.1213 15.1213C27.5587 15.6839 26.7956 16 26 16H4" stroke="#FF730E" stroke-width="2" stroke-linecap="round" stroke-linejoin="round"/>
</g>
<defs>
<clipPath id="clip0_2572_61683">
<rect width="32" height="32" fill="white"/>
</clipPath>
</defs>
</svg>
