<svg width="309" height="200" viewBox="0 0 309 200" fill="none" xmlns="http://www.w3.org/2000/svg">
<g clip-path="url(#clip0_2660_16730)">
<path d="M280.98 199.408L272.182 172.821C272.182 172.821 281.859 182.512 281.859 190.463L280.122 172.076C280.122 172.076 285.085 178.785 284.589 188.972C284.093 199.16 280.98 199.408 280.98 199.408Z" fill="#E6E6E6"/>
<path d="M92.0362 175.199L83.4492 149.251C83.4492 149.251 92.8943 158.709 92.8943 166.469L91.199 148.524C91.199 148.524 96.0427 155.071 95.5583 165.014C95.0739 174.957 92.0362 175.199 92.0362 175.199Z" fill="#E6E6E6"/>
<path d="M226.062 187.174C226.077 204.243 192.267 198.992 150.877 199.028C109.486 199.064 76.1885 204.372 76.1738 187.303C76.1591 170.234 109.956 166.492 151.347 166.457C192.737 166.421 226.047 170.104 226.062 187.174Z" fill="#E6E6E6"/>
<path d="M308.057 199.018H0V199.799H308.057V199.018Z" fill="#3F3D56"/>
<path d="M197.053 164.121H191.642L189.066 143.221H197.053V164.121Z" fill="#A0616A"/>
<path d="M187.177 162.573H198.214V169.153H181.207V168.551C181.207 166.965 181.836 165.445 182.956 164.324C184.075 163.203 185.593 162.573 187.177 162.573Z" fill="#2F2E41"/>
<path d="M236.828 194.968H231.417L228.842 174.069H236.828V194.968Z" fill="#A0616A"/>
<path d="M226.95 193.42H237.987V200H220.98V199.398C220.98 197.813 221.609 196.292 222.729 195.171C223.849 194.05 225.367 193.42 226.95 193.42Z" fill="#2F2E41"/>
<path d="M261.788 132.879C262.162 132.425 262.432 131.894 262.579 131.324C262.726 130.754 262.747 130.158 262.639 129.579C262.531 129 262.298 128.452 261.956 127.973C261.614 127.494 261.171 127.096 260.658 126.807L248.091 75.5416L240.055 79.0037L255.003 128.573C254.576 129.467 254.49 130.487 254.763 131.44C255.036 132.393 255.649 133.213 256.485 133.743C257.322 134.274 258.323 134.479 259.301 134.32C260.278 134.161 261.163 133.648 261.788 132.879Z" fill="#A0616A"/>
<path d="M251.986 29.2704C251.537 28.8009 250.991 28.4356 250.387 28.2002C249.782 27.9648 249.133 27.865 248.485 27.9079C247.838 27.9508 247.208 28.1353 246.639 28.4485C246.071 28.7616 245.578 29.1958 245.195 29.7204L225.742 31.9567L228.701 39.4698L246.392 36.1544C247.315 36.74 248.42 36.9663 249.499 36.7904C250.577 36.6145 251.553 36.0487 252.243 35.2002C252.932 34.3516 253.287 33.2793 253.239 32.1864C253.192 31.0935 252.746 30.056 251.986 29.2704Z" fill="#A0616A"/>
<path d="M219.93 127.563L228.418 191.355L238.983 189.177C238.983 189.177 237.429 142.718 242.712 137.118C247.994 131.517 235.917 121.706 235.917 121.706L219.93 127.563Z" fill="#2F2E41"/>
<path d="M223.439 109.992L219.539 115.849C219.539 115.849 189.513 103.354 189.513 123.268C189.513 143.181 187.795 156.695 187.174 157.629C186.552 158.562 194.363 160.984 198.092 160.362C198.092 160.362 202.692 128.258 202.382 126.391C202.382 126.391 231.836 140.852 237.429 139.607C243.022 138.362 244.343 133.956 245.276 131.467C246.208 128.978 244.886 109.211 244.886 109.211L226.242 103.514L223.439 109.992Z" fill="#2F2E41"/>
<path d="M223.964 74.8265L222.853 73.491C222.853 73.491 210.404 45.4445 215.295 37.8764C220.185 30.3083 241.525 29.1953 242.192 29.6405C242.859 30.0857 240.599 35.8656 242.155 38.5367C242.155 38.5367 225.624 42.1256 224.513 42.5708C223.401 43.016 233.078 59.4677 233.078 59.4677L231.967 69.4843L223.964 74.8265Z" fill="#CCCCCC"/>
<path d="M245.749 61.0257C245.749 61.0257 234.19 62.3612 233.745 62.3612C233.3 62.3612 233.078 59.4675 233.078 59.4675L222.853 73.4908C222.853 73.4908 217.815 114.174 219.149 113.506C220.482 112.838 245.082 116.673 245.304 114.893C245.527 113.112 245.082 104.208 245.749 103.763C246.416 103.318 257.308 75.7167 257.308 75.7167C257.308 75.7167 256.197 69.9293 252.418 67.926C248.639 65.9227 245.749 61.0257 245.749 61.0257Z" fill="#CCCCCC"/>
<path d="M253.752 71.9324L257.309 75.7164C257.309 75.7164 262.593 119.199 259.704 120.534C256.814 121.87 251.125 121.706 251.125 121.706L245.527 101.092L253.752 71.9324Z" fill="#CCCCCC"/>
<path d="M234.642 58.2721C240.293 58.2721 244.874 53.6851 244.874 48.0267C244.874 42.3684 240.293 37.7814 234.642 37.7814C228.991 37.7814 224.41 42.3684 224.41 48.0267C224.41 53.6851 228.991 58.2721 234.642 58.2721Z" fill="#A0616A"/>
<path d="M232.241 49.6247C232.103 47.4988 229.425 47.4259 227.297 47.4058C225.17 47.3857 222.626 47.4617 221.423 45.7052C220.627 44.5443 220.779 42.9327 221.436 41.6881C222.093 40.4435 223.174 39.4863 224.238 38.5654C226.984 36.1879 229.814 33.8293 233.11 32.3076C236.407 30.7858 240.27 30.1709 243.688 31.3925C247.888 32.8931 253.566 40.6176 254.056 45.0556C254.546 49.4936 252.775 54.0178 249.789 57.3342C246.803 60.6505 239.969 59.3124 235.669 60.4922C238.283 56.7869 236.56 50.0541 232.372 48.3237L232.241 49.6247Z" fill="#2F2E41"/>
<path d="M141.053 182.15C154.618 182.15 165.615 171.138 165.615 157.555C165.615 143.971 154.618 132.96 141.053 132.96C127.487 132.96 116.49 143.971 116.49 157.555C116.49 171.138 127.487 182.15 141.053 182.15Z" fill="#FF730E"/>
<path d="M124.649 131.212C121.245 131.212 117.914 130.224 115.059 128.368C112.203 126.512 109.947 123.867 108.562 120.753L69.5859 32.8622C68.2948 29.9508 67.612 26.8058 67.5794 23.6204C67.5468 20.4351 68.1651 17.2767 69.3963 14.3394C70.6275 11.4022 72.4457 8.74806 74.739 6.54027C77.0323 4.33247 79.7522 2.61764 82.7317 1.50116C85.7112 0.384685 88.8872 -0.109844 92.0646 0.047977C95.242 0.205798 98.3535 1.01263 101.208 2.41888C104.063 3.82514 106.6 5.8011 108.664 8.22531C110.727 10.6495 112.274 13.4708 113.209 16.5156L141.432 108.436C142.24 111.067 142.421 113.851 141.959 116.565C141.498 119.279 140.407 121.846 138.775 124.061C137.143 126.276 135.015 128.077 132.561 129.319C130.108 130.561 127.398 131.209 124.649 131.212Z" fill="#FF730E"/>
</g>
<defs>
<clipPath id="clip0_2660_16730">
<rect width="308.057" height="200" fill="white"/>
</clipPath>
</defs>
</svg>
