<svg width="288" height="400" viewBox="0 0 288 400" fill="none" xmlns="http://www.w3.org/2000/svg">
<g clip-path="url(#clip0_1660_110734)">
<path d="M44.9116 89.1708C69.5354 89.1708 89.497 69.2092 89.497 44.5854C89.497 19.9616 69.5354 0 44.9116 0C20.2877 0 0.326172 19.9616 0.326172 44.5854C0.326172 69.2092 20.2877 89.1708 44.9116 89.1708Z" fill="#FF730E"/>
<path d="M174.697 100.16L176.552 92.064C176.235 91.2222 176.574 90.2569 177.388 89.8198C178.823 87.4383 180.949 86.3245 183.732 86.4148C184.476 86.0156 185.368 86.1911 185.919 86.7793C187.238 85.0381 189.105 84.107 191.413 83.8299C191.228 83.0457 191.575 82.2049 192.318 81.8057C193.781 79.5802 196.023 78.6323 198.662 78.4007C199.549 77.9246 200.654 78.2576 201.13 79.1445L201.486 79.8084L207.909 82.5371L207.353 83.4973L202.015 80.8306C203.202 83.4126 202.195 86.5044 199.657 87.8667C197.019 89.2831 193.732 88.2923 192.315 85.6537L191.674 84.4593L186.299 87.3444L186.941 88.5388C188.357 91.1774 187.366 94.4645 184.727 95.8809C182.089 97.2972 178.802 96.3064 177.385 93.6678L177.103 93.1412L176.236 100.2L174.697 100.16Z" fill="#3F3D56"/>
<path d="M151.061 388.251C149.661 388.339 148.887 386.599 149.947 385.585L150.052 385.166C150.038 385.133 150.024 385.099 150.01 385.066C148.594 381.689 143.795 381.712 142.391 385.094C141.145 388.095 139.558 391.102 139.167 394.275C138.992 395.676 139.071 397.103 139.382 398.478C136.462 392.1 134.925 385.135 134.925 378.13C134.925 376.37 135.022 374.61 135.219 372.855C135.381 371.419 135.604 369.992 135.893 368.578C137.456 360.934 140.84 353.654 145.721 347.573C148.067 346.291 150.024 344.285 151.206 341.882C151.631 341.015 151.964 340.083 152.121 339.133C151.854 339.168 151.114 335.101 151.316 334.851C150.944 334.287 150.278 334.006 149.871 333.455C147.85 330.714 145.065 331.193 143.611 334.917C140.505 336.485 140.475 339.084 142.381 341.584C143.593 343.175 143.76 345.327 144.824 347.03C144.714 347.17 144.6 347.306 144.491 347.446C142.484 350.02 140.748 352.787 139.285 355.694C139.698 352.464 139.088 348.572 138.047 346.063C136.862 343.204 134.641 340.797 132.685 338.326C130.336 335.358 125.518 336.653 125.105 340.416C125.101 340.452 125.097 340.489 125.093 340.525C125.383 340.689 125.668 340.863 125.946 341.047C127.532 342.096 126.984 344.554 125.105 344.844L125.062 344.85C125.167 345.896 125.347 346.934 125.609 347.954C123.1 357.657 128.517 361.191 136.252 361.35C136.423 361.438 136.589 361.525 136.76 361.608C135.976 363.815 135.35 366.078 134.886 368.372C134.47 370.399 134.181 372.448 134.019 374.505C133.818 377.101 133.835 379.71 134.054 382.302L134.041 382.21C133.485 379.356 131.935 376.69 129.685 374.842C126.333 372.089 121.597 371.075 117.981 368.861C116.24 367.796 114.009 369.173 114.313 371.191L114.328 371.288C114.866 371.506 115.392 371.76 115.9 372.045C116.19 372.209 116.475 372.383 116.753 372.567C118.338 373.616 117.79 376.074 115.911 376.364L115.869 376.37C115.838 376.375 115.812 376.379 115.781 376.383C116.705 378.577 117.992 380.612 119.603 382.368C121.172 390.838 127.91 391.642 135.118 389.175H135.122C135.91 392.607 137.062 395.961 138.541 399.157H150.755C150.799 399.021 150.839 398.881 150.878 398.745C149.749 398.815 148.61 398.749 147.498 398.544C148.405 397.432 149.311 396.311 150.217 395.199C150.239 395.177 150.256 395.155 150.274 395.133C150.734 394.564 151.198 394 151.657 393.43L151.657 393.43C151.686 391.683 151.476 389.941 151.061 388.251Z" fill="#C5DBF2"/>
<path d="M199.2 110.163L206.591 119.032L202.649 90.4531L201.187 91.184C199.663 91.946 198.69 93.493 198.662 95.1967L199.2 110.163Z" fill="#2F2E41"/>
<path d="M184.324 350.792L189.074 359.844L189.083 359.868L190.66 362.881L193.199 367.716L193.201 367.722L194.268 369.759L195.857 372.787L199.875 371.261L201.073 370.8L201.703 370.562L200.639 367.768L197.828 360.354L192.948 347.516L192.893 347.535L191.694 347.99L186.903 349.812L185.703 350.267L184.324 350.792Z" fill="#FFB6B6"/>
<path d="M186.644 387.101C187.199 388.544 188.812 389.27 190.251 388.723L192.17 387.992L193.37 387.537L198.162 385.721L199.368 385.264L201.874 384.31L202.299 379.406L203.323 381.077L203.326 381.083L204.656 383.251L205.359 382.987L209.04 381.587L202.201 367.281L200.639 367.77L200.068 367.946L198.843 368.328L194.273 369.758L194.267 369.76L193.949 369.86L192.723 370.242L192.215 370.403L193.808 374.588L190.504 379.38L189.602 380.689L186.958 384.524C186.438 385.282 186.318 386.244 186.644 387.101Z" fill="#2F2E41"/>
<path d="M233.268 361.161L234.704 371.282V371.308L235.179 374.675L235.949 380.082V380.088L236.269 382.365L236.75 385.751L241.047 385.662L242.33 385.629L243.004 385.617L242.939 382.628L242.779 374.701L242.49 360.969H242.433L241.15 360.994L236.025 361.103L234.743 361.129L233.268 361.161Z" fill="#FFB6B6"/>
<path d="M223.268 396.141C223.307 397.687 224.583 398.912 226.122 398.88L228.175 398.835L229.457 398.809L234.582 398.707L235.871 398.681L238.552 398.623L240.598 394.147L241.002 396.064V396.071L241.528 398.559L242.279 398.547L246.217 398.463L244.575 382.692L242.939 382.628L242.343 382.602L241.06 382.551L236.275 382.365H236.269L235.935 382.352L234.653 382.3L234.12 382.281L234.216 386.758L229.496 390.164L228.207 391.094L224.429 393.82C223.685 394.358 223.249 395.224 223.268 396.141Z" fill="#2F2E41"/>
<path d="M248.21 228.084L243.633 200.999L253.455 197.047L255.508 226.996C256.428 227.558 257.202 228.382 257.699 229.428C259.061 232.293 257.842 235.72 254.976 237.082C252.111 238.444 248.684 237.225 247.322 234.359C246.303 232.215 246.73 229.757 248.21 228.084Z" fill="#FFB6B6"/>
<path d="M172.431 107.782L154.601 128.678L145.266 123.684L166.912 102.884C166.752 101.818 166.887 100.696 167.37 99.6433C168.693 96.7597 172.103 95.4946 174.987 96.8177C177.87 98.1407 179.135 101.551 177.812 104.434C176.822 106.592 174.664 107.843 172.431 107.782Z" fill="#FFB6B6"/>
<path d="M211.802 118.405C219.956 118.405 226.565 111.796 226.565 103.642C226.565 95.4886 219.956 88.8789 211.802 88.8789C203.649 88.8789 197.039 95.4886 197.039 103.642C197.039 111.796 203.649 118.405 211.802 118.405Z" fill="#FFB6B6"/>
<path d="M191.444 197.291L231.228 192.945L232.706 199.844V201.497L233.555 202.483L233.866 203.72L234.677 203.786C234.677 203.786 234.205 204.622 234.544 205.076C234.805 205.426 235.817 205.305 236.229 205.906C240.408 211.999 251.233 230.565 246.01 253.061L246.749 290.263L246.066 293.189L246.857 295.088L247.422 297.934L248.228 356.784L250.199 363.682L247.242 372.552L229.503 373.537L226.547 362.204L228.025 347.914L223.59 306.031L222.344 304.034L223.059 302L223.699 299.289L222.333 296.487L217.488 259.724C216.226 256.774 215.703 253.561 215.966 250.363L216.077 249.015L215.214 242.466L191.315 281.392L183.337 295.208L184.171 301.103L189.437 334.52L196.893 342.654L198.249 353.499L187.404 360.277L175.204 356.21V348.076L156.598 297.256L177.765 234.582L181.214 231.626L180.721 227.684L183.977 224.429L190.487 209.82L193.477 203.391L191.444 197.291Z" fill="#032E58"/>
<path d="M204.866 119.277H220.547L224.083 130.118L246.257 140.465L241.329 163.625L235.416 183.827L233.674 185.569L234.431 188.755H230.603L231.228 192.943L235.416 199.102L190.35 198.138V188.085L193.876 173.895C189.425 164.101 191.908 158.202 192.521 147.461L188.605 132.582L200.924 131.377L204.866 119.277Z" fill="#0A645E"/>
<path d="M194.654 147.637L198.103 139.26C198.103 139.26 197.61 133.347 187.262 131.869C176.915 130.39 157.269 128.912 157.269 128.912L162.02 123.737L164.054 118.315L154.565 113.57L149.124 116.244L147.109 119.67L147.787 121.026L144.844 122.812C141.181 128.639 142.747 136.318 148.4 140.245L150.598 142.443L153.82 144.187L157.762 143.695L194.654 147.637Z" fill="#0A645E"/>
<path d="M234.678 142.438L243.054 138.988C243.054 138.988 248.967 139.481 250.446 149.829C251.924 160.176 253.402 187.278 253.402 187.278L255.866 192.698V194.213L258.044 198.857L256.735 200.167L260.301 203.045L244.04 208.958L240.541 200.016L242.069 196.147L239.871 193.949L238.127 190.727L238.62 186.785L234.678 142.438Z" fill="#0A645E"/>
<path d="M239.853 133.903H235.813C234.465 132.073 234.228 130.867 234.343 128.63C234.153 130.141 230.94 125.519 231.123 127.268C231.164 127.647 233.123 134.215 233.19 134.581C231.313 136.296 229.137 137.197 226.751 137.509C227.511 135.211 226.738 133.971 224.4 134.174C224.521 135.34 224.366 136.533 223.979 137.638C216.917 137.4 208.39 133.286 199.965 130.06C199.66 127.939 200.033 125.715 201.07 123.838C200.202 125.288 199.355 126.746 198.745 128.318C198.61 128.671 198.487 129.03 198.379 129.389C198.304 129.647 198.237 129.904 198.176 130.155L194.271 130.365C197.586 125.573 196.983 118.856 201.016 115.243C207.434 109.503 202.019 101.145 199.335 93.3575C199.253 91.3377 200.494 89.4941 202.398 88.8095L207.611 86.9388C214.239 84.5598 213.907 83.1974 220.312 87.1354C226.718 85.1698 237.935 95.6282 237.935 103.402C237.935 104.08 238.016 104.738 238.145 105.368C237.393 105.463 236.661 105.707 236.01 106.1C236.898 106.602 237.765 107.144 238.599 107.733C239.25 111.733 239.202 115.813 238.274 119.771C237.23 124.224 239.128 131.782 239.853 133.903Z" fill="#2F2E41"/>
<path d="M288 399C288 399.555 287.405 400 286.664 400H2.33583C1.59498 400 1 399.555 1 399C1 398.445 1.59498 398 2.33583 398H286.664C287.405 398 288 398.445 288 399Z" fill="#CCCCCC"/>
</g>
<defs>
<clipPath id="clip0_1660_110734">
<rect width="287.346" height="400" fill="white" transform="translate(0.326172)"/>
</clipPath>
</defs>
</svg>
